<svg width="158" height="24" viewBox="0 0 158 24" fill="none" xmlns="http://www.w3.org/2000/svg">
<path d="M12.731 10.628C13.651 10.9193 14.3717 11.41 14.893 12.1C15.4143 12.7747 15.675 13.6103 15.675 14.607C15.675 16.0177 15.123 17.1063 14.019 17.873C12.9303 18.6243 11.3357 19 9.235 19H0.909V2.9H8.775C10.7377 2.9 12.2403 3.27567 13.283 4.027C14.341 4.77833 14.87 5.798 14.87 7.086C14.87 7.868 14.6783 8.56567 14.295 9.179C13.927 9.79233 13.4057 10.2753 12.731 10.628ZM4.612 5.706V9.501H8.315C9.235 9.501 9.93267 9.34 10.408 9.018C10.8833 8.696 11.121 8.22067 11.121 7.592C11.121 6.96333 10.8833 6.49567 10.408 6.189C9.93267 5.867 9.235 5.706 8.315 5.706H4.612ZM8.959 16.194C9.94033 16.194 10.6763 16.033 11.167 15.711C11.673 15.389 11.926 14.8907 11.926 14.216C11.926 12.882 10.937 12.215 8.959 12.215H4.612V16.194H8.959ZM24.1309 19.184C22.8276 19.184 21.6546 18.9157 20.6119 18.379C19.5846 17.827 18.7796 17.068 18.1969 16.102C17.6142 15.136 17.3229 14.0397 17.3229 12.813C17.3229 11.5863 17.6142 10.49 18.1969 9.524C18.7796 8.558 19.5846 7.80667 20.6119 7.27C21.6546 6.718 22.8276 6.442 24.1309 6.442C25.4342 6.442 26.5996 6.718 27.6269 7.27C28.6542 7.80667 29.4592 8.558 30.0419 9.524C30.6246 10.49 30.9159 11.5863 30.9159 12.813C30.9159 14.0397 30.6246 15.136 30.0419 16.102C29.4592 17.068 28.6542 17.827 27.6269 18.379C26.5996 18.9157 25.4342 19.184 24.1309 19.184ZM24.1309 16.24C25.0509 16.24 25.8022 15.9333 26.3849 15.32C26.9829 14.6913 27.2819 13.8557 27.2819 12.813C27.2819 11.7703 26.9829 10.9423 26.3849 10.329C25.8022 9.70033 25.0509 9.386 24.1309 9.386C23.2109 9.386 22.4519 9.70033 21.8539 10.329C21.2559 10.9423 20.9569 11.7703 20.9569 12.813C20.9569 13.8557 21.2559 14.6913 21.8539 15.32C22.4519 15.9333 23.2109 16.24 24.1309 16.24ZM39.2022 19.184C37.8989 19.184 36.7259 18.9157 35.6832 18.379C34.6559 17.827 33.8509 17.068 33.2682 16.102C32.6855 15.136 32.3942 14.0397 32.3942 12.813C32.3942 11.5863 32.6855 10.49 33.2682 9.524C33.8509 8.558 34.6559 7.80667 35.6832 7.27C36.7259 6.718 37.8989 6.442 39.2022 6.442C40.5055 6.442 41.6709 6.718 42.6982 7.27C43.7255 7.80667 44.5305 8.558 45.1132 9.524C45.6959 10.49 45.9872 11.5863 45.9872 12.813C45.9872 14.0397 45.6959 15.136 45.1132 16.102C44.5305 17.068 43.7255 17.827 42.6982 18.379C41.6709 18.9157 40.5055 19.184 39.2022 19.184ZM39.2022 16.24C40.1222 16.24 40.8735 15.9333 41.4562 15.32C42.0542 14.6913 42.3532 13.8557 42.3532 12.813C42.3532 11.7703 42.0542 10.9423 41.4562 10.329C40.8735 9.70033 40.1222 9.386 39.2022 9.386C38.2822 9.386 37.5232 9.70033 36.9252 10.329C36.3272 10.9423 36.0282 11.7703 36.0282 12.813C36.0282 13.8557 36.3272 14.6913 36.9252 15.32C37.5232 15.9333 38.2822 16.24 39.2022 16.24ZM53.6985 14.147L51.9735 15.849V19H48.3855V1.934H51.9735V11.594L57.2175 6.626H61.4955L56.3435 11.87L61.9555 19H57.6085L53.6985 14.147ZM63.4792 6.626H67.0672V19H63.4792V6.626ZM65.2732 4.901C64.6139 4.901 64.0772 4.70933 63.6632 4.326C63.2492 3.94267 63.0422 3.46733 63.0422 2.9C63.0422 2.33267 63.2492 1.85733 63.6632 1.474C64.0772 1.09067 64.6139 0.898999 65.2732 0.898999C65.9326 0.898999 66.4692 1.083 66.8832 1.451C67.2972 1.819 67.5042 2.279 67.5042 2.831C67.5042 3.429 67.2972 3.92733 66.8832 4.326C66.4692 4.70933 65.9326 4.901 65.2732 4.901ZM77.9182 6.442C79.4515 6.442 80.6859 6.902 81.6212 7.822C82.5719 8.742 83.0472 10.1067 83.0472 11.916V19H79.4592V12.468C79.4592 11.4867 79.2445 10.7583 78.8152 10.283C78.3859 9.79233 77.7649 9.547 76.9522 9.547C76.0475 9.547 75.3269 9.83067 74.7902 10.398C74.2535 10.95 73.9852 11.778 73.9852 12.882V19H70.3972V6.626H73.8242V8.075C74.2995 7.55367 74.8899 7.155 75.5952 6.879C76.3005 6.58767 77.0749 6.442 77.9182 6.442ZM99.1993 6.626V16.93C99.1993 19.1993 98.609 20.886 97.4283 21.99C96.2477 23.094 94.5227 23.646 92.2533 23.646C91.0573 23.646 89.9227 23.5003 88.8493 23.209C87.776 22.9177 86.8867 22.496 86.1813 21.944L87.6073 19.368C88.1287 19.7973 88.788 20.1347 89.5853 20.38C90.3827 20.6407 91.18 20.771 91.9773 20.771C93.2193 20.771 94.1317 20.4873 94.7143 19.92C95.3123 19.368 95.6113 18.5247 95.6113 17.39V16.861C94.676 17.8883 93.3727 18.402 91.7013 18.402C90.5667 18.402 89.524 18.1567 88.5733 17.666C87.638 17.16 86.8943 16.4547 86.3423 15.55C85.7903 14.6453 85.5143 13.6027 85.5143 12.422C85.5143 11.2413 85.7903 10.1987 86.3423 9.294C86.8943 8.38933 87.638 7.69167 88.5733 7.201C89.524 6.695 90.5667 6.442 91.7013 6.442C93.4953 6.442 94.86 7.03233 95.7953 8.213V6.626H99.1993ZM92.4143 15.458C93.365 15.458 94.1393 15.182 94.7373 14.63C95.3507 14.0627 95.6573 13.3267 95.6573 12.422C95.6573 11.5173 95.3507 10.789 94.7373 10.237C94.1393 9.66967 93.365 9.386 92.4143 9.386C91.4637 9.386 90.6817 9.66967 90.0683 10.237C89.455 10.789 89.1483 11.5173 89.1483 12.422C89.1483 13.3267 89.455 14.0627 90.0683 14.63C90.6817 15.182 91.4637 15.458 92.4143 15.458Z" fill="white"/>
<path d="M103.896 19.184C103.267 19.184 102.738 18.9693 102.309 18.54C101.879 18.1107 101.665 17.574 101.665 16.93C101.665 16.2707 101.879 15.7417 102.309 15.343C102.738 14.929 103.267 14.722 103.896 14.722C104.524 14.722 105.053 14.929 105.483 15.343C105.912 15.7417 106.127 16.2707 106.127 16.93C106.127 17.574 105.912 18.1107 105.483 18.54C105.053 18.9693 104.524 19.184 103.896 19.184ZM114.381 19.184C113.062 19.184 111.874 18.9157 110.816 18.379C109.773 17.827 108.953 17.068 108.355 16.102C107.772 15.136 107.481 14.0397 107.481 12.813C107.481 11.5863 107.772 10.49 108.355 9.524C108.953 8.558 109.773 7.80667 110.816 7.27C111.874 6.718 113.062 6.442 114.381 6.442C115.684 6.442 116.819 6.718 117.785 7.27C118.766 7.80667 119.479 8.581 119.924 9.593L117.141 11.088C116.497 9.95333 115.569 9.386 114.358 9.386C113.423 9.386 112.648 9.69267 112.035 10.306C111.422 10.9193 111.115 11.755 111.115 12.813C111.115 13.871 111.422 14.7067 112.035 15.32C112.648 15.9333 113.423 16.24 114.358 16.24C115.585 16.24 116.512 15.6727 117.141 14.538L119.924 16.056C119.479 17.0373 118.766 17.804 117.785 18.356C116.819 18.908 115.684 19.184 114.381 19.184ZM127.721 19.184C126.417 19.184 125.244 18.9157 124.202 18.379C123.174 17.827 122.369 17.068 121.787 16.102C121.204 15.136 120.913 14.0397 120.913 12.813C120.913 11.5863 121.204 10.49 121.787 9.524C122.369 8.558 123.174 7.80667 124.202 7.27C125.244 6.718 126.417 6.442 127.721 6.442C129.024 6.442 130.189 6.718 131.217 7.27C132.244 7.80667 133.049 8.558 133.632 9.524C134.214 10.49 134.506 11.5863 134.506 12.813C134.506 14.0397 134.214 15.136 133.632 16.102C133.049 17.068 132.244 17.827 131.217 18.379C130.189 18.9157 129.024 19.184 127.721 19.184ZM127.721 16.24C128.641 16.24 129.392 15.9333 129.975 15.32C130.573 14.6913 130.872 13.8557 130.872 12.813C130.872 11.7703 130.573 10.9423 129.975 10.329C129.392 9.70033 128.641 9.386 127.721 9.386C126.801 9.386 126.042 9.70033 125.444 10.329C124.846 10.9423 124.547 11.7703 124.547 12.813C124.547 13.8557 124.846 14.6913 125.444 15.32C126.042 15.9333 126.801 16.24 127.721 16.24ZM152.751 6.442C154.3 6.442 155.526 6.902 156.431 7.822C157.351 8.72667 157.811 10.0913 157.811 11.916V19H154.223V12.468C154.223 11.4867 154.016 10.7583 153.602 10.283C153.203 9.79233 152.628 9.547 151.877 9.547C151.034 9.547 150.367 9.823 149.876 10.375C149.385 10.9117 149.14 11.7167 149.14 12.79V19H145.552V12.468C145.552 10.5207 144.77 9.547 143.206 9.547C142.378 9.547 141.719 9.823 141.228 10.375C140.737 10.9117 140.492 11.7167 140.492 12.79V19H136.904V6.626H140.331V8.052C140.791 7.53067 141.351 7.132 142.01 6.856C142.685 6.58 143.421 6.442 144.218 6.442C145.092 6.442 145.882 6.61833 146.587 6.971C147.292 7.30833 147.86 7.80667 148.289 8.466C148.795 7.822 149.431 7.32367 150.198 6.971C150.98 6.61833 151.831 6.442 152.751 6.442Z" fill="#449EDD"/>
</svg>
