<svg width="158" height="24" viewBox="0 0 158 24" fill="none" xmlns="http://www.w3.org/2000/svg">
<path d="M12.731 10.6282C13.651 10.9196 14.3717 11.4102 14.893 12.1002C15.4143 12.7749 15.675 13.6106 15.675 14.6072C15.675 16.0179 15.123 17.1066 14.019 17.8732C12.9303 18.6246 11.3357 19.0002 9.235 19.0002H0.909V2.90024H8.775C10.7377 2.90024 12.2403 3.27591 13.283 4.02724C14.341 4.77858 14.87 5.79824 14.87 7.08624C14.87 7.86824 14.6783 8.56591 14.295 9.17924C13.927 9.79258 13.4057 10.2756 12.731 10.6282ZM4.612 5.70624V9.50124H8.315C9.235 9.50124 9.93267 9.34024 10.408 9.01824C10.8833 8.69624 11.121 8.22091 11.121 7.59224C11.121 6.96358 10.8833 6.49591 10.408 6.18924C9.93267 5.86724 9.235 5.70624 8.315 5.70624H4.612ZM8.959 16.1942C9.94033 16.1942 10.6763 16.0332 11.167 15.7112C11.673 15.3892 11.926 14.8909 11.926 14.2162C11.926 12.8822 10.937 12.2152 8.959 12.2152H4.612V16.1942H8.959ZM24.1309 19.1842C22.8276 19.1842 21.6546 18.9159 20.6119 18.3792C19.5846 17.8272 18.7796 17.0682 18.1969 16.1022C17.6142 15.1362 17.3229 14.0399 17.3229 12.8132C17.3229 11.5866 17.6142 10.4902 18.1969 9.52424C18.7796 8.55824 19.5846 7.80691 20.6119 7.27024C21.6546 6.71824 22.8276 6.44224 24.1309 6.44224C25.4342 6.44224 26.5996 6.71824 27.6269 7.27024C28.6542 7.80691 29.4592 8.55824 30.0419 9.52424C30.6246 10.4902 30.9159 11.5866 30.9159 12.8132C30.9159 14.0399 30.6246 15.1362 30.0419 16.1022C29.4592 17.0682 28.6542 17.8272 27.6269 18.3792C26.5996 18.9159 25.4342 19.1842 24.1309 19.1842ZM24.1309 16.2402C25.0509 16.2402 25.8022 15.9336 26.3849 15.3202C26.9829 14.6916 27.2819 13.8559 27.2819 12.8132C27.2819 11.7706 26.9829 10.9426 26.3849 10.3292C25.8022 9.70058 25.0509 9.38624 24.1309 9.38624C23.2109 9.38624 22.4519 9.70058 21.8539 10.3292C21.2559 10.9426 20.9569 11.7706 20.9569 12.8132C20.9569 13.8559 21.2559 14.6916 21.8539 15.3202C22.4519 15.9336 23.2109 16.2402 24.1309 16.2402ZM39.2022 19.1842C37.8989 19.1842 36.7259 18.9159 35.6832 18.3792C34.6559 17.8272 33.8509 17.0682 33.2682 16.1022C32.6855 15.1362 32.3942 14.0399 32.3942 12.8132C32.3942 11.5866 32.6855 10.4902 33.2682 9.52424C33.8509 8.55824 34.6559 7.80691 35.6832 7.27024C36.7259 6.71824 37.8989 6.44224 39.2022 6.44224C40.5055 6.44224 41.6709 6.71824 42.6982 7.27024C43.7255 7.80691 44.5305 8.55824 45.1132 9.52424C45.6959 10.4902 45.9872 11.5866 45.9872 12.8132C45.9872 14.0399 45.6959 15.1362 45.1132 16.1022C44.5305 17.0682 43.7255 17.8272 42.6982 18.3792C41.6709 18.9159 40.5055 19.1842 39.2022 19.1842ZM39.2022 16.2402C40.1222 16.2402 40.8735 15.9336 41.4562 15.3202C42.0542 14.6916 42.3532 13.8559 42.3532 12.8132C42.3532 11.7706 42.0542 10.9426 41.4562 10.3292C40.8735 9.70058 40.1222 9.38624 39.2022 9.38624C38.2822 9.38624 37.5232 9.70058 36.9252 10.3292C36.3272 10.9426 36.0282 11.7706 36.0282 12.8132C36.0282 13.8559 36.3272 14.6916 36.9252 15.3202C37.5232 15.9336 38.2822 16.2402 39.2022 16.2402ZM53.6985 14.1472L51.9735 15.8492V19.0002H48.3855V1.93424H51.9735V11.5942L57.2175 6.62624H61.4955L56.3435 11.8702L61.9555 19.0002H57.6085L53.6985 14.1472ZM63.4792 6.62624H67.0672V19.0002H63.4792V6.62624ZM65.2732 4.90124C64.6139 4.90124 64.0772 4.70958 63.6632 4.32624C63.2492 3.94291 63.0422 3.46758 63.0422 2.90024C63.0422 2.33291 63.2492 1.85758 63.6632 1.47424C64.0772 1.09091 64.6139 0.899243 65.2732 0.899243C65.9326 0.899243 66.4692 1.08324 66.8832 1.45124C67.2972 1.81924 67.5042 2.27924 67.5042 2.83124C67.5042 3.42924 67.2972 3.92758 66.8832 4.32624C66.4692 4.70958 65.9326 4.90124 65.2732 4.90124ZM77.9182 6.44224C79.4515 6.44224 80.6859 6.90224 81.6212 7.82224C82.5719 8.74224 83.0472 10.1069 83.0472 11.9162V19.0002H79.4592V12.4682C79.4592 11.4869 79.2445 10.7586 78.8152 10.2832C78.3859 9.79258 77.7649 9.54724 76.9522 9.54724C76.0475 9.54724 75.3269 9.83091 74.7902 10.3982C74.2535 10.9502 73.9852 11.7782 73.9852 12.8822V19.0002H70.3972V6.62624H73.8242V8.07524C74.2995 7.55391 74.8899 7.15524 75.5952 6.87924C76.3005 6.58791 77.0749 6.44224 77.9182 6.44224ZM99.1993 6.62624V16.9302C99.1993 19.1996 98.609 20.8862 97.4283 21.9902C96.2477 23.0942 94.5227 23.6462 92.2533 23.6462C91.0573 23.6462 89.9227 23.5006 88.8493 23.2092C87.776 22.9179 86.8867 22.4962 86.1813 21.9442L87.6073 19.3682C88.1287 19.7976 88.788 20.1349 89.5853 20.3802C90.3827 20.6409 91.18 20.7712 91.9773 20.7712C93.2193 20.7712 94.1317 20.4876 94.7143 19.9202C95.3123 19.3682 95.6113 18.5249 95.6113 17.3902V16.8612C94.676 17.8886 93.3727 18.4022 91.7013 18.4022C90.5667 18.4022 89.524 18.1569 88.5733 17.6662C87.638 17.1602 86.8943 16.4549 86.3423 15.5502C85.7903 14.6456 85.5143 13.6029 85.5143 12.4222C85.5143 11.2416 85.7903 10.1989 86.3423 9.29424C86.8943 8.38958 87.638 7.69191 88.5733 7.20124C89.524 6.69524 90.5667 6.44224 91.7013 6.44224C93.4953 6.44224 94.86 7.03258 95.7953 8.21324V6.62624H99.1993ZM92.4143 15.4582C93.365 15.4582 94.1393 15.1822 94.7373 14.6302C95.3507 14.0629 95.6573 13.3269 95.6573 12.4222C95.6573 11.5176 95.3507 10.7892 94.7373 10.2372C94.1393 9.66991 93.365 9.38624 92.4143 9.38624C91.4637 9.38624 90.6817 9.66991 90.0683 10.2372C89.455 10.7892 89.1483 11.5176 89.1483 12.4222C89.1483 13.3269 89.455 14.0629 90.0683 14.6302C90.6817 15.1822 91.4637 15.4582 92.4143 15.4582Z" fill="#0F367C"/>
<path d="M103.896 19.1842C103.267 19.1842 102.738 18.9696 102.309 18.5402C101.879 18.1109 101.665 17.5742 101.665 16.9302C101.665 16.2709 101.879 15.7419 102.309 15.3432C102.738 14.9292 103.267 14.7222 103.896 14.7222C104.524 14.7222 105.053 14.9292 105.483 15.3432C105.912 15.7419 106.127 16.2709 106.127 16.9302C106.127 17.5742 105.912 18.1109 105.483 18.5402C105.053 18.9696 104.524 19.1842 103.896 19.1842ZM114.381 19.1842C113.062 19.1842 111.874 18.9159 110.816 18.3792C109.773 17.8272 108.953 17.0682 108.355 16.1022C107.772 15.1362 107.481 14.0399 107.481 12.8132C107.481 11.5866 107.772 10.4902 108.355 9.52424C108.953 8.55824 109.773 7.80691 110.816 7.27024C111.874 6.71824 113.062 6.44224 114.381 6.44224C115.684 6.44224 116.819 6.71824 117.785 7.27024C118.766 7.80691 119.479 8.58124 119.924 9.59324L117.141 11.0882C116.497 9.95358 115.569 9.38624 114.358 9.38624C113.423 9.38624 112.648 9.69291 112.035 10.3062C111.422 10.9196 111.115 11.7552 111.115 12.8132C111.115 13.8712 111.422 14.7069 112.035 15.3202C112.648 15.9336 113.423 16.2402 114.358 16.2402C115.585 16.2402 116.512 15.6729 117.141 14.5382L119.924 16.0562C119.479 17.0376 118.766 17.8042 117.785 18.3562C116.819 18.9082 115.684 19.1842 114.381 19.1842ZM127.721 19.1842C126.417 19.1842 125.244 18.9159 124.202 18.3792C123.174 17.8272 122.369 17.0682 121.787 16.1022C121.204 15.1362 120.913 14.0399 120.913 12.8132C120.913 11.5866 121.204 10.4902 121.787 9.52424C122.369 8.55824 123.174 7.80691 124.202 7.27024C125.244 6.71824 126.417 6.44224 127.721 6.44224C129.024 6.44224 130.189 6.71824 131.217 7.27024C132.244 7.80691 133.049 8.55824 133.632 9.52424C134.214 10.4902 134.506 11.5866 134.506 12.8132C134.506 14.0399 134.214 15.1362 133.632 16.1022C133.049 17.0682 132.244 17.8272 131.217 18.3792C130.189 18.9159 129.024 19.1842 127.721 19.1842ZM127.721 16.2402C128.641 16.2402 129.392 15.9336 129.975 15.3202C130.573 14.6916 130.872 13.8559 130.872 12.8132C130.872 11.7706 130.573 10.9426 129.975 10.3292C129.392 9.70058 128.641 9.38624 127.721 9.38624C126.801 9.38624 126.042 9.70058 125.444 10.3292C124.846 10.9426 124.547 11.7706 124.547 12.8132C124.547 13.8559 124.846 14.6916 125.444 15.3202C126.042 15.9336 126.801 16.2402 127.721 16.2402ZM152.751 6.44224C154.3 6.44224 155.526 6.90224 156.431 7.82224C157.351 8.72691 157.811 10.0916 157.811 11.9162V19.0002H154.223V12.4682C154.223 11.4869 154.016 10.7586 153.602 10.2832C153.203 9.79258 152.628 9.54724 151.877 9.54724C151.034 9.54724 150.367 9.82324 149.876 10.3752C149.385 10.9119 149.14 11.7169 149.14 12.7902V19.0002H145.552V12.4682C145.552 10.5209 144.77 9.54724 143.206 9.54724C142.378 9.54724 141.719 9.82324 141.228 10.3752C140.737 10.9119 140.492 11.7169 140.492 12.7902V19.0002H136.904V6.62624H140.331V8.05224C140.791 7.53091 141.351 7.13224 142.01 6.85624C142.685 6.58024 143.421 6.44224 144.218 6.44224C145.092 6.44224 145.882 6.61858 146.587 6.97124C147.292 7.30858 147.86 7.80691 148.289 8.46624C148.795 7.82224 149.431 7.32391 150.198 6.97124C150.98 6.61858 151.831 6.44224 152.751 6.44224Z" fill="#449EDD"/>
</svg>
