<svg width="308" height="140" viewBox="0 0 308 140" fill="none" xmlns="http://www.w3.org/2000/svg">
<g filter="url(#filter0_d)">
<rect x="7" y="4" width="293.706" height="125.874" rx="8.39161" fill="white"/>
</g>
<g filter="url(#filter1_d)">
<path fill-rule="evenodd" clip-rule="evenodd" d="M273.437 21.8877C272.443 21.8877 271.284 22.5353 269.66 24.0216C268.036 22.5353 266.878 21.8877 265.883 21.8877C264.017 21.8434 262.264 22.8129 261.261 24.444C260.258 26.0751 260.152 28.1303 260.981 29.8628C261.783 31.5099 267.184 36.5644 268.821 38.0725C269.299 38.5151 270.022 38.5151 270.499 38.0725C272.14 36.5644 277.55 31.5099 278.343 29.8541C279.163 28.1213 279.052 26.0712 278.05 24.4442C277.048 22.8172 275.3 21.8484 273.437 21.8877Z" fill="white"/>
<path d="M273.437 21.8877V22.3078L273.446 22.3076L273.437 21.8877ZM269.66 24.0216L269.377 24.3315L269.66 24.591L269.944 24.3315L269.66 24.0216ZM265.883 21.8877L265.873 22.3077H265.883V21.8877ZM261.261 24.444L260.903 24.2241L261.261 24.444ZM260.981 29.8628L260.603 30.044L260.604 30.0465L260.981 29.8628ZM268.821 38.0725L269.106 37.7643L269.105 37.7636L268.821 38.0725ZM270.499 38.0725L270.215 37.7632L270.214 37.7643L270.499 38.0725ZM278.343 29.8541L278.722 30.0355L278.723 30.0337L278.343 29.8541ZM278.05 24.4442L277.693 24.6645V24.6645L278.05 24.4442ZM273.437 21.4677C272.268 21.4677 271.004 22.2229 269.377 23.7118L269.944 24.3315C271.565 22.8477 272.617 22.3077 273.437 22.3077V21.4677ZM269.944 23.7118C268.317 22.2229 267.052 21.4677 265.883 21.4677V22.3077C266.703 22.3077 267.755 22.8477 269.377 24.3315L269.944 23.7118ZM265.893 21.4678C263.872 21.4198 261.982 22.4696 260.903 24.2241L261.619 24.6639C262.545 23.1562 264.161 22.2669 265.873 22.3076L265.893 21.4678ZM260.903 24.2241C259.826 25.9771 259.712 28.1834 260.603 30.044L261.36 29.6815C260.593 28.0772 260.691 26.1731 261.619 24.6639L260.903 24.2241ZM260.604 30.0465C260.833 30.517 261.359 31.1815 262 31.9066C262.652 32.6447 263.46 33.4848 264.291 34.3165C265.952 35.9806 267.716 37.6257 268.536 38.3813L269.105 37.7636C268.289 37.0111 266.534 35.375 264.885 33.723C264.06 32.8967 263.266 32.0701 262.629 31.3501C261.981 30.6171 261.531 30.0321 261.359 29.679L260.604 30.0465ZM268.535 38.3806C269.174 38.9724 270.146 38.9724 270.785 38.3806L270.214 37.7643C269.897 38.0579 269.423 38.0579 269.106 37.7643L268.535 38.3806ZM270.784 38.3817C271.606 37.626 273.374 35.9807 275.036 34.3154C275.867 33.4831 276.676 32.6421 277.329 31.9025C277.969 31.1763 278.495 30.5094 278.722 30.0355L277.964 29.6726C277.795 30.0267 277.347 30.6125 276.699 31.3468C276.063 32.0678 275.267 32.8951 274.442 33.7219C272.791 35.3748 271.034 37.0108 270.215 37.7632L270.784 38.3817ZM278.723 30.0337C279.603 28.173 279.485 25.9725 278.408 24.224L277.693 24.6645C278.62 26.17 278.723 28.0696 277.963 29.6744L278.723 30.0337ZM278.408 24.224C277.33 22.4741 275.445 21.4253 273.428 21.4678L273.446 22.3076C275.155 22.2716 276.766 23.1603 277.693 24.6645L278.408 24.224Z" fill="#454545"/>
</g>
<path d="M86.5817 54.5161C86.0782 54.5161 85.6124 54.407 85.1845 54.1888C84.7565 53.9706 84.4082 53.6601 84.1397 53.2573L84.6935 52.628C85.1803 53.3496 85.8138 53.7105 86.5942 53.7105C87.6852 53.7105 88.2306 53.0643 88.2306 51.772V46.435H85.0082V45.6294H89.1495V51.7343C89.1495 52.6573 88.9313 53.3538 88.4949 53.8238C88.067 54.2853 87.4292 54.5161 86.5817 54.5161ZM94.8417 51.3944V54.4406H93.9228V51.3944L90.3983 45.6294H91.3927L94.4137 50.5762L97.4347 45.6294H98.3661L94.8417 51.3944ZM102.358 50.2993L100.558 52.1245V54.4406H99.6263V45.6294H100.558V50.9538L105.731 45.6294H106.801L102.987 49.6196L107.066 54.4406H105.958L102.358 50.2993ZM111.19 50.6392H114.488V51.4196H111.19V50.6392ZM122.4 54.5161C121.745 54.5161 121.116 54.4112 120.512 54.2014C119.916 53.9916 119.454 53.7147 119.127 53.3706L119.492 52.6531C119.811 52.972 120.235 53.2322 120.763 53.4336C121.292 53.6266 121.837 53.7231 122.4 53.7231C123.188 53.7231 123.78 53.5804 124.174 53.2951C124.569 53.0014 124.766 52.6238 124.766 52.1622C124.766 51.8098 124.657 51.5287 124.439 51.3189C124.229 51.1091 123.969 50.9496 123.658 50.8406C123.348 50.7231 122.916 50.5972 122.362 50.4629C121.699 50.2951 121.17 50.1357 120.776 49.9846C120.381 49.8252 120.042 49.586 119.756 49.2671C119.479 48.9482 119.341 48.5161 119.341 47.9706C119.341 47.5259 119.458 47.1231 119.693 46.7622C119.928 46.393 120.289 46.0993 120.776 45.8811C121.263 45.6629 121.867 45.5538 122.588 45.5538C123.092 45.5538 123.583 45.6252 124.061 45.7678C124.548 45.9021 124.967 46.0909 125.32 46.3343L125.005 47.0769C124.636 46.8336 124.242 46.6531 123.822 46.5357C123.402 46.4098 122.991 46.3468 122.588 46.3468C121.816 46.3468 121.233 46.4979 120.839 46.8C120.453 47.0937 120.26 47.4755 120.26 47.9454C120.26 48.2979 120.365 48.5832 120.574 48.8014C120.793 49.0112 121.061 49.1748 121.38 49.2923C121.707 49.4014 122.144 49.5231 122.689 49.6573C123.335 49.8168 123.856 49.9762 124.25 50.1357C124.653 50.2867 124.993 50.5217 125.27 50.8406C125.546 51.151 125.685 51.5748 125.685 52.1119C125.685 52.5566 125.563 52.9636 125.32 53.3329C125.085 53.6937 124.72 53.9832 124.225 54.2014C123.73 54.4112 123.121 54.5161 122.4 54.5161ZM128.646 46.435V49.8965H133.203V50.7021H128.646V54.4406H127.714V45.6294H133.756V46.435H128.646ZM139.421 54.5161C138.548 54.5161 137.755 54.3231 137.042 53.9371C136.337 53.5426 135.783 53.0056 135.38 52.3259C134.986 51.6461 134.789 50.8825 134.789 50.035C134.789 49.1874 134.986 48.4238 135.38 47.744C135.783 47.0643 136.337 46.5315 137.042 46.1454C137.755 45.751 138.548 45.5538 139.421 45.5538C140.294 45.5538 141.078 45.7468 141.775 46.1329C142.48 46.5189 143.034 47.0559 143.436 47.744C143.839 48.4238 144.041 49.1874 144.041 50.035C144.041 50.8825 143.839 51.6503 143.436 52.3385C143.034 53.0182 142.48 53.551 141.775 53.9371C141.078 54.3231 140.294 54.5161 139.421 54.5161ZM139.421 53.6853C140.118 53.6853 140.747 53.5301 141.309 53.2196C141.871 52.9007 142.312 52.4643 142.631 51.9105C142.95 51.3482 143.109 50.7231 143.109 50.035C143.109 49.3468 142.95 48.7259 142.631 48.172C142.312 47.6098 141.871 47.1734 141.309 46.8629C140.747 46.544 140.118 46.3846 139.421 46.3846C138.725 46.3846 138.091 46.544 137.52 46.8629C136.958 47.1734 136.513 47.6098 136.186 48.172C135.867 48.7259 135.708 49.3468 135.708 50.035C135.708 50.7231 135.867 51.3482 136.186 51.9105C136.513 52.4643 136.958 52.9007 137.52 53.2196C138.091 53.5301 138.725 53.6853 139.421 53.6853Z" fill="#454545"/>
<path d="M88.1638 24.5525V36.3007H85.982V26.3818H83.498V24.5525H88.1638ZM94.1698 29.1007C95.8257 29.1007 97.0509 29.4252 97.8453 30.0741C98.6397 30.7119 99.0369 31.5846 99.0369 32.6923C99.0369 33.3972 98.8635 34.035 98.5167 34.6056C98.1698 35.1762 97.6495 35.6294 96.9558 35.965C96.2621 36.3007 95.4062 36.4685 94.388 36.4685C93.5488 36.4685 92.7376 36.3511 91.9544 36.1161C91.1712 35.8699 90.5111 35.5343 89.974 35.1091L90.8971 33.414C91.3334 33.772 91.8537 34.0573 92.4579 34.2699C93.0733 34.4713 93.7055 34.572 94.3544 34.572C95.1264 34.572 95.7306 34.4154 96.167 34.1021C96.6146 33.7776 96.8383 33.3357 96.8383 32.7762C96.8383 32.172 96.5978 31.7189 96.1167 31.4168C95.6467 31.1035 94.8355 30.9469 93.6831 30.9469H90.8467L91.4509 24.5525H98.3488V26.3818H93.2971L93.0453 29.1007H94.1698ZM101.605 30.0238C101.224 30.0238 100.9 29.8951 100.631 29.6378C100.363 29.3692 100.228 29.0336 100.228 28.6308C100.228 28.2168 100.357 27.8811 100.614 27.6238C100.883 27.3664 101.213 27.2378 101.605 27.2378C101.996 27.2378 102.321 27.3664 102.578 27.6238C102.846 27.8811 102.981 28.2168 102.981 28.6308C102.981 29.0336 102.846 29.3692 102.578 29.6378C102.309 29.8951 101.985 30.0238 101.605 30.0238ZM101.605 36.4182C101.224 36.4182 100.9 36.2895 100.631 36.0322C100.363 35.7636 100.228 35.428 100.228 35.0252C100.228 34.6112 100.357 34.2755 100.614 34.0182C100.883 33.7608 101.213 33.6322 101.605 33.6322C101.996 33.6322 102.321 33.7608 102.578 34.0182C102.846 34.2755 102.981 34.6112 102.981 35.0252C102.981 35.428 102.846 35.7636 102.578 36.0322C102.309 36.2895 101.985 36.4182 101.605 36.4182ZM109.294 36.4685C108.354 36.4685 107.515 36.2336 106.776 35.7636C106.038 35.2825 105.456 34.5888 105.031 33.6825C104.605 32.765 104.393 31.6797 104.393 30.4266C104.393 29.1734 104.605 28.0937 105.031 27.1874C105.456 26.2699 106.038 25.5762 106.776 25.1063C107.515 24.6252 108.354 24.3846 109.294 24.3846C110.233 24.3846 111.073 24.6252 111.811 25.1063C112.561 25.5762 113.148 26.2699 113.573 27.1874C113.998 28.0937 114.211 29.1734 114.211 30.4266C114.211 31.6797 113.998 32.765 113.573 33.6825C113.148 34.5888 112.561 35.2825 111.811 35.7636C111.073 36.2336 110.233 36.4685 109.294 36.4685ZM109.294 34.572C110.133 34.572 110.793 34.2252 111.274 33.5315C111.766 32.8378 112.012 31.8028 112.012 30.4266C112.012 29.0504 111.766 28.0154 111.274 27.3217C110.793 26.628 110.133 26.2811 109.294 26.2811C108.466 26.2811 107.805 26.628 107.313 27.3217C106.832 28.0154 106.591 29.0504 106.591 30.4266C106.591 31.8028 106.832 32.8378 107.313 33.5315C107.805 34.2252 108.466 34.572 109.294 34.572ZM120.586 36.4685C119.646 36.4685 118.807 36.2336 118.069 35.7636C117.33 35.2825 116.748 34.5888 116.323 33.6825C115.898 32.765 115.685 31.6797 115.685 30.4266C115.685 29.1734 115.898 28.0937 116.323 27.1874C116.748 26.2699 117.33 25.5762 118.069 25.1063C118.807 24.6252 119.646 24.3846 120.586 24.3846C121.526 24.3846 122.365 24.6252 123.104 25.1063C123.853 25.5762 124.441 26.2699 124.866 27.1874C125.291 28.0937 125.504 29.1734 125.504 30.4266C125.504 31.6797 125.291 32.765 124.866 33.6825C124.441 34.5888 123.853 35.2825 123.104 35.7636C122.365 36.2336 121.526 36.4685 120.586 36.4685ZM120.586 34.572C121.425 34.572 122.085 34.2252 122.567 33.5315C123.059 32.8378 123.305 31.8028 123.305 30.4266C123.305 29.0504 123.059 28.0154 122.567 27.3217C122.085 26.628 121.425 26.2811 120.586 26.2811C119.758 26.2811 119.098 26.628 118.606 27.3217C118.125 28.0154 117.884 29.0504 117.884 30.4266C117.884 31.8028 118.125 32.8378 118.606 33.5315C119.098 34.2252 119.758 34.572 120.586 34.572ZM127.245 30.7622H131.86V32.5077H127.245V30.7622ZM137.251 24.5525V36.3007H135.07V26.3818H132.586V24.5525H137.251ZM147.201 30.1245C147.817 30.4042 148.287 30.7846 148.611 31.2657C148.947 31.7357 149.115 32.2895 149.115 32.9273C149.115 33.6434 148.913 34.2699 148.511 34.807C148.119 35.3441 147.56 35.758 146.832 36.049C146.105 36.3287 145.26 36.4685 144.298 36.4685C143.336 36.4685 142.491 36.3287 141.764 36.049C141.048 35.758 140.494 35.3441 140.102 34.807C139.711 34.2699 139.515 33.6434 139.515 32.9273C139.515 32.2895 139.677 31.7357 140.001 31.2657C140.326 30.7846 140.79 30.4042 141.394 30.1245C140.925 29.8671 140.561 29.5315 140.304 29.1175C140.057 28.6923 139.934 28.2056 139.934 27.6573C139.934 26.9972 140.113 26.421 140.471 25.9287C140.841 25.4364 141.355 25.0559 142.015 24.7874C142.676 24.5189 143.436 24.3846 144.298 24.3846C145.171 24.3846 145.937 24.5189 146.597 24.7874C147.257 25.0559 147.772 25.4364 148.141 25.9287C148.511 26.421 148.695 26.9972 148.695 27.6573C148.695 28.2056 148.567 28.6867 148.309 29.1007C148.052 29.5147 147.683 29.8559 147.201 30.1245ZM144.298 26.0965C143.615 26.0965 143.073 26.242 142.67 26.5329C142.278 26.8238 142.083 27.2322 142.083 27.758C142.083 28.2615 142.278 28.6643 142.67 28.9664C143.073 29.2573 143.615 29.4028 144.298 29.4028C144.992 29.4028 145.54 29.2573 145.943 28.9664C146.346 28.6643 146.547 28.2615 146.547 27.758C146.547 27.2322 146.34 26.8238 145.926 26.5329C145.523 26.242 144.981 26.0965 144.298 26.0965ZM144.298 34.7566C145.104 34.7566 145.741 34.5888 146.211 34.2532C146.681 33.9175 146.916 33.4532 146.916 32.8601C146.916 32.2783 146.681 31.8196 146.211 31.4839C145.741 31.1483 145.104 30.9804 144.298 30.9804C143.492 30.9804 142.86 31.1483 142.401 31.4839C141.943 31.8196 141.713 32.2783 141.713 32.8601C141.713 33.4532 141.943 33.9175 142.401 34.2532C142.86 34.5888 143.492 34.7566 144.298 34.7566ZM151.839 30.0238C151.459 30.0238 151.135 29.8951 150.866 29.6378C150.597 29.3692 150.463 29.0336 150.463 28.6308C150.463 28.2168 150.592 27.8811 150.849 27.6238C151.118 27.3664 151.448 27.2378 151.839 27.2378C152.231 27.2378 152.556 27.3664 152.813 27.6238C153.081 27.8811 153.216 28.2168 153.216 28.6308C153.216 29.0336 153.081 29.3692 152.813 29.6378C152.544 29.8951 152.22 30.0238 151.839 30.0238ZM151.839 36.4182C151.459 36.4182 151.135 36.2895 150.866 36.0322C150.597 35.7636 150.463 35.428 150.463 35.0252C150.463 34.6112 150.592 34.2755 150.849 34.0182C151.118 33.7608 151.448 33.6322 151.839 33.6322C152.231 33.6322 152.556 33.7608 152.813 34.0182C153.081 34.2755 153.216 34.6112 153.216 35.0252C153.216 35.428 153.081 35.7636 152.813 36.0322C152.544 36.2895 152.22 36.4182 151.839 36.4182ZM159.528 36.4685C158.589 36.4685 157.749 36.2336 157.011 35.7636C156.273 35.2825 155.691 34.5888 155.266 33.6825C154.84 32.765 154.628 31.6797 154.628 30.4266C154.628 29.1734 154.84 28.0937 155.266 27.1874C155.691 26.2699 156.273 25.5762 157.011 25.1063C157.749 24.6252 158.589 24.3846 159.528 24.3846C160.468 24.3846 161.308 24.6252 162.046 25.1063C162.796 25.5762 163.383 26.2699 163.808 27.1874C164.233 28.0937 164.446 29.1734 164.446 30.4266C164.446 31.6797 164.233 32.765 163.808 33.6825C163.383 34.5888 162.796 35.2825 162.046 35.7636C161.308 36.2336 160.468 36.4685 159.528 36.4685ZM159.528 34.572C160.368 34.572 161.028 34.2252 161.509 33.5315C162.001 32.8378 162.247 31.8028 162.247 30.4266C162.247 29.0504 162.001 28.0154 161.509 27.3217C161.028 26.628 160.368 26.2811 159.528 26.2811C158.701 26.2811 158.04 26.628 157.548 27.3217C157.067 28.0154 156.826 29.0504 156.826 30.4266C156.826 31.8028 157.067 32.8378 157.548 33.5315C158.04 34.2252 158.701 34.572 159.528 34.572ZM170.821 36.4685C169.881 36.4685 169.042 36.2336 168.304 35.7636C167.565 35.2825 166.983 34.5888 166.558 33.6825C166.133 32.765 165.92 31.6797 165.92 30.4266C165.92 29.1734 166.133 28.0937 166.558 27.1874C166.983 26.2699 167.565 25.5762 168.304 25.1063C169.042 24.6252 169.881 24.3846 170.821 24.3846C171.761 24.3846 172.6 24.6252 173.339 25.1063C174.088 25.5762 174.676 26.2699 175.101 27.1874C175.526 28.0937 175.739 29.1734 175.739 30.4266C175.739 31.6797 175.526 32.765 175.101 33.6825C174.676 34.5888 174.088 35.2825 173.339 35.7636C172.6 36.2336 171.761 36.4685 170.821 36.4685ZM170.821 34.572C171.66 34.572 172.32 34.2252 172.802 33.5315C173.294 32.8378 173.54 31.8028 173.54 30.4266C173.54 29.0504 173.294 28.0154 172.802 27.3217C172.32 26.628 171.66 26.2811 170.821 26.2811C169.993 26.2811 169.333 26.628 168.841 27.3217C168.36 28.0154 168.119 29.0504 168.119 30.4266C168.119 31.8028 168.36 32.8378 168.841 33.5315C169.333 34.2252 169.993 34.572 170.821 34.572Z" fill="#454545"/>
<path d="M248.88 102.522C248.88 103.602 248.48 104.522 247.68 105.282C246.893 106.029 245.747 106.482 244.24 106.642V108.882H242.6V106.662C241.613 106.596 240.68 106.416 239.8 106.122C238.92 105.829 238.22 105.456 237.7 105.002L238.6 102.982C239.093 103.382 239.693 103.722 240.4 104.002C241.107 104.269 241.84 104.436 242.6 104.502V100.502C241.653 100.276 240.86 100.029 240.22 99.7624C239.593 99.4824 239.067 99.0824 238.64 98.5624C238.213 98.0291 238 97.3291 238 96.4624C238 95.3824 238.393 94.4624 239.18 93.7024C239.967 92.9424 241.107 92.4891 242.6 92.3424V90.0824H244.24V92.3024C244.987 92.3424 245.713 92.4691 246.42 92.6824C247.14 92.8958 247.767 93.1758 248.3 93.5224L247.48 95.5424C246.467 94.9558 245.387 94.5958 244.24 94.4624V98.5024C245.2 98.7291 245.993 98.9758 246.62 99.2424C247.26 99.5091 247.793 99.9091 248.22 100.442C248.66 100.962 248.88 101.656 248.88 102.522ZM240.58 96.3424C240.58 96.7824 240.753 97.1358 241.1 97.4024C241.447 97.6691 241.947 97.8958 242.6 98.0824V94.5224C241.92 94.6291 241.413 94.8424 241.08 95.1624C240.747 95.4824 240.58 95.8758 240.58 96.3424ZM244.24 104.462C244.947 104.356 245.467 104.149 245.8 103.842C246.147 103.536 246.32 103.156 246.32 102.702C246.32 102.249 246.14 101.889 245.78 101.622C245.42 101.342 244.907 101.109 244.24 100.922V104.462ZM254.838 97.9024C256.811 97.9024 258.271 98.2891 259.218 99.0624C260.165 99.8224 260.638 100.862 260.638 102.182C260.638 103.022 260.431 103.782 260.018 104.462C259.605 105.142 258.985 105.682 258.158 106.082C257.331 106.482 256.311 106.682 255.098 106.682C254.098 106.682 253.131 106.542 252.198 106.262C251.265 105.969 250.478 105.569 249.838 105.062L250.938 103.042C251.458 103.469 252.078 103.809 252.798 104.062C253.531 104.302 254.285 104.422 255.058 104.422C255.978 104.422 256.698 104.236 257.218 103.862C257.751 103.476 258.018 102.949 258.018 102.282C258.018 101.562 257.731 101.022 257.158 100.662C256.598 100.289 255.631 100.102 254.258 100.102H250.878L251.598 92.4824H259.818V94.6624H253.798L253.498 97.9024H254.838ZM268.498 97.8424C269.418 97.8424 270.244 98.0224 270.978 98.3824C271.711 98.7291 272.284 99.2291 272.698 99.8824C273.111 100.536 273.318 101.289 273.318 102.142C273.318 103.049 273.091 103.849 272.638 104.542C272.184 105.222 271.571 105.749 270.798 106.122C270.024 106.496 269.158 106.682 268.198 106.682C266.278 106.682 264.784 106.082 263.718 104.882C262.664 103.682 262.138 101.962 262.138 99.7224C262.138 98.1491 262.424 96.8091 262.998 95.7024C263.571 94.5824 264.371 93.7358 265.398 93.1624C266.438 92.5758 267.638 92.2824 268.998 92.2824C269.718 92.2824 270.391 92.3624 271.018 92.5224C271.658 92.6691 272.211 92.8891 272.678 93.1824L271.718 95.1424C271.024 94.6891 270.138 94.4624 269.058 94.4624C267.711 94.4624 266.658 94.8758 265.898 95.7024C265.138 96.5291 264.758 97.7224 264.758 99.2824V99.3024C265.171 98.8224 265.698 98.4624 266.338 98.2224C266.978 97.9691 267.698 97.8424 268.498 97.8424ZM268.058 104.642C268.871 104.642 269.531 104.429 270.038 104.002C270.544 103.562 270.798 102.982 270.798 102.262C270.798 101.529 270.544 100.949 270.038 100.522C269.531 100.096 268.851 99.8824 267.998 99.8824C267.158 99.8824 266.471 100.109 265.938 100.562C265.418 101.016 265.158 101.589 265.158 102.282C265.158 102.962 265.411 103.529 265.918 103.982C266.438 104.422 267.151 104.642 268.058 104.642ZM279.057 97.9024C281.03 97.9024 282.49 98.2891 283.437 99.0624C284.384 99.8224 284.857 100.862 284.857 102.182C284.857 103.022 284.65 103.782 284.237 104.462C283.824 105.142 283.204 105.682 282.377 106.082C281.55 106.482 280.53 106.682 279.317 106.682C278.317 106.682 277.35 106.542 276.417 106.262C275.484 105.969 274.697 105.569 274.057 105.062L275.157 103.042C275.677 103.469 276.297 103.809 277.017 104.062C277.75 104.302 278.504 104.422 279.277 104.422C280.197 104.422 280.917 104.236 281.437 103.862C281.97 103.476 282.237 102.949 282.237 102.282C282.237 101.562 281.95 101.022 281.377 100.662C280.817 100.289 279.85 100.102 278.477 100.102H275.097L275.817 92.4824H284.037V94.6624H278.017L277.717 97.9024H279.057Z" fill="black"/>
<path d="M86.4854 87.1822C87.7442 87.1822 88.6673 87.4214 89.2547 87.8997C89.8505 88.3696 90.1484 89.0158 90.1484 89.8381C90.1484 90.3584 90.0225 90.8284 89.7708 91.2479C89.5274 91.6591 89.154 91.9864 88.6505 92.2298C88.1554 92.4647 87.5428 92.5822 86.8127 92.5822C86.1917 92.5822 85.5917 92.4899 85.0127 92.3053C84.4337 92.1123 83.9554 91.8479 83.5778 91.5123L84.1568 90.5179C84.4589 90.8032 84.8449 91.034 85.3148 91.2102C85.7847 91.378 86.2799 91.4619 86.8001 91.4619C87.4631 91.4619 87.975 91.3235 88.3358 91.0465C88.705 90.7612 88.8896 90.3752 88.8896 89.8885C88.8896 89.3598 88.6882 88.9612 88.2854 88.6927C87.8827 88.4158 87.1945 88.2773 86.2211 88.2773H84.2197L84.6854 83.6703H89.6575V84.7654H85.7428L85.5036 87.1822H86.4854ZM95.2994 85.7472C96.1469 85.7472 96.8183 85.9948 97.3134 86.4899C97.8169 86.9766 98.0686 87.6941 98.0686 88.6423V92.4815H96.8602V88.7808C96.8602 88.1347 96.705 87.6479 96.3945 87.3207C96.084 86.9934 95.6393 86.8298 95.0602 86.8298C94.4057 86.8298 93.8896 87.0228 93.512 87.4088C93.1344 87.7864 92.9455 88.3319 92.9455 89.0451V92.4815H91.7372V83.1416H92.9455V86.7542C93.1973 86.4354 93.5246 86.1878 93.9274 86.0116C94.3386 85.8354 94.7959 85.7472 95.2994 85.7472ZM106.518 87.371C107.382 87.4549 108.041 87.7235 108.494 88.1766C108.947 88.6214 109.173 89.192 109.173 89.8885C109.173 90.392 109.048 90.8493 108.796 91.2605C108.544 91.6633 108.166 91.9864 107.663 92.2298C107.168 92.4647 106.559 92.5822 105.838 92.5822C105.208 92.5822 104.604 92.4899 104.025 92.3053C103.446 92.1123 102.972 91.8479 102.603 91.5123L103.182 90.5179C103.484 90.8032 103.87 91.034 104.34 91.2102C104.81 91.378 105.309 91.4619 105.838 91.4619C106.492 91.4619 107 91.3235 107.361 91.0465C107.73 90.7696 107.915 90.3878 107.915 89.9011C107.915 89.4144 107.734 89.0368 107.373 88.7682C107.013 88.4997 106.467 88.3654 105.737 88.3654H105.032V87.4843L107.248 84.7654H103.006V83.6703H108.821V84.5263L106.518 87.371ZM113.947 92.5822C113.251 92.5822 112.63 92.406 112.085 92.0535C111.547 91.6927 111.124 91.1724 110.813 90.4927C110.503 89.813 110.347 89.0074 110.347 88.0759C110.347 87.1444 110.503 86.3388 110.813 85.6591C111.124 84.9794 111.547 84.4633 112.085 84.1109C112.63 83.75 113.251 83.5696 113.947 83.5696C114.636 83.5696 115.248 83.75 115.785 84.1109C116.331 84.4633 116.759 84.9794 117.069 85.6591C117.38 86.3388 117.535 87.1444 117.535 88.0759C117.535 89.0074 117.38 89.813 117.069 90.4927C116.759 91.1724 116.331 91.6927 115.785 92.0535C115.248 92.406 114.636 92.5822 113.947 92.5822ZM113.947 91.4619C114.652 91.4619 115.215 91.1724 115.634 90.5934C116.062 90.0144 116.276 89.1752 116.276 88.0759C116.276 86.9766 116.062 86.1374 115.634 85.5584C115.215 84.9794 114.652 84.6899 113.947 84.6899C113.234 84.6899 112.664 84.9794 112.236 85.5584C111.816 86.1374 111.606 86.9766 111.606 88.0759C111.606 89.1752 111.816 90.0144 112.236 90.5934C112.664 91.1724 113.234 91.4619 113.947 91.4619ZM127.63 85.7472C128.469 85.7472 129.132 85.9906 129.619 86.4773C130.114 86.964 130.361 87.6857 130.361 88.6423V92.4815H129.153V88.7808C129.153 88.1347 129.002 87.6479 128.7 87.3207C128.406 86.9934 127.982 86.8298 127.428 86.8298C126.816 86.8298 126.329 87.0228 125.968 87.4088C125.607 87.7864 125.427 88.3319 125.427 89.0451V92.4815H124.219V88.7808C124.219 88.1347 124.068 87.6479 123.766 87.3207C123.472 86.9934 123.048 86.8298 122.494 86.8298C121.882 86.8298 121.395 87.0228 121.034 87.4088C120.673 87.7864 120.493 88.3319 120.493 89.0451V92.4815H119.284V85.8102H120.442V86.8046C120.686 86.4605 121.005 86.2004 121.399 86.0242C121.794 85.8395 122.242 85.7472 122.746 85.7472C123.266 85.7472 123.728 85.8521 124.131 86.0619C124.533 86.2717 124.844 86.578 125.062 86.9808C125.314 86.5948 125.662 86.2927 126.107 86.0745C126.56 85.8563 127.068 85.7472 127.63 85.7472ZM92.2631 98.6703V107.482H91.2309L85.9442 100.911V107.482H84.6854V98.6703H85.7176L91.0043 105.241V98.6703H92.2631ZM97.5815 107.557C96.9186 107.557 96.3228 107.41 95.7941 107.116C95.2655 106.823 94.8501 106.42 94.548 105.908C94.2543 105.388 94.1074 104.8 94.1074 104.146C94.1074 103.491 94.2543 102.908 94.548 102.396C94.8501 101.876 95.2655 101.473 95.7941 101.188C96.3228 100.894 96.9186 100.747 97.5815 100.747C98.2445 100.747 98.8361 100.894 99.3564 101.188C99.885 101.473 100.296 101.876 100.59 102.396C100.892 102.908 101.043 103.491 101.043 104.146C101.043 104.8 100.892 105.388 100.59 105.908C100.296 106.42 99.885 106.823 99.3564 107.116C98.8361 107.41 98.2445 107.557 97.5815 107.557ZM97.5815 106.5C98.0095 106.5 98.3913 106.403 98.727 106.21C99.0711 106.009 99.3396 105.732 99.5326 105.379C99.7256 105.019 99.8221 104.607 99.8221 104.146C99.8221 103.684 99.7256 103.277 99.5326 102.925C99.3396 102.564 99.0711 102.287 98.727 102.094C98.3913 101.901 98.0095 101.805 97.5815 101.805C97.1536 101.805 96.7676 101.901 96.4235 102.094C96.0878 102.287 95.8193 102.564 95.6179 102.925C95.4249 103.277 95.3284 103.684 95.3284 104.146C95.3284 104.607 95.4249 105.019 95.6179 105.379C95.8193 105.732 96.0878 106.009 96.4235 106.21C96.7676 106.403 97.1536 106.5 97.5815 106.5ZM106.276 100.747C107.124 100.747 107.795 100.995 108.29 101.49C108.794 101.977 109.046 102.694 109.046 103.642V107.482H107.837V103.781C107.837 103.135 107.682 102.648 107.372 102.321C107.061 101.993 106.616 101.83 106.037 101.83C105.383 101.83 104.867 102.023 104.489 102.409C104.111 102.786 103.923 103.332 103.923 104.045V107.482H102.714V100.81H103.872V101.817C104.116 101.473 104.443 101.209 104.854 101.024C105.274 100.84 105.748 100.747 106.276 100.747ZM110.854 103.504H114.24V104.549H110.854V103.504ZM118.014 107.557C117.469 107.557 116.944 107.486 116.441 107.343C115.937 107.192 115.543 107.003 115.257 106.777L115.761 105.82C116.055 106.03 116.411 106.198 116.831 106.323C117.25 106.449 117.674 106.512 118.102 106.512C119.159 106.512 119.688 106.21 119.688 105.606C119.688 105.405 119.617 105.245 119.474 105.128C119.331 105.01 119.151 104.926 118.933 104.876C118.723 104.817 118.421 104.754 118.027 104.687C117.489 104.603 117.049 104.507 116.705 104.398C116.369 104.288 116.08 104.104 115.836 103.844C115.593 103.584 115.471 103.219 115.471 102.749C115.471 102.144 115.723 101.662 116.227 101.301C116.73 100.932 117.406 100.747 118.253 100.747C118.698 100.747 119.143 100.802 119.587 100.911C120.032 101.02 120.397 101.167 120.682 101.351L120.166 102.308C119.621 101.956 118.979 101.779 118.241 101.779C117.729 101.779 117.338 101.863 117.07 102.031C116.801 102.199 116.667 102.421 116.667 102.698C116.667 102.916 116.743 103.088 116.894 103.214C117.045 103.34 117.229 103.433 117.448 103.491C117.674 103.55 117.989 103.617 118.392 103.693C118.929 103.785 119.361 103.886 119.688 103.995C120.024 104.095 120.309 104.272 120.544 104.523C120.779 104.775 120.896 105.128 120.896 105.581C120.896 106.185 120.636 106.668 120.116 107.028C119.604 107.381 118.903 107.557 118.014 107.557ZM126.158 107.091C125.982 107.242 125.763 107.36 125.503 107.444C125.243 107.519 124.975 107.557 124.698 107.557C124.026 107.557 123.506 107.377 123.137 107.016C122.768 106.655 122.583 106.139 122.583 105.468V101.805H121.45V100.81H122.583V99.35H123.791V100.81H125.705V101.805H123.791V105.417C123.791 105.778 123.879 106.055 124.056 106.248C124.24 106.441 124.5 106.537 124.836 106.537C125.205 106.537 125.52 106.433 125.78 106.223L126.158 107.091ZM130.255 107.557C129.592 107.557 128.996 107.41 128.467 107.116C127.939 106.823 127.523 106.42 127.221 105.908C126.927 105.388 126.781 104.8 126.781 104.146C126.781 103.491 126.927 102.908 127.221 102.396C127.523 101.876 127.939 101.473 128.467 101.188C128.996 100.894 129.592 100.747 130.255 100.747C130.918 100.747 131.509 100.894 132.03 101.188C132.558 101.473 132.969 101.876 133.263 102.396C133.565 102.908 133.716 103.491 133.716 104.146C133.716 104.8 133.565 105.388 133.263 105.908C132.969 106.42 132.558 106.823 132.03 107.116C131.509 107.41 130.918 107.557 130.255 107.557ZM130.255 106.5C130.683 106.5 131.065 106.403 131.4 106.21C131.744 106.009 132.013 105.732 132.206 105.379C132.399 105.019 132.495 104.607 132.495 104.146C132.495 103.684 132.399 103.277 132.206 102.925C132.013 102.564 131.744 102.287 131.4 102.094C131.065 101.901 130.683 101.805 130.255 101.805C129.827 101.805 129.441 101.901 129.097 102.094C128.761 102.287 128.492 102.564 128.291 102.925C128.098 103.277 128.002 103.684 128.002 104.146C128.002 104.607 128.098 105.019 128.291 105.379C128.492 105.732 128.761 106.009 129.097 106.21C129.441 106.403 129.827 106.5 130.255 106.5ZM138.925 100.747C139.571 100.747 140.15 100.89 140.662 101.175C141.173 101.461 141.572 101.859 141.857 102.371C142.151 102.883 142.298 103.475 142.298 104.146C142.298 104.817 142.151 105.413 141.857 105.933C141.572 106.445 141.173 106.844 140.662 107.129C140.15 107.414 139.571 107.557 138.925 107.557C138.446 107.557 138.006 107.465 137.603 107.28C137.208 107.095 136.873 106.827 136.596 106.475V109.923H135.387V100.81H136.545V101.868C136.814 101.498 137.154 101.221 137.565 101.037C137.976 100.844 138.429 100.747 138.925 100.747ZM138.824 106.5C139.252 106.5 139.634 106.403 139.969 106.21C140.313 106.009 140.582 105.732 140.775 105.379C140.976 105.019 141.077 104.607 141.077 104.146C141.077 103.684 140.976 103.277 140.775 102.925C140.582 102.564 140.313 102.287 139.969 102.094C139.634 101.901 139.252 101.805 138.824 101.805C138.404 101.805 138.022 101.905 137.678 102.107C137.343 102.3 137.074 102.572 136.873 102.925C136.68 103.277 136.583 103.684 136.583 104.146C136.583 104.607 136.68 105.019 136.873 105.379C137.066 105.732 137.334 106.009 137.678 106.21C138.022 106.403 138.404 106.5 138.824 106.5Z" fill="#454545"/>
<path d="M24.2377 69.8167C24.6083 72.0445 25.4225 74.1751 26.6319 76.0824C31.0165 74.8599 34.8728 72.548 36.2441 67.3957C37.7529 61.725 36.0316 55.7808 31.9133 52.6317C26.3032 56.1832 23.0689 62.8597 24.2377 69.8167ZM57.7623 64.1857C59.3178 73.4419 53.0759 82.2079 43.8164 83.762C42.258 84.024 40.7138 84.0651 39.2192 83.9079C36.8476 83.6561 34.5553 82.9092 32.4907 81.7154C30.4261 80.5216 28.6352 78.9075 27.234 76.9777L54.7575 69.0872C55.1527 68.9738 55.0507 68.5928 54.7235 68.6154L43.1845 69.4215C44.8109 67.8519 46.0476 65.9267 45.8975 63.2663C45.5943 58.9555 41.2068 54.7481 33.0467 51.98C36.0317 50.3989 39.4196 49.7416 42.7793 50.0917C50.1858 50.868 56.4688 56.4835 57.7623 64.1871" fill="#6F87B1"/>
<defs>
<filter id="filter0_d" x="0.286713" y="0.643357" width="307.133" height="139.301" filterUnits="userSpaceOnUse" color-interpolation-filters="sRGB">
<feFlood flood-opacity="0" result="BackgroundImageFix"/>
<feColorMatrix in="SourceAlpha" type="matrix" values="0 0 0 0 0 0 0 0 0 0 0 0 0 0 0 0 0 0 127 0" result="hardAlpha"/>
<feOffset dy="3.35664"/>
<feGaussianBlur stdDeviation="3.35664"/>
<feColorMatrix type="matrix" values="0 0 0 0 0 0 0 0 0 0 0 0 0 0 0 0 0 0 0.25 0"/>
<feBlend mode="normal" in2="BackgroundImageFix" result="effect1_dropShadow"/>
<feBlend mode="normal" in="SourceGraphic" in2="effect1_dropShadow" result="shape"/>
</filter>
<filter id="filter1_d" x="258.426" y="21.4663" width="22.4628" height="20.5195" filterUnits="userSpaceOnUse" color-interpolation-filters="sRGB">
<feFlood flood-opacity="0" result="BackgroundImageFix"/>
<feColorMatrix in="SourceAlpha" type="matrix" values="0 0 0 0 0 0 0 0 0 0 0 0 0 0 0 0 0 0 127 0" result="hardAlpha"/>
<feOffset dy="1.58065"/>
<feGaussianBlur stdDeviation="0.790325"/>
<feColorMatrix type="matrix" values="0 0 0 0 0 0 0 0 0 0 0 0 0 0 0 0 0 0 0.25 0"/>
<feBlend mode="normal" in2="BackgroundImageFix" result="effect1_dropShadow"/>
<feBlend mode="normal" in="SourceGraphic" in2="effect1_dropShadow" result="shape"/>
</filter>
</defs>
</svg>
