<svg width="308" height="140" viewBox="0 0 308 140" fill="none" xmlns="http://www.w3.org/2000/svg">
<g filter="url(#filter0_d)">
<rect x="7" y="4" width="293.706" height="125.874" rx="8.39161" fill="white"/>
</g>
<g filter="url(#filter1_d)">
<path fill-rule="evenodd" clip-rule="evenodd" d="M273.437 21.8877C272.443 21.8877 271.284 22.5353 269.66 24.0216C268.036 22.5353 266.878 21.8877 265.883 21.8877C264.017 21.8434 262.264 22.8129 261.261 24.444C260.258 26.0751 260.152 28.1303 260.981 29.8628C261.783 31.5099 267.184 36.5644 268.821 38.0725C269.299 38.5151 270.022 38.5151 270.499 38.0725C272.14 36.5644 277.55 31.5099 278.343 29.8541C279.163 28.1213 279.052 26.0712 278.05 24.4442C277.048 22.8172 275.3 21.8484 273.437 21.8877Z" fill="white"/>
<path d="M273.437 21.8877V22.3078L273.446 22.3076L273.437 21.8877ZM269.66 24.0216L269.377 24.3315L269.66 24.591L269.944 24.3315L269.66 24.0216ZM265.883 21.8877L265.873 22.3077H265.883V21.8877ZM261.261 24.444L260.903 24.2241L261.261 24.444ZM260.981 29.8628L260.603 30.044L260.604 30.0465L260.981 29.8628ZM268.821 38.0725L269.106 37.7643L269.105 37.7636L268.821 38.0725ZM270.499 38.0725L270.215 37.7632L270.214 37.7643L270.499 38.0725ZM278.343 29.8541L278.722 30.0355L278.723 30.0337L278.343 29.8541ZM278.05 24.4442L277.693 24.6645V24.6645L278.05 24.4442ZM273.437 21.4677C272.268 21.4677 271.004 22.2229 269.377 23.7118L269.944 24.3315C271.565 22.8477 272.617 22.3077 273.437 22.3077V21.4677ZM269.944 23.7118C268.317 22.2229 267.052 21.4677 265.883 21.4677V22.3077C266.703 22.3077 267.755 22.8477 269.377 24.3315L269.944 23.7118ZM265.893 21.4678C263.872 21.4198 261.982 22.4696 260.903 24.2241L261.619 24.6639C262.545 23.1562 264.161 22.2669 265.873 22.3076L265.893 21.4678ZM260.903 24.2241C259.826 25.9771 259.712 28.1834 260.603 30.044L261.36 29.6815C260.593 28.0772 260.691 26.1731 261.619 24.6639L260.903 24.2241ZM260.604 30.0465C260.833 30.517 261.359 31.1815 262 31.9066C262.652 32.6447 263.46 33.4848 264.291 34.3165C265.952 35.9806 267.716 37.6257 268.536 38.3813L269.105 37.7636C268.289 37.0111 266.534 35.375 264.885 33.723C264.06 32.8967 263.266 32.0701 262.629 31.3501C261.981 30.6171 261.531 30.0321 261.359 29.679L260.604 30.0465ZM268.535 38.3806C269.174 38.9724 270.146 38.9724 270.785 38.3806L270.214 37.7643C269.897 38.0579 269.423 38.0579 269.106 37.7643L268.535 38.3806ZM270.784 38.3817C271.606 37.626 273.374 35.9807 275.036 34.3154C275.867 33.4831 276.676 32.6421 277.329 31.9025C277.969 31.1763 278.495 30.5094 278.722 30.0355L277.964 29.6726C277.795 30.0267 277.347 30.6125 276.699 31.3468C276.063 32.0678 275.267 32.8951 274.442 33.7219C272.791 35.3748 271.034 37.0108 270.215 37.7632L270.784 38.3817ZM278.723 30.0337C279.603 28.173 279.485 25.9725 278.408 24.224L277.693 24.6645C278.62 26.17 278.723 28.0696 277.963 29.6744L278.723 30.0337ZM278.408 24.224C277.33 22.4741 275.445 21.4253 273.428 21.4678L273.446 22.3076C275.155 22.2716 276.766 23.1603 277.693 24.6645L278.408 24.224Z" fill="#454545"/>
</g>
<path d="M86.5817 54.5161C86.0782 54.5161 85.6124 54.407 85.1845 54.1888C84.7565 53.9706 84.4082 53.6601 84.1397 53.2573L84.6935 52.628C85.1803 53.3496 85.8138 53.7105 86.5942 53.7105C87.6852 53.7105 88.2306 53.0643 88.2306 51.772V46.435H85.0082V45.6294H89.1495V51.7343C89.1495 52.6573 88.9313 53.3538 88.4949 53.8238C88.067 54.2853 87.4292 54.5161 86.5817 54.5161ZM94.8417 51.3944V54.4406H93.9228V51.3944L90.3983 45.6294H91.3927L94.4137 50.5762L97.4347 45.6294H98.3661L94.8417 51.3944ZM102.358 50.2993L100.558 52.1245V54.4406H99.6263V45.6294H100.558V50.9538L105.731 45.6294H106.801L102.987 49.6196L107.066 54.4406H105.958L102.358 50.2993ZM111.19 50.6392H114.488V51.4196H111.19V50.6392ZM122.4 54.5161C121.745 54.5161 121.116 54.4112 120.512 54.2014C119.916 53.9916 119.454 53.7147 119.127 53.3706L119.492 52.6531C119.811 52.972 120.235 53.2322 120.763 53.4336C121.292 53.6266 121.837 53.7231 122.4 53.7231C123.188 53.7231 123.78 53.5804 124.174 53.2951C124.569 53.0014 124.766 52.6238 124.766 52.1622C124.766 51.8098 124.657 51.5287 124.439 51.3189C124.229 51.1091 123.969 50.9496 123.658 50.8406C123.348 50.7231 122.916 50.5972 122.362 50.4629C121.699 50.2951 121.17 50.1357 120.776 49.9846C120.381 49.8252 120.042 49.586 119.756 49.2671C119.479 48.9482 119.341 48.5161 119.341 47.9706C119.341 47.5259 119.458 47.1231 119.693 46.7622C119.928 46.393 120.289 46.0993 120.776 45.8811C121.263 45.6629 121.867 45.5538 122.588 45.5538C123.092 45.5538 123.583 45.6252 124.061 45.7678C124.548 45.9021 124.967 46.0909 125.32 46.3343L125.005 47.0769C124.636 46.8336 124.242 46.6531 123.822 46.5357C123.402 46.4098 122.991 46.3468 122.588 46.3468C121.816 46.3468 121.233 46.4979 120.839 46.8C120.453 47.0937 120.26 47.4755 120.26 47.9454C120.26 48.2979 120.365 48.5832 120.574 48.8014C120.793 49.0112 121.061 49.1748 121.38 49.2923C121.707 49.4014 122.144 49.5231 122.689 49.6573C123.335 49.8168 123.856 49.9762 124.25 50.1357C124.653 50.2867 124.993 50.5217 125.27 50.8406C125.546 51.151 125.685 51.5748 125.685 52.1119C125.685 52.5566 125.563 52.9636 125.32 53.3329C125.085 53.6937 124.72 53.9832 124.225 54.2014C123.73 54.4112 123.121 54.5161 122.4 54.5161ZM128.646 46.435V49.8965H133.203V50.7021H128.646V54.4406H127.714V45.6294H133.756V46.435H128.646ZM139.421 54.5161C138.548 54.5161 137.755 54.3231 137.042 53.9371C136.337 53.5426 135.783 53.0056 135.38 52.3259C134.986 51.6461 134.789 50.8825 134.789 50.035C134.789 49.1874 134.986 48.4238 135.38 47.744C135.783 47.0643 136.337 46.5315 137.042 46.1454C137.755 45.751 138.548 45.5538 139.421 45.5538C140.294 45.5538 141.078 45.7468 141.775 46.1329C142.48 46.5189 143.034 47.0559 143.436 47.744C143.839 48.4238 144.041 49.1874 144.041 50.035C144.041 50.8825 143.839 51.6503 143.436 52.3385C143.034 53.0182 142.48 53.551 141.775 53.9371C141.078 54.3231 140.294 54.5161 139.421 54.5161ZM139.421 53.6853C140.118 53.6853 140.747 53.5301 141.309 53.2196C141.871 52.9007 142.312 52.4643 142.631 51.9105C142.95 51.3482 143.109 50.7231 143.109 50.035C143.109 49.3468 142.95 48.7259 142.631 48.172C142.312 47.6098 141.871 47.1734 141.309 46.8629C140.747 46.544 140.118 46.3846 139.421 46.3846C138.725 46.3846 138.091 46.544 137.52 46.8629C136.958 47.1734 136.513 47.6098 136.186 48.172C135.867 48.7259 135.708 49.3468 135.708 50.035C135.708 50.7231 135.867 51.3482 136.186 51.9105C136.513 52.4643 136.958 52.9007 137.52 53.2196C138.091 53.5301 138.725 53.6853 139.421 53.6853Z" fill="#454545"/>
<path d="M88.1638 24.5525V36.3007H85.982V26.3818H83.498V24.5525H88.1638ZM94.5558 24.5525V36.3007H92.374V26.3818H89.8901V24.5525H94.5558ZM98.1954 30.0238C97.815 30.0238 97.4905 29.8951 97.222 29.6378C96.9535 29.3692 96.8192 29.0336 96.8192 28.6308C96.8192 28.2168 96.9479 27.8811 97.2052 27.6238C97.4737 27.3664 97.8038 27.2378 98.1954 27.2378C98.587 27.2378 98.9115 27.3664 99.1688 27.6238C99.4374 27.8811 99.5716 28.2168 99.5716 28.6308C99.5716 29.0336 99.4374 29.3692 99.1688 29.6378C98.9003 29.8951 98.5758 30.0238 98.1954 30.0238ZM98.1954 36.4182C97.815 36.4182 97.4905 36.2895 97.222 36.0322C96.9535 35.7636 96.8192 35.428 96.8192 35.0252C96.8192 34.6112 96.9479 34.2755 97.2052 34.0182C97.4737 33.7608 97.8038 33.6322 98.1954 33.6322C98.587 33.6322 98.9115 33.7608 99.1688 34.0182C99.4374 34.2755 99.5716 34.6112 99.5716 35.0252C99.5716 35.428 99.4374 35.7636 99.1688 36.0322C98.9003 36.2895 98.5758 36.4182 98.1954 36.4182ZM105.884 36.4685C104.945 36.4685 104.105 36.2336 103.367 35.7636C102.629 35.2825 102.047 34.5888 101.622 33.6825C101.196 32.765 100.984 31.6797 100.984 30.4266C100.984 29.1734 101.196 28.0937 101.622 27.1874C102.047 26.2699 102.629 25.5762 103.367 25.1063C104.105 24.6252 104.945 24.3846 105.884 24.3846C106.824 24.3846 107.664 24.6252 108.402 25.1063C109.152 25.5762 109.739 26.2699 110.164 27.1874C110.589 28.0937 110.802 29.1734 110.802 30.4266C110.802 31.6797 110.589 32.765 110.164 33.6825C109.739 34.5888 109.152 35.2825 108.402 35.7636C107.664 36.2336 106.824 36.4685 105.884 36.4685ZM105.884 34.572C106.724 34.572 107.384 34.2252 107.865 33.5315C108.357 32.8378 108.603 31.8028 108.603 30.4266C108.603 29.0504 108.357 28.0154 107.865 27.3217C107.384 26.628 106.724 26.2811 105.884 26.2811C105.057 26.2811 104.396 26.628 103.904 27.3217C103.423 28.0154 103.182 29.0504 103.182 30.4266C103.182 31.8028 103.423 32.8378 103.904 33.5315C104.396 34.2252 105.057 34.572 105.884 34.572ZM117.177 36.4685C116.237 36.4685 115.398 36.2336 114.66 35.7636C113.921 35.2825 113.339 34.5888 112.914 33.6825C112.489 32.765 112.276 31.6797 112.276 30.4266C112.276 29.1734 112.489 28.0937 112.914 27.1874C113.339 26.2699 113.921 25.5762 114.66 25.1063C115.398 24.6252 116.237 24.3846 117.177 24.3846C118.117 24.3846 118.956 24.6252 119.695 25.1063C120.444 25.5762 121.032 26.2699 121.457 27.1874C121.882 28.0937 122.095 29.1734 122.095 30.4266C122.095 31.6797 121.882 32.765 121.457 33.6825C121.032 34.5888 120.444 35.2825 119.695 35.7636C118.956 36.2336 118.117 36.4685 117.177 36.4685ZM117.177 34.572C118.016 34.572 118.676 34.2252 119.158 33.5315C119.65 32.8378 119.896 31.8028 119.896 30.4266C119.896 29.0504 119.65 28.0154 119.158 27.3217C118.676 26.628 118.016 26.2811 117.177 26.2811C116.349 26.2811 115.689 26.628 115.197 27.3217C114.716 28.0154 114.475 29.0504 114.475 30.4266C114.475 31.8028 114.716 32.8378 115.197 33.5315C115.689 34.2252 116.349 34.572 117.177 34.572ZM123.836 30.7622H128.451V32.5077H123.836V30.7622ZM133.842 24.5525V36.3007H131.66V26.3818H129.177V24.5525H133.842ZM141.51 29.0504C142.282 29.0504 142.976 29.2014 143.591 29.5035C144.206 29.7944 144.687 30.214 145.034 30.7622C145.381 31.3105 145.555 31.9427 145.555 32.6587C145.555 33.4196 145.364 34.0909 144.984 34.6727C144.604 35.2434 144.089 35.6853 143.44 35.9986C142.791 36.3119 142.064 36.4685 141.258 36.4685C139.647 36.4685 138.394 35.965 137.499 34.958C136.615 33.9511 136.173 32.5077 136.173 30.628C136.173 29.3077 136.413 28.1832 136.894 27.2546C137.376 26.3147 138.047 25.6042 138.908 25.1231C139.781 24.6308 140.788 24.3846 141.929 24.3846C142.534 24.3846 143.099 24.4518 143.625 24.586C144.162 24.7091 144.626 24.8937 145.018 25.1399L144.212 26.7846C143.63 26.4042 142.886 26.214 141.98 26.214C140.85 26.214 139.966 26.5608 139.328 27.2546C138.69 27.9483 138.371 28.9497 138.371 30.2587V30.2755C138.718 29.8727 139.16 29.5706 139.697 29.3692C140.234 29.1566 140.839 29.0504 141.51 29.0504ZM141.141 34.7566C141.823 34.7566 142.377 34.5776 142.802 34.2196C143.227 33.8504 143.44 33.3636 143.44 32.7594C143.44 32.1441 143.227 31.6573 142.802 31.2993C142.377 30.9413 141.806 30.7622 141.09 30.7622C140.385 30.7622 139.809 30.9525 139.362 31.3329C138.925 31.7133 138.707 32.1944 138.707 32.7762C138.707 33.3469 138.92 33.8224 139.345 34.2028C139.781 34.572 140.38 34.7566 141.141 34.7566ZM148.004 30.0238C147.624 30.0238 147.299 29.8951 147.031 29.6378C146.762 29.3692 146.628 29.0336 146.628 28.6308C146.628 28.2168 146.757 27.8811 147.014 27.6238C147.283 27.3664 147.613 27.2378 148.004 27.2378C148.396 27.2378 148.72 27.3664 148.978 27.6238C149.246 27.8811 149.38 28.2168 149.38 28.6308C149.38 29.0336 149.246 29.3692 148.978 29.6378C148.709 29.8951 148.385 30.0238 148.004 30.0238ZM148.004 36.4182C147.624 36.4182 147.299 36.2895 147.031 36.0322C146.762 35.7636 146.628 35.428 146.628 35.0252C146.628 34.6112 146.757 34.2755 147.014 34.0182C147.283 33.7608 147.613 33.6322 148.004 33.6322C148.396 33.6322 148.72 33.7608 148.978 34.0182C149.246 34.2755 149.38 34.6112 149.38 35.0252C149.38 35.428 149.246 35.7636 148.978 36.0322C148.709 36.2895 148.385 36.4182 148.004 36.4182ZM155.693 36.4685C154.753 36.4685 153.914 36.2336 153.176 35.7636C152.437 35.2825 151.856 34.5888 151.43 33.6825C151.005 32.765 150.793 31.6797 150.793 30.4266C150.793 29.1734 151.005 28.0937 151.43 27.1874C151.856 26.2699 152.437 25.5762 153.176 25.1063C153.914 24.6252 154.753 24.3846 155.693 24.3846C156.633 24.3846 157.472 24.6252 158.211 25.1063C158.96 25.5762 159.548 26.2699 159.973 27.1874C160.398 28.0937 160.611 29.1734 160.611 30.4266C160.611 31.6797 160.398 32.765 159.973 33.6825C159.548 34.5888 158.96 35.2825 158.211 35.7636C157.472 36.2336 156.633 36.4685 155.693 36.4685ZM155.693 34.572C156.532 34.572 157.193 34.2252 157.674 33.5315C158.166 32.8378 158.412 31.8028 158.412 30.4266C158.412 29.0504 158.166 28.0154 157.674 27.3217C157.193 26.628 156.532 26.2811 155.693 26.2811C154.865 26.2811 154.205 26.628 153.713 27.3217C153.232 28.0154 152.991 29.0504 152.991 30.4266C152.991 31.8028 153.232 32.8378 153.713 33.5315C154.205 34.2252 154.865 34.572 155.693 34.572ZM166.986 36.4685C166.046 36.4685 165.207 36.2336 164.468 35.7636C163.73 35.2825 163.148 34.5888 162.723 33.6825C162.298 32.765 162.085 31.6797 162.085 30.4266C162.085 29.1734 162.298 28.0937 162.723 27.1874C163.148 26.2699 163.73 25.5762 164.468 25.1063C165.207 24.6252 166.046 24.3846 166.986 24.3846C167.926 24.3846 168.765 24.6252 169.503 25.1063C170.253 25.5762 170.84 26.2699 171.266 27.1874C171.691 28.0937 171.903 29.1734 171.903 30.4266C171.903 31.6797 171.691 32.765 171.266 33.6825C170.84 34.5888 170.253 35.2825 169.503 35.7636C168.765 36.2336 167.926 36.4685 166.986 36.4685ZM166.986 34.572C167.825 34.572 168.485 34.2252 168.966 33.5315C169.459 32.8378 169.705 31.8028 169.705 30.4266C169.705 29.0504 169.459 28.0154 168.966 27.3217C168.485 26.628 167.825 26.2811 166.986 26.2811C166.158 26.2811 165.498 26.628 165.005 27.3217C164.524 28.0154 164.284 29.0504 164.284 30.4266C164.284 31.8028 164.524 32.8378 165.005 33.5315C165.498 34.2252 166.158 34.572 166.986 34.572Z" fill="#454545"/>
<path d="M248.88 102.522C248.88 103.602 248.48 104.522 247.68 105.282C246.893 106.029 245.747 106.482 244.24 106.642V108.882H242.6V106.662C241.613 106.596 240.68 106.416 239.8 106.122C238.92 105.829 238.22 105.456 237.7 105.002L238.6 102.982C239.093 103.382 239.693 103.722 240.4 104.002C241.107 104.269 241.84 104.436 242.6 104.502V100.502C241.653 100.276 240.86 100.029 240.22 99.7624C239.593 99.4824 239.067 99.0824 238.64 98.5624C238.213 98.0291 238 97.3291 238 96.4624C238 95.3824 238.393 94.4624 239.18 93.7024C239.967 92.9424 241.107 92.4891 242.6 92.3424V90.0824H244.24V92.3024C244.987 92.3424 245.713 92.4691 246.42 92.6824C247.14 92.8958 247.767 93.1758 248.3 93.5224L247.48 95.5424C246.467 94.9558 245.387 94.5958 244.24 94.4624V98.5024C245.2 98.7291 245.993 98.9758 246.62 99.2424C247.26 99.5091 247.793 99.9091 248.22 100.442C248.66 100.962 248.88 101.656 248.88 102.522ZM240.58 96.3424C240.58 96.7824 240.753 97.1358 241.1 97.4024C241.447 97.6691 241.947 97.8958 242.6 98.0824V94.5224C241.92 94.6291 241.413 94.8424 241.08 95.1624C240.747 95.4824 240.58 95.8758 240.58 96.3424ZM244.24 104.462C244.947 104.356 245.467 104.149 245.8 103.842C246.147 103.536 246.32 103.156 246.32 102.702C246.32 102.249 246.14 101.889 245.78 101.622C245.42 101.342 244.907 101.109 244.24 100.922V104.462ZM254.838 97.9024C256.811 97.9024 258.271 98.2891 259.218 99.0624C260.165 99.8224 260.638 100.862 260.638 102.182C260.638 103.022 260.431 103.782 260.018 104.462C259.605 105.142 258.985 105.682 258.158 106.082C257.331 106.482 256.311 106.682 255.098 106.682C254.098 106.682 253.131 106.542 252.198 106.262C251.265 105.969 250.478 105.569 249.838 105.062L250.938 103.042C251.458 103.469 252.078 103.809 252.798 104.062C253.531 104.302 254.285 104.422 255.058 104.422C255.978 104.422 256.698 104.236 257.218 103.862C257.751 103.476 258.018 102.949 258.018 102.282C258.018 101.562 257.731 101.022 257.158 100.662C256.598 100.289 255.631 100.102 254.258 100.102H250.878L251.598 92.4824H259.818V94.6624H253.798L253.498 97.9024H254.838ZM274.618 103.302H272.138V106.482H269.618V103.302H261.938V101.502L268.838 92.4824H271.618L265.118 101.102H269.698V98.2824H272.138V101.102H274.618V103.302ZM280.033 97.9024C282.007 97.9024 283.467 98.2891 284.413 99.0624C285.36 99.8224 285.833 100.862 285.833 102.182C285.833 103.022 285.627 103.782 285.213 104.462C284.8 105.142 284.18 105.682 283.353 106.082C282.527 106.482 281.507 106.682 280.293 106.682C279.293 106.682 278.327 106.542 277.393 106.262C276.46 105.969 275.673 105.569 275.033 105.062L276.133 103.042C276.653 103.469 277.273 103.809 277.993 104.062C278.727 104.302 279.48 104.422 280.253 104.422C281.173 104.422 281.893 104.236 282.413 103.862C282.947 103.476 283.213 102.949 283.213 102.282C283.213 101.562 282.927 101.022 282.353 100.662C281.793 100.289 280.827 100.102 279.453 100.102H276.073L276.793 92.4824H285.013V94.6624H278.993L278.693 97.9024H280.033Z" fill="black"/>
<path d="M86.4854 87.1822C87.7442 87.1822 88.6673 87.4214 89.2547 87.8997C89.8505 88.3696 90.1484 89.0158 90.1484 89.8381C90.1484 90.3584 90.0225 90.8284 89.7708 91.2479C89.5274 91.6591 89.154 91.9864 88.6505 92.2298C88.1554 92.4647 87.5428 92.5822 86.8127 92.5822C86.1917 92.5822 85.5917 92.4899 85.0127 92.3053C84.4337 92.1123 83.9554 91.8479 83.5778 91.5123L84.1568 90.5179C84.4589 90.8032 84.8449 91.034 85.3148 91.2102C85.7847 91.378 86.2799 91.4619 86.8001 91.4619C87.4631 91.4619 87.975 91.3235 88.3358 91.0465C88.705 90.7612 88.8896 90.3752 88.8896 89.8885C88.8896 89.3598 88.6882 88.9612 88.2854 88.6927C87.8827 88.4158 87.1945 88.2773 86.2211 88.2773H84.2197L84.6854 83.6703H89.6575V84.7654H85.7428L85.5036 87.1822H86.4854ZM95.2994 85.7472C96.1469 85.7472 96.8183 85.9948 97.3134 86.4899C97.8169 86.9766 98.0686 87.6941 98.0686 88.6423V92.4815H96.8602V88.7808C96.8602 88.1347 96.705 87.6479 96.3945 87.3207C96.084 86.9934 95.6393 86.8298 95.0602 86.8298C94.4057 86.8298 93.8896 87.0228 93.512 87.4088C93.1344 87.7864 92.9455 88.3319 92.9455 89.0451V92.4815H91.7372V83.1416H92.9455V86.7542C93.1973 86.4354 93.5246 86.1878 93.9274 86.0116C94.3386 85.8354 94.7959 85.7472 95.2994 85.7472ZM106.518 87.371C107.382 87.4549 108.041 87.7235 108.494 88.1766C108.947 88.6214 109.173 89.192 109.173 89.8885C109.173 90.392 109.048 90.8493 108.796 91.2605C108.544 91.6633 108.166 91.9864 107.663 92.2298C107.168 92.4647 106.559 92.5822 105.838 92.5822C105.208 92.5822 104.604 92.4899 104.025 92.3053C103.446 92.1123 102.972 91.8479 102.603 91.5123L103.182 90.5179C103.484 90.8032 103.87 91.034 104.34 91.2102C104.81 91.378 105.309 91.4619 105.838 91.4619C106.492 91.4619 107 91.3235 107.361 91.0465C107.73 90.7696 107.915 90.3878 107.915 89.9011C107.915 89.4144 107.734 89.0368 107.373 88.7682C107.013 88.4997 106.467 88.3654 105.737 88.3654H105.032V87.4843L107.248 84.7654H103.006V83.6703H108.821V84.5263L106.518 87.371ZM113.947 92.5822C113.251 92.5822 112.63 92.406 112.085 92.0535C111.547 91.6927 111.124 91.1724 110.813 90.4927C110.503 89.813 110.347 89.0074 110.347 88.0759C110.347 87.1444 110.503 86.3388 110.813 85.6591C111.124 84.9794 111.547 84.4633 112.085 84.1109C112.63 83.75 113.251 83.5696 113.947 83.5696C114.636 83.5696 115.248 83.75 115.785 84.1109C116.331 84.4633 116.759 84.9794 117.069 85.6591C117.38 86.3388 117.535 87.1444 117.535 88.0759C117.535 89.0074 117.38 89.813 117.069 90.4927C116.759 91.1724 116.331 91.6927 115.785 92.0535C115.248 92.406 114.636 92.5822 113.947 92.5822ZM113.947 91.4619C114.652 91.4619 115.215 91.1724 115.634 90.5934C116.062 90.0144 116.276 89.1752 116.276 88.0759C116.276 86.9766 116.062 86.1374 115.634 85.5584C115.215 84.9794 114.652 84.6899 113.947 84.6899C113.234 84.6899 112.664 84.9794 112.236 85.5584C111.816 86.1374 111.606 86.9766 111.606 88.0759C111.606 89.1752 111.816 90.0144 112.236 90.5934C112.664 91.1724 113.234 91.4619 113.947 91.4619ZM127.63 85.7472C128.469 85.7472 129.132 85.9906 129.619 86.4773C130.114 86.964 130.361 87.6857 130.361 88.6423V92.4815H129.153V88.7808C129.153 88.1347 129.002 87.6479 128.7 87.3207C128.406 86.9934 127.982 86.8298 127.428 86.8298C126.816 86.8298 126.329 87.0228 125.968 87.4088C125.607 87.7864 125.427 88.3319 125.427 89.0451V92.4815H124.219V88.7808C124.219 88.1347 124.068 87.6479 123.766 87.3207C123.472 86.9934 123.048 86.8298 122.494 86.8298C121.882 86.8298 121.395 87.0228 121.034 87.4088C120.673 87.7864 120.493 88.3319 120.493 89.0451V92.4815H119.284V85.8102H120.442V86.8046C120.686 86.4605 121.005 86.2004 121.399 86.0242C121.794 85.8395 122.242 85.7472 122.746 85.7472C123.266 85.7472 123.728 85.8521 124.131 86.0619C124.533 86.2717 124.844 86.578 125.062 86.9808C125.314 86.5948 125.662 86.2927 126.107 86.0745C126.56 85.8563 127.068 85.7472 127.63 85.7472ZM92.2631 98.6703V107.482H91.2309L85.9442 100.911V107.482H84.6854V98.6703H85.7176L91.0043 105.241V98.6703H92.2631ZM97.5815 107.557C96.9186 107.557 96.3228 107.41 95.7941 107.116C95.2655 106.823 94.8501 106.42 94.548 105.908C94.2543 105.388 94.1074 104.8 94.1074 104.146C94.1074 103.491 94.2543 102.908 94.548 102.396C94.8501 101.876 95.2655 101.473 95.7941 101.188C96.3228 100.894 96.9186 100.747 97.5815 100.747C98.2445 100.747 98.8361 100.894 99.3564 101.188C99.885 101.473 100.296 101.876 100.59 102.396C100.892 102.908 101.043 103.491 101.043 104.146C101.043 104.8 100.892 105.388 100.59 105.908C100.296 106.42 99.885 106.823 99.3564 107.116C98.8361 107.41 98.2445 107.557 97.5815 107.557ZM97.5815 106.5C98.0095 106.5 98.3913 106.403 98.727 106.21C99.0711 106.009 99.3396 105.732 99.5326 105.379C99.7256 105.019 99.8221 104.607 99.8221 104.146C99.8221 103.684 99.7256 103.277 99.5326 102.925C99.3396 102.564 99.0711 102.287 98.727 102.094C98.3913 101.901 98.0095 101.805 97.5815 101.805C97.1536 101.805 96.7676 101.901 96.4235 102.094C96.0878 102.287 95.8193 102.564 95.6179 102.925C95.4249 103.277 95.3284 103.684 95.3284 104.146C95.3284 104.607 95.4249 105.019 95.6179 105.379C95.8193 105.732 96.0878 106.009 96.4235 106.21C96.7676 106.403 97.1536 106.5 97.5815 106.5ZM106.276 100.747C107.124 100.747 107.795 100.995 108.29 101.49C108.794 101.977 109.046 102.694 109.046 103.642V107.482H107.837V103.781C107.837 103.135 107.682 102.648 107.372 102.321C107.061 101.993 106.616 101.83 106.037 101.83C105.383 101.83 104.867 102.023 104.489 102.409C104.111 102.786 103.923 103.332 103.923 104.045V107.482H102.714V100.81H103.872V101.817C104.116 101.473 104.443 101.209 104.854 101.024C105.274 100.84 105.748 100.747 106.276 100.747ZM110.854 103.504H114.24V104.549H110.854V103.504ZM118.014 107.557C117.469 107.557 116.944 107.486 116.441 107.343C115.937 107.192 115.543 107.003 115.257 106.777L115.761 105.82C116.055 106.03 116.411 106.198 116.831 106.323C117.25 106.449 117.674 106.512 118.102 106.512C119.159 106.512 119.688 106.21 119.688 105.606C119.688 105.405 119.617 105.245 119.474 105.128C119.331 105.01 119.151 104.926 118.933 104.876C118.723 104.817 118.421 104.754 118.027 104.687C117.489 104.603 117.049 104.507 116.705 104.398C116.369 104.288 116.08 104.104 115.836 103.844C115.593 103.584 115.471 103.219 115.471 102.749C115.471 102.144 115.723 101.662 116.227 101.301C116.73 100.932 117.406 100.747 118.253 100.747C118.698 100.747 119.143 100.802 119.587 100.911C120.032 101.02 120.397 101.167 120.682 101.351L120.166 102.308C119.621 101.956 118.979 101.779 118.241 101.779C117.729 101.779 117.338 101.863 117.07 102.031C116.801 102.199 116.667 102.421 116.667 102.698C116.667 102.916 116.743 103.088 116.894 103.214C117.045 103.34 117.229 103.433 117.448 103.491C117.674 103.55 117.989 103.617 118.392 103.693C118.929 103.785 119.361 103.886 119.688 103.995C120.024 104.095 120.309 104.272 120.544 104.523C120.779 104.775 120.896 105.128 120.896 105.581C120.896 106.185 120.636 106.668 120.116 107.028C119.604 107.381 118.903 107.557 118.014 107.557ZM126.158 107.091C125.982 107.242 125.763 107.36 125.503 107.444C125.243 107.519 124.975 107.557 124.698 107.557C124.026 107.557 123.506 107.377 123.137 107.016C122.768 106.655 122.583 106.139 122.583 105.468V101.805H121.45V100.81H122.583V99.35H123.791V100.81H125.705V101.805H123.791V105.417C123.791 105.778 123.879 106.055 124.056 106.248C124.24 106.441 124.5 106.537 124.836 106.537C125.205 106.537 125.52 106.433 125.78 106.223L126.158 107.091ZM130.255 107.557C129.592 107.557 128.996 107.41 128.467 107.116C127.939 106.823 127.523 106.42 127.221 105.908C126.927 105.388 126.781 104.8 126.781 104.146C126.781 103.491 126.927 102.908 127.221 102.396C127.523 101.876 127.939 101.473 128.467 101.188C128.996 100.894 129.592 100.747 130.255 100.747C130.918 100.747 131.509 100.894 132.03 101.188C132.558 101.473 132.969 101.876 133.263 102.396C133.565 102.908 133.716 103.491 133.716 104.146C133.716 104.8 133.565 105.388 133.263 105.908C132.969 106.42 132.558 106.823 132.03 107.116C131.509 107.41 130.918 107.557 130.255 107.557ZM130.255 106.5C130.683 106.5 131.065 106.403 131.4 106.21C131.744 106.009 132.013 105.732 132.206 105.379C132.399 105.019 132.495 104.607 132.495 104.146C132.495 103.684 132.399 103.277 132.206 102.925C132.013 102.564 131.744 102.287 131.4 102.094C131.065 101.901 130.683 101.805 130.255 101.805C129.827 101.805 129.441 101.901 129.097 102.094C128.761 102.287 128.492 102.564 128.291 102.925C128.098 103.277 128.002 103.684 128.002 104.146C128.002 104.607 128.098 105.019 128.291 105.379C128.492 105.732 128.761 106.009 129.097 106.21C129.441 106.403 129.827 106.5 130.255 106.5ZM138.925 100.747C139.571 100.747 140.15 100.89 140.662 101.175C141.173 101.461 141.572 101.859 141.857 102.371C142.151 102.883 142.298 103.475 142.298 104.146C142.298 104.817 142.151 105.413 141.857 105.933C141.572 106.445 141.173 106.844 140.662 107.129C140.15 107.414 139.571 107.557 138.925 107.557C138.446 107.557 138.006 107.465 137.603 107.28C137.208 107.095 136.873 106.827 136.596 106.475V109.923H135.387V100.81H136.545V101.868C136.814 101.498 137.154 101.221 137.565 101.037C137.976 100.844 138.429 100.747 138.925 100.747ZM138.824 106.5C139.252 106.5 139.634 106.403 139.969 106.21C140.313 106.009 140.582 105.732 140.775 105.379C140.976 105.019 141.077 104.607 141.077 104.146C141.077 103.684 140.976 103.277 140.775 102.925C140.582 102.564 140.313 102.287 139.969 102.094C139.634 101.901 139.252 101.805 138.824 101.805C138.404 101.805 138.022 101.905 137.678 102.107C137.343 102.3 137.074 102.572 136.873 102.925C136.68 103.277 136.583 103.684 136.583 104.146C136.583 104.607 136.68 105.019 136.873 105.379C137.066 105.732 137.334 106.009 137.678 106.21C138.022 106.403 138.404 106.5 138.824 106.5Z" fill="#454545"/>
<path d="M24.2377 69.8167C24.6083 72.0445 25.4225 74.1751 26.6319 76.0824C31.0165 74.8599 34.8728 72.548 36.2441 67.3957C37.7529 61.725 36.0316 55.7808 31.9133 52.6317C26.3032 56.1832 23.0689 62.8597 24.2377 69.8167ZM57.7623 64.1857C59.3178 73.4419 53.0759 82.2079 43.8164 83.762C42.258 84.024 40.7138 84.0651 39.2192 83.9079C36.8476 83.6561 34.5553 82.9092 32.4907 81.7154C30.4261 80.5216 28.6352 78.9075 27.234 76.9777L54.7575 69.0872C55.1527 68.9738 55.0507 68.5928 54.7235 68.6154L43.1845 69.4215C44.8109 67.8519 46.0476 65.9267 45.8975 63.2663C45.5943 58.9555 41.2068 54.7481 33.0467 51.98C36.0317 50.3989 39.4196 49.7416 42.7793 50.0917C50.1858 50.868 56.4688 56.4835 57.7623 64.1871" fill="#6F87B1"/>
<defs>
<filter id="filter0_d" x="0.286713" y="0.643357" width="307.133" height="139.301" filterUnits="userSpaceOnUse" color-interpolation-filters="sRGB">
<feFlood flood-opacity="0" result="BackgroundImageFix"/>
<feColorMatrix in="SourceAlpha" type="matrix" values="0 0 0 0 0 0 0 0 0 0 0 0 0 0 0 0 0 0 127 0" result="hardAlpha"/>
<feOffset dy="3.35664"/>
<feGaussianBlur stdDeviation="3.35664"/>
<feColorMatrix type="matrix" values="0 0 0 0 0 0 0 0 0 0 0 0 0 0 0 0 0 0 0.25 0"/>
<feBlend mode="normal" in2="BackgroundImageFix" result="effect1_dropShadow"/>
<feBlend mode="normal" in="SourceGraphic" in2="effect1_dropShadow" result="shape"/>
</filter>
<filter id="filter1_d" x="258.426" y="21.4663" width="22.4628" height="20.5195" filterUnits="userSpaceOnUse" color-interpolation-filters="sRGB">
<feFlood flood-opacity="0" result="BackgroundImageFix"/>
<feColorMatrix in="SourceAlpha" type="matrix" values="0 0 0 0 0 0 0 0 0 0 0 0 0 0 0 0 0 0 127 0" result="hardAlpha"/>
<feOffset dy="1.58065"/>
<feGaussianBlur stdDeviation="0.790325"/>
<feColorMatrix type="matrix" values="0 0 0 0 0 0 0 0 0 0 0 0 0 0 0 0 0 0 0.25 0"/>
<feBlend mode="normal" in2="BackgroundImageFix" result="effect1_dropShadow"/>
<feBlend mode="normal" in="SourceGraphic" in2="effect1_dropShadow" result="shape"/>
</filter>
</defs>
</svg>
