<svg width="162" height="115" viewBox="0 0 162 115" fill="none" xmlns="http://www.w3.org/2000/svg">
<path d="M8.85 6.54024C9.43 6.73024 9.89 7.05024 10.23 7.50024C10.57 7.94024 10.74 8.49024 10.74 9.15024C10.74 10.0602 10.39 10.7652 9.69 11.2652C8.99 11.7552 7.97 12.0002 6.63 12.0002H1.41V1.50024H6.33C7.57 1.50024 8.525 1.74524 9.195 2.23524C9.865 2.71524 10.2 3.38024 10.2 4.23024C10.2 4.75024 10.08 5.21024 9.84 5.61024C9.6 6.01024 9.27 6.32024 8.85 6.54024ZM3.36 3.03024V5.92524H6.12C6.8 5.92524 7.32 5.80524 7.68 5.56524C8.05 5.31524 8.235 4.95524 8.235 4.48524C8.235 4.00524 8.05 3.64524 7.68 3.40524C7.32 3.15524 6.8 3.03024 6.12 3.03024H3.36ZM6.51 10.4702C8.02 10.4702 8.775 9.96524 8.775 8.95524C8.775 7.94524 8.02 7.44024 6.51 7.44024H3.36V10.4702H6.51ZM16.2411 12.1052C15.4311 12.1052 14.7011 11.9302 14.0511 11.5802C13.4011 11.2302 12.8911 10.7452 12.5211 10.1252C12.1611 9.49524 11.9811 8.78524 11.9811 7.99524C11.9811 7.20524 12.1611 6.50024 12.5211 5.88024C12.8911 5.26024 13.4011 4.77524 14.0511 4.42524C14.7011 4.07524 15.4311 3.90024 16.2411 3.90024C17.0611 3.90024 17.7961 4.07524 18.4461 4.42524C19.0961 4.77524 19.6011 5.26024 19.9611 5.88024C20.3311 6.50024 20.5161 7.20524 20.5161 7.99524C20.5161 8.78524 20.3311 9.49524 19.9611 10.1252C19.6011 10.7452 19.0961 11.2302 18.4461 11.5802C17.7961 11.9302 17.0611 12.1052 16.2411 12.1052ZM16.2411 10.5002C16.9311 10.5002 17.5011 10.2702 17.9511 9.81024C18.4011 9.35024 18.6261 8.74524 18.6261 7.99524C18.6261 7.24524 18.4011 6.64024 17.9511 6.18024C17.5011 5.72024 16.9311 5.49024 16.2411 5.49024C15.5511 5.49024 14.9811 5.72024 14.5311 6.18024C14.0911 6.64024 13.8711 7.24524 13.8711 7.99524C13.8711 8.74524 14.0911 9.35024 14.5311 9.81024C14.9811 10.2702 15.5511 10.5002 16.2411 10.5002ZM25.9091 12.1052C25.0991 12.1052 24.3691 11.9302 23.7191 11.5802C23.0691 11.2302 22.5591 10.7452 22.1891 10.1252C21.8291 9.49524 21.6491 8.78524 21.6491 7.99524C21.6491 7.20524 21.8291 6.50024 22.1891 5.88024C22.5591 5.26024 23.0691 4.77524 23.7191 4.42524C24.3691 4.07524 25.0991 3.90024 25.9091 3.90024C26.7291 3.90024 27.4641 4.07524 28.1141 4.42524C28.7641 4.77524 29.2691 5.26024 29.6291 5.88024C29.9991 6.50024 30.1841 7.20524 30.1841 7.99524C30.1841 8.78524 29.9991 9.49524 29.6291 10.1252C29.2691 10.7452 28.7641 11.2302 28.1141 11.5802C27.4641 11.9302 26.7291 12.1052 25.9091 12.1052ZM25.9091 10.5002C26.5991 10.5002 27.1691 10.2702 27.6191 9.81024C28.0691 9.35024 28.2941 8.74524 28.2941 7.99524C28.2941 7.24524 28.0691 6.64024 27.6191 6.18024C27.1691 5.72024 26.5991 5.49024 25.9091 5.49024C25.2191 5.49024 24.6491 5.72024 24.1991 6.18024C23.7591 6.64024 23.5391 7.24524 23.5391 7.99524C23.5391 8.74524 23.7591 9.35024 24.1991 9.81024C24.6491 10.2702 25.2191 10.5002 25.9091 10.5002ZM35.2471 8.56524L33.8521 9.88524V12.0002H31.9771V0.870243H33.8521V7.59024L37.7371 3.99024H39.9871L36.6421 7.35024L40.3021 12.0002H38.0221L35.2471 8.56524ZM41.44 3.99024H43.315V12.0002H41.44V3.99024ZM42.385 2.67024C42.045 2.67024 41.76 2.56524 41.53 2.35524C41.3 2.13524 41.185 1.86524 41.185 1.54524C41.185 1.22524 41.3 0.960244 41.53 0.750243C41.76 0.530244 42.045 0.420244 42.385 0.420244C42.725 0.420244 43.01 0.525244 43.24 0.735243C43.47 0.935244 43.585 1.19024 43.585 1.50024C43.585 1.83024 43.47 2.11024 43.24 2.34024C43.02 2.56024 42.735 2.67024 42.385 2.67024ZM50.3209 3.90024C51.3309 3.90024 52.1409 4.19524 52.7509 4.78524C53.3609 5.37524 53.6659 6.25024 53.6659 7.41024V12.0002H51.7909V7.65024C51.7909 6.95024 51.6259 6.42524 51.2959 6.07524C50.9659 5.71524 50.4959 5.53524 49.8859 5.53524C49.1959 5.53524 48.6509 5.74524 48.2509 6.16524C47.8509 6.57524 47.6509 7.17024 47.6509 7.95024V12.0002H45.7759V3.99024H47.5609V5.02524C47.8709 4.65524 48.2609 4.37524 48.7309 4.18524C49.2009 3.99524 49.7309 3.90024 50.3209 3.90024ZM64.0677 3.99024V10.7852C64.0677 13.6052 62.6277 15.0152 59.7477 15.0152C58.9777 15.0152 58.2477 14.9152 57.5577 14.7152C56.8677 14.5252 56.2977 14.2452 55.8477 13.8752L56.6877 12.4652C57.0377 12.7552 57.4777 12.9852 58.0077 13.1552C58.5477 13.3352 59.0927 13.4252 59.6427 13.4252C60.5227 13.4252 61.1677 13.2252 61.5777 12.8252C61.9877 12.4252 62.1927 11.8152 62.1927 10.9952V10.5752C61.8727 10.9252 61.4827 11.1902 61.0227 11.3702C60.5627 11.5502 60.0577 11.6402 59.5077 11.6402C58.7477 11.6402 58.0577 11.4802 57.4377 11.1602C56.8277 10.8302 56.3427 10.3702 55.9827 9.78024C55.6327 9.19024 55.4577 8.51524 55.4577 7.75524C55.4577 6.99524 55.6327 6.32524 55.9827 5.74524C56.3427 5.15524 56.8277 4.70024 57.4377 4.38024C58.0577 4.06024 58.7477 3.90024 59.5077 3.90024C60.0877 3.90024 60.6127 3.99524 61.0827 4.18524C61.5627 4.37524 61.9627 4.66524 62.2827 5.05524V3.99024H64.0677ZM59.7927 10.0502C60.5027 10.0502 61.0827 9.84024 61.5327 9.42024C61.9927 8.99024 62.2227 8.43524 62.2227 7.75524C62.2227 7.08524 61.9927 6.54024 61.5327 6.12024C61.0827 5.70024 60.5027 5.49024 59.7927 5.49024C59.0727 5.49024 58.4827 5.70024 58.0227 6.12024C57.5727 6.54024 57.3477 7.08524 57.3477 7.75524C57.3477 8.43524 57.5727 8.99024 58.0227 9.42024C58.4827 9.84024 59.0727 10.0502 59.7927 10.0502ZM67.1327 12.1052C66.7927 12.1052 66.5027 11.9902 66.2627 11.7602C66.0227 11.5202 65.9027 11.2202 65.9027 10.8602C65.9027 10.4902 66.0177 10.1902 66.2477 9.96024C66.4877 9.73024 66.7827 9.61524 67.1327 9.61524C67.4827 9.61524 67.7727 9.73024 68.0027 9.96024C68.2427 10.1902 68.3627 10.4902 68.3627 10.8602C68.3627 11.2202 68.2427 11.5202 68.0027 11.7602C67.7627 11.9902 67.4727 12.1052 67.1327 12.1052ZM73.7234 12.1052C72.8934 12.1052 72.1484 11.9302 71.4884 11.5802C70.8284 11.2302 70.3134 10.7452 69.9434 10.1252C69.5734 9.49524 69.3884 8.78524 69.3884 7.99524C69.3884 7.20524 69.5734 6.50024 69.9434 5.88024C70.3134 5.26024 70.8234 4.77524 71.4734 4.42524C72.1334 4.07524 72.8834 3.90024 73.7234 3.90024C74.5134 3.90024 75.2034 4.06024 75.7934 4.38024C76.3934 4.70024 76.8434 5.16024 77.1434 5.76024L75.7034 6.60024C75.4734 6.23024 75.1834 5.95524 74.8334 5.77524C74.4934 5.58524 74.1184 5.49024 73.7084 5.49024C73.0084 5.49024 72.4284 5.72024 71.9684 6.18024C71.5084 6.63024 71.2784 7.23524 71.2784 7.99524C71.2784 8.75524 71.5034 9.36524 71.9534 9.82524C72.4134 10.2752 72.9984 10.5002 73.7084 10.5002C74.1184 10.5002 74.4934 10.4102 74.8334 10.2302C75.1834 10.0402 75.4734 9.76024 75.7034 9.39024L77.1434 10.2302C76.8334 10.8302 76.3784 11.2952 75.7784 11.6252C75.1884 11.9452 74.5034 12.1052 73.7234 12.1052ZM82.247 12.1052C81.437 12.1052 80.707 11.9302 80.057 11.5802C79.407 11.2302 78.897 10.7452 78.527 10.1252C78.167 9.49524 77.987 8.78524 77.987 7.99524C77.987 7.20524 78.167 6.50024 78.527 5.88024C78.897 5.26024 79.407 4.77524 80.057 4.42524C80.707 4.07524 81.437 3.90024 82.247 3.90024C83.067 3.90024 83.802 4.07524 84.452 4.42524C85.102 4.77524 85.607 5.26024 85.967 5.88024C86.337 6.50024 86.522 7.20524 86.522 7.99524C86.522 8.78524 86.337 9.49524 85.967 10.1252C85.607 10.7452 85.102 11.2302 84.452 11.5802C83.802 11.9302 83.067 12.1052 82.247 12.1052ZM82.247 10.5002C82.937 10.5002 83.507 10.2702 83.957 9.81024C84.407 9.35024 84.632 8.74524 84.632 7.99524C84.632 7.24524 84.407 6.64024 83.957 6.18024C83.507 5.72024 82.937 5.49024 82.247 5.49024C81.557 5.49024 80.987 5.72024 80.537 6.18024C80.097 6.64024 79.877 7.24524 79.877 7.99524C79.877 8.74524 80.097 9.35024 80.537 9.81024C80.987 10.2702 81.557 10.5002 82.247 10.5002ZM98.425 3.90024C99.435 3.90024 100.235 4.19524 100.825 4.78524C101.415 5.36524 101.71 6.24024 101.71 7.41024V12.0002H99.835V7.65024C99.835 6.95024 99.68 6.42524 99.37 6.07524C99.06 5.71524 98.615 5.53524 98.035 5.53524C97.405 5.53524 96.9 5.74524 96.52 6.16524C96.14 6.57524 95.95 7.16524 95.95 7.93524V12.0002H94.075V7.65024C94.075 6.95024 93.92 6.42524 93.61 6.07524C93.3 5.71524 92.855 5.53524 92.275 5.53524C91.635 5.53524 91.125 5.74024 90.745 6.15024C90.375 6.56024 90.19 7.15524 90.19 7.93524V12.0002H88.315V3.99024H90.1V5.01024C90.4 4.65024 90.775 4.37524 91.225 4.18524C91.675 3.99524 92.175 3.90024 92.725 3.90024C93.325 3.90024 93.855 4.01524 94.315 4.24524C94.785 4.46524 95.155 4.79524 95.425 5.23524C95.755 4.81524 96.18 4.49024 96.7 4.26024C97.22 4.02024 97.795 3.90024 98.425 3.90024ZM6.636 29.7562H1.956L0.948 32.0002H0.024L3.864 23.6002H4.74L8.58 32.0002H7.644L6.636 29.7562ZM6.312 29.0362L4.296 24.5242L2.28 29.0362H6.312ZM13.0416 25.6402C13.6336 25.6402 14.1696 25.7762 14.6496 26.0482C15.1296 26.3122 15.5056 26.6882 15.7776 27.1762C16.0496 27.6642 16.1856 28.2202 16.1856 28.8442C16.1856 29.4682 16.0496 30.0242 15.7776 30.5122C15.5056 31.0002 15.1296 31.3802 14.6496 31.6522C14.1696 31.9242 13.6336 32.0602 13.0416 32.0602C12.5136 32.0602 12.0376 31.9482 11.6136 31.7242C11.1976 31.5002 10.8616 31.1762 10.6056 30.7522V32.0002H9.78956V23.0962H10.6416V26.8882C10.9056 26.4802 11.2416 26.1722 11.6496 25.9642C12.0656 25.7482 12.5296 25.6402 13.0416 25.6402ZM12.9816 31.3042C13.4216 31.3042 13.8216 31.2042 14.1816 31.0042C14.5416 30.7962 14.8216 30.5042 15.0216 30.1282C15.2296 29.7522 15.3336 29.3242 15.3336 28.8442C15.3336 28.3642 15.2296 27.9362 15.0216 27.5602C14.8216 27.1842 14.5416 26.8962 14.1816 26.6962C13.8216 26.4882 13.4216 26.3842 12.9816 26.3842C12.5336 26.3842 12.1296 26.4882 11.7696 26.6962C11.4176 26.8962 11.1376 27.1842 10.9296 27.5602C10.7296 27.9362 10.6296 28.3642 10.6296 28.8442C10.6296 29.3242 10.7296 29.7522 10.9296 30.1282C11.1376 30.5042 11.4176 30.7962 11.7696 31.0042C12.1296 31.2042 12.5336 31.3042 12.9816 31.3042ZM20.5024 32.0602C19.8944 32.0602 19.3464 31.9242 18.8584 31.6522C18.3704 31.3722 17.9864 30.9882 17.7064 30.5002C17.4264 30.0122 17.2864 29.4602 17.2864 28.8442C17.2864 28.2282 17.4264 27.6762 17.7064 27.1882C17.9864 26.7002 18.3704 26.3202 18.8584 26.0482C19.3464 25.7762 19.8944 25.6402 20.5024 25.6402C21.1104 25.6402 21.6584 25.7762 22.1464 26.0482C22.6344 26.3202 23.0144 26.7002 23.2864 27.1882C23.5664 27.6762 23.7064 28.2282 23.7064 28.8442C23.7064 29.4602 23.5664 30.0122 23.2864 30.5002C23.0144 30.9882 22.6344 31.3722 22.1464 31.6522C21.6584 31.9242 21.1104 32.0602 20.5024 32.0602ZM20.5024 31.3042C20.9504 31.3042 21.3504 31.2042 21.7024 31.0042C22.0624 30.7962 22.3424 30.5042 22.5424 30.1282C22.7424 29.7522 22.8424 29.3242 22.8424 28.8442C22.8424 28.3642 22.7424 27.9362 22.5424 27.5602C22.3424 27.1842 22.0624 26.8962 21.7024 26.6962C21.3504 26.4882 20.9504 26.3842 20.5024 26.3842C20.0544 26.3842 19.6504 26.4882 19.2904 26.6962C18.9384 26.8962 18.6584 27.1842 18.4504 27.5602C18.2504 27.9362 18.1504 28.3642 18.1504 28.8442C18.1504 29.3242 18.2504 29.7522 18.4504 30.1282C18.6584 30.5042 18.9384 30.7962 19.2904 31.0042C19.6504 31.2042 20.0544 31.3042 20.5024 31.3042ZM31.1338 25.6882V32.0002H30.3178V30.8482C30.0938 31.2322 29.7858 31.5322 29.3938 31.7482C29.0018 31.9562 28.5538 32.0602 28.0498 32.0602C27.2258 32.0602 26.5738 31.8322 26.0938 31.3762C25.6218 30.9122 25.3858 30.2362 25.3858 29.3482V25.6882H26.2378V29.2642C26.2378 29.9282 26.4018 30.4322 26.7298 30.7762C27.0578 31.1202 27.5258 31.2922 28.1338 31.2922C28.7978 31.2922 29.3218 31.0922 29.7058 30.6922C30.0898 30.2842 30.2818 29.7202 30.2818 29.0002V25.6882H31.1338ZM36.844 31.6162C36.684 31.7602 36.484 31.8722 36.244 31.9522C36.012 32.0242 35.768 32.0602 35.512 32.0602C34.92 32.0602 34.464 31.9002 34.144 31.5802C33.824 31.2602 33.664 30.8082 33.664 30.2242V26.4082H32.536V25.6882H33.664V24.3082H34.516V25.6882H36.436V26.4082H34.516V30.1762C34.516 30.5522 34.608 30.8402 34.792 31.0402C34.984 31.2322 35.256 31.3282 35.608 31.3282C35.784 31.3282 35.952 31.3002 36.112 31.2442C36.28 31.1882 36.424 31.1082 36.544 31.0042L36.844 31.6162ZM5.016 52.0722C4.184 52.0722 3.432 51.8882 2.76 51.5202C2.096 51.1522 1.572 50.6442 1.188 49.9962C0.812 49.3402 0.624 48.6082 0.624 47.8002C0.624 46.9922 0.812 46.2642 1.188 45.6162C1.572 44.9602 2.1 44.4482 2.772 44.0802C3.444 43.7122 4.196 43.5282 5.028 43.5282C5.652 43.5282 6.228 43.6322 6.756 43.8402C7.284 44.0482 7.732 44.3522 8.1 44.7522L7.536 45.3162C6.88 44.6522 6.052 44.3202 5.052 44.3202C4.388 44.3202 3.784 44.4722 3.24 44.7762C2.696 45.0802 2.268 45.4962 1.956 46.0242C1.652 46.5522 1.5 47.1442 1.5 47.8002C1.5 48.4562 1.652 49.0482 1.956 49.5762C2.268 50.1042 2.696 50.5202 3.24 50.8242C3.784 51.1282 4.388 51.2802 5.052 51.2802C6.06 51.2802 6.888 50.9442 7.536 50.2722L8.1 50.8362C7.732 51.2362 7.28 51.5442 6.744 51.7602C6.216 51.9682 5.64 52.0722 5.016 52.0722ZM11.9273 45.6402C12.7513 45.6402 13.3833 45.8482 13.8233 46.2642C14.2633 46.6722 14.4833 47.2802 14.4833 48.0882V52.0002H13.6673V51.0162C13.4753 51.3442 13.1913 51.6002 12.8153 51.7842C12.4473 51.9682 12.0073 52.0602 11.4953 52.0602C10.7913 52.0602 10.2313 51.8922 9.81525 51.5562C9.39925 51.2202 9.19125 50.7762 9.19125 50.2242C9.19125 49.6882 9.38325 49.2562 9.76725 48.9282C10.1593 48.6002 10.7793 48.4362 11.6273 48.4362H13.6313V48.0522C13.6313 47.5082 13.4793 47.0962 13.1753 46.8162C12.8713 46.5282 12.4273 46.3842 11.8433 46.3842C11.4433 46.3842 11.0593 46.4522 10.6913 46.5882C10.3233 46.7162 10.0073 46.8962 9.74325 47.1282L9.35925 46.4922C9.67925 46.2202 10.0633 46.0122 10.5113 45.8682C10.9593 45.7162 11.4313 45.6402 11.9273 45.6402ZM11.6273 51.3882C12.1073 51.3882 12.5193 51.2802 12.8633 51.0642C13.2073 50.8402 13.4633 50.5202 13.6313 50.1042V49.0722H11.6513C10.5713 49.0722 10.0312 49.4482 10.0312 50.2002C10.0312 50.5682 10.1713 50.8602 10.4513 51.0762C10.7313 51.2842 11.1233 51.3882 11.6273 51.3882ZM17.6134 46.9242C17.8134 46.5002 18.1094 46.1802 18.5014 45.9642C18.9014 45.7482 19.3934 45.6402 19.9774 45.6402V46.4682L19.7734 46.4562C19.1094 46.4562 18.5894 46.6602 18.2134 47.0682C17.8374 47.4762 17.6494 48.0482 17.6494 48.7842V52.0002H16.7974V45.6882H17.6134V46.9242ZM26.9574 49.1082H21.6774C21.7254 49.7642 21.9774 50.2962 22.4334 50.7042C22.8894 51.1042 23.4654 51.3042 24.1614 51.3042C24.5534 51.3042 24.9134 51.2362 25.2414 51.1002C25.5694 50.9562 25.8534 50.7482 26.0934 50.4762L26.5734 51.0282C26.2934 51.3642 25.9414 51.6202 25.5174 51.7962C25.1014 51.9722 24.6414 52.0602 24.1374 52.0602C23.4894 52.0602 22.9134 51.9242 22.4094 51.6522C21.9134 51.3722 21.5254 50.9882 21.2454 50.5002C20.9654 50.0122 20.8254 49.4602 20.8254 48.8442C20.8254 48.2282 20.9574 47.6762 21.2214 47.1882C21.4934 46.7002 21.8614 46.3202 22.3254 46.0482C22.7974 45.7762 23.3254 45.6402 23.9094 45.6402C24.4934 45.6402 25.0174 45.7762 25.4814 46.0482C25.9454 46.3202 26.3094 46.7002 26.5734 47.1882C26.8374 47.6682 26.9694 48.2202 26.9694 48.8442L26.9574 49.1082ZM23.9094 46.3722C23.3014 46.3722 22.7894 46.5682 22.3734 46.9602C21.9654 47.3442 21.7334 47.8482 21.6774 48.4722H26.1534C26.0974 47.8482 25.8614 47.3442 25.4454 46.9602C25.0374 46.5682 24.5254 46.3722 23.9094 46.3722ZM34.1996 49.1082H28.9196C28.9676 49.7642 29.2196 50.2962 29.6756 50.7042C30.1316 51.1042 30.7076 51.3042 31.4036 51.3042C31.7956 51.3042 32.1556 51.2362 32.4836 51.1002C32.8116 50.9562 33.0956 50.7482 33.3356 50.4762L33.8156 51.0282C33.5356 51.3642 33.1836 51.6202 32.7596 51.7962C32.3436 51.9722 31.8836 52.0602 31.3796 52.0602C30.7316 52.0602 30.1556 51.9242 29.6516 51.6522C29.1556 51.3722 28.7676 50.9882 28.4876 50.5002C28.2076 50.0122 28.0676 49.4602 28.0676 48.8442C28.0676 48.2282 28.1996 47.6762 28.4636 47.1882C28.7356 46.7002 29.1036 46.3202 29.5676 46.0482C30.0396 45.7762 30.5676 45.6402 31.1516 45.6402C31.7356 45.6402 32.2596 45.7762 32.7236 46.0482C33.1876 46.3202 33.5516 46.7002 33.8156 47.1882C34.0796 47.6682 34.2116 48.2202 34.2116 48.8442L34.1996 49.1082ZM31.1516 46.3722C30.5436 46.3722 30.0316 46.5682 29.6156 46.9602C29.2076 47.3442 28.9756 47.8482 28.9196 48.4722H33.3956C33.3396 47.8482 33.1036 47.3442 32.6876 46.9602C32.2796 46.5682 31.7676 46.3722 31.1516 46.3722ZM36.7618 46.9242C36.9618 46.5002 37.2578 46.1802 37.6498 45.9642C38.0498 45.7482 38.5418 45.6402 39.1258 45.6402V46.4682L38.9218 46.4562C38.2578 46.4562 37.7378 46.6602 37.3618 47.0682C36.9858 47.4762 36.7978 48.0482 36.7978 48.7842V52.0002H35.9458V45.6882H36.7618V46.9242ZM42.4073 52.0602C41.8953 52.0602 41.4033 51.9882 40.9313 51.8442C40.4673 51.6922 40.1033 51.5042 39.8393 51.2802L40.2233 50.6082C40.4873 50.8162 40.8193 50.9882 41.2193 51.1242C41.6193 51.2522 42.0353 51.3162 42.4673 51.3162C43.0433 51.3162 43.4673 51.2282 43.7393 51.0522C44.0193 50.8682 44.1593 50.6122 44.1593 50.2842C44.1593 50.0522 44.0833 49.8722 43.9313 49.7442C43.7793 49.6082 43.5873 49.5082 43.3553 49.4442C43.1233 49.3722 42.8153 49.3042 42.4313 49.2402C41.9193 49.1442 41.5073 49.0482 41.1953 48.9522C40.8833 48.8482 40.6153 48.6762 40.3913 48.4362C40.1753 48.1962 40.0673 47.8642 40.0673 47.4402C40.0673 46.9122 40.2873 46.4802 40.7273 46.1442C41.1673 45.8082 41.7793 45.6402 42.5633 45.6402C42.9713 45.6402 43.3793 45.6962 43.7873 45.8082C44.1953 45.9122 44.5313 46.0522 44.7953 46.2282L44.4233 46.9122C43.9033 46.5522 43.2833 46.3722 42.5633 46.3722C42.0193 46.3722 41.6073 46.4682 41.3273 46.6602C41.0553 46.8522 40.9193 47.1042 40.9193 47.4162C40.9193 47.6562 40.9953 47.8482 41.1473 47.9922C41.3073 48.1362 41.5033 48.2442 41.7353 48.3162C41.9673 48.3802 42.2873 48.4482 42.6953 48.5202C43.1993 48.6162 43.6033 48.7122 43.9073 48.8082C44.2113 48.9042 44.4713 49.0682 44.6873 49.3002C44.9033 49.5322 45.0113 49.8522 45.0113 50.2602C45.0113 50.8122 44.7793 51.2522 44.3153 51.5802C43.8593 51.9002 43.2233 52.0602 42.4073 52.0602ZM4.512 63.6002C5.584 63.6002 6.424 63.8562 7.032 64.3682C7.64 64.8802 7.944 65.5842 7.944 66.4802C7.944 67.3762 7.64 68.0802 7.032 68.5922C6.424 69.0962 5.584 69.3482 4.512 69.3482H2.256V72.0002H1.368V63.6002H4.512ZM4.488 68.5682C5.32 68.5682 5.956 68.3882 6.396 68.0282C6.836 67.6602 7.056 67.1442 7.056 66.4802C7.056 65.8002 6.836 65.2802 6.396 64.9202C5.956 64.5522 5.32 64.3682 4.488 64.3682H2.256V68.5682H4.488ZM10.336 66.9242C10.536 66.5002 10.832 66.1802 11.224 65.9642C11.624 65.7482 12.116 65.6402 12.7 65.6402V66.4682L12.496 66.4562C11.832 66.4562 11.312 66.6602 10.936 67.0682C10.56 67.4762 10.372 68.0482 10.372 68.7842V72.0002H9.52003V65.6882H10.336V66.9242ZM19.6801 69.1082H14.4001C14.4481 69.7642 14.7001 70.2962 15.1561 70.7042C15.6121 71.1042 16.1881 71.3042 16.8841 71.3042C17.2761 71.3042 17.6361 71.2362 17.9641 71.1002C18.2921 70.9562 18.5761 70.7482 18.8161 70.4762L19.2961 71.0282C19.0161 71.3642 18.6641 71.6202 18.2401 71.7962C17.8241 71.9722 17.3641 72.0602 16.8601 72.0602C16.2121 72.0602 15.6361 71.9242 15.1321 71.6522C14.6361 71.3722 14.2481 70.9882 13.9681 70.5002C13.6881 70.0122 13.5481 69.4602 13.5481 68.8442C13.5481 68.2282 13.6801 67.6762 13.9441 67.1882C14.2161 66.7002 14.5841 66.3202 15.0481 66.0482C15.5201 65.7762 16.0481 65.6402 16.6321 65.6402C17.2161 65.6402 17.7401 65.7762 18.2041 66.0482C18.6681 66.3202 19.0321 66.7002 19.2961 67.1882C19.5601 67.6682 19.6921 68.2202 19.6921 68.8442L19.6801 69.1082ZM16.6321 66.3722C16.0241 66.3722 15.5121 66.5682 15.0961 66.9602C14.6881 67.3442 14.4561 67.8482 14.4001 68.4722H18.8761C18.8201 67.8482 18.5841 67.3442 18.1681 66.9602C17.7601 66.5682 17.2481 66.3722 16.6321 66.3722ZM23.1183 72.0602C22.6063 72.0602 22.1143 71.9882 21.6423 71.8442C21.1783 71.6922 20.8143 71.5042 20.5503 71.2802L20.9343 70.6082C21.1983 70.8162 21.5303 70.9882 21.9303 71.1242C22.3303 71.2522 22.7463 71.3162 23.1783 71.3162C23.7543 71.3162 24.1783 71.2282 24.4503 71.0522C24.7303 70.8682 24.8703 70.6122 24.8703 70.2842C24.8703 70.0522 24.7943 69.8722 24.6423 69.7442C24.4903 69.6082 24.2983 69.5082 24.0663 69.4442C23.8343 69.3722 23.5263 69.3042 23.1423 69.2402C22.6303 69.1442 22.2183 69.0482 21.9063 68.9522C21.5943 68.8482 21.3263 68.6762 21.1023 68.4362C20.8863 68.1962 20.7783 67.8642 20.7783 67.4402C20.7783 66.9122 20.9983 66.4802 21.4383 66.1442C21.8783 65.8082 22.4903 65.6402 23.2743 65.6402C23.6823 65.6402 24.0903 65.6962 24.4983 65.8082C24.9063 65.9122 25.2423 66.0522 25.5063 66.2282L25.1343 66.9122C24.6143 66.5522 23.9943 66.3722 23.2743 66.3722C22.7303 66.3722 22.3183 66.4682 22.0383 66.6602C21.7663 66.8522 21.6303 67.1042 21.6303 67.4162C21.6303 67.6562 21.7063 67.8482 21.8583 67.9922C22.0183 68.1362 22.2143 68.2442 22.4463 68.3162C22.6783 68.3802 22.9983 68.4482 23.4063 68.5202C23.9103 68.6162 24.3143 68.7122 24.6183 68.8082C24.9223 68.9042 25.1823 69.0682 25.3983 69.3002C25.6143 69.5322 25.7223 69.8522 25.7223 70.2602C25.7223 70.8122 25.4903 71.2522 25.0263 71.5802C24.5703 71.9002 23.9343 72.0602 23.1183 72.0602ZM28.9894 72.0602C28.4774 72.0602 27.9854 71.9882 27.5134 71.8442C27.0494 71.6922 26.6854 71.5042 26.4214 71.2802L26.8054 70.6082C27.0694 70.8162 27.4014 70.9882 27.8014 71.1242C28.2014 71.2522 28.6174 71.3162 29.0494 71.3162C29.6254 71.3162 30.0494 71.2282 30.3214 71.0522C30.6014 70.8682 30.7414 70.6122 30.7414 70.2842C30.7414 70.0522 30.6654 69.8722 30.5134 69.7442C30.3614 69.6082 30.1694 69.5082 29.9374 69.4442C29.7054 69.3722 29.3974 69.3042 29.0134 69.2402C28.5014 69.1442 28.0894 69.0482 27.7774 68.9522C27.4654 68.8482 27.1974 68.6762 26.9734 68.4362C26.7574 68.1962 26.6494 67.8642 26.6494 67.4402C26.6494 66.9122 26.8694 66.4802 27.3094 66.1442C27.7494 65.8082 28.3614 65.6402 29.1454 65.6402C29.5534 65.6402 29.9614 65.6962 30.3694 65.8082C30.7774 65.9122 31.1134 66.0522 31.3774 66.2282L31.0054 66.9122C30.4854 66.5522 29.8654 66.3722 29.1454 66.3722C28.6014 66.3722 28.1894 66.4682 27.9094 66.6602C27.6374 66.8522 27.5014 67.1042 27.5014 67.4162C27.5014 67.6562 27.5774 67.8482 27.7294 67.9922C27.8894 68.1362 28.0854 68.2442 28.3174 68.3162C28.5494 68.3802 28.8694 68.4482 29.2774 68.5202C29.7814 68.6162 30.1854 68.7122 30.4894 68.8082C30.7934 68.9042 31.0534 69.0682 31.2694 69.3002C31.4854 69.5322 31.5934 69.8522 31.5934 70.2602C31.5934 70.8122 31.3614 71.2522 30.8974 71.5802C30.4414 71.9002 29.8054 72.0602 28.9894 72.0602ZM40.1371 72.0722C39.3051 72.0722 38.5531 71.8882 37.8811 71.5202C37.2171 71.1522 36.6931 70.6442 36.3091 69.9962C35.9331 69.3402 35.7451 68.6082 35.7451 67.8002C35.7451 66.9922 35.9331 66.2642 36.3091 65.6162C36.6931 64.9602 37.2211 64.4482 37.8931 64.0802C38.5651 63.7122 39.3171 63.5282 40.1491 63.5282C40.7731 63.5282 41.3491 63.6322 41.8771 63.8402C42.4051 64.0482 42.8531 64.3522 43.2211 64.7522L42.6571 65.3162C42.0011 64.6522 41.1731 64.3202 40.1731 64.3202C39.5091 64.3202 38.9051 64.4722 38.3611 64.7762C37.8171 65.0802 37.3891 65.4962 37.0771 66.0242C36.7731 66.5522 36.6211 67.1442 36.6211 67.8002C36.6211 68.4562 36.7731 69.0482 37.0771 69.5762C37.3891 70.1042 37.8171 70.5202 38.3611 70.8242C38.9051 71.1282 39.5091 71.2802 40.1731 71.2802C41.1811 71.2802 42.0091 70.9442 42.6571 70.2722L43.2211 70.8362C42.8531 71.2362 42.4011 71.5442 41.8651 71.7602C41.3371 71.9682 40.7611 72.0722 40.1371 72.0722ZM50.1488 69.1082H44.8688C44.9168 69.7642 45.1688 70.2962 45.6248 70.7042C46.0808 71.1042 46.6568 71.3042 47.3528 71.3042C47.7448 71.3042 48.1048 71.2362 48.4328 71.1002C48.7608 70.9562 49.0448 70.7482 49.2848 70.4762L49.7648 71.0282C49.4848 71.3642 49.1328 71.6202 48.7088 71.7962C48.2928 71.9722 47.8328 72.0602 47.3288 72.0602C46.6808 72.0602 46.1048 71.9242 45.6008 71.6522C45.1048 71.3722 44.7168 70.9882 44.4368 70.5002C44.1568 70.0122 44.0168 69.4602 44.0168 68.8442C44.0168 68.2282 44.1488 67.6762 44.4128 67.1882C44.6848 66.7002 45.0528 66.3202 45.5168 66.0482C45.9888 65.7762 46.5168 65.6402 47.1008 65.6402C47.6848 65.6402 48.2088 65.7762 48.6728 66.0482C49.1368 66.3202 49.5008 66.7002 49.7648 67.1882C50.0288 67.6682 50.1608 68.2202 50.1608 68.8442L50.1488 69.1082ZM47.1008 66.3722C46.4928 66.3722 45.9808 66.5682 45.5648 66.9602C45.1568 67.3442 44.9248 67.8482 44.8688 68.4722H49.3448C49.2888 67.8482 49.0528 67.3442 48.6368 66.9602C48.2288 66.5682 47.7168 66.3722 47.1008 66.3722ZM55.111 65.6402C55.903 65.6402 56.531 65.8722 56.995 66.3362C57.467 66.7922 57.703 67.4602 57.703 68.3402V72.0002H56.851V68.4242C56.851 67.7682 56.687 67.2682 56.359 66.9242C56.031 66.5802 55.563 66.4082 54.955 66.4082C54.275 66.4082 53.735 66.6122 53.335 67.0202C52.943 67.4202 52.747 67.9762 52.747 68.6882V72.0002H51.895V65.6882H52.711V66.8522C52.943 66.4682 53.263 66.1722 53.671 65.9642C54.087 65.7482 54.567 65.6402 55.111 65.6402ZM63.3401 71.6162C63.1801 71.7602 62.9801 71.8722 62.7401 71.9522C62.5081 72.0242 62.2641 72.0602 62.0081 72.0602C61.4161 72.0602 60.9601 71.9002 60.6401 71.5802C60.3201 71.2602 60.1601 70.8082 60.1601 70.2242V66.4082H59.0321V65.6882H60.1601V64.3082H61.0121V65.6882H62.9321V66.4082H61.0121V70.1762C61.0121 70.5522 61.1041 70.8402 61.2881 71.0402C61.4801 71.2322 61.7521 71.3282 62.1041 71.3282C62.2801 71.3282 62.4481 71.3002 62.6081 71.2442C62.7761 71.1882 62.9201 71.1082 63.0401 71.0042L63.3401 71.6162ZM70.1645 69.1082H64.8845C64.9325 69.7642 65.1845 70.2962 65.6405 70.7042C66.0965 71.1042 66.6725 71.3042 67.3685 71.3042C67.7605 71.3042 68.1205 71.2362 68.4485 71.1002C68.7765 70.9562 69.0605 70.7482 69.3005 70.4762L69.7805 71.0282C69.5005 71.3642 69.1485 71.6202 68.7245 71.7962C68.3085 71.9722 67.8485 72.0602 67.3445 72.0602C66.6965 72.0602 66.1205 71.9242 65.6165 71.6522C65.1205 71.3722 64.7325 70.9882 64.4525 70.5002C64.1725 70.0122 64.0325 69.4602 64.0325 68.8442C64.0325 68.2282 64.1645 67.6762 64.4285 67.1882C64.7005 66.7002 65.0685 66.3202 65.5325 66.0482C66.0045 65.7762 66.5325 65.6402 67.1165 65.6402C67.7005 65.6402 68.2245 65.7762 68.6885 66.0482C69.1525 66.3202 69.5165 66.7002 69.7805 67.1882C70.0445 67.6682 70.1765 68.2202 70.1765 68.8442L70.1645 69.1082ZM67.1165 66.3722C66.5085 66.3722 65.9965 66.5682 65.5805 66.9602C65.1725 67.3442 64.9405 67.8482 64.8845 68.4722H69.3605C69.3045 67.8482 69.0685 67.3442 68.6525 66.9602C68.2445 66.5682 67.7325 66.3722 67.1165 66.3722ZM72.7267 66.9242C72.9267 66.5002 73.2227 66.1802 73.6147 65.9642C74.0147 65.7482 74.5067 65.6402 75.0907 65.6402V66.4682L74.8867 66.4562C74.2227 66.4562 73.7027 66.6602 73.3267 67.0682C72.9507 67.4762 72.7627 68.0482 72.7627 68.7842V72.0002H71.9107V65.6882H72.7267V66.9242ZM3 84.3682H0.048V83.6002H6.84V84.3682H3.888V92.0002H3V84.3682ZM12.9184 89.1082H7.63838C7.68638 89.7642 7.93838 90.2962 8.39438 90.7042C8.85038 91.1042 9.42638 91.3042 10.1224 91.3042C10.5144 91.3042 10.8744 91.2362 11.2024 91.1002C11.5304 90.9562 11.8144 90.7482 12.0544 90.4762L12.5344 91.0282C12.2544 91.3642 11.9024 91.6202 11.4784 91.7962C11.0624 91.9722 10.6024 92.0602 10.0984 92.0602C9.45038 92.0602 8.87438 91.9242 8.37038 91.6522C7.87438 91.3722 7.48638 90.9882 7.20638 90.5002C6.92638 90.0122 6.78638 89.4602 6.78638 88.8442C6.78638 88.2282 6.91838 87.6762 7.18238 87.1882C7.45438 86.7002 7.82238 86.3202 8.28638 86.0482C8.75838 85.7762 9.28638 85.6402 9.87038 85.6402C10.4544 85.6402 10.9784 85.7762 11.4424 86.0482C11.9064 86.3202 12.2704 86.7002 12.5344 87.1882C12.7984 87.6682 12.9304 88.2202 12.9304 88.8442L12.9184 89.1082ZM9.87038 86.3722C9.26238 86.3722 8.75038 86.5682 8.33438 86.9602C7.92638 87.3442 7.69438 87.8482 7.63838 88.4722H12.1144C12.0584 87.8482 11.8224 87.3442 11.4064 86.9602C10.9984 86.5682 10.4864 86.3722 9.87038 86.3722ZM15.4806 86.9242C15.6806 86.5002 15.9766 86.1802 16.3686 85.9642C16.7686 85.7482 17.2606 85.6402 17.8446 85.6402V86.4682L17.6406 86.4562C16.9766 86.4562 16.4566 86.6602 16.0806 87.0682C15.7046 87.4762 15.5166 88.0482 15.5166 88.7842V92.0002H14.6646V85.6882H15.4806V86.9242ZM27.2592 85.6402C28.0512 85.6402 28.6712 85.8682 29.1192 86.3242C29.5752 86.7802 29.8032 87.4522 29.8032 88.3402V92.0002H28.9512V88.4242C28.9512 87.7682 28.7912 87.2682 28.4712 86.9242C28.1592 86.5802 27.7152 86.4082 27.1392 86.4082C26.4832 86.4082 25.9672 86.6122 25.5912 87.0202C25.2152 87.4202 25.0272 87.9762 25.0272 88.6882V92.0002H24.1752V88.4242C24.1752 87.7682 24.0152 87.2682 23.6952 86.9242C23.3832 86.5802 22.9352 86.4082 22.3512 86.4082C21.7032 86.4082 21.1872 86.6122 20.8032 87.0202C20.4272 87.4202 20.2392 87.9762 20.2392 88.6882V92.0002H19.3872V85.6882H20.2032V86.8402C20.4272 86.4562 20.7392 86.1602 21.1392 85.9522C21.5392 85.7442 21.9992 85.6402 22.5192 85.6402C23.0472 85.6402 23.5032 85.7522 23.8872 85.9762C24.2792 86.2002 24.5712 86.5322 24.7632 86.9722C24.9952 86.5562 25.3272 86.2322 25.7592 86.0002C26.1992 85.7602 26.6992 85.6402 27.2592 85.6402ZM33.8058 92.0602C33.2938 92.0602 32.8018 91.9882 32.3298 91.8442C31.8658 91.6922 31.5018 91.5042 31.2378 91.2802L31.6218 90.6082C31.8858 90.8162 32.2178 90.9882 32.6178 91.1242C33.0178 91.2522 33.4338 91.3162 33.8658 91.3162C34.4418 91.3162 34.8658 91.2282 35.1378 91.0522C35.4178 90.8682 35.5578 90.6122 35.5578 90.2842C35.5578 90.0522 35.4818 89.8722 35.3298 89.7442C35.1778 89.6082 34.9858 89.5082 34.7538 89.4442C34.5218 89.3722 34.2138 89.3042 33.8298 89.2402C33.3178 89.1442 32.9058 89.0482 32.5938 88.9522C32.2818 88.8482 32.0138 88.6762 31.7898 88.4362C31.5738 88.1962 31.4658 87.8642 31.4658 87.4402C31.4658 86.9122 31.6858 86.4802 32.1258 86.1442C32.5658 85.8082 33.1778 85.6402 33.9618 85.6402C34.3698 85.6402 34.7778 85.6962 35.1858 85.8082C35.5938 85.9122 35.9298 86.0522 36.1938 86.2282L35.8218 86.9122C35.3018 86.5522 34.6818 86.3722 33.9618 86.3722C33.4178 86.3722 33.0058 86.4682 32.7258 86.6602C32.4538 86.8522 32.3178 87.1042 32.3178 87.4162C32.3178 87.6562 32.3938 87.8482 32.5458 87.9922C32.7058 88.1362 32.9018 88.2442 33.1338 88.3162C33.3658 88.3802 33.6858 88.4482 34.0938 88.5202C34.5978 88.6162 35.0018 88.7122 35.3058 88.8082C35.6098 88.9042 35.8698 89.0682 36.0858 89.3002C36.3018 89.5322 36.4098 89.8522 36.4098 90.2602C36.4098 90.8122 36.1778 91.2522 35.7138 91.5802C35.2578 91.9002 34.6218 92.0602 33.8058 92.0602ZM47.3175 92.1322L46.1535 90.9322C45.4415 91.6922 44.5055 92.0722 43.3455 92.0722C42.8015 92.0722 42.3135 91.9842 41.8815 91.8082C41.4575 91.6242 41.1255 91.3722 40.8855 91.0522C40.6455 90.7242 40.5255 90.3522 40.5255 89.9362C40.5255 89.4322 40.6855 88.9802 41.0055 88.5802C41.3255 88.1802 41.8695 87.7602 42.6375 87.3202C42.2375 86.9042 41.9615 86.5522 41.8095 86.2642C41.6575 85.9682 41.5815 85.6562 41.5815 85.3282C41.5815 84.7922 41.7735 84.3602 42.1575 84.0322C42.5415 83.7042 43.0575 83.5402 43.7055 83.5402C44.3055 83.5402 44.7815 83.6882 45.1335 83.9842C45.4855 84.2802 45.6615 84.6882 45.6615 85.2082C45.6615 85.6242 45.5215 86.0002 45.2415 86.3362C44.9615 86.6642 44.4775 87.0282 43.7895 87.4282L46.0935 89.8042C46.3495 89.3482 46.5375 88.8082 46.6575 88.1842L47.3535 88.4002C47.2015 89.1522 46.9535 89.7962 46.6095 90.3322L47.8095 91.5682L47.3175 92.1322ZM43.7055 84.1762C43.2895 84.1762 42.9615 84.2802 42.7215 84.4882C42.4895 84.6962 42.3735 84.9722 42.3735 85.3162C42.3735 85.5642 42.4375 85.8002 42.5655 86.0242C42.6935 86.2482 42.9455 86.5522 43.3215 86.9362C43.9295 86.5842 44.3495 86.2842 44.5815 86.0362C44.8135 85.7882 44.9295 85.5162 44.9295 85.2202C44.9295 84.9002 44.8215 84.6482 44.6055 84.4642C44.3895 84.2722 44.0895 84.1762 43.7055 84.1762ZM43.3935 91.3642C44.3215 91.3642 45.0735 91.0482 45.6495 90.4162L43.1175 87.8122C42.4535 88.1882 41.9935 88.5282 41.7375 88.8322C41.4895 89.1362 41.3655 89.4762 41.3655 89.8522C41.3655 90.3082 41.5495 90.6762 41.9175 90.9562C42.2935 91.2282 42.7855 91.3642 43.3935 91.3642ZM56.1215 92.0722C55.2895 92.0722 54.5375 91.8882 53.8655 91.5202C53.2015 91.1522 52.6775 90.6442 52.2935 89.9962C51.9175 89.3402 51.7295 88.6082 51.7295 87.8002C51.7295 86.9922 51.9175 86.2642 52.2935 85.6162C52.6775 84.9602 53.2055 84.4482 53.8775 84.0802C54.5495 83.7122 55.3015 83.5282 56.1335 83.5282C56.7575 83.5282 57.3335 83.6322 57.8615 83.8402C58.3895 84.0482 58.8375 84.3522 59.2055 84.7522L58.6415 85.3162C57.9855 84.6522 57.1575 84.3202 56.1575 84.3202C55.4935 84.3202 54.8895 84.4722 54.3455 84.7762C53.8015 85.0802 53.3735 85.4962 53.0615 86.0242C52.7575 86.5522 52.6055 87.1442 52.6055 87.8002C52.6055 88.4562 52.7575 89.0482 53.0615 89.5762C53.3735 90.1042 53.8015 90.5202 54.3455 90.8242C54.8895 91.1282 55.4935 91.2802 56.1575 91.2802C57.1655 91.2802 57.9935 90.9442 58.6415 90.2722L59.2055 90.8362C58.8375 91.2362 58.3855 91.5442 57.8495 91.7602C57.3215 91.9682 56.7455 92.0722 56.1215 92.0722ZM63.2172 92.0602C62.6092 92.0602 62.0612 91.9242 61.5732 91.6522C61.0852 91.3722 60.7012 90.9882 60.4212 90.5002C60.1412 90.0122 60.0012 89.4602 60.0012 88.8442C60.0012 88.2282 60.1412 87.6762 60.4212 87.1882C60.7012 86.7002 61.0852 86.3202 61.5732 86.0482C62.0612 85.7762 62.6092 85.6402 63.2172 85.6402C63.8252 85.6402 64.3732 85.7762 64.8612 86.0482C65.3492 86.3202 65.7292 86.7002 66.0012 87.1882C66.2812 87.6762 66.4212 88.2282 66.4212 88.8442C66.4212 89.4602 66.2812 90.0122 66.0012 90.5002C65.7292 90.9882 65.3492 91.3722 64.8612 91.6522C64.3732 91.9242 63.8252 92.0602 63.2172 92.0602ZM63.2172 91.3042C63.6652 91.3042 64.0652 91.2042 64.4172 91.0042C64.7772 90.7962 65.0572 90.5042 65.2572 90.1282C65.4572 89.7522 65.5572 89.3242 65.5572 88.8442C65.5572 88.3642 65.4572 87.9362 65.2572 87.5602C65.0572 87.1842 64.7772 86.8962 64.4172 86.6962C64.0652 86.4882 63.6652 86.3842 63.2172 86.3842C62.7692 86.3842 62.3652 86.4882 62.0052 86.6962C61.6532 86.8962 61.3732 87.1842 61.1652 87.5602C60.9652 87.9362 60.8652 88.3642 60.8652 88.8442C60.8652 89.3242 60.9652 89.7522 61.1652 90.1282C61.3732 90.5042 61.6532 90.7962 62.0052 91.0042C62.3652 91.2042 62.7692 91.3042 63.2172 91.3042ZM71.3767 85.6402C72.1687 85.6402 72.7967 85.8722 73.2607 86.3362C73.7327 86.7922 73.9687 87.4602 73.9687 88.3402V92.0002H73.1167V88.4242C73.1167 87.7682 72.9527 87.2682 72.6247 86.9242C72.2967 86.5802 71.8287 86.4082 71.2207 86.4082C70.5407 86.4082 70.0007 86.6122 69.6007 87.0202C69.2087 87.4202 69.0127 87.9762 69.0127 88.6882V92.0002H68.1607V85.6882H68.9767V86.8522C69.2087 86.4682 69.5287 86.1722 69.9367 85.9642C70.3527 85.7482 70.8327 85.6402 71.3767 85.6402ZM82.0652 83.0962V92.0002H81.2492V90.7522C80.9932 91.1762 80.6532 91.5002 80.2292 91.7242C79.8132 91.9482 79.3412 92.0602 78.8132 92.0602C78.2212 92.0602 77.6852 91.9242 77.2052 91.6522C76.7252 91.3802 76.3492 91.0002 76.0772 90.5122C75.8052 90.0242 75.6692 89.4682 75.6692 88.8442C75.6692 88.2202 75.8052 87.6642 76.0772 87.1762C76.3492 86.6882 76.7252 86.3122 77.2052 86.0482C77.6852 85.7762 78.2212 85.6402 78.8132 85.6402C79.3252 85.6402 79.7852 85.7482 80.1932 85.9642C80.6092 86.1722 80.9492 86.4802 81.2132 86.8882V83.0962H82.0652ZM78.8852 91.3042C79.3252 91.3042 79.7212 91.2042 80.0732 91.0042C80.4332 90.7962 80.7132 90.5042 80.9132 90.1282C81.1212 89.7522 81.2252 89.3242 81.2252 88.8442C81.2252 88.3642 81.1212 87.9362 80.9132 87.5602C80.7132 87.1842 80.4332 86.8962 80.0732 86.6962C79.7212 86.4882 79.3252 86.3842 78.8852 86.3842C78.4372 86.3842 78.0332 86.4882 77.6732 86.6962C77.3212 86.8962 77.0412 87.1842 76.8332 87.5602C76.6332 87.9362 76.5332 88.3642 76.5332 88.8442C76.5332 89.3242 76.6332 89.7522 76.8332 90.1282C77.0412 90.5042 77.3212 90.7962 77.6732 91.0042C78.0332 91.2042 78.4372 91.3042 78.8852 91.3042ZM84.438 85.6882H85.29V92.0002H84.438V85.6882ZM84.87 84.3082C84.694 84.3082 84.546 84.2482 84.426 84.1282C84.306 84.0082 84.246 83.8642 84.246 83.6962C84.246 83.5362 84.306 83.3962 84.426 83.2762C84.546 83.1562 84.694 83.0962 84.87 83.0962C85.046 83.0962 85.194 83.1562 85.314 83.2762C85.434 83.3882 85.494 83.5242 85.494 83.6842C85.494 83.8602 85.434 84.0082 85.314 84.1282C85.194 84.2482 85.046 84.3082 84.87 84.3082ZM90.9847 91.6162C90.8247 91.7602 90.6247 91.8722 90.3847 91.9522C90.1527 92.0242 89.9087 92.0602 89.6527 92.0602C89.0607 92.0602 88.6047 91.9002 88.2847 91.5802C87.9647 91.2602 87.8047 90.8082 87.8047 90.2242V86.4082H86.6767V85.6882H87.8047V84.3082H88.6567V85.6882H90.5767V86.4082H88.6567V90.1762C88.6567 90.5522 88.7487 90.8402 88.9327 91.0402C89.1247 91.2322 89.3967 91.3282 89.7487 91.3282C89.9247 91.3282 90.0927 91.3002 90.2527 91.2442C90.4207 91.1882 90.5647 91.1082 90.6847 91.0042L90.9847 91.6162ZM92.5357 85.6882H93.3877V92.0002H92.5357V85.6882ZM92.9677 84.3082C92.7917 84.3082 92.6437 84.2482 92.5237 84.1282C92.4037 84.0082 92.3437 83.8642 92.3437 83.6962C92.3437 83.5362 92.4037 83.3962 92.5237 83.2762C92.6437 83.1562 92.7917 83.0962 92.9677 83.0962C93.1437 83.0962 93.2917 83.1562 93.4117 83.2762C93.5317 83.3882 93.5917 83.5242 93.5917 83.6842C93.5917 83.8602 93.5317 84.0082 93.4117 84.1282C93.2917 84.2482 93.1437 84.3082 92.9677 84.3082ZM98.3383 92.0602C97.7303 92.0602 97.1823 91.9242 96.6943 91.6522C96.2063 91.3722 95.8223 90.9882 95.5423 90.5002C95.2623 90.0122 95.1223 89.4602 95.1223 88.8442C95.1223 88.2282 95.2623 87.6762 95.5423 87.1882C95.8223 86.7002 96.2063 86.3202 96.6943 86.0482C97.1823 85.7762 97.7303 85.6402 98.3383 85.6402C98.9463 85.6402 99.4943 85.7762 99.9823 86.0482C100.47 86.3202 100.85 86.7002 101.122 87.1882C101.402 87.6762 101.542 88.2282 101.542 88.8442C101.542 89.4602 101.402 90.0122 101.122 90.5002C100.85 90.9882 100.47 91.3722 99.9823 91.6522C99.4943 91.9242 98.9463 92.0602 98.3383 92.0602ZM98.3383 91.3042C98.7863 91.3042 99.1863 91.2042 99.5383 91.0042C99.8983 90.7962 100.178 90.5042 100.378 90.1282C100.578 89.7522 100.678 89.3242 100.678 88.8442C100.678 88.3642 100.578 87.9362 100.378 87.5602C100.178 87.1842 99.8983 86.8962 99.5383 86.6962C99.1863 86.4882 98.7863 86.3842 98.3383 86.3842C97.8903 86.3842 97.4863 86.4882 97.1263 86.6962C96.7743 86.8962 96.4943 87.1842 96.2863 87.5602C96.0863 87.9362 95.9863 88.3642 95.9863 88.8442C95.9863 89.3242 96.0863 89.7522 96.2863 90.1282C96.4943 90.5042 96.7743 90.7962 97.1263 91.0042C97.4863 91.2042 97.8903 91.3042 98.3383 91.3042ZM106.498 85.6402C107.29 85.6402 107.918 85.8722 108.382 86.3362C108.854 86.7922 109.09 87.4602 109.09 88.3402V92.0002H108.238V88.4242C108.238 87.7682 108.074 87.2682 107.746 86.9242C107.418 86.5802 106.95 86.4082 106.342 86.4082C105.662 86.4082 105.122 86.6122 104.722 87.0202C104.33 87.4202 104.134 87.9762 104.134 88.6882V92.0002H103.282V85.6882H104.098V86.8522C104.33 86.4682 104.65 86.1722 105.058 85.9642C105.474 85.7482 105.954 85.6402 106.498 85.6402ZM113.095 92.0602C112.583 92.0602 112.091 91.9882 111.619 91.8442C111.155 91.6922 110.791 91.5042 110.527 91.2802L110.911 90.6082C111.175 90.8162 111.507 90.9882 111.907 91.1242C112.307 91.2522 112.723 91.3162 113.155 91.3162C113.731 91.3162 114.155 91.2282 114.427 91.0522C114.707 90.8682 114.847 90.6122 114.847 90.2842C114.847 90.0522 114.771 89.8722 114.619 89.7442C114.467 89.6082 114.275 89.5082 114.043 89.4442C113.811 89.3722 113.503 89.3042 113.119 89.2402C112.607 89.1442 112.195 89.0482 111.883 88.9522C111.571 88.8482 111.303 88.6762 111.079 88.4362C110.863 88.1962 110.755 87.8642 110.755 87.4402C110.755 86.9122 110.975 86.4802 111.415 86.1442C111.855 85.8082 112.467 85.6402 113.251 85.6402C113.659 85.6402 114.067 85.6962 114.475 85.8082C114.883 85.9122 115.219 86.0522 115.483 86.2282L115.111 86.9122C114.591 86.5522 113.971 86.3722 113.251 86.3722C112.707 86.3722 112.295 86.4682 112.015 86.6602C111.743 86.8522 111.607 87.1042 111.607 87.4162C111.607 87.6562 111.683 87.8482 111.835 87.9922C111.995 88.1362 112.191 88.2442 112.423 88.3162C112.655 88.3802 112.975 88.4482 113.383 88.5202C113.887 88.6162 114.291 88.7122 114.595 88.8082C114.899 88.9042 115.159 89.0682 115.375 89.3002C115.591 89.5322 115.699 89.8522 115.699 90.2602C115.699 90.8122 115.467 91.2522 115.003 91.5802C114.547 91.9002 113.911 92.0602 113.095 92.0602ZM4.512 103.6C5.584 103.6 6.424 103.856 7.032 104.368C7.64 104.88 7.944 105.584 7.944 106.48C7.944 107.376 7.64 108.08 7.032 108.592C6.424 109.096 5.584 109.348 4.512 109.348H2.256V112H1.368V103.6H4.512ZM4.488 108.568C5.32 108.568 5.956 108.388 6.396 108.028C6.836 107.66 7.056 107.144 7.056 106.48C7.056 105.8 6.836 105.28 6.396 104.92C5.956 104.552 5.32 104.368 4.488 104.368H2.256V108.568H4.488ZM10.336 106.924C10.536 106.5 10.832 106.18 11.224 105.964C11.624 105.748 12.116 105.64 12.7 105.64V106.468L12.496 106.456C11.832 106.456 11.312 106.66 10.936 107.068C10.56 107.476 10.372 108.048 10.372 108.784V112H9.52003V105.688H10.336V106.924ZM14.2427 105.688H15.0947V112H14.2427V105.688ZM14.6747 104.308C14.4987 104.308 14.3507 104.248 14.2307 104.128C14.1107 104.008 14.0507 103.864 14.0507 103.696C14.0507 103.536 14.1107 103.396 14.2307 103.276C14.3507 103.156 14.4987 103.096 14.6747 103.096C14.8507 103.096 14.9987 103.156 15.1187 103.276C15.2387 103.388 15.2987 103.524 15.2987 103.684C15.2987 103.86 15.2387 104.008 15.1187 104.128C14.9987 104.248 14.8507 104.308 14.6747 104.308ZM19.6733 105.64C20.4973 105.64 21.1293 105.848 21.5693 106.264C22.0093 106.672 22.2293 107.28 22.2293 108.088V112H21.4133V111.016C21.2213 111.344 20.9373 111.6 20.5613 111.784C20.1933 111.968 19.7533 112.06 19.2413 112.06C18.5373 112.06 17.9773 111.892 17.5613 111.556C17.1453 111.22 16.9373 110.776 16.9373 110.224C16.9373 109.688 17.1293 109.256 17.5133 108.928C17.9053 108.6 18.5253 108.436 19.3733 108.436H21.3773V108.052C21.3773 107.508 21.2253 107.096 20.9213 106.816C20.6173 106.528 20.1733 106.384 19.5893 106.384C19.1893 106.384 18.8053 106.452 18.4373 106.588C18.0693 106.716 17.7533 106.896 17.4893 107.128L17.1053 106.492C17.4253 106.22 17.8093 106.012 18.2573 105.868C18.7053 105.716 19.1773 105.64 19.6733 105.64ZM19.3733 111.388C19.8533 111.388 20.2653 111.28 20.6093 111.064C20.9533 110.84 21.2093 110.52 21.3773 110.104V109.072H19.3973C18.3173 109.072 17.7773 109.448 17.7773 110.2C17.7773 110.568 17.9173 110.86 18.1973 111.076C18.4773 111.284 18.8693 111.388 19.3733 111.388ZM27.1829 112.06C26.5589 112.06 25.9989 111.924 25.5029 111.652C25.0149 111.38 24.6309 111 24.3509 110.512C24.0709 110.016 23.9309 109.46 23.9309 108.844C23.9309 108.228 24.0709 107.676 24.3509 107.188C24.6309 106.7 25.0149 106.32 25.5029 106.048C25.9989 105.776 26.5589 105.64 27.1829 105.64C27.7269 105.64 28.2109 105.748 28.6349 105.964C29.0669 106.172 29.4069 106.48 29.6549 106.888L29.0189 107.32C28.8109 107.008 28.5469 106.776 28.2269 106.624C27.9069 106.464 27.5589 106.384 27.1829 106.384C26.7269 106.384 26.3149 106.488 25.9469 106.696C25.5869 106.896 25.3029 107.184 25.0949 107.56C24.8949 107.936 24.7949 108.364 24.7949 108.844C24.7949 109.332 24.8949 109.764 25.0949 110.14C25.3029 110.508 25.5869 110.796 25.9469 111.004C26.3149 111.204 26.7269 111.304 27.1829 111.304C27.5589 111.304 27.9069 111.228 28.2269 111.076C28.5469 110.924 28.8109 110.692 29.0189 110.38L29.6549 110.812C29.4069 111.22 29.0669 111.532 28.6349 111.748C28.2029 111.956 27.7189 112.06 27.1829 112.06ZM36.5389 105.688L33.3829 112.756C33.1269 113.348 32.8309 113.768 32.4949 114.016C32.1589 114.264 31.7549 114.388 31.2829 114.388C30.9789 114.388 30.6949 114.34 30.4309 114.244C30.1669 114.148 29.9389 114.004 29.7469 113.812L30.1429 113.176C30.4629 113.496 30.8469 113.656 31.2949 113.656C31.5829 113.656 31.8269 113.576 32.0269 113.416C32.2349 113.256 32.4269 112.984 32.6029 112.6L32.8789 111.988L30.0589 105.688H30.9469L33.3229 111.052L35.6989 105.688H36.5389ZM47.0714 112.132L45.9074 110.932C45.1954 111.692 44.2594 112.072 43.0994 112.072C42.5554 112.072 42.0674 111.984 41.6354 111.808C41.2114 111.624 40.8794 111.372 40.6394 111.052C40.3994 110.724 40.2794 110.352 40.2794 109.936C40.2794 109.432 40.4394 108.98 40.7594 108.58C41.0794 108.18 41.6234 107.76 42.3914 107.32C41.9914 106.904 41.7154 106.552 41.5634 106.264C41.4114 105.968 41.3354 105.656 41.3354 105.328C41.3354 104.792 41.5274 104.36 41.9114 104.032C42.2954 103.704 42.8114 103.54 43.4594 103.54C44.0594 103.54 44.5354 103.688 44.8874 103.984C45.2394 104.28 45.4154 104.688 45.4154 105.208C45.4154 105.624 45.2754 106 44.9954 106.336C44.7154 106.664 44.2314 107.028 43.5434 107.428L45.8474 109.804C46.1034 109.348 46.2914 108.808 46.4114 108.184L47.1074 108.4C46.9554 109.152 46.7074 109.796 46.3634 110.332L47.5634 111.568L47.0714 112.132ZM43.4594 104.176C43.0434 104.176 42.7154 104.28 42.4754 104.488C42.2434 104.696 42.1274 104.972 42.1274 105.316C42.1274 105.564 42.1914 105.8 42.3194 106.024C42.4474 106.248 42.6994 106.552 43.0754 106.936C43.6834 106.584 44.1034 106.284 44.3354 106.036C44.5674 105.788 44.6834 105.516 44.6834 105.22C44.6834 104.9 44.5754 104.648 44.3594 104.464C44.1434 104.272 43.8434 104.176 43.4594 104.176ZM43.1474 111.364C44.0754 111.364 44.8274 111.048 45.4034 110.416L42.8714 107.812C42.2074 108.188 41.7474 108.528 41.4914 108.832C41.2434 109.136 41.1194 109.476 41.1194 109.852C41.1194 110.308 41.3034 110.676 41.6714 110.956C42.0474 111.228 42.5394 111.364 43.1474 111.364ZM54.6634 112.06C54.0394 112.06 53.4794 111.924 52.9834 111.652C52.4954 111.38 52.1114 111 51.8314 110.512C51.5514 110.016 51.4114 109.46 51.4114 108.844C51.4114 108.228 51.5514 107.676 51.8314 107.188C52.1114 106.7 52.4954 106.32 52.9834 106.048C53.4794 105.776 54.0394 105.64 54.6634 105.64C55.2074 105.64 55.6914 105.748 56.1154 105.964C56.5474 106.172 56.8874 106.48 57.1354 106.888L56.4994 107.32C56.2914 107.008 56.0274 106.776 55.7074 106.624C55.3874 106.464 55.0394 106.384 54.6634 106.384C54.2074 106.384 53.7954 106.488 53.4274 106.696C53.0674 106.896 52.7834 107.184 52.5754 107.56C52.3754 107.936 52.2754 108.364 52.2754 108.844C52.2754 109.332 52.3754 109.764 52.5754 110.14C52.7834 110.508 53.0674 110.796 53.4274 111.004C53.7954 111.204 54.2074 111.304 54.6634 111.304C55.0394 111.304 55.3874 111.228 55.7074 111.076C56.0274 110.924 56.2914 110.692 56.4994 110.38L57.1354 110.812C56.8874 111.22 56.5474 111.532 56.1154 111.748C55.6834 111.956 55.1994 112.06 54.6634 112.06ZM61.2836 112.06C60.6756 112.06 60.1276 111.924 59.6396 111.652C59.1516 111.372 58.7676 110.988 58.4876 110.5C58.2076 110.012 58.0676 109.46 58.0676 108.844C58.0676 108.228 58.2076 107.676 58.4876 107.188C58.7676 106.7 59.1516 106.32 59.6396 106.048C60.1276 105.776 60.6756 105.64 61.2836 105.64C61.8916 105.64 62.4396 105.776 62.9276 106.048C63.4156 106.32 63.7956 106.7 64.0676 107.188C64.3476 107.676 64.4876 108.228 64.4876 108.844C64.4876 109.46 64.3476 110.012 64.0676 110.5C63.7956 110.988 63.4156 111.372 62.9276 111.652C62.4396 111.924 61.8916 112.06 61.2836 112.06ZM61.2836 111.304C61.7316 111.304 62.1316 111.204 62.4836 111.004C62.8436 110.796 63.1236 110.504 63.3236 110.128C63.5236 109.752 63.6236 109.324 63.6236 108.844C63.6236 108.364 63.5236 107.936 63.3236 107.56C63.1236 107.184 62.8436 106.896 62.4836 106.696C62.1316 106.488 61.7316 106.384 61.2836 106.384C60.8356 106.384 60.4316 106.488 60.0716 106.696C59.7196 106.896 59.4396 107.184 59.2316 107.56C59.0316 107.936 58.9316 108.364 58.9316 108.844C58.9316 109.324 59.0316 109.752 59.2316 110.128C59.4396 110.504 59.7196 110.796 60.0716 111.004C60.4316 111.204 60.8356 111.304 61.2836 111.304ZM68.8071 112.06C68.1991 112.06 67.6511 111.924 67.1631 111.652C66.6751 111.372 66.2911 110.988 66.0111 110.5C65.7311 110.012 65.5911 109.46 65.5911 108.844C65.5911 108.228 65.7311 107.676 66.0111 107.188C66.2911 106.7 66.6751 106.32 67.1631 106.048C67.6511 105.776 68.1991 105.64 68.8071 105.64C69.4151 105.64 69.9631 105.776 70.4511 106.048C70.9391 106.32 71.3191 106.7 71.5911 107.188C71.8711 107.676 72.0111 108.228 72.0111 108.844C72.0111 109.46 71.8711 110.012 71.5911 110.5C71.3191 110.988 70.9391 111.372 70.4511 111.652C69.9631 111.924 69.4151 112.06 68.8071 112.06ZM68.8071 111.304C69.2551 111.304 69.6551 111.204 70.0071 111.004C70.3671 110.796 70.6471 110.504 70.8471 110.128C71.0471 109.752 71.1471 109.324 71.1471 108.844C71.1471 108.364 71.0471 107.936 70.8471 107.56C70.6471 107.184 70.3671 106.896 70.0071 106.696C69.6551 106.488 69.2551 106.384 68.8071 106.384C68.3591 106.384 67.9551 106.488 67.5951 106.696C67.2431 106.896 66.9631 107.184 66.7551 107.56C66.5551 107.936 66.4551 108.364 66.4551 108.844C66.4551 109.324 66.5551 109.752 66.7551 110.128C66.9631 110.504 67.2431 110.796 67.5951 111.004C67.9551 111.204 68.3591 111.304 68.8071 111.304ZM76.0905 108.832L74.6025 110.2V112H73.7505V103.096H74.6025V109.132L78.3705 105.688H79.4265L76.7265 108.268L79.6785 112H78.6345L76.0905 108.832ZM80.8638 105.688H81.7158V112H80.8638V105.688ZM81.2958 104.308C81.1198 104.308 80.9718 104.248 80.8518 104.128C80.7318 104.008 80.6718 103.864 80.6718 103.696C80.6718 103.536 80.7318 103.396 80.8518 103.276C80.9718 103.156 81.1198 103.096 81.2958 103.096C81.4718 103.096 81.6198 103.156 81.7398 103.276C81.8598 103.388 81.9198 103.524 81.9198 103.684C81.9198 103.86 81.8598 104.008 81.7398 104.128C81.6198 104.248 81.4718 104.308 81.2958 104.308ZM89.5824 109.108H84.3024C84.3504 109.764 84.6024 110.296 85.0584 110.704C85.5144 111.104 86.0904 111.304 86.7864 111.304C87.1784 111.304 87.5384 111.236 87.8664 111.1C88.1944 110.956 88.4784 110.748 88.7184 110.476L89.1984 111.028C88.9184 111.364 88.5664 111.62 88.1424 111.796C87.7264 111.972 87.2664 112.06 86.7624 112.06C86.1144 112.06 85.5384 111.924 85.0344 111.652C84.5384 111.372 84.1504 110.988 83.8704 110.5C83.5904 110.012 83.4504 109.46 83.4504 108.844C83.4504 108.228 83.5824 107.676 83.8464 107.188C84.1184 106.7 84.4864 106.32 84.9504 106.048C85.4224 105.776 85.9504 105.64 86.5344 105.64C87.1184 105.64 87.6424 105.776 88.1064 106.048C88.5704 106.32 88.9344 106.7 89.1984 107.188C89.4624 107.668 89.5944 108.22 89.5944 108.844L89.5824 109.108ZM86.5344 106.372C85.9264 106.372 85.4144 106.568 84.9984 106.96C84.5904 107.344 84.3584 107.848 84.3024 108.472H88.7784C88.7224 107.848 88.4864 107.344 88.0704 106.96C87.6624 106.568 87.1504 106.372 86.5344 106.372ZM93.0206 112.06C92.5086 112.06 92.0166 111.988 91.5446 111.844C91.0806 111.692 90.7166 111.504 90.4526 111.28L90.8366 110.608C91.1006 110.816 91.4326 110.988 91.8326 111.124C92.2326 111.252 92.6486 111.316 93.0806 111.316C93.6566 111.316 94.0806 111.228 94.3526 111.052C94.6326 110.868 94.7726 110.612 94.7726 110.284C94.7726 110.052 94.6966 109.872 94.5446 109.744C94.3926 109.608 94.2006 109.508 93.9686 109.444C93.7366 109.372 93.4286 109.304 93.0446 109.24C92.5326 109.144 92.1206 109.048 91.8086 108.952C91.4966 108.848 91.2286 108.676 91.0046 108.436C90.7886 108.196 90.6806 107.864 90.6806 107.44C90.6806 106.912 90.9006 106.48 91.3406 106.144C91.7806 105.808 92.3926 105.64 93.1766 105.64C93.5846 105.64 93.9926 105.696 94.4006 105.808C94.8086 105.912 95.1446 106.052 95.4086 106.228L95.0366 106.912C94.5166 106.552 93.8966 106.372 93.1766 106.372C92.6326 106.372 92.2206 106.468 91.9406 106.66C91.6686 106.852 91.5326 107.104 91.5326 107.416C91.5326 107.656 91.6086 107.848 91.7606 107.992C91.9206 108.136 92.1166 108.244 92.3486 108.316C92.5806 108.38 92.9006 108.448 93.3086 108.52C93.8126 108.616 94.2166 108.712 94.5206 108.808C94.8246 108.904 95.0846 109.068 95.3006 109.3C95.5166 109.532 95.6246 109.852 95.6246 110.26C95.6246 110.812 95.3926 111.252 94.9286 111.58C94.4726 111.9 93.8366 112.06 93.0206 112.06ZM102.032 112.06C101.52 112.06 101.028 111.988 100.556 111.844C100.092 111.692 99.7283 111.504 99.4643 111.28L99.8483 110.608C100.112 110.816 100.444 110.988 100.844 111.124C101.244 111.252 101.66 111.316 102.092 111.316C102.668 111.316 103.092 111.228 103.364 111.052C103.644 110.868 103.784 110.612 103.784 110.284C103.784 110.052 103.708 109.872 103.556 109.744C103.404 109.608 103.212 109.508 102.98 109.444C102.748 109.372 102.44 109.304 102.056 109.24C101.544 109.144 101.132 109.048 100.82 108.952C100.508 108.848 100.24 108.676 100.016 108.436C99.8003 108.196 99.6923 107.864 99.6923 107.44C99.6923 106.912 99.9123 106.48 100.352 106.144C100.792 105.808 101.404 105.64 102.188 105.64C102.596 105.64 103.004 105.696 103.412 105.808C103.82 105.912 104.156 106.052 104.42 106.228L104.048 106.912C103.528 106.552 102.908 106.372 102.188 106.372C101.644 106.372 101.232 106.468 100.952 106.66C100.68 106.852 100.544 107.104 100.544 107.416C100.544 107.656 100.62 107.848 100.772 107.992C100.932 108.136 101.128 108.244 101.36 108.316C101.592 108.38 101.912 108.448 102.32 108.52C102.824 108.616 103.228 108.712 103.532 108.808C103.836 108.904 104.096 109.068 104.312 109.3C104.528 109.532 104.636 109.852 104.636 110.26C104.636 110.812 104.404 111.252 103.94 111.58C103.484 111.9 102.848 112.06 102.032 112.06ZM109.535 111.616C109.375 111.76 109.175 111.872 108.935 111.952C108.703 112.024 108.459 112.06 108.203 112.06C107.611 112.06 107.155 111.9 106.835 111.58C106.515 111.26 106.355 110.808 106.355 110.224V106.408H105.227V105.688H106.355V104.308H107.207V105.688H109.127V106.408H107.207V110.176C107.207 110.552 107.299 110.84 107.483 111.04C107.675 111.232 107.947 111.328 108.299 111.328C108.475 111.328 108.643 111.3 108.803 111.244C108.971 111.188 109.115 111.108 109.235 111.004L109.535 111.616ZM113.294 105.64C114.118 105.64 114.75 105.848 115.19 106.264C115.63 106.672 115.85 107.28 115.85 108.088V112H115.034V111.016C114.842 111.344 114.558 111.6 114.182 111.784C113.814 111.968 113.374 112.06 112.862 112.06C112.158 112.06 111.598 111.892 111.182 111.556C110.766 111.22 110.558 110.776 110.558 110.224C110.558 109.688 110.75 109.256 111.134 108.928C111.526 108.6 112.146 108.436 112.994 108.436H114.998V108.052C114.998 107.508 114.846 107.096 114.542 106.816C114.238 106.528 113.794 106.384 113.21 106.384C112.81 106.384 112.426 106.452 112.058 106.588C111.69 106.716 111.374 106.896 111.11 107.128L110.726 106.492C111.046 106.22 111.43 106.012 111.878 105.868C112.326 105.716 112.798 105.64 113.294 105.64ZM112.994 111.388C113.474 111.388 113.886 111.28 114.23 111.064C114.574 110.84 114.83 110.52 114.998 110.104V109.072H113.018C111.938 109.072 111.398 109.448 111.398 110.2C111.398 110.568 111.538 110.86 111.818 111.076C112.098 111.284 112.49 111.388 112.994 111.388ZM121.489 111.616C121.329 111.76 121.129 111.872 120.889 111.952C120.657 112.024 120.413 112.06 120.157 112.06C119.565 112.06 119.109 111.9 118.789 111.58C118.469 111.26 118.309 110.808 118.309 110.224V106.408H117.181V105.688H118.309V104.308H119.161V105.688H121.081V106.408H119.161V110.176C119.161 110.552 119.253 110.84 119.437 111.04C119.629 111.232 119.901 111.328 120.253 111.328C120.429 111.328 120.597 111.3 120.757 111.244C120.925 111.188 121.069 111.108 121.189 111.004L121.489 111.616ZM128.313 109.108H123.033C123.081 109.764 123.333 110.296 123.789 110.704C124.245 111.104 124.821 111.304 125.517 111.304C125.909 111.304 126.269 111.236 126.597 111.1C126.925 110.956 127.209 110.748 127.449 110.476L127.929 111.028C127.649 111.364 127.297 111.62 126.873 111.796C126.457 111.972 125.997 112.06 125.493 112.06C124.845 112.06 124.269 111.924 123.765 111.652C123.269 111.372 122.881 110.988 122.601 110.5C122.321 110.012 122.181 109.46 122.181 108.844C122.181 108.228 122.313 107.676 122.577 107.188C122.849 106.7 123.217 106.32 123.681 106.048C124.153 105.776 124.681 105.64 125.265 105.64C125.849 105.64 126.373 105.776 126.837 106.048C127.301 106.32 127.665 106.7 127.929 107.188C128.193 107.668 128.325 108.22 128.325 108.844L128.313 109.108ZM125.265 106.372C124.657 106.372 124.145 106.568 123.729 106.96C123.321 107.344 123.089 107.848 123.033 108.472H127.509C127.453 107.848 127.217 107.344 126.801 106.96C126.393 106.568 125.881 106.372 125.265 106.372ZM137.931 105.64C138.723 105.64 139.343 105.868 139.791 106.324C140.247 106.78 140.475 107.452 140.475 108.34V112H139.623V108.424C139.623 107.768 139.463 107.268 139.143 106.924C138.831 106.58 138.387 106.408 137.811 106.408C137.155 106.408 136.639 106.612 136.263 107.02C135.887 107.42 135.699 107.976 135.699 108.688V112H134.847V108.424C134.847 107.768 134.687 107.268 134.367 106.924C134.055 106.58 133.607 106.408 133.023 106.408C132.375 106.408 131.859 106.612 131.475 107.02C131.099 107.42 130.911 107.976 130.911 108.688V112H130.059V105.688H130.875V106.84C131.099 106.456 131.411 106.16 131.811 105.952C132.211 105.744 132.671 105.64 133.191 105.64C133.719 105.64 134.175 105.752 134.559 105.976C134.951 106.2 135.243 106.532 135.435 106.972C135.667 106.556 135.999 106.232 136.431 106C136.871 105.76 137.371 105.64 137.931 105.64ZM148.305 109.108H143.025C143.073 109.764 143.325 110.296 143.781 110.704C144.237 111.104 144.813 111.304 145.509 111.304C145.901 111.304 146.261 111.236 146.589 111.1C146.917 110.956 147.201 110.748 147.441 110.476L147.921 111.028C147.641 111.364 147.289 111.62 146.865 111.796C146.449 111.972 145.989 112.06 145.485 112.06C144.837 112.06 144.261 111.924 143.757 111.652C143.261 111.372 142.873 110.988 142.593 110.5C142.313 110.012 142.173 109.46 142.173 108.844C142.173 108.228 142.305 107.676 142.569 107.188C142.841 106.7 143.209 106.32 143.673 106.048C144.145 105.776 144.673 105.64 145.257 105.64C145.841 105.64 146.365 105.776 146.829 106.048C147.293 106.32 147.657 106.7 147.921 107.188C148.185 107.668 148.317 108.22 148.317 108.844L148.305 109.108ZM145.257 106.372C144.649 106.372 144.137 106.568 143.721 106.96C143.313 107.344 143.081 107.848 143.025 108.472H147.501C147.445 107.848 147.209 107.344 146.793 106.96C146.385 106.568 145.873 106.372 145.257 106.372ZM153.267 105.64C154.059 105.64 154.687 105.872 155.151 106.336C155.623 106.792 155.859 107.46 155.859 108.34V112H155.007V108.424C155.007 107.768 154.843 107.268 154.515 106.924C154.187 106.58 153.719 106.408 153.111 106.408C152.431 106.408 151.891 106.612 151.491 107.02C151.099 107.42 150.903 107.976 150.903 108.688V112H150.051V105.688H150.867V106.852C151.099 106.468 151.419 106.172 151.827 105.964C152.243 105.748 152.723 105.64 153.267 105.64ZM161.496 111.616C161.336 111.76 161.136 111.872 160.896 111.952C160.664 112.024 160.42 112.06 160.164 112.06C159.572 112.06 159.116 111.9 158.796 111.58C158.476 111.26 158.316 110.808 158.316 110.224V106.408H157.188V105.688H158.316V104.308H159.168V105.688H161.088V106.408H159.168V110.176C159.168 110.552 159.26 110.84 159.444 111.04C159.636 111.232 159.908 111.328 160.26 111.328C160.436 111.328 160.604 111.3 160.764 111.244C160.932 111.188 161.076 111.108 161.196 111.004L161.496 111.616Z" fill="black"/>
</svg>
