<svg width="149" height="115" viewBox="0 0 149 115" fill="none" xmlns="http://www.w3.org/2000/svg">
<path d="M3.54 3.15024H0.06V1.50024H8.97V3.15024H5.49V12.0002H3.54V3.15024ZM11.848 5.16024C12.388 4.32024 13.338 3.90024 14.698 3.90024V5.68524C14.538 5.65524 14.393 5.64024 14.263 5.64024C13.533 5.64024 12.963 5.85524 12.553 6.28524C12.143 6.70524 11.938 7.31524 11.938 8.11524V12.0002H10.063V3.99024H11.848V5.16024ZM16.2886 3.99024H18.1636V12.0002H16.2886V3.99024ZM17.2336 2.67024C16.8936 2.67024 16.6086 2.56524 16.3786 2.35524C16.1486 2.13524 16.0336 1.86524 16.0336 1.54524C16.0336 1.22524 16.1486 0.960244 16.3786 0.750243C16.6086 0.530244 16.8936 0.420244 17.2336 0.420244C17.5736 0.420244 17.8586 0.525244 18.0886 0.735243C18.3186 0.935244 18.4336 1.19024 18.4336 1.50024C18.4336 1.83024 18.3186 2.11024 18.0886 2.34024C17.8686 2.56024 17.5836 2.67024 17.2336 2.67024ZM25.0645 3.90024C25.8445 3.90024 26.5395 4.07024 27.1495 4.41024C27.7695 4.75024 28.2545 5.23024 28.6045 5.85024C28.9545 6.47024 29.1295 7.18524 29.1295 7.99524C29.1295 8.80524 28.9545 9.52524 28.6045 10.1552C28.2545 10.7752 27.7695 11.2552 27.1495 11.5952C26.5395 11.9352 25.8445 12.1052 25.0645 12.1052C23.9845 12.1052 23.1295 11.7452 22.4995 11.0252V14.9102H20.6245V3.99024H22.4095V5.04024C22.7195 4.66024 23.0995 4.37524 23.5495 4.18524C24.0095 3.99524 24.5145 3.90024 25.0645 3.90024ZM24.8545 10.5002C25.5445 10.5002 26.1095 10.2702 26.5495 9.81024C26.9995 9.35024 27.2245 8.74524 27.2245 7.99524C27.2245 7.24524 26.9995 6.64024 26.5495 6.18024C26.1095 5.72024 25.5445 5.49024 24.8545 5.49024C24.4045 5.49024 23.9995 5.59524 23.6395 5.80524C23.2795 6.00524 22.9945 6.29524 22.7845 6.67524C22.5745 7.05524 22.4695 7.49524 22.4695 7.99524C22.4695 8.49524 22.5745 8.93524 22.7845 9.31524C22.9945 9.69524 23.2795 9.99024 23.6395 10.2002C23.9995 10.4002 24.4045 10.5002 24.8545 10.5002ZM5.016 32.0722C4.184 32.0722 3.432 31.8882 2.76 31.5202C2.096 31.1522 1.572 30.6442 1.188 29.9962C0.812 29.3402 0.624 28.6082 0.624 27.8002C0.624 26.9922 0.812 26.2642 1.188 25.6162C1.572 24.9602 2.1 24.4482 2.772 24.0802C3.444 23.7122 4.196 23.5282 5.028 23.5282C5.652 23.5282 6.228 23.6322 6.756 23.8402C7.284 24.0482 7.732 24.3522 8.1 24.7522L7.536 25.3162C6.88 24.6522 6.052 24.3202 5.052 24.3202C4.388 24.3202 3.784 24.4722 3.24 24.7762C2.696 25.0802 2.268 25.4962 1.956 26.0242C1.652 26.5522 1.5 27.1442 1.5 27.8002C1.5 28.4562 1.652 29.0482 1.956 29.5762C2.268 30.1042 2.696 30.5202 3.24 30.8242C3.784 31.1282 4.388 31.2802 5.052 31.2802C6.06 31.2802 6.888 30.9442 7.536 30.2722L8.1 30.8362C7.732 31.2362 7.28 31.5442 6.744 31.7602C6.216 31.9682 5.64 32.0722 5.016 32.0722ZM11.9273 25.6402C12.7513 25.6402 13.3833 25.8482 13.8233 26.2642C14.2633 26.6722 14.4833 27.2802 14.4833 28.0882V32.0002H13.6673V31.0162C13.4753 31.3442 13.1913 31.6002 12.8153 31.7842C12.4473 31.9682 12.0073 32.0602 11.4953 32.0602C10.7913 32.0602 10.2313 31.8922 9.81525 31.5562C9.39925 31.2202 9.19125 30.7762 9.19125 30.2242C9.19125 29.6882 9.38325 29.2562 9.76725 28.9282C10.1593 28.6002 10.7793 28.4362 11.6273 28.4362H13.6313V28.0522C13.6313 27.5082 13.4793 27.0962 13.1753 26.8162C12.8713 26.5282 12.4273 26.3842 11.8433 26.3842C11.4433 26.3842 11.0593 26.4522 10.6913 26.5882C10.3233 26.7162 10.0073 26.8962 9.74325 27.1282L9.35925 26.4922C9.67925 26.2202 10.0633 26.0122 10.5113 25.8682C10.9593 25.7162 11.4313 25.6402 11.9273 25.6402ZM11.6273 31.3882C12.1073 31.3882 12.5193 31.2802 12.8633 31.0642C13.2073 30.8402 13.4633 30.5202 13.6313 30.1042V29.0722H11.6513C10.5713 29.0722 10.0312 29.4482 10.0312 30.2002C10.0312 30.5682 10.1713 30.8602 10.4513 31.0762C10.7313 31.2842 11.1233 31.3882 11.6273 31.3882ZM17.6134 26.9242C17.8134 26.5002 18.1094 26.1802 18.5014 25.9642C18.9014 25.7482 19.3934 25.6402 19.9774 25.6402V26.4682L19.7734 26.4562C19.1094 26.4562 18.5894 26.6602 18.2134 27.0682C17.8374 27.4762 17.6494 28.0482 17.6494 28.7842V32.0002H16.7974V25.6882H17.6134V26.9242ZM25.5704 26.9242C25.7704 26.5002 26.0664 26.1802 26.4584 25.9642C26.8584 25.7482 27.3504 25.6402 27.9344 25.6402V26.4682L27.7304 26.4562C27.0664 26.4562 26.5464 26.6602 26.1704 27.0682C25.7944 27.4762 25.6064 28.0482 25.6064 28.7842V32.0002H24.7544V25.6882H25.5704V26.9242ZM34.9145 29.1082H29.6345C29.6825 29.7642 29.9345 30.2962 30.3905 30.7042C30.8465 31.1042 31.4225 31.3042 32.1185 31.3042C32.5105 31.3042 32.8705 31.2362 33.1985 31.1002C33.5265 30.9562 33.8105 30.7482 34.0505 30.4762L34.5305 31.0282C34.2505 31.3642 33.8985 31.6202 33.4745 31.7962C33.0585 31.9722 32.5985 32.0602 32.0945 32.0602C31.4465 32.0602 30.8705 31.9242 30.3665 31.6522C29.8705 31.3722 29.4825 30.9882 29.2025 30.5002C28.9225 30.0122 28.7825 29.4602 28.7825 28.8442C28.7825 28.2282 28.9145 27.6762 29.1785 27.1882C29.4505 26.7002 29.8185 26.3202 30.2825 26.0482C30.7545 25.7762 31.2825 25.6402 31.8665 25.6402C32.4505 25.6402 32.9745 25.7762 33.4385 26.0482C33.9025 26.3202 34.2665 26.7002 34.5305 27.1882C34.7945 27.6682 34.9265 28.2202 34.9265 28.8442L34.9145 29.1082ZM31.8665 26.3722C31.2585 26.3722 30.7465 26.5682 30.3305 26.9602C29.9225 27.3442 29.6905 27.8482 29.6345 28.4722H34.1105C34.0545 27.8482 33.8185 27.3442 33.4025 26.9602C32.9945 26.5682 32.4825 26.3722 31.8665 26.3722ZM39.8767 25.6402C40.6687 25.6402 41.2967 25.8722 41.7607 26.3362C42.2327 26.7922 42.4687 27.4602 42.4687 28.3402V32.0002H41.6167V28.4242C41.6167 27.7682 41.4527 27.2682 41.1247 26.9242C40.7967 26.5802 40.3287 26.4082 39.7207 26.4082C39.0407 26.4082 38.5007 26.6122 38.1007 27.0202C37.7087 27.4202 37.5127 27.9762 37.5127 28.6882V32.0002H36.6607V25.6882H37.4767V26.8522C37.7087 26.4682 38.0287 26.1722 38.4367 25.9642C38.8527 25.7482 39.3327 25.6402 39.8767 25.6402ZM48.1058 31.6162C47.9458 31.7602 47.7458 31.8722 47.5058 31.9522C47.2738 32.0242 47.0298 32.0602 46.7738 32.0602C46.1818 32.0602 45.7258 31.9002 45.4058 31.5802C45.0858 31.2602 44.9258 30.8082 44.9258 30.2242V26.4082H43.7978V25.6882H44.9258V24.3082H45.7778V25.6882H47.6978V26.4082H45.7778V30.1762C45.7778 30.5522 45.8698 30.8402 46.0538 31.0402C46.2458 31.2322 46.5178 31.3282 46.8698 31.3282C47.0458 31.3282 47.2138 31.3002 47.3738 31.2442C47.5418 31.1882 47.6858 31.1082 47.8058 31.0042L48.1058 31.6162ZM51.8648 25.6402C52.6888 25.6402 53.3208 25.8482 53.7608 26.2642C54.2008 26.6722 54.4208 27.2802 54.4208 28.0882V32.0002H53.6048V31.0162C53.4128 31.3442 53.1288 31.6002 52.7528 31.7842C52.3848 31.9682 51.9448 32.0602 51.4328 32.0602C50.7288 32.0602 50.1688 31.8922 49.7528 31.5562C49.3368 31.2202 49.1288 30.7762 49.1288 30.2242C49.1288 29.6882 49.3208 29.2562 49.7048 28.9282C50.0968 28.6002 50.7168 28.4362 51.5648 28.4362H53.5688V28.0522C53.5688 27.5082 53.4168 27.0962 53.1128 26.8162C52.8088 26.5282 52.3648 26.3842 51.7808 26.3842C51.3808 26.3842 50.9968 26.4522 50.6288 26.5882C50.2608 26.7162 49.9448 26.8962 49.6808 27.1282L49.2968 26.4922C49.6168 26.2202 50.0008 26.0122 50.4488 25.8682C50.8968 25.7162 51.3688 25.6402 51.8648 25.6402ZM51.5648 31.3882C52.0448 31.3882 52.4568 31.2802 52.8008 31.0642C53.1448 30.8402 53.4008 30.5202 53.5688 30.1042V29.0722H51.5888C50.5088 29.0722 49.9688 29.4482 49.9688 30.2002C49.9688 30.5682 50.1088 30.8602 50.3888 31.0762C50.6688 31.2842 51.0608 31.3882 51.5648 31.3882ZM56.7349 23.0962H57.5869V32.0002H56.7349V23.0962ZM2.256 44.3682V47.6682H6.6V48.4362H2.256V52.0002H1.368V43.6002H7.128V44.3682H2.256ZM8.78175 43.0962H9.63375V52.0002H8.78175V43.0962ZM12.0044 45.6882H12.8564V52.0002H12.0044V45.6882ZM12.4364 44.3082C12.2604 44.3082 12.1124 44.2482 11.9924 44.1282C11.8724 44.0082 11.8124 43.8642 11.8124 43.6962C11.8124 43.5362 11.8724 43.3962 11.9924 43.2762C12.1124 43.1562 12.2604 43.0962 12.4364 43.0962C12.6124 43.0962 12.7604 43.1562 12.8804 43.2762C13.0004 43.3882 13.0604 43.5242 13.0604 43.6842C13.0604 43.8602 13.0004 44.0082 12.8804 44.1282C12.7604 44.2482 12.6124 44.3082 12.4364 44.3082ZM21.0711 45.6882V51.2322C21.0711 52.3042 20.8071 53.0962 20.2791 53.6082C19.7591 54.1282 18.9711 54.3882 17.9151 54.3882C17.3311 54.3882 16.7751 54.3002 16.2471 54.1242C15.7271 53.9562 15.3031 53.7202 14.9751 53.4162L15.4071 52.7682C15.7111 53.0402 16.0791 53.2522 16.5111 53.4042C16.9511 53.5562 17.4111 53.6322 17.8911 53.6322C18.6911 53.6322 19.2791 53.4442 19.6551 53.0682C20.0311 52.7002 20.2191 52.1242 20.2191 51.3402V50.5362C19.9551 50.9362 19.6071 51.2402 19.1751 51.4482C18.7511 51.6562 18.2791 51.7602 17.7591 51.7602C17.1671 51.7602 16.6271 51.6322 16.1391 51.3762C15.6591 51.1122 15.2791 50.7482 14.9991 50.2842C14.7271 49.8122 14.5911 49.2802 14.5911 48.6882C14.5911 48.0962 14.7271 47.5682 14.9991 47.1042C15.2791 46.6402 15.6591 46.2802 16.1391 46.0242C16.6191 45.7682 17.1591 45.6402 17.7591 45.6402C18.2951 45.6402 18.7791 45.7482 19.2111 45.9642C19.6431 46.1802 19.9911 46.4922 20.2551 46.9002V45.6882H21.0711ZM17.8431 51.0042C18.2991 51.0042 18.7111 50.9082 19.0791 50.7162C19.4471 50.5162 19.7311 50.2402 19.9311 49.8882C20.1391 49.5362 20.2431 49.1362 20.2431 48.6882C20.2431 48.2402 20.1391 47.8442 19.9311 47.5002C19.7311 47.1482 19.4471 46.8762 19.0791 46.6842C18.7191 46.4842 18.3071 46.3842 17.8431 46.3842C17.3871 46.3842 16.9751 46.4802 16.6071 46.6722C16.2471 46.8642 15.9631 47.1362 15.7551 47.4882C15.5551 47.8402 15.4551 48.2402 15.4551 48.6882C15.4551 49.1362 15.5551 49.5362 15.7551 49.8882C15.9631 50.2402 16.2471 50.5162 16.6071 50.7162C16.9751 50.9082 17.3871 51.0042 17.8431 51.0042ZM26.6696 45.6402C27.4616 45.6402 28.0896 45.8722 28.5536 46.3362C29.0256 46.7922 29.2616 47.4602 29.2616 48.3402V52.0002H28.4096V48.4242C28.4096 47.7682 28.2456 47.2682 27.9176 46.9242C27.5896 46.5802 27.1216 46.4082 26.5136 46.4082C25.8336 46.4082 25.2936 46.6122 24.8936 47.0202C24.5016 47.4202 24.3056 47.9762 24.3056 48.6882V52.0002H23.4536V43.0962H24.3056V46.7922C24.5376 46.4242 24.8576 46.1402 25.2656 45.9402C25.6736 45.7402 26.1416 45.6402 26.6696 45.6402ZM34.8987 51.6162C34.7387 51.7602 34.5387 51.8722 34.2987 51.9522C34.0667 52.0242 33.8227 52.0602 33.5667 52.0602C32.9747 52.0602 32.5187 51.9002 32.1987 51.5802C31.8787 51.2602 31.7187 50.8082 31.7187 50.2242V46.4082H30.5907V45.6882H31.7187V44.3082H32.5707V45.6882H34.4907V46.4082H32.5707V50.1762C32.5707 50.5522 32.6627 50.8402 32.8467 51.0402C33.0387 51.2322 33.3107 51.3282 33.6627 51.3282C33.8387 51.3282 34.0067 51.3002 34.1667 51.2442C34.3347 51.1882 34.4787 51.1082 34.5987 51.0042L34.8987 51.6162ZM41.6783 43.7562C41.3103 43.7562 41.0303 43.8562 40.8383 44.0562C40.6543 44.2562 40.5623 44.5522 40.5623 44.9442V45.6882H42.5063V46.4082H40.5863V52.0002H39.7343V46.4082H38.6063V45.6882H39.7343V44.9082C39.7343 44.3322 39.8983 43.8762 40.2263 43.5402C40.5623 43.2042 41.0343 43.0362 41.6423 43.0362C41.8823 43.0362 42.1143 43.0722 42.3383 43.1442C42.5623 43.2082 42.7503 43.3042 42.9023 43.4322L42.6143 44.0682C42.3663 43.8602 42.0543 43.7562 41.6783 43.7562ZM44.6183 45.6882H45.4703V52.0002H44.6183V45.6882ZM45.0503 44.3082C44.8743 44.3082 44.7263 44.2482 44.6063 44.1282C44.4863 44.0082 44.4263 43.8642 44.4263 43.6962C44.4263 43.5362 44.4863 43.3962 44.6063 43.2762C44.7263 43.1562 44.8743 43.0962 45.0503 43.0962C45.2263 43.0962 45.3743 43.1562 45.4943 43.2762C45.6143 43.3882 45.6743 43.5242 45.6743 43.6842C45.6743 43.8602 45.6143 44.0082 45.4943 44.1282C45.3743 44.2482 45.2263 44.3082 45.0503 44.3082ZM51.0681 45.6402C51.8601 45.6402 52.4881 45.8722 52.9521 46.3362C53.4241 46.7922 53.6601 47.4602 53.6601 48.3402V52.0002H52.8081V48.4242C52.8081 47.7682 52.6441 47.2682 52.3161 46.9242C51.9881 46.5802 51.5201 46.4082 50.9121 46.4082C50.2321 46.4082 49.6921 46.6122 49.2921 47.0202C48.9001 47.4202 48.7041 47.9762 48.7041 48.6882V52.0002H47.8521V45.6882H48.6681V46.8522C48.9001 46.4682 49.2201 46.1722 49.6281 45.9642C50.0441 45.7482 50.5241 45.6402 51.0681 45.6402ZM61.7566 43.0962V52.0002H60.9406V50.7522C60.6846 51.1762 60.3446 51.5002 59.9206 51.7242C59.5046 51.9482 59.0326 52.0602 58.5046 52.0602C57.9126 52.0602 57.3766 51.9242 56.8966 51.6522C56.4166 51.3802 56.0406 51.0002 55.7686 50.5122C55.4966 50.0242 55.3606 49.4682 55.3606 48.8442C55.3606 48.2202 55.4966 47.6642 55.7686 47.1762C56.0406 46.6882 56.4166 46.3122 56.8966 46.0482C57.3766 45.7762 57.9126 45.6402 58.5046 45.6402C59.0166 45.6402 59.4766 45.7482 59.8846 45.9642C60.3006 46.1722 60.6406 46.4802 60.9046 46.8882V43.0962H61.7566ZM58.5766 51.3042C59.0166 51.3042 59.4126 51.2042 59.7646 51.0042C60.1246 50.7962 60.4046 50.5042 60.6046 50.1282C60.8126 49.7522 60.9166 49.3242 60.9166 48.8442C60.9166 48.3642 60.8126 47.9362 60.6046 47.5602C60.4046 47.1842 60.1246 46.8962 59.7646 46.6962C59.4126 46.4882 59.0166 46.3842 58.5766 46.3842C58.1286 46.3842 57.7246 46.4882 57.3646 46.6962C57.0126 46.8962 56.7326 47.1842 56.5246 47.5602C56.3246 47.9362 56.2246 48.3642 56.2246 48.8442C56.2246 49.3242 56.3246 49.7522 56.5246 50.1282C56.7326 50.5042 57.0126 50.7962 57.3646 51.0042C57.7246 51.2042 58.1286 51.3042 58.5766 51.3042ZM69.6254 49.1082H64.3454C64.3934 49.7642 64.6454 50.2962 65.1014 50.7042C65.5574 51.1042 66.1334 51.3042 66.8294 51.3042C67.2214 51.3042 67.5814 51.2362 67.9094 51.1002C68.2374 50.9562 68.5214 50.7482 68.7614 50.4762L69.2414 51.0282C68.9614 51.3642 68.6094 51.6202 68.1854 51.7962C67.7694 51.9722 67.3094 52.0602 66.8054 52.0602C66.1574 52.0602 65.5814 51.9242 65.0774 51.6522C64.5814 51.3722 64.1934 50.9882 63.9134 50.5002C63.6334 50.0122 63.4934 49.4602 63.4934 48.8442C63.4934 48.2282 63.6254 47.6762 63.8894 47.1882C64.1614 46.7002 64.5294 46.3202 64.9934 46.0482C65.4654 45.7762 65.9934 45.6402 66.5774 45.6402C67.1614 45.6402 67.6854 45.7762 68.1494 46.0482C68.6134 46.3202 68.9774 46.7002 69.2414 47.1882C69.5054 47.6682 69.6374 48.2202 69.6374 48.8442L69.6254 49.1082ZM66.5774 46.3722C65.9694 46.3722 65.4574 46.5682 65.0414 46.9602C64.6334 47.3442 64.4014 47.8482 64.3454 48.4722H68.8214C68.7654 47.8482 68.5294 47.3442 68.1134 46.9602C67.7054 46.5682 67.1934 46.3722 66.5774 46.3722ZM72.1876 46.9242C72.3876 46.5002 72.6836 46.1802 73.0756 45.9642C73.4756 45.7482 73.9676 45.6402 74.5516 45.6402V46.4682L74.3476 46.4562C73.6836 46.4562 73.1636 46.6602 72.7876 47.0682C72.4116 47.4762 72.2236 48.0482 72.2236 48.7842V52.0002H71.3716V45.6882H72.1876V46.9242ZM7.104 72.0002L5.184 69.3002C4.968 69.3242 4.744 69.3362 4.512 69.3362H2.256V72.0002H1.368V63.6002H4.512C5.584 63.6002 6.424 63.8562 7.032 64.3682C7.64 64.8802 7.944 65.5842 7.944 66.4802C7.944 67.1362 7.776 67.6922 7.44 68.1482C7.112 68.5962 6.64 68.9202 6.024 69.1202L8.076 72.0002H7.104ZM4.488 68.5802C5.32 68.5802 5.956 68.3962 6.396 68.0282C6.836 67.6602 7.056 67.1442 7.056 66.4802C7.056 65.8002 6.836 65.2802 6.396 64.9202C5.956 64.5522 5.32 64.3682 4.488 64.3682H2.256V68.5802H4.488ZM15.3559 69.1082H10.0759C10.1239 69.7642 10.3759 70.2962 10.8319 70.7042C11.2879 71.1042 11.8639 71.3042 12.5599 71.3042C12.9519 71.3042 13.3119 71.2362 13.6399 71.1002C13.9679 70.9562 14.2519 70.7482 14.4919 70.4762L14.9719 71.0282C14.6919 71.3642 14.3399 71.6202 13.9159 71.7962C13.4999 71.9722 13.0399 72.0602 12.5359 72.0602C11.8879 72.0602 11.3119 71.9242 10.8079 71.6522C10.3119 71.3722 9.92388 70.9882 9.64388 70.5002C9.36388 70.0122 9.22388 69.4602 9.22388 68.8442C9.22388 68.2282 9.35588 67.6762 9.61988 67.1882C9.89188 66.7002 10.2599 66.3202 10.7239 66.0482C11.1959 65.7762 11.7239 65.6402 12.3079 65.6402C12.8919 65.6402 13.4159 65.7762 13.8799 66.0482C14.3439 66.3202 14.7079 66.7002 14.9719 67.1882C15.2359 67.6682 15.3679 68.2202 15.3679 68.8442L15.3559 69.1082ZM12.3079 66.3722C11.6999 66.3722 11.1879 66.5682 10.7719 66.9602C10.3639 67.3442 10.1319 67.8482 10.0759 68.4722H14.5519C14.4959 67.8482 14.2599 67.3442 13.8439 66.9602C13.4359 66.5682 12.9239 66.3722 12.3079 66.3722ZM18.7941 72.0602C18.2821 72.0602 17.7901 71.9882 17.3181 71.8442C16.8541 71.6922 16.4901 71.5042 16.2261 71.2802L16.6101 70.6082C16.8741 70.8162 17.2061 70.9882 17.6061 71.1242C18.0061 71.2522 18.4221 71.3162 18.8541 71.3162C19.4301 71.3162 19.8541 71.2282 20.1261 71.0522C20.4061 70.8682 20.5461 70.6122 20.5461 70.2842C20.5461 70.0522 20.4701 69.8722 20.3181 69.7442C20.1661 69.6082 19.9741 69.5082 19.7421 69.4442C19.5101 69.3722 19.2021 69.3042 18.8181 69.2402C18.3061 69.1442 17.8941 69.0482 17.5821 68.9522C17.2701 68.8482 17.0021 68.6762 16.7781 68.4362C16.5621 68.1962 16.4541 67.8642 16.4541 67.4402C16.4541 66.9122 16.6741 66.4802 17.1141 66.1442C17.5541 65.8082 18.1661 65.6402 18.9501 65.6402C19.3581 65.6402 19.7661 65.6962 20.1741 65.8082C20.5821 65.9122 20.9181 66.0522 21.1821 66.2282L20.8101 66.9122C20.2901 66.5522 19.6701 66.3722 18.9501 66.3722C18.4061 66.3722 17.9941 66.4682 17.7141 66.6602C17.4421 66.8522 17.3061 67.1042 17.3061 67.4162C17.3061 67.6562 17.3821 67.8482 17.5341 67.9922C17.6941 68.1362 17.8901 68.2442 18.1221 68.3162C18.3541 68.3802 18.6741 68.4482 19.0821 68.5202C19.5861 68.6162 19.9901 68.7122 20.2941 68.8082C20.5981 68.9042 20.8581 69.0682 21.0741 69.3002C21.2901 69.5322 21.3981 69.8522 21.3981 70.2602C21.3981 70.8122 21.1661 71.2522 20.7021 71.5802C20.2461 71.9002 19.6101 72.0602 18.7941 72.0602ZM26.2972 71.6162C26.1372 71.7602 25.9372 71.8722 25.6972 71.9522C25.4652 72.0242 25.2212 72.0602 24.9652 72.0602C24.3732 72.0602 23.9172 71.9002 23.5972 71.5802C23.2772 71.2602 23.1172 70.8082 23.1172 70.2242V66.4082H21.9892V65.6882H23.1172V64.3082H23.9692V65.6882H25.8892V66.4082H23.9692V70.1762C23.9692 70.5522 24.0612 70.8402 24.2452 71.0402C24.4372 71.2322 24.7092 71.3282 25.0612 71.3282C25.2372 71.3282 25.4052 71.3002 25.5652 71.2442C25.7332 71.1882 25.8772 71.1082 25.9972 71.0042L26.2972 71.6162ZM30.0562 65.6402C30.8802 65.6402 31.5122 65.8482 31.9522 66.2642C32.3922 66.6722 32.6122 67.2802 32.6122 68.0882V72.0002H31.7962V71.0162C31.6042 71.3442 31.3202 71.6002 30.9442 71.7842C30.5762 71.9682 30.1362 72.0602 29.6242 72.0602C28.9202 72.0602 28.3602 71.8922 27.9442 71.5562C27.5282 71.2202 27.3202 70.7762 27.3202 70.2242C27.3202 69.6882 27.5122 69.2562 27.8962 68.9282C28.2882 68.6002 28.9082 68.4362 29.7562 68.4362H31.7602V68.0522C31.7602 67.5082 31.6082 67.0962 31.3042 66.8162C31.0002 66.5282 30.5562 66.3842 29.9722 66.3842C29.5722 66.3842 29.1882 66.4522 28.8202 66.5882C28.4522 66.7162 28.1362 66.8962 27.8722 67.1282L27.4882 66.4922C27.8082 66.2202 28.1922 66.0122 28.6402 65.8682C29.0882 65.7162 29.5602 65.6402 30.0562 65.6402ZM29.7562 71.3882C30.2362 71.3882 30.6482 71.2802 30.9922 71.0642C31.3362 70.8402 31.5922 70.5202 31.7602 70.1042V69.0722H29.7802C28.7002 69.0722 28.1602 69.4482 28.1602 70.2002C28.1602 70.5682 28.3002 70.8602 28.5802 71.0762C28.8602 71.2842 29.2522 71.3882 29.7562 71.3882ZM40.6143 65.6882V72.0002H39.7983V70.8482C39.5743 71.2322 39.2663 71.5322 38.8743 71.7482C38.4823 71.9562 38.0343 72.0602 37.5303 72.0602C36.7063 72.0602 36.0543 71.8322 35.5743 71.3762C35.1023 70.9122 34.8663 70.2362 34.8663 69.3482V65.6882H35.7183V69.2642C35.7183 69.9282 35.8823 70.4322 36.2103 70.7762C36.5383 71.1202 37.0063 71.2922 37.6143 71.2922C38.2783 71.2922 38.8023 71.0922 39.1863 70.6922C39.5703 70.2842 39.7623 69.7202 39.7623 69.0002V65.6882H40.6143ZM43.8165 66.9242C44.0165 66.5002 44.3125 66.1802 44.7045 65.9642C45.1045 65.7482 45.5965 65.6402 46.1805 65.6402V66.4682L45.9765 66.4562C45.3125 66.4562 44.7925 66.6602 44.4165 67.0682C44.0405 67.4762 43.8525 68.0482 43.8525 68.7842V72.0002H43.0005V65.6882H43.8165V66.9242ZM49.9194 65.6402C50.7434 65.6402 51.3754 65.8482 51.8154 66.2642C52.2554 66.6722 52.4754 67.2802 52.4754 68.0882V72.0002H51.6594V71.0162C51.4674 71.3442 51.1834 71.6002 50.8074 71.7842C50.4394 71.9682 49.9994 72.0602 49.4874 72.0602C48.7834 72.0602 48.2234 71.8922 47.8074 71.5562C47.3914 71.2202 47.1834 70.7762 47.1834 70.2242C47.1834 69.6882 47.3754 69.2562 47.7594 68.9282C48.1514 68.6002 48.7714 68.4362 49.6194 68.4362H51.6234V68.0522C51.6234 67.5082 51.4714 67.0962 51.1674 66.8162C50.8634 66.5282 50.4194 66.3842 49.8354 66.3842C49.4354 66.3842 49.0514 66.4522 48.6834 66.5882C48.3154 66.7162 47.9994 66.8962 47.7354 67.1282L47.3514 66.4922C47.6714 66.2202 48.0554 66.0122 48.5034 65.8682C48.9514 65.7162 49.4234 65.6402 49.9194 65.6402ZM49.6194 71.3882C50.0994 71.3882 50.5114 71.2802 50.8554 71.0642C51.1994 70.8402 51.4554 70.5202 51.6234 70.1042V69.0722H49.6434C48.5634 69.0722 48.0234 69.4482 48.0234 70.2002C48.0234 70.5682 48.1634 70.8602 48.4434 71.0762C48.7234 71.2842 49.1154 71.3882 49.6194 71.3882ZM58.0056 65.6402C58.7976 65.6402 59.4256 65.8722 59.8896 66.3362C60.3616 66.7922 60.5976 67.4602 60.5976 68.3402V72.0002H59.7456V68.4242C59.7456 67.7682 59.5816 67.2682 59.2536 66.9242C58.9256 66.5802 58.4576 66.4082 57.8496 66.4082C57.1696 66.4082 56.6296 66.6122 56.2296 67.0202C55.8376 67.4202 55.6416 67.9762 55.6416 68.6882V72.0002H54.7896V65.6882H55.6056V66.8522C55.8376 66.4682 56.1576 66.1722 56.5656 65.9642C56.9816 65.7482 57.4616 65.6402 58.0056 65.6402ZM66.2347 71.6162C66.0747 71.7602 65.8747 71.8722 65.6347 71.9522C65.4027 72.0242 65.1587 72.0602 64.9027 72.0602C64.3107 72.0602 63.8547 71.9002 63.5347 71.5802C63.2147 71.2602 63.0547 70.8082 63.0547 70.2242V66.4082H61.9267V65.6882H63.0547V64.3082H63.9067V65.6882H65.8267V66.4082H63.9067V70.1762C63.9067 70.5522 63.9987 70.8402 64.1827 71.0402C64.3747 71.2322 64.6467 71.3282 64.9987 71.3282C65.1747 71.3282 65.3427 71.3002 65.5027 71.2442C65.6707 71.1882 65.8147 71.1082 65.9347 71.0042L66.2347 71.6162ZM69.4777 72.0602C68.9657 72.0602 68.4737 71.9882 68.0017 71.8442C67.5377 71.6922 67.1737 71.5042 66.9097 71.2802L67.2937 70.6082C67.5577 70.8162 67.8897 70.9882 68.2897 71.1242C68.6897 71.2522 69.1057 71.3162 69.5377 71.3162C70.1137 71.3162 70.5377 71.2282 70.8097 71.0522C71.0897 70.8682 71.2297 70.6122 71.2297 70.2842C71.2297 70.0522 71.1537 69.8722 71.0017 69.7442C70.8497 69.6082 70.6577 69.5082 70.4257 69.4442C70.1937 69.3722 69.8857 69.3042 69.5017 69.2402C68.9897 69.1442 68.5777 69.0482 68.2657 68.9522C67.9537 68.8482 67.6857 68.6762 67.4617 68.4362C67.2457 68.1962 67.1377 67.8642 67.1377 67.4402C67.1377 66.9122 67.3577 66.4802 67.7977 66.1442C68.2377 65.8082 68.8497 65.6402 69.6337 65.6402C70.0417 65.6402 70.4497 65.6962 70.8577 65.8082C71.2657 65.9122 71.6017 66.0522 71.8657 66.2282L71.4937 66.9122C70.9737 66.5522 70.3537 66.3722 69.6337 66.3722C69.0897 66.3722 68.6777 66.4682 68.3977 66.6602C68.1257 66.8522 67.9897 67.1042 67.9897 67.4162C67.9897 67.6562 68.0657 67.8482 68.2177 67.9922C68.3777 68.1362 68.5737 68.2442 68.8057 68.3162C69.0377 68.3802 69.3577 68.4482 69.7657 68.5202C70.2697 68.6162 70.6737 68.7122 70.9777 68.8082C71.2817 68.9042 71.5417 69.0682 71.7577 69.3002C71.9737 69.5322 72.0817 69.8522 72.0817 70.2602C72.0817 70.8122 71.8497 71.2522 71.3857 71.5802C70.9297 71.9002 70.2937 72.0602 69.4777 72.0602ZM77.6134 66.9242C77.8134 66.5002 78.1094 66.1802 78.5014 65.9642C78.9014 65.7482 79.3934 65.6402 79.9774 65.6402V66.4682L79.7734 66.4562C79.1094 66.4562 78.5894 66.6602 78.2134 67.0682C77.8374 67.4762 77.6494 68.0482 77.6494 68.7842V72.0002H76.7974V65.6882H77.6134V66.9242ZM86.9574 69.1082H81.6774C81.7254 69.7642 81.9774 70.2962 82.4334 70.7042C82.8894 71.1042 83.4654 71.3042 84.1614 71.3042C84.5534 71.3042 84.9134 71.2362 85.2414 71.1002C85.5694 70.9562 85.8534 70.7482 86.0934 70.4762L86.5734 71.0282C86.2934 71.3642 85.9414 71.6202 85.5174 71.7962C85.1014 71.9722 84.6414 72.0602 84.1374 72.0602C83.4894 72.0602 82.9134 71.9242 82.4094 71.6522C81.9134 71.3722 81.5254 70.9882 81.2454 70.5002C80.9654 70.0122 80.8254 69.4602 80.8254 68.8442C80.8254 68.2282 80.9574 67.6762 81.2214 67.1882C81.4934 66.7002 81.8614 66.3202 82.3254 66.0482C82.7974 65.7762 83.3254 65.6402 83.9094 65.6402C84.4934 65.6402 85.0174 65.7762 85.4814 66.0482C85.9454 66.3202 86.3094 66.7002 86.5734 67.1882C86.8374 67.6682 86.9694 68.2202 86.9694 68.8442L86.9574 69.1082ZM83.9094 66.3722C83.3014 66.3722 82.7894 66.5682 82.3734 66.9602C81.9654 67.3442 81.7334 67.8482 81.6774 68.4722H86.1534C86.0974 67.8482 85.8614 67.3442 85.4454 66.9602C85.0374 66.5682 84.5254 66.3722 83.9094 66.3722ZM90.3956 72.0602C89.8836 72.0602 89.3916 71.9882 88.9196 71.8442C88.4556 71.6922 88.0916 71.5042 87.8276 71.2802L88.2116 70.6082C88.4756 70.8162 88.8076 70.9882 89.2076 71.1242C89.6076 71.2522 90.0236 71.3162 90.4556 71.3162C91.0316 71.3162 91.4556 71.2282 91.7276 71.0522C92.0076 70.8682 92.1476 70.6122 92.1476 70.2842C92.1476 70.0522 92.0716 69.8722 91.9196 69.7442C91.7676 69.6082 91.5756 69.5082 91.3436 69.4442C91.1116 69.3722 90.8036 69.3042 90.4196 69.2402C89.9076 69.1442 89.4956 69.0482 89.1836 68.9522C88.8716 68.8482 88.6036 68.6762 88.3796 68.4362C88.1636 68.1962 88.0556 67.8642 88.0556 67.4402C88.0556 66.9122 88.2756 66.4802 88.7156 66.1442C89.1556 65.8082 89.7676 65.6402 90.5516 65.6402C90.9596 65.6402 91.3676 65.6962 91.7756 65.8082C92.1836 65.9122 92.5196 66.0522 92.7836 66.2282L92.4116 66.9122C91.8916 66.5522 91.2716 66.3722 90.5516 66.3722C90.0076 66.3722 89.5956 66.4682 89.3156 66.6602C89.0436 66.8522 88.9076 67.1042 88.9076 67.4162C88.9076 67.6562 88.9836 67.8482 89.1356 67.9922C89.2956 68.1362 89.4916 68.2442 89.7236 68.3162C89.9556 68.3802 90.2756 68.4482 90.6836 68.5202C91.1876 68.6162 91.5916 68.7122 91.8956 68.8082C92.1996 68.9042 92.4596 69.0682 92.6756 69.3002C92.8916 69.5322 92.9996 69.8522 92.9996 70.2602C92.9996 70.8122 92.7676 71.2522 92.3036 71.5802C91.8476 71.9002 91.2116 72.0602 90.3956 72.0602ZM100.071 69.1082H94.7907C94.8387 69.7642 95.0907 70.2962 95.5467 70.7042C96.0027 71.1042 96.5787 71.3042 97.2747 71.3042C97.6667 71.3042 98.0267 71.2362 98.3547 71.1002C98.6827 70.9562 98.9667 70.7482 99.2067 70.4762L99.6867 71.0282C99.4067 71.3642 99.0547 71.6202 98.6307 71.7962C98.2147 71.9722 97.7547 72.0602 97.2507 72.0602C96.6027 72.0602 96.0267 71.9242 95.5227 71.6522C95.0267 71.3722 94.6387 70.9882 94.3587 70.5002C94.0787 70.0122 93.9387 69.4602 93.9387 68.8442C93.9387 68.2282 94.0707 67.6762 94.3347 67.1882C94.6067 66.7002 94.9747 66.3202 95.4387 66.0482C95.9107 65.7762 96.4387 65.6402 97.0227 65.6402C97.6067 65.6402 98.1307 65.7762 98.5947 66.0482C99.0587 66.3202 99.4227 66.7002 99.6867 67.1882C99.9507 67.6682 100.083 68.2202 100.083 68.8442L100.071 69.1082ZM97.0227 66.3722C96.4147 66.3722 95.9027 66.5682 95.4867 66.9602C95.0787 67.3442 94.8467 67.8482 94.7907 68.4722H99.2667C99.2107 67.8482 98.9747 67.3442 98.5587 66.9602C98.1507 66.5682 97.6387 66.3722 97.0227 66.3722ZM102.633 66.9242C102.833 66.5002 103.129 66.1802 103.521 65.9642C103.921 65.7482 104.413 65.6402 104.997 65.6402V66.4682L104.793 66.4562C104.129 66.4562 103.609 66.6602 103.233 67.0682C102.857 67.4762 102.669 68.0482 102.669 68.7842V72.0002H101.817V65.6882H102.633V66.9242ZM112.113 65.6882L109.305 72.0002H108.429L105.633 65.6882H106.521L108.885 71.0642L111.273 65.6882H112.113ZM115.334 65.6402C116.158 65.6402 116.79 65.8482 117.23 66.2642C117.67 66.6722 117.89 67.2802 117.89 68.0882V72.0002H117.074V71.0162C116.882 71.3442 116.598 71.6002 116.222 71.7842C115.854 71.9682 115.414 72.0602 114.902 72.0602C114.198 72.0602 113.638 71.8922 113.222 71.5562C112.806 71.2202 112.598 70.7762 112.598 70.2242C112.598 69.6882 112.79 69.2562 113.174 68.9282C113.566 68.6002 114.186 68.4362 115.034 68.4362H117.038V68.0522C117.038 67.5082 116.886 67.0962 116.582 66.8162C116.278 66.5282 115.834 66.3842 115.25 66.3842C114.85 66.3842 114.466 66.4522 114.098 66.5882C113.73 66.7162 113.414 66.8962 113.15 67.1282L112.766 66.4922C113.086 66.2202 113.47 66.0122 113.918 65.8682C114.366 65.7162 114.838 65.6402 115.334 65.6402ZM115.034 71.3882C115.514 71.3882 115.926 71.2802 116.27 71.0642C116.614 70.8402 116.87 70.5202 117.038 70.1042V69.0722H115.058C113.978 69.0722 113.438 69.4482 113.438 70.2002C113.438 70.5682 113.578 70.8602 113.858 71.0762C114.138 71.2842 114.53 71.3882 115.034 71.3882ZM123.528 71.6162C123.368 71.7602 123.168 71.8722 122.928 71.9522C122.696 72.0242 122.452 72.0602 122.196 72.0602C121.604 72.0602 121.148 71.9002 120.828 71.5802C120.508 71.2602 120.348 70.8082 120.348 70.2242V66.4082H119.22V65.6882H120.348V64.3082H121.2V65.6882H123.12V66.4082H121.2V70.1762C121.2 70.5522 121.292 70.8402 121.476 71.0402C121.668 71.2322 121.94 71.3282 122.292 71.3282C122.468 71.3282 122.636 71.3002 122.796 71.2442C122.964 71.1882 123.108 71.1082 123.228 71.0042L123.528 71.6162ZM125.079 65.6882H125.931V72.0002H125.079V65.6882ZM125.511 64.3082C125.335 64.3082 125.187 64.2482 125.067 64.1282C124.947 64.0082 124.887 63.8642 124.887 63.6962C124.887 63.5362 124.947 63.3962 125.067 63.2762C125.187 63.1562 125.335 63.0962 125.511 63.0962C125.687 63.0962 125.835 63.1562 125.955 63.2762C126.075 63.3882 126.135 63.5242 126.135 63.6842C126.135 63.8602 126.075 64.0082 125.955 64.1282C125.835 64.2482 125.687 64.3082 125.511 64.3082ZM130.881 72.0602C130.273 72.0602 129.725 71.9242 129.237 71.6522C128.749 71.3722 128.365 70.9882 128.085 70.5002C127.805 70.0122 127.665 69.4602 127.665 68.8442C127.665 68.2282 127.805 67.6762 128.085 67.1882C128.365 66.7002 128.749 66.3202 129.237 66.0482C129.725 65.7762 130.273 65.6402 130.881 65.6402C131.489 65.6402 132.037 65.7762 132.525 66.0482C133.013 66.3202 133.393 66.7002 133.665 67.1882C133.945 67.6762 134.085 68.2282 134.085 68.8442C134.085 69.4602 133.945 70.0122 133.665 70.5002C133.393 70.9882 133.013 71.3722 132.525 71.6522C132.037 71.9242 131.489 72.0602 130.881 72.0602ZM130.881 71.3042C131.329 71.3042 131.729 71.2042 132.081 71.0042C132.441 70.7962 132.721 70.5042 132.921 70.1282C133.121 69.7522 133.221 69.3242 133.221 68.8442C133.221 68.3642 133.121 67.9362 132.921 67.5602C132.721 67.1842 132.441 66.8962 132.081 66.6962C131.729 66.4882 131.329 66.3842 130.881 66.3842C130.433 66.3842 130.029 66.4882 129.669 66.6962C129.317 66.8962 129.037 67.1842 128.829 67.5602C128.629 67.9362 128.529 68.3642 128.529 68.8442C128.529 69.3242 128.629 69.7522 128.829 70.1282C129.037 70.5042 129.317 70.7962 129.669 71.0042C130.029 71.2042 130.433 71.3042 130.881 71.3042ZM139.041 65.6402C139.833 65.6402 140.461 65.8722 140.925 66.3362C141.397 66.7922 141.633 67.4602 141.633 68.3402V72.0002H140.781V68.4242C140.781 67.7682 140.617 67.2682 140.289 66.9242C139.961 66.5802 139.493 66.4082 138.885 66.4082C138.205 66.4082 137.665 66.6122 137.265 67.0202C136.873 67.4202 136.677 67.9762 136.677 68.6882V72.0002H135.825V65.6882H136.641V66.8522C136.873 66.4682 137.193 66.1722 137.601 65.9642C138.017 65.7482 138.497 65.6402 139.041 65.6402ZM145.638 72.0602C145.126 72.0602 144.634 71.9882 144.162 71.8442C143.698 71.6922 143.334 71.5042 143.07 71.2802L143.454 70.6082C143.718 70.8162 144.05 70.9882 144.45 71.1242C144.85 71.2522 145.266 71.3162 145.698 71.3162C146.274 71.3162 146.698 71.2282 146.97 71.0522C147.25 70.8682 147.39 70.6122 147.39 70.2842C147.39 70.0522 147.314 69.8722 147.162 69.7442C147.01 69.6082 146.818 69.5082 146.586 69.4442C146.354 69.3722 146.046 69.3042 145.662 69.2402C145.15 69.1442 144.738 69.0482 144.426 68.9522C144.114 68.8482 143.846 68.6762 143.622 68.4362C143.406 68.1962 143.298 67.8642 143.298 67.4402C143.298 66.9122 143.518 66.4802 143.958 66.1442C144.398 65.8082 145.01 65.6402 145.794 65.6402C146.202 65.6402 146.61 65.6962 147.018 65.8082C147.426 65.9122 147.762 66.0522 148.026 66.2282L147.654 66.9122C147.134 66.5522 146.514 66.3722 145.794 66.3722C145.25 66.3722 144.838 66.4682 144.558 66.6602C144.286 66.8522 144.15 67.1042 144.15 67.4162C144.15 67.6562 144.226 67.8482 144.378 67.9922C144.538 68.1362 144.734 68.2442 144.966 68.3162C145.198 68.3802 145.518 68.4482 145.926 68.5202C146.43 68.6162 146.834 68.7122 147.138 68.8082C147.442 68.9042 147.702 69.0682 147.918 69.3002C148.134 69.5322 148.242 69.8522 148.242 70.2602C148.242 70.8122 148.01 71.2522 147.546 71.5802C147.09 71.9002 146.454 72.0602 145.638 72.0602ZM3 84.3682H0.048V83.6002H6.84V84.3682H3.888V92.0002H3V84.3682ZM8.73056 86.9242C8.93056 86.5002 9.22656 86.1802 9.61856 85.9642C10.0186 85.7482 10.5106 85.6402 11.0946 85.6402V86.4682L10.8906 86.4562C10.2266 86.4562 9.70656 86.6602 9.33056 87.0682C8.95456 87.4762 8.76656 88.0482 8.76656 88.7842V92.0002H7.91456V85.6882H8.73056V86.9242ZM14.8335 85.6402C15.6575 85.6402 16.2895 85.8482 16.7295 86.2642C17.1695 86.6722 17.3895 87.2802 17.3895 88.0882V92.0002H16.5735V91.0162C16.3815 91.3442 16.0975 91.6002 15.7215 91.7842C15.3535 91.9682 14.9135 92.0602 14.4015 92.0602C13.6975 92.0602 13.1375 91.8922 12.7215 91.5562C12.3055 91.2202 12.0975 90.7762 12.0975 90.2242C12.0975 89.6882 12.2895 89.2562 12.6735 88.9282C13.0655 88.6002 13.6855 88.4362 14.5335 88.4362H16.5375V88.0522C16.5375 87.5082 16.3855 87.0962 16.0815 86.8162C15.7775 86.5282 15.3335 86.3842 14.7495 86.3842C14.3495 86.3842 13.9655 86.4522 13.5975 86.5882C13.2295 86.7162 12.9135 86.8962 12.6495 87.1282L12.2655 86.4922C12.5855 86.2202 12.9695 86.0122 13.4175 85.8682C13.8655 85.7162 14.3375 85.6402 14.8335 85.6402ZM14.5335 91.3882C15.0135 91.3882 15.4255 91.2802 15.7695 91.0642C16.1135 90.8402 16.3695 90.5202 16.5375 90.1042V89.0722H14.5575C13.4775 89.0722 12.9375 89.4482 12.9375 90.2002C12.9375 90.5682 13.0775 90.8602 13.3575 91.0762C13.6375 91.2842 14.0295 91.3882 14.5335 91.3882ZM24.8904 85.6882L22.0824 92.0002H21.2064L18.4104 85.6882H19.2984L21.6624 91.0642L24.0504 85.6882H24.8904ZM31.4106 89.1082H26.1306C26.1786 89.7642 26.4306 90.2962 26.8866 90.7042C27.3426 91.1042 27.9186 91.3042 28.6146 91.3042C29.0066 91.3042 29.3666 91.2362 29.6946 91.1002C30.0226 90.9562 30.3066 90.7482 30.5466 90.4762L31.0266 91.0282C30.7466 91.3642 30.3946 91.6202 29.9706 91.7962C29.5546 91.9722 29.0946 92.0602 28.5906 92.0602C27.9426 92.0602 27.3666 91.9242 26.8626 91.6522C26.3666 91.3722 25.9786 90.9882 25.6986 90.5002C25.4186 90.0122 25.2786 89.4602 25.2786 88.8442C25.2786 88.2282 25.4106 87.6762 25.6746 87.1882C25.9466 86.7002 26.3146 86.3202 26.7786 86.0482C27.2506 85.7762 27.7786 85.6402 28.3626 85.6402C28.9466 85.6402 29.4706 85.7762 29.9346 86.0482C30.3986 86.3202 30.7626 86.7002 31.0266 87.1882C31.2906 87.6682 31.4226 88.2202 31.4226 88.8442L31.4106 89.1082ZM28.3626 86.3722C27.7546 86.3722 27.2426 86.5682 26.8266 86.9602C26.4186 87.3442 26.1866 87.8482 26.1306 88.4722H30.6066C30.5506 87.8482 30.3146 87.3442 29.8986 86.9602C29.4906 86.5682 28.9786 86.3722 28.3626 86.3722ZM33.1568 83.0962H34.0088V92.0002H33.1568V83.0962ZM42.136 92.0602C41.512 92.0602 40.952 91.9242 40.456 91.6522C39.968 91.3802 39.584 91.0002 39.304 90.5122C39.024 90.0162 38.884 89.4602 38.884 88.8442C38.884 88.2282 39.024 87.6762 39.304 87.1882C39.584 86.7002 39.968 86.3202 40.456 86.0482C40.952 85.7762 41.512 85.6402 42.136 85.6402C42.68 85.6402 43.164 85.7482 43.588 85.9642C44.02 86.1722 44.36 86.4802 44.608 86.8882L43.972 87.3202C43.764 87.0082 43.5 86.7762 43.18 86.6242C42.86 86.4642 42.512 86.3842 42.136 86.3842C41.68 86.3842 41.268 86.4882 40.9 86.6962C40.54 86.8962 40.256 87.1842 40.048 87.5602C39.848 87.9362 39.748 88.3642 39.748 88.8442C39.748 89.3322 39.848 89.7642 40.048 90.1402C40.256 90.5082 40.54 90.7962 40.9 91.0042C41.268 91.2042 41.68 91.3042 42.136 91.3042C42.512 91.3042 42.86 91.2282 43.18 91.0762C43.5 90.9242 43.764 90.6922 43.972 90.3802L44.608 90.8122C44.36 91.2202 44.02 91.5322 43.588 91.7482C43.156 91.9562 42.672 92.0602 42.136 92.0602ZM48.7563 92.0602C48.1483 92.0602 47.6003 91.9242 47.1123 91.6522C46.6243 91.3722 46.2403 90.9882 45.9603 90.5002C45.6803 90.0122 45.5403 89.4602 45.5403 88.8442C45.5403 88.2282 45.6803 87.6762 45.9603 87.1882C46.2403 86.7002 46.6243 86.3202 47.1123 86.0482C47.6003 85.7762 48.1483 85.6402 48.7563 85.6402C49.3643 85.6402 49.9123 85.7762 50.4003 86.0482C50.8883 86.3202 51.2683 86.7002 51.5403 87.1882C51.8203 87.6762 51.9603 88.2282 51.9603 88.8442C51.9603 89.4602 51.8203 90.0122 51.5403 90.5002C51.2683 90.9882 50.8883 91.3722 50.4003 91.6522C49.9123 91.9242 49.3643 92.0602 48.7563 92.0602ZM48.7563 91.3042C49.2043 91.3042 49.6043 91.2042 49.9563 91.0042C50.3163 90.7962 50.5963 90.5042 50.7963 90.1282C50.9963 89.7522 51.0963 89.3242 51.0963 88.8442C51.0963 88.3642 50.9963 87.9362 50.7963 87.5602C50.5963 87.1842 50.3163 86.8962 49.9563 86.6962C49.6043 86.4882 49.2043 86.3842 48.7563 86.3842C48.3083 86.3842 47.9043 86.4882 47.5443 86.6962C47.1923 86.8962 46.9123 87.1842 46.7043 87.5602C46.5043 87.9362 46.4043 88.3642 46.4043 88.8442C46.4043 89.3242 46.5043 89.7522 46.7043 90.1282C46.9123 90.5042 47.1923 90.7962 47.5443 91.0042C47.9043 91.2042 48.3083 91.3042 48.7563 91.3042ZM61.5717 85.6402C62.3637 85.6402 62.9837 85.8682 63.4317 86.3242C63.8877 86.7802 64.1157 87.4522 64.1157 88.3402V92.0002H63.2637V88.4242C63.2637 87.7682 63.1037 87.2682 62.7837 86.9242C62.4717 86.5802 62.0277 86.4082 61.4517 86.4082C60.7957 86.4082 60.2797 86.6122 59.9037 87.0202C59.5277 87.4202 59.3397 87.9762 59.3397 88.6882V92.0002H58.4877V88.4242C58.4877 87.7682 58.3277 87.2682 58.0077 86.9242C57.6957 86.5802 57.2477 86.4082 56.6637 86.4082C56.0157 86.4082 55.4997 86.6122 55.1157 87.0202C54.7397 87.4202 54.5517 87.9762 54.5517 88.6882V92.0002H53.6997V85.6882H54.5157V86.8402C54.7397 86.4562 55.0517 86.1602 55.4517 85.9522C55.8517 85.7442 56.3117 85.6402 56.8317 85.6402C57.3597 85.6402 57.8157 85.7522 58.1997 85.9762C58.5917 86.2002 58.8837 86.5322 59.0757 86.9722C59.3077 86.5562 59.6397 86.2322 60.0717 86.0002C60.5117 85.7602 61.0117 85.6402 61.5717 85.6402ZM74.2983 85.6402C75.0903 85.6402 75.7103 85.8682 76.1583 86.3242C76.6143 86.7802 76.8423 87.4522 76.8423 88.3402V92.0002H75.9903V88.4242C75.9903 87.7682 75.8303 87.2682 75.5103 86.9242C75.1983 86.5802 74.7543 86.4082 74.1783 86.4082C73.5223 86.4082 73.0063 86.6122 72.6303 87.0202C72.2543 87.4202 72.0663 87.9762 72.0663 88.6882V92.0002H71.2143V88.4242C71.2143 87.7682 71.0543 87.2682 70.7343 86.9242C70.4223 86.5802 69.9743 86.4082 69.3903 86.4082C68.7423 86.4082 68.2263 86.6122 67.8423 87.0202C67.4663 87.4202 67.2783 87.9762 67.2783 88.6882V92.0002H66.4263V85.6882H67.2423V86.8402C67.4663 86.4562 67.7783 86.1602 68.1783 85.9522C68.5783 85.7442 69.0383 85.6402 69.5583 85.6402C70.0863 85.6402 70.5423 85.7522 70.9263 85.9762C71.3183 86.2002 71.6103 86.5322 71.8023 86.9722C72.0343 86.5562 72.3663 86.2322 72.7983 86.0002C73.2383 85.7602 73.7383 85.6402 74.2983 85.6402ZM84.8408 85.6882V92.0002H84.0248V90.8482C83.8008 91.2322 83.4928 91.5322 83.1008 91.7482C82.7088 91.9562 82.2608 92.0602 81.7568 92.0602C80.9328 92.0602 80.2808 91.8322 79.8008 91.3762C79.3288 90.9122 79.0928 90.2362 79.0928 89.3482V85.6882H79.9448V89.2642C79.9448 89.9282 80.1088 90.4322 80.4368 90.7762C80.7648 91.1202 81.2328 91.2922 81.8408 91.2922C82.5048 91.2922 83.0288 91.0922 83.4128 90.6922C83.7968 90.2842 83.9888 89.7202 83.9888 89.0002V85.6882H84.8408ZM90.4431 85.6402C91.2351 85.6402 91.8631 85.8722 92.3271 86.3362C92.7991 86.7922 93.0351 87.4602 93.0351 88.3402V92.0002H92.1831V88.4242C92.1831 87.7682 92.0191 87.2682 91.6911 86.9242C91.3631 86.5802 90.8951 86.4082 90.2871 86.4082C89.6071 86.4082 89.0671 86.6122 88.6671 87.0202C88.2751 87.4202 88.0791 87.9762 88.0791 88.6882V92.0002H87.2271V85.6882H88.0431V86.8522C88.2751 86.4682 88.5951 86.1722 89.0031 85.9642C89.4191 85.7482 89.8991 85.6402 90.4431 85.6402ZM95.3482 85.6882H96.2002V92.0002H95.3482V85.6882ZM95.7802 84.3082C95.6042 84.3082 95.4562 84.2482 95.3362 84.1282C95.2162 84.0082 95.1562 83.8642 95.1562 83.6962C95.1562 83.5362 95.2162 83.3962 95.3362 83.2762C95.4562 83.1562 95.6042 83.0962 95.7802 83.0962C95.9562 83.0962 96.1042 83.1562 96.2242 83.2762C96.3442 83.3882 96.4042 83.5242 96.4042 83.6842C96.4042 83.8602 96.3442 84.0082 96.2242 84.1282C96.1042 84.2482 95.9562 84.3082 95.7802 84.3082ZM101.895 91.6162C101.735 91.7602 101.535 91.8722 101.295 91.9522C101.063 92.0242 100.819 92.0602 100.563 92.0602C99.9708 92.0602 99.5148 91.9002 99.1948 91.5802C98.8748 91.2602 98.7148 90.8082 98.7148 90.2242V86.4082H97.5868V85.6882H98.7148V84.3082H99.5668V85.6882H101.487V86.4082H99.5668V90.1762C99.5668 90.5522 99.6588 90.8402 99.8428 91.0402C100.035 91.2322 100.307 91.3282 100.659 91.3282C100.835 91.3282 101.003 91.3002 101.163 91.2442C101.331 91.1882 101.475 91.1082 101.595 91.0042L101.895 91.6162ZM103.446 85.6882H104.298V92.0002H103.446V85.6882ZM103.878 84.3082C103.702 84.3082 103.554 84.2482 103.434 84.1282C103.314 84.0082 103.254 83.8642 103.254 83.6962C103.254 83.5362 103.314 83.3962 103.434 83.2762C103.554 83.1562 103.702 83.0962 103.878 83.0962C104.054 83.0962 104.202 83.1562 104.322 83.2762C104.442 83.3882 104.502 83.5242 104.502 83.6842C104.502 83.8602 104.442 84.0082 104.322 84.1282C104.202 84.2482 104.054 84.3082 103.878 84.3082ZM112.164 89.1082H106.884C106.932 89.7642 107.184 90.2962 107.64 90.7042C108.096 91.1042 108.672 91.3042 109.368 91.3042C109.76 91.3042 110.12 91.2362 110.448 91.1002C110.776 90.9562 111.06 90.7482 111.3 90.4762L111.78 91.0282C111.5 91.3642 111.148 91.6202 110.724 91.7962C110.308 91.9722 109.848 92.0602 109.344 92.0602C108.696 92.0602 108.12 91.9242 107.616 91.6522C107.12 91.3722 106.732 90.9882 106.452 90.5002C106.172 90.0122 106.032 89.4602 106.032 88.8442C106.032 88.2282 106.164 87.6762 106.428 87.1882C106.7 86.7002 107.068 86.3202 107.532 86.0482C108.004 85.7762 108.532 85.6402 109.116 85.6402C109.7 85.6402 110.224 85.7762 110.688 86.0482C111.152 86.3202 111.516 86.7002 111.78 87.1882C112.044 87.6682 112.176 88.2202 112.176 88.8442L112.164 89.1082ZM109.116 86.3722C108.508 86.3722 107.996 86.5682 107.58 86.9602C107.172 87.3442 106.94 87.8482 106.884 88.4722H111.36C111.304 87.8482 111.068 87.3442 110.652 86.9602C110.244 86.5682 109.732 86.3722 109.116 86.3722ZM115.603 92.0602C115.091 92.0602 114.599 91.9882 114.127 91.8442C113.663 91.6922 113.299 91.5042 113.035 91.2802L113.419 90.6082C113.683 90.8162 114.015 90.9882 114.415 91.1242C114.815 91.2522 115.231 91.3162 115.663 91.3162C116.239 91.3162 116.663 91.2282 116.935 91.0522C117.215 90.8682 117.355 90.6122 117.355 90.2842C117.355 90.0522 117.279 89.8722 117.127 89.7442C116.975 89.6082 116.783 89.5082 116.551 89.4442C116.319 89.3722 116.011 89.3042 115.627 89.2402C115.115 89.1442 114.703 89.0482 114.391 88.9522C114.079 88.8482 113.811 88.6762 113.587 88.4362C113.371 88.1962 113.263 87.8642 113.263 87.4402C113.263 86.9122 113.483 86.4802 113.923 86.1442C114.363 85.8082 114.975 85.6402 115.759 85.6402C116.167 85.6402 116.575 85.6962 116.983 85.8082C117.391 85.9122 117.727 86.0522 117.991 86.2282L117.619 86.9122C117.099 86.5522 116.479 86.3722 115.759 86.3722C115.215 86.3722 114.803 86.4682 114.523 86.6602C114.251 86.8522 114.115 87.1042 114.115 87.4162C114.115 87.6562 114.191 87.8482 114.343 87.9922C114.503 88.1362 114.699 88.2442 114.931 88.3162C115.163 88.3802 115.483 88.4482 115.891 88.5202C116.395 88.6162 116.799 88.7122 117.103 88.8082C117.407 88.9042 117.667 89.0682 117.883 89.3002C118.099 89.5322 118.207 89.8522 118.207 90.2602C118.207 90.8122 117.975 91.2522 117.511 91.5802C117.055 91.9002 116.419 92.0602 115.603 92.0602ZM3 104.368H0.048V103.6H6.84V104.368H3.888V112H3V104.368ZM8.73056 106.924C8.93056 106.5 9.22656 106.18 9.61856 105.964C10.0186 105.748 10.5106 105.64 11.0946 105.64V106.468L10.8906 106.456C10.2266 106.456 9.70656 106.66 9.33056 107.068C8.95456 107.476 8.76656 108.048 8.76656 108.784V112H7.91456V105.688H8.73056V106.924ZM14.8335 105.64C15.6575 105.64 16.2895 105.848 16.7295 106.264C17.1695 106.672 17.3895 107.28 17.3895 108.088V112H16.5735V111.016C16.3815 111.344 16.0975 111.6 15.7215 111.784C15.3535 111.968 14.9135 112.06 14.4015 112.06C13.6975 112.06 13.1375 111.892 12.7215 111.556C12.3055 111.22 12.0975 110.776 12.0975 110.224C12.0975 109.688 12.2895 109.256 12.6735 108.928C13.0655 108.6 13.6855 108.436 14.5335 108.436H16.5375V108.052C16.5375 107.508 16.3855 107.096 16.0815 106.816C15.7775 106.528 15.3335 106.384 14.7495 106.384C14.3495 106.384 13.9655 106.452 13.5975 106.588C13.2295 106.716 12.9135 106.896 12.6495 107.128L12.2655 106.492C12.5855 106.22 12.9695 106.012 13.4175 105.868C13.8655 105.716 14.3375 105.64 14.8335 105.64ZM14.5335 111.388C15.0135 111.388 15.4255 111.28 15.7695 111.064C16.1135 110.84 16.3695 110.52 16.5375 110.104V109.072H14.5575C13.4775 109.072 12.9375 109.448 12.9375 110.2C12.9375 110.568 13.0775 110.86 13.3575 111.076C13.6375 111.284 14.0295 111.388 14.5335 111.388ZM24.8904 105.688L22.0824 112H21.2064L18.4104 105.688H19.2984L21.6624 111.064L24.0504 105.688H24.8904ZM31.4106 109.108H26.1306C26.1786 109.764 26.4306 110.296 26.8866 110.704C27.3426 111.104 27.9186 111.304 28.6146 111.304C29.0066 111.304 29.3666 111.236 29.6946 111.1C30.0226 110.956 30.3066 110.748 30.5466 110.476L31.0266 111.028C30.7466 111.364 30.3946 111.62 29.9706 111.796C29.5546 111.972 29.0946 112.06 28.5906 112.06C27.9426 112.06 27.3666 111.924 26.8626 111.652C26.3666 111.372 25.9786 110.988 25.6986 110.5C25.4186 110.012 25.2786 109.46 25.2786 108.844C25.2786 108.228 25.4106 107.676 25.6746 107.188C25.9466 106.7 26.3146 106.32 26.7786 106.048C27.2506 105.776 27.7786 105.64 28.3626 105.64C28.9466 105.64 29.4706 105.776 29.9346 106.048C30.3986 106.32 30.7626 106.7 31.0266 107.188C31.2906 107.668 31.4226 108.22 31.4226 108.844L31.4106 109.108ZM28.3626 106.372C27.7546 106.372 27.2426 106.568 26.8266 106.96C26.4186 107.344 26.1866 107.848 26.1306 108.472H30.6066C30.5506 107.848 30.3146 107.344 29.8986 106.96C29.4906 106.568 28.9786 106.372 28.3626 106.372ZM33.1568 103.096H34.0088V112H33.1568V103.096ZM41.728 105.64C42.552 105.64 43.184 105.848 43.624 106.264C44.064 106.672 44.284 107.28 44.284 108.088V112H43.468V111.016C43.276 111.344 42.992 111.6 42.616 111.784C42.248 111.968 41.808 112.06 41.296 112.06C40.592 112.06 40.032 111.892 39.616 111.556C39.2 111.22 38.992 110.776 38.992 110.224C38.992 109.688 39.184 109.256 39.568 108.928C39.96 108.6 40.58 108.436 41.428 108.436H43.432V108.052C43.432 107.508 43.28 107.096 42.976 106.816C42.672 106.528 42.228 106.384 41.644 106.384C41.244 106.384 40.86 106.452 40.492 106.588C40.124 106.716 39.808 106.896 39.544 107.128L39.16 106.492C39.48 106.22 39.864 106.012 40.312 105.868C40.76 105.716 41.232 105.64 41.728 105.64ZM41.428 111.388C41.908 111.388 42.32 111.28 42.664 111.064C43.008 110.84 43.264 110.52 43.432 110.104V109.072H41.452C40.372 109.072 39.832 109.448 39.832 110.2C39.832 110.568 39.972 110.86 40.252 111.076C40.532 111.284 40.924 111.388 41.428 111.388ZM52.4656 105.688V111.232C52.4656 112.304 52.2016 113.096 51.6736 113.608C51.1536 114.128 50.3656 114.388 49.3096 114.388C48.7256 114.388 48.1696 114.3 47.6416 114.124C47.1216 113.956 46.6976 113.72 46.3696 113.416L46.8016 112.768C47.1056 113.04 47.4736 113.252 47.9056 113.404C48.3456 113.556 48.8056 113.632 49.2856 113.632C50.0856 113.632 50.6736 113.444 51.0496 113.068C51.4256 112.7 51.6136 112.124 51.6136 111.34V110.536C51.3496 110.936 51.0016 111.24 50.5696 111.448C50.1456 111.656 49.6736 111.76 49.1536 111.76C48.5616 111.76 48.0216 111.632 47.5336 111.376C47.0536 111.112 46.6736 110.748 46.3936 110.284C46.1216 109.812 45.9856 109.28 45.9856 108.688C45.9856 108.096 46.1216 107.568 46.3936 107.104C46.6736 106.64 47.0536 106.28 47.5336 106.024C48.0136 105.768 48.5536 105.64 49.1536 105.64C49.6896 105.64 50.1736 105.748 50.6056 105.964C51.0376 106.18 51.3856 106.492 51.6496 106.9V105.688H52.4656ZM49.2376 111.004C49.6936 111.004 50.1056 110.908 50.4736 110.716C50.8416 110.516 51.1256 110.24 51.3256 109.888C51.5336 109.536 51.6376 109.136 51.6376 108.688C51.6376 108.24 51.5336 107.844 51.3256 107.5C51.1256 107.148 50.8416 106.876 50.4736 106.684C50.1136 106.484 49.7016 106.384 49.2376 106.384C48.7816 106.384 48.3696 106.48 48.0016 106.672C47.6416 106.864 47.3576 107.136 47.1496 107.488C46.9496 107.84 46.8496 108.24 46.8496 108.688C46.8496 109.136 46.9496 109.536 47.1496 109.888C47.3576 110.24 47.6416 110.516 48.0016 110.716C48.3696 110.908 48.7816 111.004 49.2376 111.004ZM60.3442 109.108H55.0642C55.1122 109.764 55.3642 110.296 55.8202 110.704C56.2762 111.104 56.8522 111.304 57.5482 111.304C57.9402 111.304 58.3002 111.236 58.6282 111.1C58.9562 110.956 59.2402 110.748 59.4802 110.476L59.9602 111.028C59.6802 111.364 59.3282 111.62 58.9042 111.796C58.4882 111.972 58.0282 112.06 57.5242 112.06C56.8762 112.06 56.3002 111.924 55.7962 111.652C55.3002 111.372 54.9122 110.988 54.6322 110.5C54.3522 110.012 54.2122 109.46 54.2122 108.844C54.2122 108.228 54.3442 107.676 54.6082 107.188C54.8802 106.7 55.2482 106.32 55.7122 106.048C56.1842 105.776 56.7122 105.64 57.2962 105.64C57.8802 105.64 58.4042 105.776 58.8682 106.048C59.3322 106.32 59.6962 106.7 59.9602 107.188C60.2242 107.668 60.3562 108.22 60.3562 108.844L60.3442 109.108ZM57.2962 106.372C56.6882 106.372 56.1762 106.568 55.7602 106.96C55.3522 107.344 55.1202 107.848 55.0642 108.472H59.5402C59.4842 107.848 59.2482 107.344 58.8322 106.96C58.4242 106.568 57.9122 106.372 57.2962 106.372ZM65.3063 105.64C66.0983 105.64 66.7263 105.872 67.1903 106.336C67.6623 106.792 67.8983 107.46 67.8983 108.34V112H67.0463V108.424C67.0463 107.768 66.8823 107.268 66.5543 106.924C66.2263 106.58 65.7583 106.408 65.1503 106.408C64.4703 106.408 63.9303 106.612 63.5303 107.02C63.1383 107.42 62.9423 107.976 62.9423 108.688V112H62.0903V105.688H62.9063V106.852C63.1383 106.468 63.4583 106.172 63.8663 105.964C64.2823 105.748 64.7623 105.64 65.3063 105.64ZM72.8509 112.06C72.2269 112.06 71.6669 111.924 71.1709 111.652C70.6829 111.38 70.2989 111 70.0189 110.512C69.7389 110.016 69.5989 109.46 69.5989 108.844C69.5989 108.228 69.7389 107.676 70.0189 107.188C70.2989 106.7 70.6829 106.32 71.1709 106.048C71.6669 105.776 72.2269 105.64 72.8509 105.64C73.3949 105.64 73.8789 105.748 74.3029 105.964C74.7349 106.172 75.0749 106.48 75.3229 106.888L74.6869 107.32C74.4789 107.008 74.2149 106.776 73.8949 106.624C73.5749 106.464 73.2269 106.384 72.8509 106.384C72.3949 106.384 71.9829 106.488 71.6149 106.696C71.2549 106.896 70.9709 107.184 70.7629 107.56C70.5629 107.936 70.4629 108.364 70.4629 108.844C70.4629 109.332 70.5629 109.764 70.7629 110.14C70.9709 110.508 71.2549 110.796 71.6149 111.004C71.9829 111.204 72.3949 111.304 72.8509 111.304C73.2269 111.304 73.5749 111.228 73.8949 111.076C74.2149 110.924 74.4789 110.692 74.6869 110.38L75.3229 110.812C75.0749 111.22 74.7349 111.532 74.3029 111.748C73.8709 111.956 73.3869 112.06 72.8509 112.06ZM76.9966 105.688H77.8486V112H76.9966V105.688ZM77.4286 104.308C77.2526 104.308 77.1046 104.248 76.9846 104.128C76.8646 104.008 76.8046 103.864 76.8046 103.696C76.8046 103.536 76.8646 103.396 76.9846 103.276C77.1046 103.156 77.2526 103.096 77.4286 103.096C77.6046 103.096 77.7526 103.156 77.8726 103.276C77.9926 103.388 78.0526 103.524 78.0526 103.684C78.0526 103.86 77.9926 104.008 77.8726 104.128C77.7526 104.248 77.6046 104.308 77.4286 104.308ZM85.7153 109.108H80.4353C80.4833 109.764 80.7353 110.296 81.1913 110.704C81.6473 111.104 82.2233 111.304 82.9193 111.304C83.3113 111.304 83.6713 111.236 83.9993 111.1C84.3273 110.956 84.6113 110.748 84.8513 110.476L85.3313 111.028C85.0513 111.364 84.6993 111.62 84.2753 111.796C83.8593 111.972 83.3993 112.06 82.8953 112.06C82.2473 112.06 81.6713 111.924 81.1673 111.652C80.6713 111.372 80.2833 110.988 80.0033 110.5C79.7233 110.012 79.5833 109.46 79.5833 108.844C79.5833 108.228 79.7153 107.676 79.9793 107.188C80.2513 106.7 80.6193 106.32 81.0833 106.048C81.5553 105.776 82.0833 105.64 82.6673 105.64C83.2513 105.64 83.7753 105.776 84.2393 106.048C84.7033 106.32 85.0673 106.7 85.3313 107.188C85.5953 107.668 85.7273 108.22 85.7273 108.844L85.7153 109.108ZM82.6673 106.372C82.0593 106.372 81.5473 106.568 81.1313 106.96C80.7233 107.344 80.4913 107.848 80.4353 108.472H84.9113C84.8553 107.848 84.6193 107.344 84.2033 106.96C83.7953 106.568 83.2833 106.372 82.6673 106.372ZM89.1534 112.06C88.6414 112.06 88.1494 111.988 87.6774 111.844C87.2134 111.692 86.8494 111.504 86.5854 111.28L86.9694 110.608C87.2334 110.816 87.5654 110.988 87.9654 111.124C88.3654 111.252 88.7814 111.316 89.2134 111.316C89.7894 111.316 90.2134 111.228 90.4854 111.052C90.7654 110.868 90.9054 110.612 90.9054 110.284C90.9054 110.052 90.8294 109.872 90.6774 109.744C90.5254 109.608 90.3334 109.508 90.1014 109.444C89.8694 109.372 89.5614 109.304 89.1774 109.24C88.6654 109.144 88.2534 109.048 87.9414 108.952C87.6294 108.848 87.3614 108.676 87.1374 108.436C86.9214 108.196 86.8134 107.864 86.8134 107.44C86.8134 106.912 87.0334 106.48 87.4734 106.144C87.9134 105.808 88.5254 105.64 89.3094 105.64C89.7174 105.64 90.1254 105.696 90.5334 105.808C90.9414 105.912 91.2774 106.052 91.5414 106.228L91.1694 106.912C90.6494 106.552 90.0294 106.372 89.3094 106.372C88.7654 106.372 88.3534 106.468 88.0734 106.66C87.8014 106.852 87.6654 107.104 87.6654 107.416C87.6654 107.656 87.7414 107.848 87.8934 107.992C88.0534 108.136 88.2494 108.244 88.4814 108.316C88.7134 108.38 89.0334 108.448 89.4414 108.52C89.9454 108.616 90.3494 108.712 90.6534 108.808C90.9574 108.904 91.2174 109.068 91.4334 109.3C91.6494 109.532 91.7574 109.852 91.7574 110.26C91.7574 110.812 91.5254 111.252 91.0614 111.58C90.6054 111.9 89.9694 112.06 89.1534 112.06Z" fill="black"/>
</svg>
