<svg width="140" height="94" viewBox="0 0 140 94" fill="none" xmlns="http://www.w3.org/2000/svg">
<path d="M4.665 11.1502C3.855 11.1502 3.07 11.0352 2.31 10.8052C1.56 10.5752 0.965 10.2702 0.525 9.89024L1.2 8.37524C1.63 8.71524 2.155 8.99524 2.775 9.21524C3.405 9.42524 4.035 9.53024 4.665 9.53024C5.445 9.53024 6.025 9.40524 6.405 9.15524C6.795 8.90524 6.99 8.57524 6.99 8.16524C6.99 7.86524 6.88 7.62024 6.66 7.43024C6.45 7.23024 6.18 7.07524 5.85 6.96524C5.52 6.85524 5.07 6.73024 4.5 6.59024C3.7 6.40024 3.05 6.21024 2.55 6.02024C2.06 5.83024 1.635 5.53524 1.275 5.13524C0.925 4.72524 0.75 4.17524 0.75 3.48524C0.75 2.90524 0.905 2.38024 1.215 1.91024C1.535 1.43024 2.01 1.05024 2.64 0.770244C3.28 0.490244 4.06 0.350244 4.98 0.350244C5.62 0.350244 6.25 0.430244 6.87 0.590244C7.49 0.750244 8.025 0.980244 8.475 1.28024L7.86 2.79524C7.4 2.52524 6.92 2.32024 6.42 2.18024C5.92 2.04024 5.435 1.97024 4.965 1.97024C4.195 1.97024 3.62 2.10024 3.24 2.36024C2.87 2.62024 2.685 2.96524 2.685 3.39524C2.685 3.69524 2.79 3.94024 3 4.13024C3.22 4.32024 3.495 4.47024 3.825 4.58024C4.155 4.69024 4.605 4.81524 5.175 4.95524C5.955 5.13524 6.595 5.32524 7.095 5.52524C7.595 5.71524 8.02 6.01024 8.37 6.41024C8.73 6.81024 8.91 7.35024 8.91 8.03024C8.91 8.61024 8.75 9.13524 8.43 9.60524C8.12 10.0752 7.645 10.4502 7.005 10.7302C6.365 11.0102 5.585 11.1502 4.665 11.1502ZM18.4186 2.99024V11.0002H16.6336V9.98024C16.3336 10.3402 15.9586 10.6202 15.5086 10.8202C15.0586 11.0102 14.5736 11.1052 14.0536 11.1052C12.9836 11.1052 12.1386 10.8102 11.5186 10.2202C10.9086 9.62024 10.6036 8.73524 10.6036 7.56524V2.99024H12.4786V7.31024C12.4786 8.03024 12.6386 8.57024 12.9586 8.93024C13.2886 9.28024 13.7536 9.45524 14.3536 9.45524C15.0236 9.45524 15.5536 9.25024 15.9436 8.84024C16.3436 8.42024 16.5436 7.82024 16.5436 7.04024V2.99024H18.4186ZM25.3136 2.90024C26.0936 2.90024 26.7886 3.07024 27.3986 3.41024C28.0186 3.75024 28.5036 4.23024 28.8536 4.85024C29.2036 5.47024 29.3786 6.18524 29.3786 6.99524C29.3786 7.80524 29.2036 8.52524 28.8536 9.15524C28.5036 9.77524 28.0186 10.2552 27.3986 10.5952C26.7886 10.9352 26.0936 11.1052 25.3136 11.1052C24.2336 11.1052 23.3786 10.7452 22.7486 10.0252V13.9102H20.8736V2.99024H22.6586V4.04024C22.9686 3.66024 23.3486 3.37524 23.7986 3.18524C24.2586 2.99524 24.7636 2.90024 25.3136 2.90024ZM25.1036 9.50024C25.7936 9.50024 26.3586 9.27024 26.7986 8.81024C27.2486 8.35024 27.4736 7.74524 27.4736 6.99524C27.4736 6.24524 27.2486 5.64024 26.7986 5.18024C26.3586 4.72024 25.7936 4.49024 25.1036 4.49024C24.6536 4.49024 24.2486 4.59524 23.8886 4.80524C23.5286 5.00524 23.2436 5.29524 23.0336 5.67524C22.8236 6.05524 22.7186 6.49524 22.7186 6.99524C22.7186 7.49524 22.8236 7.93524 23.0336 8.31524C23.2436 8.69524 23.5286 8.99024 23.8886 9.20024C24.2486 9.40024 24.6536 9.50024 25.1036 9.50024ZM35.5968 2.90024C36.3768 2.90024 37.0718 3.07024 37.6818 3.41024C38.3018 3.75024 38.7868 4.23024 39.1368 4.85024C39.4868 5.47024 39.6618 6.18524 39.6618 6.99524C39.6618 7.80524 39.4868 8.52524 39.1368 9.15524C38.7868 9.77524 38.3018 10.2552 37.6818 10.5952C37.0718 10.9352 36.3768 11.1052 35.5968 11.1052C34.5168 11.1052 33.6618 10.7452 33.0318 10.0252V13.9102H31.1568V2.99024H32.9418V4.04024C33.2518 3.66024 33.6318 3.37524 34.0818 3.18524C34.5418 2.99524 35.0468 2.90024 35.5968 2.90024ZM35.3868 9.50024C36.0768 9.50024 36.6418 9.27024 37.0818 8.81024C37.5318 8.35024 37.7568 7.74524 37.7568 6.99524C37.7568 6.24524 37.5318 5.64024 37.0818 5.18024C36.6418 4.72024 36.0768 4.49024 35.3868 4.49024C34.9368 4.49024 34.5318 4.59524 34.1718 4.80524C33.8118 5.00524 33.5268 5.29524 33.3168 5.67524C33.1068 6.05524 33.0018 6.49524 33.0018 6.99524C33.0018 7.49524 33.1068 7.93524 33.3168 8.31524C33.5268 8.69524 33.8118 8.99024 34.1718 9.20024C34.5318 9.40024 34.9368 9.50024 35.3868 9.50024ZM45.04 11.1052C44.23 11.1052 43.5 10.9302 42.85 10.5802C42.2 10.2302 41.69 9.74524 41.32 9.12524C40.96 8.49524 40.78 7.78524 40.78 6.99524C40.78 6.20524 40.96 5.50024 41.32 4.88024C41.69 4.26024 42.2 3.77524 42.85 3.42524C43.5 3.07524 44.23 2.90024 45.04 2.90024C45.86 2.90024 46.595 3.07524 47.245 3.42524C47.895 3.77524 48.4 4.26024 48.76 4.88024C49.13 5.50024 49.315 6.20524 49.315 6.99524C49.315 7.78524 49.13 8.49524 48.76 9.12524C48.4 9.74524 47.895 10.2302 47.245 10.5802C46.595 10.9302 45.86 11.1052 45.04 11.1052ZM45.04 9.50024C45.73 9.50024 46.3 9.27024 46.75 8.81024C47.2 8.35024 47.425 7.74524 47.425 6.99524C47.425 6.24524 47.2 5.64024 46.75 5.18024C46.3 4.72024 45.73 4.49024 45.04 4.49024C44.35 4.49024 43.78 4.72024 43.33 5.18024C42.89 5.64024 42.67 6.24524 42.67 6.99524C42.67 7.74524 42.89 8.35024 43.33 8.81024C43.78 9.27024 44.35 9.50024 45.04 9.50024ZM52.8929 4.16024C53.4329 3.32024 54.3829 2.90024 55.7429 2.90024V4.68524C55.5829 4.65524 55.4379 4.64024 55.3079 4.64024C54.5779 4.64024 54.0079 4.85524 53.5979 5.28524C53.1879 5.70524 52.9829 6.31524 52.9829 7.11524V11.0002H51.1079V2.99024H52.8929V4.16024ZM62.4415 10.5652C62.2215 10.7452 61.9515 10.8802 61.6315 10.9702C61.3215 11.0602 60.9915 11.1052 60.6415 11.1052C59.7615 11.1052 59.0815 10.8752 58.6015 10.4152C58.1215 9.95524 57.8815 9.28524 57.8815 8.40524V4.55024H56.5615V3.05024H57.8815V1.22024H59.7565V3.05024H61.9015V4.55024H59.7565V8.36024C59.7565 8.75024 59.8515 9.05024 60.0415 9.26024C60.2315 9.46024 60.5065 9.56024 60.8665 9.56024C61.2865 9.56024 61.6365 9.45024 61.9165 9.23024L62.4415 10.5652ZM8.388 22.6002V31.0002H7.512V27.1242H2.256V31.0002H1.368V22.6002H2.256V26.3442H7.512V22.6002H8.388ZM16.4457 28.1082H11.1657C11.2137 28.7642 11.4657 29.2962 11.9217 29.7042C12.3777 30.1042 12.9537 30.3042 13.6497 30.3042C14.0417 30.3042 14.4017 30.2362 14.7297 30.1002C15.0577 29.9562 15.3417 29.7482 15.5817 29.4762L16.0617 30.0282C15.7817 30.3642 15.4297 30.6202 15.0057 30.7962C14.5897 30.9722 14.1297 31.0602 13.6257 31.0602C12.9777 31.0602 12.4017 30.9242 11.8977 30.6522C11.4017 30.3722 11.0137 29.9882 10.7337 29.5002C10.4537 29.0122 10.3137 28.4602 10.3137 27.8442C10.3137 27.2282 10.4457 26.6762 10.7097 26.1882C10.9817 25.7002 11.3497 25.3202 11.8137 25.0482C12.2857 24.7762 12.8137 24.6402 13.3977 24.6402C13.9817 24.6402 14.5057 24.7762 14.9697 25.0482C15.4337 25.3202 15.7977 25.7002 16.0617 26.1882C16.3257 26.6682 16.4577 27.2202 16.4577 27.8442L16.4457 28.1082ZM13.3977 25.3722C12.7897 25.3722 12.2777 25.5682 11.8617 25.9602C11.4537 26.3442 11.2217 26.8482 11.1657 27.4722H15.6417C15.5857 26.8482 15.3497 26.3442 14.9337 25.9602C14.5257 25.5682 14.0137 25.3722 13.3977 25.3722ZM18.1919 22.0962H19.0439V31.0002H18.1919V22.0962ZM24.6666 24.6402C25.2586 24.6402 25.7946 24.7762 26.2746 25.0482C26.7546 25.3122 27.1306 25.6882 27.4026 26.1762C27.6746 26.6642 27.8106 27.2202 27.8106 27.8442C27.8106 28.4762 27.6746 29.0362 27.4026 29.5242C27.1306 30.0122 26.7546 30.3922 26.2746 30.6642C25.8026 30.9282 25.2666 31.0602 24.6666 31.0602C24.1546 31.0602 23.6906 30.9562 23.2746 30.7482C22.8666 30.5322 22.5306 30.2202 22.2666 29.8122V33.3282H21.4146V24.6882H22.2306V25.9362C22.4866 25.5202 22.8226 25.2002 23.2386 24.9762C23.6626 24.7522 24.1386 24.6402 24.6666 24.6402ZM24.6066 30.3042C25.0466 30.3042 25.4466 30.2042 25.8066 30.0042C26.1666 29.7962 26.4466 29.5042 26.6466 29.1282C26.8546 28.7522 26.9586 28.3242 26.9586 27.8442C26.9586 27.3642 26.8546 26.9402 26.6466 26.5722C26.4466 26.1962 26.1666 25.9042 25.8066 25.6962C25.4466 25.4882 25.0466 25.3842 24.6066 25.3842C24.1586 25.3842 23.7546 25.4882 23.3946 25.6962C23.0426 25.9042 22.7626 26.1962 22.5546 26.5722C22.3546 26.9402 22.2546 27.3642 22.2546 27.8442C22.2546 28.3242 22.3546 28.7522 22.5546 29.1282C22.7626 29.5042 23.0426 29.7962 23.3946 30.0042C23.7546 30.2042 24.1586 30.3042 24.6066 30.3042ZM35.304 31.0602C34.68 31.0602 34.12 30.9242 33.624 30.6522C33.136 30.3802 32.752 30.0002 32.472 29.5122C32.192 29.0162 32.052 28.4602 32.052 27.8442C32.052 27.2282 32.192 26.6762 32.472 26.1882C32.752 25.7002 33.136 25.3202 33.624 25.0482C34.12 24.7762 34.68 24.6402 35.304 24.6402C35.848 24.6402 36.332 24.7482 36.756 24.9642C37.188 25.1722 37.528 25.4802 37.776 25.8882L37.14 26.3202C36.932 26.0082 36.668 25.7762 36.348 25.6242C36.028 25.4642 35.68 25.3842 35.304 25.3842C34.848 25.3842 34.436 25.4882 34.068 25.6962C33.708 25.8962 33.424 26.1842 33.216 26.5602C33.016 26.9362 32.916 27.3642 32.916 27.8442C32.916 28.3322 33.016 28.7642 33.216 29.1402C33.424 29.5082 33.708 29.7962 34.068 30.0042C34.436 30.2042 34.848 30.3042 35.304 30.3042C35.68 30.3042 36.028 30.2282 36.348 30.0762C36.668 29.9242 36.932 29.6922 37.14 29.3802L37.776 29.8122C37.528 30.2202 37.188 30.5322 36.756 30.7482C36.324 30.9562 35.84 31.0602 35.304 31.0602ZM44.8403 28.1082H39.5603C39.6083 28.7642 39.8603 29.2962 40.3163 29.7042C40.7723 30.1042 41.3483 30.3042 42.0443 30.3042C42.4363 30.3042 42.7963 30.2362 43.1243 30.1002C43.4523 29.9562 43.7363 29.7482 43.9763 29.4762L44.4563 30.0282C44.1763 30.3642 43.8243 30.6202 43.4003 30.7962C42.9843 30.9722 42.5243 31.0602 42.0203 31.0602C41.3723 31.0602 40.7963 30.9242 40.2923 30.6522C39.7963 30.3722 39.4083 29.9882 39.1283 29.5002C38.8483 29.0122 38.7083 28.4602 38.7083 27.8442C38.7083 27.2282 38.8403 26.6762 39.1043 26.1882C39.3763 25.7002 39.7443 25.3202 40.2083 25.0482C40.6803 24.7762 41.2083 24.6402 41.7923 24.6402C42.3763 24.6402 42.9003 24.7762 43.3643 25.0482C43.8283 25.3202 44.1923 25.7002 44.4563 26.1882C44.7203 26.6682 44.8523 27.2202 44.8523 27.8442L44.8403 28.1082ZM41.7923 25.3722C41.1843 25.3722 40.6723 25.5682 40.2563 25.9602C39.8483 26.3442 39.6163 26.8482 39.5603 27.4722H44.0363C43.9803 26.8482 43.7443 26.3442 43.3283 25.9602C42.9203 25.5682 42.4083 25.3722 41.7923 25.3722ZM49.8024 24.6402C50.5944 24.6402 51.2224 24.8722 51.6864 25.3362C52.1584 25.7922 52.3944 26.4602 52.3944 27.3402V31.0002H51.5424V27.4242C51.5424 26.7682 51.3784 26.2682 51.0504 25.9242C50.7224 25.5802 50.2544 25.4082 49.6464 25.4082C48.9664 25.4082 48.4264 25.6122 48.0264 26.0202C47.6344 26.4202 47.4384 26.9762 47.4384 27.6882V31.0002H46.5864V24.6882H47.4024V25.8522C47.6344 25.4682 47.9544 25.1722 48.3624 24.9642C48.7784 24.7482 49.2584 24.6402 49.8024 24.6402ZM58.0315 30.6162C57.8715 30.7602 57.6715 30.8722 57.4315 30.9522C57.1995 31.0242 56.9555 31.0602 56.6995 31.0602C56.1075 31.0602 55.6515 30.9002 55.3315 30.5802C55.0115 30.2602 54.8515 29.8082 54.8515 29.2242V25.4082H53.7235V24.6882H54.8515V23.3082H55.7035V24.6882H57.6235V25.4082H55.7035V29.1762C55.7035 29.5522 55.7955 29.8402 55.9795 30.0402C56.1715 30.2322 56.4435 30.3282 56.7955 30.3282C56.9715 30.3282 57.1395 30.3002 57.2995 30.2442C57.4675 30.1882 57.6115 30.1082 57.7315 30.0042L58.0315 30.6162ZM64.8559 28.1082H59.5759C59.6239 28.7642 59.8759 29.2962 60.3319 29.7042C60.7879 30.1042 61.3639 30.3042 62.0599 30.3042C62.4519 30.3042 62.8119 30.2362 63.1399 30.1002C63.4679 29.9562 63.7519 29.7482 63.9919 29.4762L64.4719 30.0282C64.1919 30.3642 63.8399 30.6202 63.4159 30.7962C62.9999 30.9722 62.5399 31.0602 62.0359 31.0602C61.3879 31.0602 60.8119 30.9242 60.3079 30.6522C59.8119 30.3722 59.4239 29.9882 59.1439 29.5002C58.8639 29.0122 58.7239 28.4602 58.7239 27.8442C58.7239 27.2282 58.8559 26.6762 59.1199 26.1882C59.3919 25.7002 59.7599 25.3202 60.2239 25.0482C60.6959 24.7762 61.2239 24.6402 61.8079 24.6402C62.3919 24.6402 62.9159 24.7762 63.3799 25.0482C63.8439 25.3202 64.2079 25.7002 64.4719 26.1882C64.7359 26.6682 64.8679 27.2202 64.8679 27.8442L64.8559 28.1082ZM61.8079 25.3722C61.1999 25.3722 60.6879 25.5682 60.2719 25.9602C59.8639 26.3442 59.6319 26.8482 59.5759 27.4722H64.0519C63.9959 26.8482 63.7599 26.3442 63.3439 25.9602C62.9359 25.5682 62.4239 25.3722 61.8079 25.3722ZM67.4181 25.9242C67.6181 25.5002 67.9141 25.1802 68.3061 24.9642C68.7061 24.7482 69.1981 24.6402 69.7821 24.6402V25.4682L69.5781 25.4562C68.9141 25.4562 68.3941 25.6602 68.0181 26.0682C67.6421 26.4762 67.4541 27.0482 67.4541 27.7842V31.0002H66.6021V24.6882H67.4181V25.9242ZM5.016 51.0722C4.184 51.0722 3.432 50.8882 2.76 50.5202C2.096 50.1522 1.572 49.6442 1.188 48.9962C0.812 48.3402 0.624 47.6082 0.624 46.8002C0.624 45.9922 0.812 45.2642 1.188 44.6162C1.572 43.9602 2.1 43.4482 2.772 43.0802C3.444 42.7122 4.196 42.5282 5.028 42.5282C5.652 42.5282 6.228 42.6322 6.756 42.8402C7.284 43.0482 7.732 43.3522 8.1 43.7522L7.536 44.3162C6.88 43.6522 6.052 43.3202 5.052 43.3202C4.388 43.3202 3.784 43.4722 3.24 43.7762C2.696 44.0802 2.268 44.4962 1.956 45.0242C1.652 45.5522 1.5 46.1442 1.5 46.8002C1.5 47.4562 1.652 48.0482 1.956 48.5762C2.268 49.1042 2.696 49.5202 3.24 49.8242C3.784 50.1282 4.388 50.2802 5.052 50.2802C6.06 50.2802 6.888 49.9442 7.536 49.2722L8.1 49.8362C7.732 50.2362 7.28 50.5442 6.744 50.7602C6.216 50.9682 5.64 51.0722 5.016 51.0722ZM15.2901 44.6882V51.0002H14.4741V49.8482C14.2501 50.2322 13.9421 50.5322 13.5501 50.7482C13.1581 50.9562 12.7101 51.0602 12.2061 51.0602C11.3821 51.0602 10.7301 50.8322 10.2501 50.3762C9.77806 49.9122 9.54206 49.2362 9.54206 48.3482V44.6882H10.3941V48.2642C10.3941 48.9282 10.5581 49.4322 10.8861 49.7762C11.2141 50.1202 11.6821 50.2922 12.2901 50.2922C12.9541 50.2922 13.4781 50.0922 13.8621 49.6922C14.2461 49.2842 14.4381 48.7202 14.4381 48.0002V44.6882H15.2901ZM19.3683 51.0602C18.8563 51.0602 18.3643 50.9882 17.8923 50.8442C17.4283 50.6922 17.0643 50.5042 16.8003 50.2802L17.1843 49.6082C17.4483 49.8162 17.7803 49.9882 18.1803 50.1242C18.5803 50.2522 18.9963 50.3162 19.4283 50.3162C20.0043 50.3162 20.4283 50.2282 20.7003 50.0522C20.9803 49.8682 21.1203 49.6122 21.1203 49.2842C21.1203 49.0522 21.0443 48.8722 20.8923 48.7442C20.7403 48.6082 20.5483 48.5082 20.3163 48.4442C20.0843 48.3722 19.7763 48.3042 19.3923 48.2402C18.8803 48.1442 18.4683 48.0482 18.1563 47.9522C17.8443 47.8482 17.5763 47.6762 17.3523 47.4362C17.1363 47.1962 17.0283 46.8642 17.0283 46.4402C17.0283 45.9122 17.2483 45.4802 17.6883 45.1442C18.1283 44.8082 18.7403 44.6402 19.5243 44.6402C19.9323 44.6402 20.3403 44.6962 20.7483 44.8082C21.1563 44.9122 21.4923 45.0522 21.7563 45.2282L21.3843 45.9122C20.8643 45.5522 20.2443 45.3722 19.5243 45.3722C18.9803 45.3722 18.5683 45.4682 18.2883 45.6602C18.0163 45.8522 17.8803 46.1042 17.8803 46.4162C17.8803 46.6562 17.9563 46.8482 18.1083 46.9922C18.2683 47.1362 18.4643 47.2442 18.6963 47.3162C18.9283 47.3802 19.2483 47.4482 19.6563 47.5202C20.1603 47.6162 20.5643 47.7122 20.8683 47.8082C21.1723 47.9042 21.4323 48.0682 21.6483 48.3002C21.8643 48.5322 21.9723 48.8522 21.9723 49.2602C21.9723 49.8122 21.7403 50.2522 21.2763 50.5802C20.8203 50.9002 20.1843 51.0602 19.3683 51.0602ZM26.8714 50.6162C26.7114 50.7602 26.5114 50.8722 26.2714 50.9522C26.0394 51.0242 25.7954 51.0602 25.5394 51.0602C24.9474 51.0602 24.4914 50.9002 24.1714 50.5802C23.8514 50.2602 23.6914 49.8082 23.6914 49.2242V45.4082H22.5634V44.6882H23.6914V43.3082H24.5434V44.6882H26.4634V45.4082H24.5434V49.1762C24.5434 49.5522 24.6354 49.8402 24.8194 50.0402C25.0114 50.2322 25.2834 50.3282 25.6354 50.3282C25.8114 50.3282 25.9794 50.3002 26.1394 50.2442C26.3074 50.1882 26.4514 50.1082 26.5714 50.0042L26.8714 50.6162ZM30.7797 51.0602C30.1717 51.0602 29.6237 50.9242 29.1357 50.6522C28.6477 50.3722 28.2637 49.9882 27.9837 49.5002C27.7037 49.0122 27.5637 48.4602 27.5637 47.8442C27.5637 47.2282 27.7037 46.6762 27.9837 46.1882C28.2637 45.7002 28.6477 45.3202 29.1357 45.0482C29.6237 44.7762 30.1717 44.6402 30.7797 44.6402C31.3877 44.6402 31.9357 44.7762 32.4237 45.0482C32.9117 45.3202 33.2917 45.7002 33.5637 46.1882C33.8437 46.6762 33.9837 47.2282 33.9837 47.8442C33.9837 48.4602 33.8437 49.0122 33.5637 49.5002C33.2917 49.9882 32.9117 50.3722 32.4237 50.6522C31.9357 50.9242 31.3877 51.0602 30.7797 51.0602ZM30.7797 50.3042C31.2277 50.3042 31.6277 50.2042 31.9797 50.0042C32.3397 49.7962 32.6197 49.5042 32.8197 49.1282C33.0197 48.7522 33.1197 48.3242 33.1197 47.8442C33.1197 47.3642 33.0197 46.9362 32.8197 46.5602C32.6197 46.1842 32.3397 45.8962 31.9797 45.6962C31.6277 45.4882 31.2277 45.3842 30.7797 45.3842C30.3317 45.3842 29.9277 45.4882 29.5677 45.6962C29.2157 45.8962 28.9357 46.1842 28.7277 46.5602C28.5277 46.9362 28.4277 47.3642 28.4277 47.8442C28.4277 48.3242 28.5277 48.7522 28.7277 49.1282C28.9357 49.5042 29.2157 49.7962 29.5677 50.0042C29.9277 50.2042 30.3317 50.3042 30.7797 50.3042ZM43.5952 44.6402C44.3872 44.6402 45.0072 44.8682 45.4552 45.3242C45.9112 45.7802 46.1392 46.4522 46.1392 47.3402V51.0002H45.2872V47.4242C45.2872 46.7682 45.1272 46.2682 44.8072 45.9242C44.4952 45.5802 44.0512 45.4082 43.4752 45.4082C42.8192 45.4082 42.3032 45.6122 41.9272 46.0202C41.5512 46.4202 41.3632 46.9762 41.3632 47.6882V51.0002H40.5112V47.4242C40.5112 46.7682 40.3512 46.2682 40.0312 45.9242C39.7192 45.5802 39.2712 45.4082 38.6872 45.4082C38.0392 45.4082 37.5232 45.6122 37.1392 46.0202C36.7632 46.4202 36.5752 46.9762 36.5752 47.6882V51.0002H35.7232V44.6882H36.5392V45.8402C36.7632 45.4562 37.0752 45.1602 37.4752 44.9522C37.8752 44.7442 38.3352 44.6402 38.8552 44.6402C39.3832 44.6402 39.8392 44.7522 40.2232 44.9762C40.6152 45.2002 40.9072 45.5322 41.0992 45.9722C41.3312 45.5562 41.6632 45.2322 42.0952 45.0002C42.5352 44.7602 43.0352 44.6402 43.5952 44.6402ZM53.9692 48.1082H48.6892C48.7372 48.7642 48.9892 49.2962 49.4452 49.7042C49.9012 50.1042 50.4772 50.3042 51.1732 50.3042C51.5652 50.3042 51.9252 50.2362 52.2532 50.1002C52.5812 49.9562 52.8652 49.7482 53.1052 49.4762L53.5852 50.0282C53.3052 50.3642 52.9532 50.6202 52.5292 50.7962C52.1132 50.9722 51.6532 51.0602 51.1492 51.0602C50.5012 51.0602 49.9252 50.9242 49.4212 50.6522C48.9252 50.3722 48.5372 49.9882 48.2572 49.5002C47.9772 49.0122 47.8372 48.4602 47.8372 47.8442C47.8372 47.2282 47.9692 46.6762 48.2332 46.1882C48.5052 45.7002 48.8732 45.3202 49.3372 45.0482C49.8092 44.7762 50.3372 44.6402 50.9212 44.6402C51.5052 44.6402 52.0292 44.7762 52.4932 45.0482C52.9572 45.3202 53.3212 45.7002 53.5852 46.1882C53.8492 46.6682 53.9812 47.2202 53.9812 47.8442L53.9692 48.1082ZM50.9212 45.3722C50.3132 45.3722 49.8012 45.5682 49.3852 45.9602C48.9772 46.3442 48.7452 46.8482 48.6892 47.4722H53.1652C53.1092 46.8482 52.8732 46.3442 52.4572 45.9602C52.0492 45.5682 51.5372 45.3722 50.9212 45.3722ZM56.5313 45.9242C56.7313 45.5002 57.0273 45.1802 57.4193 44.9642C57.8193 44.7482 58.3113 44.6402 58.8953 44.6402V45.4682L58.6913 45.4562C58.0273 45.4562 57.5073 45.6602 57.1313 46.0682C56.7553 46.4762 56.5673 47.0482 56.5673 47.7842V51.0002H55.7153V44.6882H56.5313V45.9242ZM66.1684 51.0722C65.5444 51.0722 64.9444 50.9722 64.3684 50.7722C63.8004 50.5722 63.3604 50.3082 63.0484 49.9802L63.3964 49.2962C63.7004 49.6002 64.1044 49.8482 64.6084 50.0402C65.1124 50.2242 65.6324 50.3162 66.1684 50.3162C66.9204 50.3162 67.4844 50.1802 67.8604 49.9082C68.2364 49.6282 68.4244 49.2682 68.4244 48.8282C68.4244 48.4922 68.3204 48.2242 68.1124 48.0242C67.9124 47.8242 67.6644 47.6722 67.3684 47.5682C67.0724 47.4562 66.6604 47.3362 66.1324 47.2082C65.5004 47.0482 64.9964 46.8962 64.6204 46.7522C64.2444 46.6002 63.9204 46.3722 63.6484 46.0682C63.3844 45.7642 63.2524 45.3522 63.2524 44.8322C63.2524 44.4082 63.3644 44.0242 63.5884 43.6802C63.8124 43.3282 64.1564 43.0482 64.6204 42.8402C65.0844 42.6322 65.6604 42.5282 66.3484 42.5282C66.8284 42.5282 67.2964 42.5962 67.7524 42.7322C68.2164 42.8602 68.6164 43.0402 68.9524 43.2722L68.6524 43.9802C68.3004 43.7482 67.9244 43.5762 67.5244 43.4642C67.1244 43.3442 66.7324 43.2842 66.3484 43.2842C65.6124 43.2842 65.0564 43.4282 64.6804 43.7162C64.3124 43.9962 64.1284 44.3602 64.1284 44.8082C64.1284 45.1442 64.2284 45.4162 64.4284 45.6242C64.6364 45.8242 64.8924 45.9802 65.1964 46.0922C65.5084 46.1962 65.9244 46.3122 66.4444 46.4402C67.0604 46.5922 67.5564 46.7442 67.9324 46.8962C68.3164 47.0402 68.6404 47.2642 68.9044 47.5682C69.1684 47.8642 69.3004 48.2682 69.3004 48.7802C69.3004 49.2042 69.1844 49.5922 68.9524 49.9442C68.7284 50.2882 68.3804 50.5642 67.9084 50.7722C67.4364 50.9722 66.8564 51.0722 66.1684 51.0722ZM76.5512 48.1082H71.2712C71.3192 48.7642 71.5712 49.2962 72.0272 49.7042C72.4832 50.1042 73.0592 50.3042 73.7552 50.3042C74.1472 50.3042 74.5072 50.2362 74.8352 50.1002C75.1632 49.9562 75.4472 49.7482 75.6872 49.4762L76.1672 50.0282C75.8872 50.3642 75.5352 50.6202 75.1112 50.7962C74.6952 50.9722 74.2352 51.0602 73.7312 51.0602C73.0832 51.0602 72.5072 50.9242 72.0032 50.6522C71.5072 50.3722 71.1192 49.9882 70.8392 49.5002C70.5592 49.0122 70.4192 48.4602 70.4192 47.8442C70.4192 47.2282 70.5512 46.6762 70.8152 46.1882C71.0872 45.7002 71.4552 45.3202 71.9192 45.0482C72.3912 44.7762 72.9192 44.6402 73.5032 44.6402C74.0872 44.6402 74.6112 44.7762 75.0752 45.0482C75.5392 45.3202 75.9032 45.7002 76.1672 46.1882C76.4312 46.6682 76.5632 47.2202 76.5632 47.8442L76.5512 48.1082ZM73.5032 45.3722C72.8952 45.3722 72.3832 45.5682 71.9672 45.9602C71.5592 46.3442 71.3272 46.8482 71.2712 47.4722H75.7472C75.6912 46.8482 75.4552 46.3442 75.0392 45.9602C74.6312 45.5682 74.1192 45.3722 73.5032 45.3722ZM79.1134 45.9242C79.3134 45.5002 79.6094 45.1802 80.0014 44.9642C80.4014 44.7482 80.8934 44.6402 81.4774 44.6402V45.4682L81.2734 45.4562C80.6094 45.4562 80.0894 45.6602 79.7134 46.0682C79.3374 46.4762 79.1494 47.0482 79.1494 47.7842V51.0002H78.2974V44.6882H79.1134V45.9242ZM88.5936 44.6882L85.7856 51.0002H84.9096L82.1136 44.6882H83.0016L85.3656 50.0642L87.7536 44.6882H88.5936ZM89.7935 44.6882H90.6455V51.0002H89.7935V44.6882ZM90.2255 43.3082C90.0495 43.3082 89.9015 43.2482 89.7815 43.1282C89.6615 43.0082 89.6015 42.8642 89.6015 42.6962C89.6015 42.5362 89.6615 42.3962 89.7815 42.2762C89.9015 42.1562 90.0495 42.0962 90.2255 42.0962C90.4015 42.0962 90.5495 42.1562 90.6695 42.2762C90.7895 42.3882 90.8495 42.5242 90.8495 42.6842C90.8495 42.8602 90.7895 43.0082 90.6695 43.1282C90.5495 43.2482 90.4015 43.3082 90.2255 43.3082ZM95.6321 51.0602C95.0081 51.0602 94.4481 50.9242 93.9521 50.6522C93.4641 50.3802 93.0801 50.0002 92.8001 49.5122C92.5201 49.0162 92.3801 48.4602 92.3801 47.8442C92.3801 47.2282 92.5201 46.6762 92.8001 46.1882C93.0801 45.7002 93.4641 45.3202 93.9521 45.0482C94.4481 44.7762 95.0081 44.6402 95.6321 44.6402C96.1761 44.6402 96.6601 44.7482 97.0841 44.9642C97.5161 45.1722 97.8561 45.4802 98.1041 45.8882L97.4681 46.3202C97.2601 46.0082 96.9961 45.7762 96.6761 45.6242C96.3561 45.4642 96.0081 45.3842 95.6321 45.3842C95.1761 45.3842 94.7641 45.4882 94.3961 45.6962C94.0361 45.8962 93.7521 46.1842 93.5441 46.5602C93.3441 46.9362 93.2441 47.3642 93.2441 47.8442C93.2441 48.3322 93.3441 48.7642 93.5441 49.1402C93.7521 49.5082 94.0361 49.7962 94.3961 50.0042C94.7641 50.2042 95.1761 50.3042 95.6321 50.3042C96.0081 50.3042 96.3561 50.2282 96.6761 50.0762C96.9961 49.9242 97.2601 49.6922 97.4681 49.3802L98.1041 49.8122C97.8561 50.2202 97.5161 50.5322 97.0841 50.7482C96.6521 50.9562 96.1681 51.0602 95.6321 51.0602ZM105.168 48.1082H99.8884C99.9364 48.7642 100.188 49.2962 100.644 49.7042C101.1 50.1042 101.676 50.3042 102.372 50.3042C102.764 50.3042 103.124 50.2362 103.452 50.1002C103.78 49.9562 104.064 49.7482 104.304 49.4762L104.784 50.0282C104.504 50.3642 104.152 50.6202 103.728 50.7962C103.312 50.9722 102.852 51.0602 102.348 51.0602C101.7 51.0602 101.124 50.9242 100.62 50.6522C100.124 50.3722 99.7364 49.9882 99.4564 49.5002C99.1764 49.0122 99.0364 48.4602 99.0364 47.8442C99.0364 47.2282 99.1684 46.6762 99.4324 46.1882C99.7044 45.7002 100.072 45.3202 100.536 45.0482C101.008 44.7762 101.536 44.6402 102.12 44.6402C102.704 44.6402 103.228 44.7762 103.692 45.0482C104.156 45.3202 104.52 45.7002 104.784 46.1882C105.048 46.6682 105.18 47.2202 105.18 47.8442L105.168 48.1082ZM102.12 45.3722C101.512 45.3722 101 45.5682 100.584 45.9602C100.176 46.3442 99.9444 46.8482 99.8884 47.4722H104.364C104.308 46.8482 104.072 46.3442 103.656 45.9602C103.248 45.5682 102.736 45.3722 102.12 45.3722ZM5.016 71.0722C4.184 71.0722 3.432 70.8882 2.76 70.5202C2.096 70.1522 1.572 69.6442 1.188 68.9962C0.812 68.3402 0.624 67.6082 0.624 66.8002C0.624 65.9922 0.812 65.2642 1.188 64.6162C1.572 63.9602 2.1 63.4482 2.772 63.0802C3.444 62.7122 4.196 62.5282 5.028 62.5282C5.652 62.5282 6.228 62.6322 6.756 62.8402C7.284 63.0482 7.732 63.3522 8.1 63.7522L7.536 64.3162C6.88 63.6522 6.052 63.3202 5.052 63.3202C4.388 63.3202 3.784 63.4722 3.24 63.7762C2.696 64.0802 2.268 64.4962 1.956 65.0242C1.652 65.5522 1.5 66.1442 1.5 66.8002C1.5 67.4562 1.652 68.0482 1.956 68.5762C2.268 69.1042 2.696 69.5202 3.24 69.8242C3.784 70.1282 4.388 70.2802 5.052 70.2802C6.06 70.2802 6.888 69.9442 7.536 69.2722L8.1 69.8362C7.732 70.2362 7.28 70.5442 6.744 70.7602C6.216 70.9682 5.64 71.0722 5.016 71.0722ZM12.1118 71.0602C11.5038 71.0602 10.9558 70.9242 10.4678 70.6522C9.97975 70.3722 9.59575 69.9882 9.31575 69.5002C9.03575 69.0122 8.89575 68.4602 8.89575 67.8442C8.89575 67.2282 9.03575 66.6762 9.31575 66.1882C9.59575 65.7002 9.97975 65.3202 10.4678 65.0482C10.9558 64.7762 11.5038 64.6402 12.1118 64.6402C12.7198 64.6402 13.2678 64.7762 13.7558 65.0482C14.2438 65.3202 14.6238 65.7002 14.8958 66.1882C15.1758 66.6762 15.3158 67.2282 15.3158 67.8442C15.3158 68.4602 15.1758 69.0122 14.8958 69.5002C14.6238 69.9882 14.2438 70.3722 13.7558 70.6522C13.2678 70.9242 12.7198 71.0602 12.1118 71.0602ZM12.1118 70.3042C12.5598 70.3042 12.9598 70.2042 13.3118 70.0042C13.6718 69.7962 13.9518 69.5042 14.1518 69.1282C14.3518 68.7522 14.4518 68.3242 14.4518 67.8442C14.4518 67.3642 14.3518 66.9362 14.1518 66.5602C13.9518 66.1842 13.6718 65.8962 13.3118 65.6962C12.9598 65.4882 12.5598 65.3842 12.1118 65.3842C11.6638 65.3842 11.2598 65.4882 10.8998 65.6962C10.5478 65.8962 10.2678 66.1842 10.0598 66.5602C9.85975 66.9362 9.75975 67.3642 9.75975 67.8442C9.75975 68.3242 9.85975 68.7522 10.0598 69.1282C10.2678 69.5042 10.5478 69.7962 10.8998 70.0042C11.2598 70.2042 11.6638 70.3042 12.1118 70.3042ZM17.8712 65.9242C18.0712 65.5002 18.3672 65.1802 18.7592 64.9642C19.1592 64.7482 19.6512 64.6402 20.2352 64.6402V65.4682L20.0312 65.4562C19.3672 65.4562 18.8472 65.6602 18.4712 66.0682C18.0952 66.4762 17.9072 67.0482 17.9072 67.7842V71.0002H17.0552V64.6882H17.8712V65.9242ZM25.0298 64.6402C25.6218 64.6402 26.1578 64.7762 26.6378 65.0482C27.1178 65.3122 27.4938 65.6882 27.7658 66.1762C28.0378 66.6642 28.1738 67.2202 28.1738 67.8442C28.1738 68.4762 28.0378 69.0362 27.7658 69.5242C27.4938 70.0122 27.1178 70.3922 26.6378 70.6642C26.1658 70.9282 25.6298 71.0602 25.0298 71.0602C24.5178 71.0602 24.0538 70.9562 23.6378 70.7482C23.2298 70.5322 22.8938 70.2202 22.6298 69.8122V73.3282H21.7778V64.6882H22.5938V65.9362C22.8498 65.5202 23.1858 65.2002 23.6018 64.9762C24.0258 64.7522 24.5018 64.6402 25.0298 64.6402ZM24.9698 70.3042C25.4098 70.3042 25.8098 70.2042 26.1698 70.0042C26.5298 69.7962 26.8098 69.5042 27.0098 69.1282C27.2178 68.7522 27.3218 68.3242 27.3218 67.8442C27.3218 67.3642 27.2178 66.9402 27.0098 66.5722C26.8098 66.1962 26.5298 65.9042 26.1698 65.6962C25.8098 65.4882 25.4098 65.3842 24.9698 65.3842C24.5218 65.3842 24.1178 65.4882 23.7578 65.6962C23.4058 65.9042 23.1258 66.1962 22.9178 66.5722C22.7178 66.9402 22.6178 67.3642 22.6178 67.8442C22.6178 68.3242 22.7178 68.7522 22.9178 69.1282C23.1258 69.5042 23.4058 69.7962 23.7578 70.0042C24.1178 70.2042 24.5218 70.3042 24.9698 70.3042ZM32.4907 71.0602C31.8827 71.0602 31.3347 70.9242 30.8467 70.6522C30.3587 70.3722 29.9747 69.9882 29.6947 69.5002C29.4147 69.0122 29.2747 68.4602 29.2747 67.8442C29.2747 67.2282 29.4147 66.6762 29.6947 66.1882C29.9747 65.7002 30.3587 65.3202 30.8467 65.0482C31.3347 64.7762 31.8827 64.6402 32.4907 64.6402C33.0987 64.6402 33.6467 64.7762 34.1347 65.0482C34.6227 65.3202 35.0027 65.7002 35.2747 66.1882C35.5547 66.6762 35.6947 67.2282 35.6947 67.8442C35.6947 68.4602 35.5547 69.0122 35.2747 69.5002C35.0027 69.9882 34.6227 70.3722 34.1347 70.6522C33.6467 70.9242 33.0987 71.0602 32.4907 71.0602ZM32.4907 70.3042C32.9387 70.3042 33.3387 70.2042 33.6907 70.0042C34.0507 69.7962 34.3307 69.5042 34.5307 69.1282C34.7307 68.7522 34.8307 68.3242 34.8307 67.8442C34.8307 67.3642 34.7307 66.9362 34.5307 66.5602C34.3307 66.1842 34.0507 65.8962 33.6907 65.6962C33.3387 65.4882 32.9387 65.3842 32.4907 65.3842C32.0427 65.3842 31.6387 65.4882 31.2787 65.6962C30.9267 65.8962 30.6467 66.1842 30.4387 66.5602C30.2387 66.9362 30.1387 67.3642 30.1387 67.8442C30.1387 68.3242 30.2387 68.7522 30.4387 69.1282C30.6467 69.5042 30.9267 69.7962 31.2787 70.0042C31.6387 70.2042 32.0427 70.3042 32.4907 70.3042ZM38.2501 65.9242C38.4501 65.5002 38.7461 65.1802 39.1381 64.9642C39.5381 64.7482 40.0301 64.6402 40.6141 64.6402V65.4682L40.4101 65.4562C39.7461 65.4562 39.2261 65.6602 38.8501 66.0682C38.4741 66.4762 38.2861 67.0482 38.2861 67.7842V71.0002H37.4341V64.6882H38.2501V65.9242ZM44.353 64.6402C45.177 64.6402 45.809 64.8482 46.249 65.2642C46.689 65.6722 46.909 66.2802 46.909 67.0882V71.0002H46.093V70.0162C45.901 70.3442 45.617 70.6002 45.241 70.7842C44.873 70.9682 44.433 71.0602 43.921 71.0602C43.217 71.0602 42.657 70.8922 42.241 70.5562C41.825 70.2202 41.617 69.7762 41.617 69.2242C41.617 68.6882 41.809 68.2562 42.193 67.9282C42.585 67.6002 43.205 67.4362 44.053 67.4362H46.057V67.0522C46.057 66.5082 45.905 66.0962 45.601 65.8162C45.297 65.5282 44.853 65.3842 44.269 65.3842C43.869 65.3842 43.485 65.4522 43.117 65.5882C42.749 65.7162 42.433 65.8962 42.169 66.1282L41.785 65.4922C42.105 65.2202 42.489 65.0122 42.937 64.8682C43.385 64.7162 43.857 64.6402 44.353 64.6402ZM44.053 70.3882C44.533 70.3882 44.945 70.2802 45.289 70.0642C45.633 69.8402 45.889 69.5202 46.057 69.1042V68.0722H44.077C42.997 68.0722 42.457 68.4482 42.457 69.2002C42.457 69.5682 42.597 69.8602 42.877 70.0762C43.157 70.2842 43.549 70.3882 44.053 70.3882ZM52.5472 70.6162C52.3872 70.7602 52.1872 70.8722 51.9472 70.9522C51.7152 71.0242 51.4712 71.0602 51.2152 71.0602C50.6232 71.0602 50.1672 70.9002 49.8472 70.5802C49.5272 70.2602 49.3672 69.8082 49.3672 69.2242V65.4082H48.2392V64.6882H49.3672V63.3082H50.2192V64.6882H52.1392V65.4082H50.2192V69.1762C50.2192 69.5522 50.3112 69.8402 50.4952 70.0402C50.6872 70.2322 50.9592 70.3282 51.3112 70.3282C51.4872 70.3282 51.6552 70.3002 51.8152 70.2442C51.9832 70.1882 52.1272 70.1082 52.2472 70.0042L52.5472 70.6162ZM59.3715 68.1082H54.0915C54.1395 68.7642 54.3915 69.2962 54.8475 69.7042C55.3035 70.1042 55.8795 70.3042 56.5755 70.3042C56.9675 70.3042 57.3275 70.2362 57.6555 70.1002C57.9835 69.9562 58.2675 69.7482 58.5075 69.4762L58.9875 70.0282C58.7075 70.3642 58.3555 70.6202 57.9315 70.7962C57.5155 70.9722 57.0555 71.0602 56.5515 71.0602C55.9035 71.0602 55.3275 70.9242 54.8235 70.6522C54.3275 70.3722 53.9395 69.9882 53.6595 69.5002C53.3795 69.0122 53.2395 68.4602 53.2395 67.8442C53.2395 67.2282 53.3715 66.6762 53.6355 66.1882C53.9075 65.7002 54.2755 65.3202 54.7395 65.0482C55.2115 64.7762 55.7395 64.6402 56.3235 64.6402C56.9075 64.6402 57.4315 64.7762 57.8955 65.0482C58.3595 65.3202 58.7235 65.7002 58.9875 66.1882C59.2515 66.6682 59.3835 67.2202 59.3835 67.8442L59.3715 68.1082ZM56.3235 65.3722C55.7155 65.3722 55.2035 65.5682 54.7875 65.9602C54.3795 66.3442 54.1475 66.8482 54.0915 67.4722H58.5675C58.5115 66.8482 58.2755 66.3442 57.8595 65.9602C57.4515 65.5682 56.9395 65.3722 56.3235 65.3722ZM66.8743 71.0602C66.2503 71.0602 65.6903 70.9242 65.1943 70.6522C64.7063 70.3802 64.3223 70.0002 64.0423 69.5122C63.7623 69.0162 63.6223 68.4602 63.6223 67.8442C63.6223 67.2282 63.7623 66.6762 64.0423 66.1882C64.3223 65.7002 64.7063 65.3202 65.1943 65.0482C65.6903 64.7762 66.2503 64.6402 66.8743 64.6402C67.4183 64.6402 67.9023 64.7482 68.3263 64.9642C68.7583 65.1722 69.0983 65.4802 69.3463 65.8882L68.7103 66.3202C68.5023 66.0082 68.2383 65.7762 67.9183 65.6242C67.5983 65.4642 67.2503 65.3842 66.8743 65.3842C66.4183 65.3842 66.0063 65.4882 65.6383 65.6962C65.2783 65.8962 64.9943 66.1842 64.7863 66.5602C64.5863 66.9362 64.4863 67.3642 64.4863 67.8442C64.4863 68.3322 64.5863 68.7642 64.7863 69.1402C64.9943 69.5082 65.2783 69.7962 65.6383 70.0042C66.0063 70.2042 66.4183 70.3042 66.8743 70.3042C67.2503 70.3042 67.5983 70.2282 67.9183 70.0762C68.2383 69.9242 68.5023 69.6922 68.7103 69.3802L69.3463 69.8122C69.0983 70.2202 68.7583 70.5322 68.3263 70.7482C67.8943 70.9562 67.4103 71.0602 66.8743 71.0602ZM73.4946 71.0602C72.8866 71.0602 72.3386 70.9242 71.8506 70.6522C71.3626 70.3722 70.9786 69.9882 70.6986 69.5002C70.4186 69.0122 70.2786 68.4602 70.2786 67.8442C70.2786 67.2282 70.4186 66.6762 70.6986 66.1882C70.9786 65.7002 71.3626 65.3202 71.8506 65.0482C72.3386 64.7762 72.8866 64.6402 73.4946 64.6402C74.1026 64.6402 74.6506 64.7762 75.1386 65.0482C75.6266 65.3202 76.0066 65.7002 76.2786 66.1882C76.5586 66.6762 76.6986 67.2282 76.6986 67.8442C76.6986 68.4602 76.5586 69.0122 76.2786 69.5002C76.0066 69.9882 75.6266 70.3722 75.1386 70.6522C74.6506 70.9242 74.1026 71.0602 73.4946 71.0602ZM73.4946 70.3042C73.9426 70.3042 74.3426 70.2042 74.6946 70.0042C75.0546 69.7962 75.3346 69.5042 75.5346 69.1282C75.7346 68.7522 75.8346 68.3242 75.8346 67.8442C75.8346 67.3642 75.7346 66.9362 75.5346 66.5602C75.3346 66.1842 75.0546 65.8962 74.6946 65.6962C74.3426 65.4882 73.9426 65.3842 73.4946 65.3842C73.0466 65.3842 72.6426 65.4882 72.2826 65.6962C71.9306 65.8962 71.6506 66.1842 71.4426 66.5602C71.2426 66.9362 71.1426 67.3642 71.1426 67.8442C71.1426 68.3242 71.2426 68.7522 71.4426 69.1282C71.6506 69.5042 71.9306 69.7962 72.2826 70.0042C72.6426 70.2042 73.0466 70.3042 73.4946 70.3042ZM81.654 64.6402C82.446 64.6402 83.074 64.8722 83.538 65.3362C84.01 65.7922 84.246 66.4602 84.246 67.3402V71.0002H83.394V67.4242C83.394 66.7682 83.23 66.2682 82.902 65.9242C82.574 65.5802 82.106 65.4082 81.498 65.4082C80.818 65.4082 80.278 65.6122 79.878 66.0202C79.486 66.4202 79.29 66.9762 79.29 67.6882V71.0002H78.438V64.6882H79.254V65.8522C79.486 65.4682 79.806 65.1722 80.214 64.9642C80.63 64.7482 81.11 64.6402 81.654 64.6402ZM89.8831 70.6162C89.7231 70.7602 89.5231 70.8722 89.2831 70.9522C89.0511 71.0242 88.8071 71.0602 88.5511 71.0602C87.9591 71.0602 87.5031 70.9002 87.1831 70.5802C86.8631 70.2602 86.7031 69.8082 86.7031 69.2242V65.4082H85.5751V64.6882H86.7031V63.3082H87.5551V64.6882H89.4751V65.4082H87.5551V69.1762C87.5551 69.5522 87.6471 69.8402 87.8311 70.0402C88.0231 70.2322 88.2951 70.3282 88.6471 70.3282C88.8231 70.3282 88.9911 70.3002 89.1511 70.2442C89.3191 70.1882 89.4631 70.1082 89.5831 70.0042L89.8831 70.6162ZM93.6421 64.6402C94.4661 64.6402 95.0981 64.8482 95.5381 65.2642C95.9781 65.6722 96.1981 66.2802 96.1981 67.0882V71.0002H95.3821V70.0162C95.1901 70.3442 94.9061 70.6002 94.5301 70.7842C94.1621 70.9682 93.7221 71.0602 93.2101 71.0602C92.5061 71.0602 91.9461 70.8922 91.5301 70.5562C91.1141 70.2202 90.9061 69.7762 90.9061 69.2242C90.9061 68.6882 91.0981 68.2562 91.4821 67.9282C91.8741 67.6002 92.4941 67.4362 93.3421 67.4362H95.3461V67.0522C95.3461 66.5082 95.1941 66.0962 94.8901 65.8162C94.5861 65.5282 94.1421 65.3842 93.5581 65.3842C93.1581 65.3842 92.7741 65.4522 92.4061 65.5882C92.0381 65.7162 91.7221 65.8962 91.4581 66.1282L91.0741 65.4922C91.3941 65.2202 91.7781 65.0122 92.2261 64.8682C92.6741 64.7162 93.1461 64.6402 93.6421 64.6402ZM93.3421 70.3882C93.8221 70.3882 94.2341 70.2802 94.5781 70.0642C94.9221 69.8402 95.1781 69.5202 95.3461 69.1042V68.0722H93.3661C92.2861 68.0722 91.7461 68.4482 91.7461 69.2002C91.7461 69.5682 91.8861 69.8602 92.1661 70.0762C92.4461 70.2842 92.8381 70.3882 93.3421 70.3882ZM101.152 71.0602C100.528 71.0602 99.9677 70.9242 99.4717 70.6522C98.9837 70.3802 98.5997 70.0002 98.3197 69.5122C98.0397 69.0162 97.8997 68.4602 97.8997 67.8442C97.8997 67.2282 98.0397 66.6762 98.3197 66.1882C98.5997 65.7002 98.9837 65.3202 99.4717 65.0482C99.9677 64.7762 100.528 64.6402 101.152 64.6402C101.696 64.6402 102.18 64.7482 102.604 64.9642C103.036 65.1722 103.376 65.4802 103.624 65.8882L102.988 66.3202C102.78 66.0082 102.516 65.7762 102.196 65.6242C101.876 65.4642 101.528 65.3842 101.152 65.3842C100.696 65.3842 100.284 65.4882 99.9157 65.6962C99.5557 65.8962 99.2717 66.1842 99.0637 66.5602C98.8637 66.9362 98.7637 67.3642 98.7637 67.8442C98.7637 68.3322 98.8637 68.7642 99.0637 69.1402C99.2717 69.5082 99.5557 69.7962 99.9157 70.0042C100.284 70.2042 100.696 70.3042 101.152 70.3042C101.528 70.3042 101.876 70.2282 102.196 70.0762C102.516 69.9242 102.78 69.6922 102.988 69.3802L103.624 69.8122C103.376 70.2202 103.036 70.5322 102.604 70.7482C102.172 70.9562 101.688 71.0602 101.152 71.0602ZM108.692 70.6162C108.532 70.7602 108.332 70.8722 108.092 70.9522C107.86 71.0242 107.616 71.0602 107.36 71.0602C106.768 71.0602 106.312 70.9002 105.992 70.5802C105.672 70.2602 105.512 69.8082 105.512 69.2242V65.4082H104.384V64.6882H105.512V63.3082H106.364V64.6882H108.284V65.4082H106.364V69.1762C106.364 69.5522 106.456 69.8402 106.64 70.0402C106.832 70.2322 107.104 70.3282 107.456 70.3282C107.632 70.3282 107.8 70.3002 107.96 70.2442C108.128 70.1882 108.272 70.1082 108.392 70.0042L108.692 70.6162ZM3.684 91.0722C3.06 91.0722 2.46 90.9722 1.884 90.7722C1.316 90.5722 0.876 90.3082 0.564 89.9802L0.912 89.2962C1.216 89.6002 1.62 89.8482 2.124 90.0402C2.628 90.2242 3.148 90.3162 3.684 90.3162C4.436 90.3162 5 90.1802 5.376 89.9082C5.752 89.6282 5.94 89.2682 5.94 88.8282C5.94 88.4922 5.836 88.2242 5.628 88.0242C5.428 87.8242 5.18 87.6722 4.884 87.5682C4.588 87.4562 4.176 87.3362 3.648 87.2082C3.016 87.0482 2.512 86.8962 2.136 86.7522C1.76 86.6002 1.436 86.3722 1.164 86.0682C0.9 85.7642 0.768 85.3522 0.768 84.8322C0.768 84.4082 0.88 84.0242 1.104 83.6802C1.328 83.3282 1.672 83.0482 2.136 82.8402C2.6 82.6322 3.176 82.5282 3.864 82.5282C4.344 82.5282 4.812 82.5962 5.268 82.7322C5.732 82.8602 6.132 83.0402 6.468 83.2722L6.168 83.9802C5.816 83.7482 5.44 83.5762 5.04 83.4642C4.64 83.3442 4.248 83.2842 3.864 83.2842C3.128 83.2842 2.572 83.4282 2.196 83.7162C1.828 83.9962 1.644 84.3602 1.644 84.8082C1.644 85.1442 1.744 85.4162 1.944 85.6242C2.152 85.8242 2.408 85.9802 2.712 86.0922C3.024 86.1962 3.44 86.3122 3.96 86.4402C4.576 86.5922 5.072 86.7442 5.448 86.8962C5.832 87.0402 6.156 87.2642 6.42 87.5682C6.684 87.8642 6.816 88.2682 6.816 88.7802C6.816 89.2042 6.7 89.5922 6.468 89.9442C6.244 90.2882 5.896 90.5642 5.424 90.7722C4.952 90.9722 4.372 91.0722 3.684 91.0722ZM10.7788 84.6402C11.6028 84.6402 12.2348 84.8482 12.6748 85.2642C13.1148 85.6722 13.3348 86.2802 13.3348 87.0882V91.0002H12.5188V90.0162C12.3268 90.3442 12.0428 90.6002 11.6668 90.7842C11.2988 90.9682 10.8588 91.0602 10.3468 91.0602C9.64281 91.0602 9.08281 90.8922 8.66681 90.5562C8.25081 90.2202 8.04281 89.7762 8.04281 89.2242C8.04281 88.6882 8.23481 88.2562 8.61881 87.9282C9.01081 87.6002 9.63081 87.4362 10.4788 87.4362H12.4828V87.0522C12.4828 86.5082 12.3308 86.0962 12.0268 85.8162C11.7228 85.5282 11.2788 85.3842 10.6948 85.3842C10.2948 85.3842 9.91081 85.4522 9.54281 85.5882C9.17481 85.7162 8.85881 85.8962 8.59481 86.1282L8.21081 85.4922C8.53081 85.2202 8.91481 85.0122 9.36281 84.8682C9.81081 84.7162 10.2828 84.6402 10.7788 84.6402ZM10.4788 90.3882C10.9588 90.3882 11.3708 90.2802 11.7148 90.0642C12.0588 89.8402 12.3148 89.5202 12.4828 89.1042V88.0722H10.5028C9.42281 88.0722 8.88281 88.4482 8.88281 89.2002C8.88281 89.5682 9.02281 89.8602 9.30281 90.0762C9.58281 90.2842 9.97481 90.3882 10.4788 90.3882ZM17.7369 82.7562C17.3689 82.7562 17.0889 82.8562 16.8969 83.0562C16.7129 83.2562 16.6209 83.5522 16.6209 83.9442V84.6882H18.5649V85.4082H16.6449V91.0002H15.7929V85.4082H14.6649V84.6882H15.7929V83.9082C15.7929 83.3322 15.9569 82.8762 16.2849 82.5402C16.6209 82.2042 17.0929 82.0362 17.7009 82.0362C17.9409 82.0362 18.1729 82.0722 18.3969 82.1442C18.6209 82.2082 18.8089 82.3042 18.9609 82.4322L18.6729 83.0682C18.4249 82.8602 18.1129 82.7562 17.7369 82.7562ZM25.1059 88.1082H19.8259C19.8739 88.7642 20.1259 89.2962 20.5819 89.7042C21.0379 90.1042 21.6139 90.3042 22.3099 90.3042C22.7019 90.3042 23.0619 90.2362 23.3899 90.1002C23.7179 89.9562 24.0019 89.7482 24.2419 89.4762L24.7219 90.0282C24.4419 90.3642 24.0899 90.6202 23.6659 90.7962C23.2499 90.9722 22.7899 91.0602 22.2859 91.0602C21.6379 91.0602 21.0619 90.9242 20.5579 90.6522C20.0619 90.3722 19.6739 89.9882 19.3939 89.5002C19.1139 89.0122 18.9739 88.4602 18.9739 87.8442C18.9739 87.2282 19.1059 86.6762 19.3699 86.1882C19.6419 85.7002 20.0099 85.3202 20.4739 85.0482C20.9459 84.7762 21.4739 84.6402 22.0579 84.6402C22.6419 84.6402 23.1659 84.7762 23.6299 85.0482C24.0939 85.3202 24.4579 85.7002 24.7219 86.1882C24.9859 86.6682 25.1179 87.2202 25.1179 87.8442L25.1059 88.1082ZM22.0579 85.3722C21.4499 85.3722 20.9379 85.5682 20.5219 85.9602C20.1139 86.3442 19.8819 86.8482 19.8259 87.4722H24.3019C24.2459 86.8482 24.0099 86.3442 23.5939 85.9602C23.1859 85.5682 22.6739 85.3722 22.0579 85.3722ZM30.1761 90.6162C30.0161 90.7602 29.8161 90.8722 29.5761 90.9522C29.3441 91.0242 29.1001 91.0602 28.8441 91.0602C28.2521 91.0602 27.7961 90.9002 27.4761 90.5802C27.1561 90.2602 26.9961 89.8082 26.9961 89.2242V85.4082H25.8681V84.6882H26.9961V83.3082H27.8481V84.6882H29.7681V85.4082H27.8481V89.1762C27.8481 89.5522 27.9401 89.8402 28.1241 90.0402C28.3161 90.2322 28.5881 90.3282 28.9401 90.3282C29.1161 90.3282 29.2841 90.3002 29.4441 90.2442C29.6121 90.1882 29.7561 90.1082 29.8761 90.0042L30.1761 90.6162ZM36.9139 84.6882L33.7579 91.7562C33.5019 92.3482 33.2059 92.7682 32.8699 93.0162C32.5339 93.2642 32.1299 93.3882 31.6579 93.3882C31.3539 93.3882 31.0699 93.3402 30.8059 93.2442C30.5419 93.1482 30.3139 93.0042 30.1219 92.8122L30.5179 92.1762C30.8379 92.4962 31.2219 92.6562 31.6699 92.6562C31.9579 92.6562 32.2019 92.5762 32.4019 92.4162C32.6099 92.2562 32.8019 91.9842 32.9779 91.6002L33.2539 90.9882L30.4339 84.6882H31.3219L33.6979 90.0522L36.0739 84.6882H36.9139ZM47.1704 91.0002L45.2504 88.3002C45.0344 88.3242 44.8104 88.3362 44.5784 88.3362H42.3224V91.0002H41.4344V82.6002H44.5784C45.6504 82.6002 46.4904 82.8562 47.0984 83.3682C47.7064 83.8802 48.0104 84.5842 48.0104 85.4802C48.0104 86.1362 47.8424 86.6922 47.5064 87.1482C47.1784 87.5962 46.7064 87.9202 46.0904 88.1202L48.1424 91.0002H47.1704ZM44.5544 87.5802C45.3864 87.5802 46.0224 87.3962 46.4624 87.0282C46.9024 86.6602 47.1224 86.1442 47.1224 85.4802C47.1224 84.8002 46.9024 84.2802 46.4624 83.9202C46.0224 83.5522 45.3864 83.3682 44.5544 83.3682H42.3224V87.5802H44.5544ZM55.4223 88.1082H50.1423C50.1903 88.7642 50.4423 89.2962 50.8983 89.7042C51.3543 90.1042 51.9303 90.3042 52.6263 90.3042C53.0183 90.3042 53.3783 90.2362 53.7063 90.1002C54.0343 89.9562 54.3183 89.7482 54.5583 89.4762L55.0383 90.0282C54.7583 90.3642 54.4063 90.6202 53.9823 90.7962C53.5663 90.9722 53.1063 91.0602 52.6023 91.0602C51.9543 91.0602 51.3783 90.9242 50.8743 90.6522C50.3783 90.3722 49.9903 89.9882 49.7103 89.5002C49.4303 89.0122 49.2903 88.4602 49.2903 87.8442C49.2903 87.2282 49.4223 86.6762 49.6863 86.1882C49.9583 85.7002 50.3263 85.3202 50.7903 85.0482C51.2623 84.7762 51.7903 84.6402 52.3743 84.6402C52.9583 84.6402 53.4823 84.7762 53.9463 85.0482C54.4103 85.3202 54.7743 85.7002 55.0383 86.1882C55.3023 86.6682 55.4343 87.2202 55.4343 87.8442L55.4223 88.1082ZM52.3743 85.3722C51.7663 85.3722 51.2543 85.5682 50.8383 85.9602C50.4303 86.3442 50.1983 86.8482 50.1423 87.4722H54.6183C54.5623 86.8482 54.3263 86.3442 53.9103 85.9602C53.5023 85.5682 52.9903 85.3722 52.3743 85.3722ZM58.8605 91.0602C58.3485 91.0602 57.8565 90.9882 57.3845 90.8442C56.9205 90.6922 56.5565 90.5042 56.2925 90.2802L56.6765 89.6082C56.9405 89.8162 57.2725 89.9882 57.6725 90.1242C58.0725 90.2522 58.4885 90.3162 58.9205 90.3162C59.4965 90.3162 59.9205 90.2282 60.1925 90.0522C60.4725 89.8682 60.6125 89.6122 60.6125 89.2842C60.6125 89.0522 60.5365 88.8722 60.3845 88.7442C60.2325 88.6082 60.0405 88.5082 59.8085 88.4442C59.5765 88.3722 59.2685 88.3042 58.8845 88.2402C58.3725 88.1442 57.9605 88.0482 57.6485 87.9522C57.3365 87.8482 57.0685 87.6762 56.8445 87.4362C56.6285 87.1962 56.5205 86.8642 56.5205 86.4402C56.5205 85.9122 56.7405 85.4802 57.1805 85.1442C57.6205 84.8082 58.2325 84.6402 59.0165 84.6402C59.4245 84.6402 59.8325 84.6962 60.2405 84.8082C60.6485 84.9122 60.9845 85.0522 61.2485 85.2282L60.8765 85.9122C60.3565 85.5522 59.7365 85.3722 59.0165 85.3722C58.4725 85.3722 58.0605 85.4682 57.7805 85.6602C57.5085 85.8522 57.3725 86.1042 57.3725 86.4162C57.3725 86.6562 57.4485 86.8482 57.6005 86.9922C57.7605 87.1362 57.9565 87.2442 58.1885 87.3162C58.4205 87.3802 58.7405 87.4482 59.1485 87.5202C59.6525 87.6162 60.0565 87.7122 60.3605 87.8082C60.6645 87.9042 60.9245 88.0682 61.1405 88.3002C61.3565 88.5322 61.4645 88.8522 61.4645 89.2602C61.4645 89.8122 61.2325 90.2522 60.7685 90.5802C60.3125 90.9002 59.6765 91.0602 58.8605 91.0602ZM65.6196 91.0602C65.0116 91.0602 64.4636 90.9242 63.9756 90.6522C63.4876 90.3722 63.1036 89.9882 62.8236 89.5002C62.5436 89.0122 62.4036 88.4602 62.4036 87.8442C62.4036 87.2282 62.5436 86.6762 62.8236 86.1882C63.1036 85.7002 63.4876 85.3202 63.9756 85.0482C64.4636 84.7762 65.0116 84.6402 65.6196 84.6402C66.2276 84.6402 66.7756 84.7762 67.2636 85.0482C67.7516 85.3202 68.1316 85.7002 68.4036 86.1882C68.6836 86.6762 68.8236 87.2282 68.8236 87.8442C68.8236 88.4602 68.6836 89.0122 68.4036 89.5002C68.1316 89.9882 67.7516 90.3722 67.2636 90.6522C66.7756 90.9242 66.2276 91.0602 65.6196 91.0602ZM65.6196 90.3042C66.0676 90.3042 66.4676 90.2042 66.8196 90.0042C67.1796 89.7962 67.4596 89.5042 67.6596 89.1282C67.8596 88.7522 67.9596 88.3242 67.9596 87.8442C67.9596 87.3642 67.8596 86.9362 67.6596 86.5602C67.4596 86.1842 67.1796 85.8962 66.8196 85.6962C66.4676 85.4882 66.0676 85.3842 65.6196 85.3842C65.1716 85.3842 64.7676 85.4882 64.4076 85.6962C64.0556 85.8962 63.7756 86.1842 63.5676 86.5602C63.3676 86.9362 63.2676 87.3642 63.2676 87.8442C63.2676 88.3242 63.3676 88.7522 63.5676 89.1282C63.7756 89.5042 64.0556 89.7962 64.4076 90.0042C64.7676 90.2042 65.1716 90.3042 65.6196 90.3042ZM76.251 84.6882V91.0002H75.435V89.8482C75.211 90.2322 74.903 90.5322 74.511 90.7482C74.119 90.9562 73.671 91.0602 73.167 91.0602C72.343 91.0602 71.691 90.8322 71.211 90.3762C70.739 89.9122 70.503 89.2362 70.503 88.3482V84.6882H71.355V88.2642C71.355 88.9282 71.519 89.4322 71.847 89.7762C72.175 90.1202 72.643 90.2922 73.251 90.2922C73.915 90.2922 74.439 90.0922 74.823 89.6922C75.207 89.2842 75.399 88.7202 75.399 88.0002V84.6882H76.251ZM79.4532 85.9242C79.6532 85.5002 79.9492 85.1802 80.3412 84.9642C80.7412 84.7482 81.2332 84.6402 81.8172 84.6402V85.4682L81.6132 85.4562C80.9492 85.4562 80.4292 85.6602 80.0532 86.0682C79.6772 86.4762 79.4892 87.0482 79.4892 87.7842V91.0002H78.6372V84.6882H79.4532V85.9242ZM85.9173 91.0602C85.2933 91.0602 84.7333 90.9242 84.2373 90.6522C83.7493 90.3802 83.3653 90.0002 83.0853 89.5122C82.8053 89.0162 82.6653 88.4602 82.6653 87.8442C82.6653 87.2282 82.8053 86.6762 83.0853 86.1882C83.3653 85.7002 83.7493 85.3202 84.2373 85.0482C84.7333 84.7762 85.2933 84.6402 85.9173 84.6402C86.4613 84.6402 86.9453 84.7482 87.3693 84.9642C87.8013 85.1722 88.1413 85.4802 88.3893 85.8882L87.7533 86.3202C87.5453 86.0082 87.2813 85.7762 86.9613 85.6242C86.6413 85.4642 86.2933 85.3842 85.9173 85.3842C85.4613 85.3842 85.0493 85.4882 84.6813 85.6962C84.3213 85.8962 84.0373 86.1842 83.8293 86.5602C83.6293 86.9362 83.5293 87.3642 83.5293 87.8442C83.5293 88.3322 83.6293 88.7642 83.8293 89.1402C84.0373 89.5082 84.3213 89.7962 84.6813 90.0042C85.0493 90.2042 85.4613 90.3042 85.9173 90.3042C86.2933 90.3042 86.6413 90.2282 86.9613 90.0762C87.2813 89.9242 87.5453 89.6922 87.7533 89.3802L88.3893 89.8122C88.1413 90.2202 87.8013 90.5322 87.3693 90.7482C86.9373 90.9562 86.4533 91.0602 85.9173 91.0602ZM95.4535 88.1082H90.1735C90.2215 88.7642 90.4735 89.2962 90.9295 89.7042C91.3855 90.1042 91.9615 90.3042 92.6575 90.3042C93.0495 90.3042 93.4095 90.2362 93.7375 90.1002C94.0655 89.9562 94.3495 89.7482 94.5895 89.4762L95.0695 90.0282C94.7895 90.3642 94.4375 90.6202 94.0135 90.7962C93.5975 90.9722 93.1375 91.0602 92.6335 91.0602C91.9855 91.0602 91.4095 90.9242 90.9055 90.6522C90.4095 90.3722 90.0215 89.9882 89.7415 89.5002C89.4615 89.0122 89.3215 88.4602 89.3215 87.8442C89.3215 87.2282 89.4535 86.6762 89.7175 86.1882C89.9895 85.7002 90.3575 85.3202 90.8215 85.0482C91.2935 84.7762 91.8215 84.6402 92.4055 84.6402C92.9895 84.6402 93.5135 84.7762 93.9775 85.0482C94.4415 85.3202 94.8055 85.7002 95.0695 86.1882C95.3335 86.6682 95.4655 87.2202 95.4655 87.8442L95.4535 88.1082ZM92.4055 85.3722C91.7975 85.3722 91.2855 85.5682 90.8695 85.9602C90.4615 86.3442 90.2295 86.8482 90.1735 87.4722H94.6495C94.5935 86.8482 94.3575 86.3442 93.9415 85.9602C93.5335 85.5682 93.0215 85.3722 92.4055 85.3722ZM104.168 91.0722C103.336 91.0722 102.584 90.8882 101.912 90.5202C101.248 90.1522 100.724 89.6442 100.34 88.9962C99.9643 88.3402 99.7763 87.6082 99.7763 86.8002C99.7763 85.9922 99.9643 85.2642 100.34 84.6162C100.724 83.9602 101.252 83.4482 101.924 83.0802C102.596 82.7122 103.348 82.5282 104.18 82.5282C104.804 82.5282 105.38 82.6322 105.908 82.8402C106.436 83.0482 106.884 83.3522 107.252 83.7522L106.688 84.3162C106.032 83.6522 105.204 83.3202 104.204 83.3202C103.54 83.3202 102.936 83.4722 102.392 83.7762C101.848 84.0802 101.42 84.4962 101.108 85.0242C100.804 85.5522 100.652 86.1442 100.652 86.8002C100.652 87.4562 100.804 88.0482 101.108 88.5762C101.42 89.1042 101.848 89.5202 102.392 89.8242C102.936 90.1282 103.54 90.2802 104.204 90.2802C105.212 90.2802 106.04 89.9442 106.688 89.2722L107.252 89.8362C106.884 90.2362 106.432 90.5442 105.896 90.7602C105.368 90.9682 104.792 91.0722 104.168 91.0722ZM114.18 88.1082H108.9C108.948 88.7642 109.2 89.2962 109.656 89.7042C110.112 90.1042 110.688 90.3042 111.384 90.3042C111.776 90.3042 112.136 90.2362 112.464 90.1002C112.792 89.9562 113.076 89.7482 113.316 89.4762L113.796 90.0282C113.516 90.3642 113.164 90.6202 112.74 90.7962C112.324 90.9722 111.864 91.0602 111.36 91.0602C110.712 91.0602 110.136 90.9242 109.632 90.6522C109.136 90.3722 108.748 89.9882 108.468 89.5002C108.188 89.0122 108.048 88.4602 108.048 87.8442C108.048 87.2282 108.18 86.6762 108.444 86.1882C108.716 85.7002 109.084 85.3202 109.548 85.0482C110.02 84.7762 110.548 84.6402 111.132 84.6402C111.716 84.6402 112.24 84.7762 112.704 85.0482C113.168 85.3202 113.532 85.7002 113.796 86.1882C114.06 86.6682 114.192 87.2202 114.192 87.8442L114.18 88.1082ZM111.132 85.3722C110.524 85.3722 110.012 85.5682 109.596 85.9602C109.188 86.3442 108.956 86.8482 108.9 87.4722H113.376C113.32 86.8482 113.084 86.3442 112.668 85.9602C112.26 85.5682 111.748 85.3722 111.132 85.3722ZM119.142 84.6402C119.934 84.6402 120.562 84.8722 121.026 85.3362C121.498 85.7922 121.734 86.4602 121.734 87.3402V91.0002H120.882V87.4242C120.882 86.7682 120.718 86.2682 120.39 85.9242C120.062 85.5802 119.594 85.4082 118.986 85.4082C118.306 85.4082 117.766 85.6122 117.366 86.0202C116.974 86.4202 116.778 86.9762 116.778 87.6882V91.0002H115.926V84.6882H116.742V85.8522C116.974 85.4682 117.294 85.1722 117.702 84.9642C118.118 84.7482 118.598 84.6402 119.142 84.6402ZM127.371 90.6162C127.211 90.7602 127.011 90.8722 126.771 90.9522C126.539 91.0242 126.295 91.0602 126.039 91.0602C125.447 91.0602 124.991 90.9002 124.671 90.5802C124.351 90.2602 124.191 89.8082 124.191 89.2242V85.4082H123.063V84.6882H124.191V83.3082H125.043V84.6882H126.963V85.4082H125.043V89.1762C125.043 89.5522 125.135 89.8402 125.319 90.0402C125.511 90.2322 125.783 90.3282 126.135 90.3282C126.311 90.3282 126.479 90.3002 126.639 90.2442C126.807 90.1882 126.951 90.1082 127.071 90.0042L127.371 90.6162ZM134.196 88.1082H128.916C128.964 88.7642 129.216 89.2962 129.672 89.7042C130.128 90.1042 130.704 90.3042 131.4 90.3042C131.792 90.3042 132.152 90.2362 132.48 90.1002C132.808 89.9562 133.092 89.7482 133.332 89.4762L133.812 90.0282C133.532 90.3642 133.18 90.6202 132.756 90.7962C132.34 90.9722 131.88 91.0602 131.376 91.0602C130.728 91.0602 130.152 90.9242 129.648 90.6522C129.152 90.3722 128.764 89.9882 128.484 89.5002C128.204 89.0122 128.064 88.4602 128.064 87.8442C128.064 87.2282 128.196 86.6762 128.46 86.1882C128.732 85.7002 129.1 85.3202 129.564 85.0482C130.036 84.7762 130.564 84.6402 131.148 84.6402C131.732 84.6402 132.256 84.7762 132.72 85.0482C133.184 85.3202 133.548 85.7002 133.812 86.1882C134.076 86.6682 134.208 87.2202 134.208 87.8442L134.196 88.1082ZM131.148 85.3722C130.54 85.3722 130.028 85.5682 129.612 85.9602C129.204 86.3442 128.972 86.8482 128.916 87.4722H133.392C133.336 86.8482 133.1 86.3442 132.684 85.9602C132.276 85.5682 131.764 85.3722 131.148 85.3722ZM136.758 85.9242C136.958 85.5002 137.254 85.1802 137.646 84.9642C138.046 84.7482 138.538 84.6402 139.122 84.6402V85.4682L138.918 85.4562C138.254 85.4562 137.734 85.6602 137.358 86.0682C136.982 86.4762 136.794 87.0482 136.794 87.7842V91.0002H135.942V84.6882H136.758V85.9242Z" fill="black"/>
</svg>
