<svg width="66" height="113" viewBox="0 0 66 113" fill="none" xmlns="http://www.w3.org/2000/svg">
<path d="M9.285 10.3652V12.0002H1.41V1.50024H9.075V3.13524H3.36V5.86524H8.43V7.47024H3.36V10.3652H9.285ZM16.2323 12.0002L14.1773 9.22524L12.1073 12.0002H10.0373L13.1573 7.93524L10.1723 3.99024H12.2573L14.2223 6.61524L16.1873 3.99024H18.2123L15.2123 7.90524L18.3473 12.0002H16.2323ZM24.171 3.90024C24.951 3.90024 25.646 4.07024 26.256 4.41024C26.876 4.75024 27.361 5.23024 27.711 5.85024C28.061 6.47024 28.236 7.18524 28.236 7.99524C28.236 8.80524 28.061 9.52524 27.711 10.1552C27.361 10.7752 26.876 11.2552 26.256 11.5952C25.646 11.9352 24.951 12.1052 24.171 12.1052C23.091 12.1052 22.236 11.7452 21.606 11.0252V14.9102H19.731V3.99024H21.516V5.04024C21.826 4.66024 22.206 4.37524 22.656 4.18524C23.116 3.99524 23.621 3.90024 24.171 3.90024ZM23.961 10.5002C24.651 10.5002 25.216 10.2702 25.656 9.81024C26.106 9.35024 26.331 8.74524 26.331 7.99524C26.331 7.24524 26.106 6.64024 25.656 6.18024C25.216 5.72024 24.651 5.49024 23.961 5.49024C23.511 5.49024 23.106 5.59524 22.746 5.80524C22.386 6.00524 22.101 6.29524 21.891 6.67524C21.681 7.05524 21.576 7.49524 21.576 7.99524C21.576 8.49524 21.681 8.93524 21.891 9.31524C22.101 9.69524 22.386 9.99024 22.746 10.2002C23.106 10.4002 23.511 10.5002 23.961 10.5002ZM30.0142 0.870243H31.8892V12.0002H30.0142V0.870243ZM37.9501 12.1052C37.1401 12.1052 36.4101 11.9302 35.7601 11.5802C35.1101 11.2302 34.6001 10.7452 34.2301 10.1252C33.8701 9.49524 33.6901 8.78524 33.6901 7.99524C33.6901 7.20524 33.8701 6.50024 34.2301 5.88024C34.6001 5.26024 35.1101 4.77524 35.7601 4.42524C36.4101 4.07524 37.1401 3.90024 37.9501 3.90024C38.7701 3.90024 39.5051 4.07524 40.1551 4.42524C40.8051 4.77524 41.3101 5.26024 41.6701 5.88024C42.0401 6.50024 42.2251 7.20524 42.2251 7.99524C42.2251 8.78524 42.0401 9.49524 41.6701 10.1252C41.3101 10.7452 40.8051 11.2302 40.1551 11.5802C39.5051 11.9302 38.7701 12.1052 37.9501 12.1052ZM37.9501 10.5002C38.6401 10.5002 39.2101 10.2702 39.6601 9.81024C40.1101 9.35024 40.3351 8.74524 40.3351 7.99524C40.3351 7.24524 40.1101 6.64024 39.6601 6.18024C39.2101 5.72024 38.6401 5.49024 37.9501 5.49024C37.2601 5.49024 36.6901 5.72024 36.2401 6.18024C35.8001 6.64024 35.5801 7.24524 35.5801 7.99524C35.5801 8.74524 35.8001 9.35024 36.2401 9.81024C36.6901 10.2702 37.2601 10.5002 37.9501 10.5002ZM45.8031 5.16024C46.3431 4.32024 47.2931 3.90024 48.6531 3.90024V5.68524C48.4931 5.65524 48.3481 5.64024 48.2181 5.64024C47.4881 5.64024 46.9181 5.85524 46.5081 6.28524C46.0981 6.70524 45.8931 7.31524 45.8931 8.11524V12.0002H44.0181V3.99024H45.8031V5.16024ZM57.7004 8.04024C57.7004 8.17024 57.6904 8.35524 57.6704 8.59524H51.3854C51.4954 9.18524 51.7804 9.65524 52.2404 10.0052C52.7104 10.3452 53.2904 10.5152 53.9804 10.5152C54.8604 10.5152 55.5854 10.2252 56.1554 9.64524L57.1604 10.8002C56.8004 11.2302 56.3454 11.5552 55.7954 11.7752C55.2454 11.9952 54.6254 12.1052 53.9354 12.1052C53.0554 12.1052 52.2804 11.9302 51.6104 11.5802C50.9404 11.2302 50.4204 10.7452 50.0504 10.1252C49.6904 9.49524 49.5104 8.78524 49.5104 7.99524C49.5104 7.21524 49.6854 6.51524 50.0354 5.89524C50.3954 5.26524 50.8904 4.77524 51.5204 4.42524C52.1504 4.07524 52.8604 3.90024 53.6504 3.90024C54.4304 3.90024 55.1254 4.07524 55.7354 4.42524C56.3554 4.76524 56.8354 5.25024 57.1754 5.88024C57.5254 6.50024 57.7004 7.22024 57.7004 8.04024ZM53.6504 5.40024C53.0504 5.40024 52.5404 5.58024 52.1204 5.94024C51.7104 6.29024 51.4604 6.76024 51.3704 7.35024H55.9154C55.8354 6.77024 55.5904 6.30024 55.1804 5.94024C54.7704 5.58024 54.2604 5.40024 53.6504 5.40024ZM5.016 32.0722C4.184 32.0722 3.432 31.8882 2.76 31.5202C2.096 31.1522 1.572 30.6442 1.188 29.9962C0.812 29.3402 0.624 28.6082 0.624 27.8002C0.624 26.9922 0.812 26.2642 1.188 25.6162C1.572 24.9602 2.1 24.4482 2.772 24.0802C3.444 23.7122 4.196 23.5282 5.028 23.5282C5.652 23.5282 6.228 23.6322 6.756 23.8402C7.284 24.0482 7.732 24.3522 8.1 24.7522L7.536 25.3162C6.88 24.6522 6.052 24.3202 5.052 24.3202C4.388 24.3202 3.784 24.4722 3.24 24.7762C2.696 25.0802 2.268 25.4962 1.956 26.0242C1.652 26.5522 1.5 27.1442 1.5 27.8002C1.5 28.4562 1.652 29.0482 1.956 29.5762C2.268 30.1042 2.696 30.5202 3.24 30.8242C3.784 31.1282 4.388 31.2802 5.052 31.2802C6.06 31.2802 6.888 30.9442 7.536 30.2722L8.1 30.8362C7.732 31.2362 7.28 31.5442 6.744 31.7602C6.216 31.9682 5.64 32.0722 5.016 32.0722ZM12.1118 32.0602C11.5038 32.0602 10.9558 31.9242 10.4678 31.6522C9.97975 31.3722 9.59575 30.9882 9.31575 30.5002C9.03575 30.0122 8.89575 29.4602 8.89575 28.8442C8.89575 28.2282 9.03575 27.6762 9.31575 27.1882C9.59575 26.7002 9.97975 26.3202 10.4678 26.0482C10.9558 25.7762 11.5038 25.6402 12.1118 25.6402C12.7198 25.6402 13.2678 25.7762 13.7558 26.0482C14.2438 26.3202 14.6238 26.7002 14.8958 27.1882C15.1758 27.6762 15.3158 28.2282 15.3158 28.8442C15.3158 29.4602 15.1758 30.0122 14.8958 30.5002C14.6238 30.9882 14.2438 31.3722 13.7558 31.6522C13.2678 31.9242 12.7198 32.0602 12.1118 32.0602ZM12.1118 31.3042C12.5598 31.3042 12.9598 31.2042 13.3118 31.0042C13.6718 30.7962 13.9518 30.5042 14.1518 30.1282C14.3518 29.7522 14.4518 29.3242 14.4518 28.8442C14.4518 28.3642 14.3518 27.9362 14.1518 27.5602C13.9518 27.1842 13.6718 26.8962 13.3118 26.6962C12.9598 26.4882 12.5598 26.3842 12.1118 26.3842C11.6638 26.3842 11.2598 26.4882 10.8998 26.6962C10.5478 26.8962 10.2678 27.1842 10.0598 27.5602C9.85975 27.9362 9.75975 28.3642 9.75975 28.8442C9.75975 29.3242 9.85975 29.7522 10.0598 30.1282C10.2678 30.5042 10.5478 30.7962 10.8998 31.0042C11.2598 31.2042 11.6638 31.3042 12.1118 31.3042ZM22.7432 25.6882V32.0002H21.9272V30.8482C21.7032 31.2322 21.3952 31.5322 21.0032 31.7482C20.6112 31.9562 20.1632 32.0602 19.6592 32.0602C18.8352 32.0602 18.1832 31.8322 17.7032 31.3762C17.2312 30.9122 16.9952 30.2362 16.9952 29.3482V25.6882H17.8472V29.2642C17.8472 29.9282 18.0112 30.4322 18.3392 30.7762C18.6672 31.1202 19.1352 31.2922 19.7432 31.2922C20.4072 31.2922 20.9312 31.0922 21.3152 30.6922C21.6992 30.2842 21.8912 29.7202 21.8912 29.0002V25.6882H22.7432ZM28.3454 25.6402C29.1374 25.6402 29.7654 25.8722 30.2294 26.3362C30.7014 26.7922 30.9374 27.4602 30.9374 28.3402V32.0002H30.0854V28.4242C30.0854 27.7682 29.9214 27.2682 29.5934 26.9242C29.2654 26.5802 28.7974 26.4082 28.1894 26.4082C27.5094 26.4082 26.9694 26.6122 26.5694 27.0202C26.1774 27.4202 25.9814 27.9762 25.9814 28.6882V32.0002H25.1294V25.6882H25.9454V26.8522C26.1774 26.4682 26.4974 26.1722 26.9054 25.9642C27.3214 25.7482 27.8014 25.6402 28.3454 25.6402ZM36.5745 31.6162C36.4145 31.7602 36.2145 31.8722 35.9745 31.9522C35.7425 32.0242 35.4985 32.0602 35.2425 32.0602C34.6505 32.0602 34.1945 31.9002 33.8745 31.5802C33.5545 31.2602 33.3945 30.8082 33.3945 30.2242V26.4082H32.2665V25.6882H33.3945V24.3082H34.2465V25.6882H36.1665V26.4082H34.2465V30.1762C34.2465 30.5522 34.3385 30.8402 34.5225 31.0402C34.7145 31.2322 34.9865 31.3282 35.3385 31.3282C35.5145 31.3282 35.6825 31.3002 35.8425 31.2442C36.0105 31.1882 36.1545 31.1082 36.2745 31.0042L36.5745 31.6162ZM38.9415 26.9242C39.1415 26.5002 39.4375 26.1802 39.8295 25.9642C40.2295 25.7482 40.7215 25.6402 41.3055 25.6402V26.4682L41.1015 26.4562C40.4375 26.4562 39.9175 26.6602 39.5415 27.0682C39.1655 27.4762 38.9775 28.0482 38.9775 28.7842V32.0002H38.1255V25.6882H38.9415V26.9242ZM42.8482 25.6882H43.7002V32.0002H42.8482V25.6882ZM43.2802 24.3082C43.1042 24.3082 42.9562 24.2482 42.8362 24.1282C42.7162 24.0082 42.6562 23.8642 42.6562 23.6962C42.6562 23.5362 42.7162 23.3962 42.8362 23.2762C42.9562 23.1562 43.1042 23.0962 43.2802 23.0962C43.4562 23.0962 43.6042 23.1562 43.7242 23.2762C43.8442 23.3882 43.9042 23.5242 43.9042 23.6842C43.9042 23.8602 43.8442 24.0082 43.7242 24.1282C43.6042 24.2482 43.4562 24.3082 43.2802 24.3082ZM51.5668 29.1082H46.2868C46.3348 29.7642 46.5868 30.2962 47.0428 30.7042C47.4988 31.1042 48.0748 31.3042 48.7708 31.3042C49.1628 31.3042 49.5228 31.2362 49.8508 31.1002C50.1788 30.9562 50.4628 30.7482 50.7028 30.4762L51.1828 31.0282C50.9028 31.3642 50.5508 31.6202 50.1268 31.7962C49.7108 31.9722 49.2508 32.0602 48.7468 32.0602C48.0988 32.0602 47.5228 31.9242 47.0188 31.6522C46.5228 31.3722 46.1348 30.9882 45.8548 30.5002C45.5748 30.0122 45.4348 29.4602 45.4348 28.8442C45.4348 28.2282 45.5668 27.6762 45.8308 27.1882C46.1028 26.7002 46.4708 26.3202 46.9348 26.0482C47.4068 25.7762 47.9348 25.6402 48.5188 25.6402C49.1028 25.6402 49.6268 25.7762 50.0908 26.0482C50.5548 26.3202 50.9188 26.7002 51.1828 27.1882C51.4468 27.6682 51.5788 28.2202 51.5788 28.8442L51.5668 29.1082ZM48.5188 26.3722C47.9108 26.3722 47.3988 26.5682 46.9828 26.9602C46.5748 27.3442 46.3428 27.8482 46.2868 28.4722H50.7628C50.7068 27.8482 50.4708 27.3442 50.0548 26.9602C49.6468 26.5682 49.1348 26.3722 48.5188 26.3722ZM55.005 32.0602C54.493 32.0602 54.001 31.9882 53.529 31.8442C53.065 31.6922 52.701 31.5042 52.437 31.2802L52.821 30.6082C53.085 30.8162 53.417 30.9882 53.817 31.1242C54.217 31.2522 54.633 31.3162 55.065 31.3162C55.641 31.3162 56.065 31.2282 56.337 31.0522C56.617 30.8682 56.757 30.6122 56.757 30.2842C56.757 30.0522 56.681 29.8722 56.529 29.7442C56.377 29.6082 56.185 29.5082 55.953 29.4442C55.721 29.3722 55.413 29.3042 55.029 29.2402C54.517 29.1442 54.105 29.0482 53.793 28.9522C53.481 28.8482 53.213 28.6762 52.989 28.4362C52.773 28.1962 52.665 27.8642 52.665 27.4402C52.665 26.9122 52.885 26.4802 53.325 26.1442C53.765 25.8082 54.377 25.6402 55.161 25.6402C55.569 25.6402 55.977 25.6962 56.385 25.8082C56.793 25.9122 57.129 26.0522 57.393 26.2282L57.021 26.9122C56.501 26.5522 55.881 26.3722 55.161 26.3722C54.617 26.3722 54.205 26.4682 53.925 26.6602C53.653 26.8522 53.517 27.1042 53.517 27.4162C53.517 27.6562 53.593 27.8482 53.745 27.9922C53.905 28.1362 54.101 28.2442 54.333 28.3162C54.565 28.3802 54.885 28.4482 55.293 28.5202C55.797 28.6162 56.201 28.7122 56.505 28.8082C56.809 28.9042 57.069 29.0682 57.285 29.3002C57.501 29.5322 57.609 29.8522 57.609 30.2602C57.609 30.8122 57.377 31.2522 56.913 31.5802C56.457 31.9002 55.821 32.0602 55.005 32.0602ZM7.104 52.0002L5.184 49.3002C4.968 49.3242 4.744 49.3362 4.512 49.3362H2.256V52.0002H1.368V43.6002H4.512C5.584 43.6002 6.424 43.8562 7.032 44.3682C7.64 44.8802 7.944 45.5842 7.944 46.4802C7.944 47.1362 7.776 47.6922 7.44 48.1482C7.112 48.5962 6.64 48.9202 6.024 49.1202L8.076 52.0002H7.104ZM4.488 48.5802C5.32 48.5802 5.956 48.3962 6.396 48.0282C6.836 47.6602 7.056 47.1442 7.056 46.4802C7.056 45.8002 6.836 45.2802 6.396 44.9202C5.956 44.5522 5.32 44.3682 4.488 44.3682H2.256V48.5802H4.488ZM15.3559 49.1082H10.0759C10.1239 49.7642 10.3759 50.2962 10.8319 50.7042C11.2879 51.1042 11.8639 51.3042 12.5599 51.3042C12.9519 51.3042 13.3119 51.2362 13.6399 51.1002C13.9679 50.9562 14.2519 50.7482 14.4919 50.4762L14.9719 51.0282C14.6919 51.3642 14.3399 51.6202 13.9159 51.7962C13.4999 51.9722 13.0399 52.0602 12.5359 52.0602C11.8879 52.0602 11.3119 51.9242 10.8079 51.6522C10.3119 51.3722 9.92388 50.9882 9.64388 50.5002C9.36388 50.0122 9.22388 49.4602 9.22388 48.8442C9.22388 48.2282 9.35588 47.6762 9.61988 47.1882C9.89188 46.7002 10.2599 46.3202 10.7239 46.0482C11.1959 45.7762 11.7239 45.6402 12.3079 45.6402C12.8919 45.6402 13.4159 45.7762 13.8799 46.0482C14.3439 46.3202 14.7079 46.7002 14.9719 47.1882C15.2359 47.6682 15.3679 48.2202 15.3679 48.8442L15.3559 49.1082ZM12.3079 46.3722C11.6999 46.3722 11.1879 46.5682 10.7719 46.9602C10.3639 47.3442 10.1319 47.8482 10.0759 48.4722H14.5519C14.4959 47.8482 14.2599 47.3442 13.8439 46.9602C13.4359 46.5682 12.9239 46.3722 12.3079 46.3722ZM22.9461 45.6882V51.2322C22.9461 52.3042 22.6821 53.0962 22.1541 53.6082C21.6341 54.1282 20.8461 54.3882 19.7901 54.3882C19.2061 54.3882 18.6501 54.3002 18.1221 54.1242C17.6021 53.9562 17.1781 53.7202 16.8501 53.4162L17.2821 52.7682C17.5861 53.0402 17.9541 53.2522 18.3861 53.4042C18.8261 53.5562 19.2861 53.6322 19.7661 53.6322C20.5661 53.6322 21.1541 53.4442 21.5301 53.0682C21.9061 52.7002 22.0941 52.1242 22.0941 51.3402V50.5362C21.8301 50.9362 21.4821 51.2402 21.0501 51.4482C20.6261 51.6562 20.1541 51.7602 19.6341 51.7602C19.0421 51.7602 18.5021 51.6322 18.0141 51.3762C17.5341 51.1122 17.1541 50.7482 16.8741 50.2842C16.6021 49.8122 16.4661 49.2802 16.4661 48.6882C16.4661 48.0962 16.6021 47.5682 16.8741 47.1042C17.1541 46.6402 17.5341 46.2802 18.0141 46.0242C18.4941 45.7682 19.0341 45.6402 19.6341 45.6402C20.1701 45.6402 20.6541 45.7482 21.0861 45.9642C21.5181 46.1802 21.8661 46.4922 22.1301 46.9002V45.6882H22.9461ZM19.7181 51.0042C20.1741 51.0042 20.5861 50.9082 20.9541 50.7162C21.3221 50.5162 21.6061 50.2402 21.8061 49.8882C22.0141 49.5362 22.1181 49.1362 22.1181 48.6882C22.1181 48.2402 22.0141 47.8442 21.8061 47.5002C21.6061 47.1482 21.3221 46.8762 20.9541 46.6842C20.5941 46.4842 20.1821 46.3842 19.7181 46.3842C19.2621 46.3842 18.8501 46.4802 18.4821 46.6722C18.1221 46.8642 17.8381 47.1362 17.6301 47.4882C17.4301 47.8402 17.3301 48.2402 17.3301 48.6882C17.3301 49.1362 17.4301 49.5362 17.6301 49.8882C17.8381 50.2402 18.1221 50.5162 18.4821 50.7162C18.8501 50.9082 19.2621 51.0042 19.7181 51.0042ZM25.3286 45.6882H26.1806V52.0002H25.3286V45.6882ZM25.7606 44.3082C25.5846 44.3082 25.4366 44.2482 25.3166 44.1282C25.1966 44.0082 25.1366 43.8642 25.1366 43.6962C25.1366 43.5362 25.1966 43.3962 25.3166 43.2762C25.4366 43.1562 25.5846 43.0962 25.7606 43.0962C25.9366 43.0962 26.0846 43.1562 26.2046 43.2762C26.3246 43.3882 26.3846 43.5242 26.3846 43.6842C26.3846 43.8602 26.3246 44.0082 26.2046 44.1282C26.0846 44.2482 25.9366 44.3082 25.7606 44.3082ZM31.1313 52.0602C30.5233 52.0602 29.9753 51.9242 29.4873 51.6522C28.9993 51.3722 28.6153 50.9882 28.3353 50.5002C28.0553 50.0122 27.9153 49.4602 27.9153 48.8442C27.9153 48.2282 28.0553 47.6762 28.3353 47.1882C28.6153 46.7002 28.9993 46.3202 29.4873 46.0482C29.9753 45.7762 30.5233 45.6402 31.1313 45.6402C31.7393 45.6402 32.2873 45.7762 32.7753 46.0482C33.2633 46.3202 33.6433 46.7002 33.9153 47.1882C34.1953 47.6762 34.3353 48.2282 34.3353 48.8442C34.3353 49.4602 34.1953 50.0122 33.9153 50.5002C33.6433 50.9882 33.2633 51.3722 32.7753 51.6522C32.2873 51.9242 31.7393 52.0602 31.1313 52.0602ZM31.1313 51.3042C31.5793 51.3042 31.9793 51.2042 32.3313 51.0042C32.6913 50.7962 32.9713 50.5042 33.1713 50.1282C33.3713 49.7522 33.4713 49.3242 33.4713 48.8442C33.4713 48.3642 33.3713 47.9362 33.1713 47.5602C32.9713 47.1842 32.6913 46.8962 32.3313 46.6962C31.9793 46.4882 31.5793 46.3842 31.1313 46.3842C30.6833 46.3842 30.2793 46.4882 29.9193 46.6962C29.5673 46.8962 29.2873 47.1842 29.0793 47.5602C28.8793 47.9362 28.7793 48.3642 28.7793 48.8442C28.7793 49.3242 28.8793 49.7522 29.0793 50.1282C29.2873 50.5042 29.5673 50.7962 29.9193 51.0042C30.2793 51.2042 30.6833 51.3042 31.1313 51.3042ZM39.2907 45.6402C40.0827 45.6402 40.7107 45.8722 41.1747 46.3362C41.6467 46.7922 41.8827 47.4602 41.8827 48.3402V52.0002H41.0307V48.4242C41.0307 47.7682 40.8667 47.2682 40.5387 46.9242C40.2107 46.5802 39.7427 46.4082 39.1347 46.4082C38.4547 46.4082 37.9147 46.6122 37.5147 47.0202C37.1227 47.4202 36.9267 47.9762 36.9267 48.6882V52.0002H36.0747V45.6882H36.8907V46.8522C37.1227 46.4682 37.4427 46.1722 37.8507 45.9642C38.2667 45.7482 38.7467 45.6402 39.2907 45.6402ZM45.8878 52.0602C45.3758 52.0602 44.8838 51.9882 44.4118 51.8442C43.9478 51.6922 43.5838 51.5042 43.3198 51.2802L43.7038 50.6082C43.9678 50.8162 44.2998 50.9882 44.6998 51.1242C45.0998 51.2522 45.5158 51.3162 45.9478 51.3162C46.5238 51.3162 46.9478 51.2282 47.2198 51.0522C47.4998 50.8682 47.6398 50.6122 47.6398 50.2842C47.6398 50.0522 47.5638 49.8722 47.4118 49.7442C47.2598 49.6082 47.0678 49.5082 46.8358 49.4442C46.6038 49.3722 46.2958 49.3042 45.9118 49.2402C45.3998 49.1442 44.9878 49.0482 44.6758 48.9522C44.3638 48.8482 44.0958 48.6762 43.8718 48.4362C43.6558 48.1962 43.5478 47.8642 43.5478 47.4402C43.5478 46.9122 43.7678 46.4802 44.2078 46.1442C44.6478 45.8082 45.2598 45.6402 46.0438 45.6402C46.4518 45.6402 46.8598 45.6962 47.2678 45.8082C47.6758 45.9122 48.0118 46.0522 48.2758 46.2282L47.9038 46.9122C47.3838 46.5522 46.7638 46.3722 46.0438 46.3722C45.4998 46.3722 45.0878 46.4682 44.8078 46.6602C44.5358 46.8522 44.3998 47.1042 44.3998 47.4162C44.3998 47.6562 44.4758 47.8482 44.6278 47.9922C44.7878 48.1362 44.9838 48.2442 45.2158 48.3162C45.4478 48.3802 45.7678 48.4482 46.1758 48.5202C46.6798 48.6162 47.0838 48.7122 47.3878 48.8082C47.6918 48.9042 47.9518 49.0682 48.1678 49.3002C48.3838 49.5322 48.4918 49.8522 48.4918 50.2602C48.4918 50.8122 48.2598 51.2522 47.7958 51.5802C47.3398 51.9002 46.7038 52.0602 45.8878 52.0602ZM5.016 72.0722C4.184 72.0722 3.432 71.8882 2.76 71.5202C2.096 71.1522 1.572 70.6442 1.188 69.9962C0.812 69.3402 0.624 68.6082 0.624 67.8002C0.624 66.9922 0.812 66.2642 1.188 65.6162C1.572 64.9602 2.1 64.4482 2.772 64.0802C3.444 63.7122 4.196 63.5282 5.028 63.5282C5.652 63.5282 6.228 63.6322 6.756 63.8402C7.284 64.0482 7.732 64.3522 8.1 64.7522L7.536 65.3162C6.88 64.6522 6.052 64.3202 5.052 64.3202C4.388 64.3202 3.784 64.4722 3.24 64.7762C2.696 65.0802 2.268 65.4962 1.956 66.0242C1.652 66.5522 1.5 67.1442 1.5 67.8002C1.5 68.4562 1.652 69.0482 1.956 69.5762C2.268 70.1042 2.696 70.5202 3.24 70.8242C3.784 71.1282 4.388 71.2802 5.052 71.2802C6.06 71.2802 6.888 70.9442 7.536 70.2722L8.1 70.8362C7.732 71.2362 7.28 71.5442 6.744 71.7602C6.216 71.9682 5.64 72.0722 5.016 72.0722ZM9.813 65.6882H10.665V72.0002H9.813V65.6882ZM10.245 64.3082C10.069 64.3082 9.921 64.2482 9.801 64.1282C9.681 64.0082 9.621 63.8642 9.621 63.6962C9.621 63.5362 9.681 63.3962 9.801 63.2762C9.921 63.1562 10.069 63.0962 10.245 63.0962C10.421 63.0962 10.569 63.1562 10.689 63.2762C10.809 63.3882 10.869 63.5242 10.869 63.6842C10.869 63.8602 10.809 64.0082 10.689 64.1282C10.569 64.2482 10.421 64.3082 10.245 64.3082ZM16.3597 71.6162C16.1997 71.7602 15.9997 71.8722 15.7597 71.9522C15.5277 72.0242 15.2837 72.0602 15.0277 72.0602C14.4357 72.0602 13.9797 71.9002 13.6597 71.5802C13.3397 71.2602 13.1797 70.8082 13.1797 70.2242V66.4082H12.0517V65.6882H13.1797V64.3082H14.0317V65.6882H15.9517V66.4082H14.0317V70.1762C14.0317 70.5522 14.1237 70.8402 14.3077 71.0402C14.4997 71.2322 14.7717 71.3282 15.1237 71.3282C15.2997 71.3282 15.4677 71.3002 15.6277 71.2442C15.7957 71.1882 15.9397 71.1082 16.0597 71.0042L16.3597 71.6162ZM17.9107 65.6882H18.7627V72.0002H17.9107V65.6882ZM18.3427 64.3082C18.1667 64.3082 18.0187 64.2482 17.8987 64.1282C17.7787 64.0082 17.7187 63.8642 17.7187 63.6962C17.7187 63.5362 17.7787 63.3962 17.8987 63.2762C18.0187 63.1562 18.1667 63.0962 18.3427 63.0962C18.5187 63.0962 18.6667 63.1562 18.7867 63.2762C18.9067 63.3882 18.9667 63.5242 18.9667 63.6842C18.9667 63.8602 18.9067 64.0082 18.7867 64.1282C18.6667 64.2482 18.5187 64.3082 18.3427 64.3082ZM26.6293 69.1082H21.3493C21.3973 69.7642 21.6493 70.2962 22.1053 70.7042C22.5613 71.1042 23.1373 71.3042 23.8333 71.3042C24.2253 71.3042 24.5853 71.2362 24.9133 71.1002C25.2413 70.9562 25.5253 70.7482 25.7653 70.4762L26.2453 71.0282C25.9653 71.3642 25.6133 71.6202 25.1893 71.7962C24.7733 71.9722 24.3133 72.0602 23.8093 72.0602C23.1613 72.0602 22.5853 71.9242 22.0813 71.6522C21.5853 71.3722 21.1973 70.9882 20.9173 70.5002C20.6373 70.0122 20.4973 69.4602 20.4973 68.8442C20.4973 68.2282 20.6293 67.6762 20.8933 67.1882C21.1653 66.7002 21.5333 66.3202 21.9973 66.0482C22.4693 65.7762 22.9973 65.6402 23.5813 65.6402C24.1653 65.6402 24.6893 65.7762 25.1533 66.0482C25.6173 66.3202 25.9813 66.7002 26.2453 67.1882C26.5093 67.6682 26.6413 68.2202 26.6413 68.8442L26.6293 69.1082ZM23.5813 66.3722C22.9733 66.3722 22.4613 66.5682 22.0453 66.9602C21.6373 67.3442 21.4053 67.8482 21.3493 68.4722H25.8253C25.7693 67.8482 25.5333 67.3442 25.1173 66.9602C24.7093 66.5682 24.1973 66.3722 23.5813 66.3722ZM30.0675 72.0602C29.5555 72.0602 29.0635 71.9882 28.5915 71.8442C28.1275 71.6922 27.7635 71.5042 27.4995 71.2802L27.8835 70.6082C28.1475 70.8162 28.4795 70.9882 28.8795 71.1242C29.2795 71.2522 29.6955 71.3162 30.1275 71.3162C30.7035 71.3162 31.1275 71.2282 31.3995 71.0522C31.6795 70.8682 31.8195 70.6122 31.8195 70.2842C31.8195 70.0522 31.7435 69.8722 31.5915 69.7442C31.4395 69.6082 31.2475 69.5082 31.0155 69.4442C30.7835 69.3722 30.4755 69.3042 30.0915 69.2402C29.5795 69.1442 29.1675 69.0482 28.8555 68.9522C28.5435 68.8482 28.2755 68.6762 28.0515 68.4362C27.8355 68.1962 27.7275 67.8642 27.7275 67.4402C27.7275 66.9122 27.9475 66.4802 28.3875 66.1442C28.8275 65.8082 29.4395 65.6402 30.2235 65.6402C30.6315 65.6402 31.0395 65.6962 31.4475 65.8082C31.8555 65.9122 32.1915 66.0522 32.4555 66.2282L32.0835 66.9122C31.5635 66.5522 30.9435 66.3722 30.2235 66.3722C29.6795 66.3722 29.2675 66.4682 28.9875 66.6602C28.7155 66.8522 28.5795 67.1042 28.5795 67.4162C28.5795 67.6562 28.6555 67.8482 28.8075 67.9922C28.9675 68.1362 29.1635 68.2442 29.3955 68.3162C29.6275 68.3802 29.9475 68.4482 30.3555 68.5202C30.8595 68.6162 31.2635 68.7122 31.5675 68.8082C31.8715 68.9042 32.1315 69.0682 32.3475 69.3002C32.5635 69.5322 32.6715 69.8522 32.6715 70.2602C32.6715 70.8122 32.4395 71.2522 31.9755 71.5802C31.5195 71.9002 30.8835 72.0602 30.0675 72.0602ZM1.368 83.6002H4.788C5.676 83.6002 6.46 83.7802 7.14 84.1402C7.82 84.4922 8.348 84.9882 8.724 85.6282C9.1 86.2602 9.288 86.9842 9.288 87.8002C9.288 88.6162 9.1 89.3442 8.724 89.9842C8.348 90.6162 7.82 91.1122 7.14 91.4722C6.46 91.8242 5.676 92.0002 4.788 92.0002H1.368V83.6002ZM4.74 91.2322C5.476 91.2322 6.12 91.0882 6.672 90.8002C7.224 90.5042 7.652 90.1002 7.956 89.5882C8.26 89.0682 8.412 88.4722 8.412 87.8002C8.412 87.1282 8.26 86.5362 7.956 86.0242C7.652 85.5042 7.224 85.1002 6.672 84.8122C6.12 84.5162 5.476 84.3682 4.74 84.3682H2.256V91.2322H4.74ZM11.1021 85.6882H11.9541V92.0002H11.1021V85.6882ZM11.5341 84.3082C11.3581 84.3082 11.2101 84.2482 11.0901 84.1282C10.9701 84.0082 10.9101 83.8642 10.9101 83.6962C10.9101 83.5362 10.9701 83.3962 11.0901 83.2762C11.2101 83.1562 11.3581 83.0962 11.5341 83.0962C11.7101 83.0962 11.8581 83.1562 11.9781 83.2762C12.0981 83.3882 12.1581 83.5242 12.1581 83.6842C12.1581 83.8602 12.0981 84.0082 11.9781 84.1282C11.8581 84.2482 11.7101 84.3082 11.5341 84.3082ZM16.0167 92.0602C15.5047 92.0602 15.0127 91.9882 14.5407 91.8442C14.0767 91.6922 13.7127 91.5042 13.4487 91.2802L13.8327 90.6082C14.0967 90.8162 14.4287 90.9882 14.8287 91.1242C15.2287 91.2522 15.6447 91.3162 16.0767 91.3162C16.6527 91.3162 17.0767 91.2282 17.3487 91.0522C17.6287 90.8682 17.7687 90.6122 17.7687 90.2842C17.7687 90.0522 17.6927 89.8722 17.5407 89.7442C17.3887 89.6082 17.1967 89.5082 16.9647 89.4442C16.7327 89.3722 16.4247 89.3042 16.0407 89.2402C15.5287 89.1442 15.1167 89.0482 14.8047 88.9522C14.4927 88.8482 14.2247 88.6762 14.0007 88.4362C13.7847 88.1962 13.6767 87.8642 13.6767 87.4402C13.6767 86.9122 13.8967 86.4802 14.3367 86.1442C14.7767 85.8082 15.3887 85.6402 16.1727 85.6402C16.5807 85.6402 16.9887 85.6962 17.3967 85.8082C17.8047 85.9122 18.1407 86.0522 18.4047 86.2282L18.0327 86.9122C17.5127 86.5522 16.8927 86.3722 16.1727 86.3722C15.6287 86.3722 15.2167 86.4682 14.9367 86.6602C14.6647 86.8522 14.5287 87.1042 14.5287 87.4162C14.5287 87.6562 14.6047 87.8482 14.7567 87.9922C14.9167 88.1362 15.1127 88.2442 15.3447 88.3162C15.5767 88.3802 15.8967 88.4482 16.3047 88.5202C16.8087 88.6162 17.2127 88.7122 17.5167 88.8082C17.8207 88.9042 18.0807 89.0682 18.2967 89.3002C18.5127 89.5322 18.6207 89.8522 18.6207 90.2602C18.6207 90.8122 18.3887 91.2522 17.9247 91.5802C17.4687 91.9002 16.8327 92.0602 16.0167 92.0602ZM23.5198 91.6162C23.3598 91.7602 23.1598 91.8722 22.9198 91.9522C22.6878 92.0242 22.4438 92.0602 22.1878 92.0602C21.5958 92.0602 21.1398 91.9002 20.8198 91.5802C20.4998 91.2602 20.3398 90.8082 20.3398 90.2242V86.4082H19.2118V85.6882H20.3398V84.3082H21.1918V85.6882H23.1118V86.4082H21.1918V90.1762C21.1918 90.5522 21.2838 90.8402 21.4678 91.0402C21.6598 91.2322 21.9318 91.3282 22.2838 91.3282C22.4598 91.3282 22.6278 91.3002 22.7878 91.2442C22.9558 91.1882 23.0998 91.1082 23.2198 91.0042L23.5198 91.6162ZM25.8868 86.9242C26.0868 86.5002 26.3828 86.1802 26.7748 85.9642C27.1748 85.7482 27.6668 85.6402 28.2508 85.6402V86.4682L28.0468 86.4562C27.3828 86.4562 26.8628 86.6602 26.4868 87.0682C26.1108 87.4762 25.9228 88.0482 25.9228 88.7842V92.0002H25.0708V85.6882H25.8868V86.9242ZM29.7935 85.6882H30.6455V92.0002H29.7935V85.6882ZM30.2255 84.3082C30.0495 84.3082 29.9015 84.2482 29.7815 84.1282C29.6615 84.0082 29.6015 83.8642 29.6015 83.6962C29.6015 83.5362 29.6615 83.3962 29.7815 83.2762C29.9015 83.1562 30.0495 83.0962 30.2255 83.0962C30.4015 83.0962 30.5495 83.1562 30.6695 83.2762C30.7895 83.3882 30.8495 83.5242 30.8495 83.6842C30.8495 83.8602 30.7895 84.0082 30.6695 84.1282C30.5495 84.2482 30.4015 84.3082 30.2255 84.3082ZM35.6321 92.0602C35.0081 92.0602 34.4481 91.9242 33.9521 91.6522C33.4641 91.3802 33.0801 91.0002 32.8001 90.5122C32.5201 90.0162 32.3801 89.4602 32.3801 88.8442C32.3801 88.2282 32.5201 87.6762 32.8001 87.1882C33.0801 86.7002 33.4641 86.3202 33.9521 86.0482C34.4481 85.7762 35.0081 85.6402 35.6321 85.6402C36.1761 85.6402 36.6601 85.7482 37.0841 85.9642C37.5161 86.1722 37.8561 86.4802 38.1041 86.8882L37.4681 87.3202C37.2601 87.0082 36.9961 86.7762 36.6761 86.6242C36.3561 86.4642 36.0081 86.3842 35.6321 86.3842C35.1761 86.3842 34.7641 86.4882 34.3961 86.6962C34.0361 86.8962 33.7521 87.1842 33.5441 87.5602C33.3441 87.9362 33.2441 88.3642 33.2441 88.8442C33.2441 89.3322 33.3441 89.7642 33.5441 90.1402C33.7521 90.5082 34.0361 90.7962 34.3961 91.0042C34.7641 91.2042 35.1761 91.3042 35.6321 91.3042C36.0081 91.3042 36.3561 91.2282 36.6761 91.0762C36.9961 90.9242 37.2601 90.6922 37.4681 90.3802L38.1041 90.8122C37.8561 91.2202 37.5161 91.5322 37.0841 91.7482C36.6521 91.9562 36.1681 92.0602 35.6321 92.0602ZM43.1722 91.6162C43.0122 91.7602 42.8122 91.8722 42.5722 91.9522C42.3402 92.0242 42.0962 92.0602 41.8402 92.0602C41.2482 92.0602 40.7922 91.9002 40.4722 91.5802C40.1522 91.2602 39.9922 90.8082 39.9922 90.2242V86.4082H38.8642V85.6882H39.9922V84.3082H40.8442V85.6882H42.7642V86.4082H40.8442V90.1762C40.8442 90.5522 40.9362 90.8402 41.1202 91.0402C41.3122 91.2322 41.5842 91.3282 41.9362 91.3282C42.1122 91.3282 42.2802 91.3002 42.4402 91.2442C42.6082 91.1882 42.7522 91.1082 42.8722 91.0042L43.1722 91.6162ZM46.4152 92.0602C45.9032 92.0602 45.4112 91.9882 44.9392 91.8442C44.4752 91.6922 44.1112 91.5042 43.8472 91.2802L44.2312 90.6082C44.4952 90.8162 44.8272 90.9882 45.2272 91.1242C45.6272 91.2522 46.0432 91.3162 46.4752 91.3162C47.0512 91.3162 47.4752 91.2282 47.7472 91.0522C48.0272 90.8682 48.1672 90.6122 48.1672 90.2842C48.1672 90.0522 48.0912 89.8722 47.9392 89.7442C47.7872 89.6082 47.5952 89.5082 47.3632 89.4442C47.1312 89.3722 46.8232 89.3042 46.4392 89.2402C45.9272 89.1442 45.5152 89.0482 45.2032 88.9522C44.8912 88.8482 44.6232 88.6762 44.3992 88.4362C44.1832 88.1962 44.0752 87.8642 44.0752 87.4402C44.0752 86.9122 44.2952 86.4802 44.7352 86.1442C45.1752 85.8082 45.7872 85.6402 46.5712 85.6402C46.9792 85.6402 47.3872 85.6962 47.7952 85.8082C48.2032 85.9122 48.5392 86.0522 48.8032 86.2282L48.4312 86.9122C47.9112 86.5522 47.2912 86.3722 46.5712 86.3722C46.0272 86.3722 45.6152 86.4682 45.3352 86.6602C45.0632 86.8522 44.9272 87.1042 44.9272 87.4162C44.9272 87.6562 45.0032 87.8482 45.1552 87.9922C45.3152 88.1362 45.5112 88.2442 45.7432 88.3162C45.9752 88.3802 46.2952 88.4482 46.7032 88.5202C47.2072 88.6162 47.6112 88.7122 47.9152 88.8082C48.2192 88.9042 48.4792 89.0682 48.6952 89.3002C48.9112 89.5322 49.0192 89.8522 49.0192 90.2602C49.0192 90.8122 48.7872 91.2522 48.3232 91.5802C47.8672 91.9002 47.2312 92.0602 46.4152 92.0602ZM6.636 109.756H1.956L0.948 112H0.024L3.864 103.6H4.74L8.58 112H7.644L6.636 109.756ZM6.312 109.036L4.296 104.524L2.28 109.036H6.312ZM13.055 111.616C12.895 111.76 12.695 111.872 12.455 111.952C12.223 112.024 11.979 112.06 11.723 112.06C11.131 112.06 10.675 111.9 10.355 111.58C10.035 111.26 9.87497 110.808 9.87497 110.224V106.408H8.74697V105.688H9.87497V104.308H10.727V105.688H12.647V106.408H10.727V110.176C10.727 110.552 10.819 110.84 11.003 111.04C11.195 111.232 11.467 111.328 11.819 111.328C11.995 111.328 12.163 111.3 12.323 111.244C12.491 111.188 12.635 111.108 12.755 111.004L13.055 111.616ZM17.7659 111.616C17.6059 111.76 17.4059 111.872 17.1659 111.952C16.9339 112.024 16.6899 112.06 16.4339 112.06C15.8419 112.06 15.3859 111.9 15.0659 111.58C14.7459 111.26 14.5859 110.808 14.5859 110.224V106.408H13.4579V105.688H14.5859V104.308H15.4379V105.688H17.3579V106.408H15.4379V110.176C15.4379 110.552 15.5299 110.84 15.7139 111.04C15.9059 111.232 16.1779 111.328 16.5299 111.328C16.7059 111.328 16.8739 111.3 17.0339 111.244C17.2019 111.188 17.3459 111.108 17.4659 111.004L17.7659 111.616ZM20.1329 106.924C20.3329 106.5 20.6289 106.18 21.0209 105.964C21.4209 105.748 21.9129 105.64 22.4969 105.64V106.468L22.2929 106.456C21.6289 106.456 21.1089 106.66 20.7329 107.068C20.3569 107.476 20.1689 108.048 20.1689 108.784V112H19.3169V105.688H20.1329V106.924ZM26.2358 105.64C27.0598 105.64 27.6918 105.848 28.1318 106.264C28.5718 106.672 28.7918 107.28 28.7918 108.088V112H27.9758V111.016C27.7838 111.344 27.4998 111.6 27.1238 111.784C26.7558 111.968 26.3158 112.06 25.8038 112.06C25.0998 112.06 24.5398 111.892 24.1238 111.556C23.7078 111.22 23.4998 110.776 23.4998 110.224C23.4998 109.688 23.6918 109.256 24.0758 108.928C24.4678 108.6 25.0878 108.436 25.9358 108.436H27.9398V108.052C27.9398 107.508 27.7878 107.096 27.4838 106.816C27.1798 106.528 26.7358 106.384 26.1518 106.384C25.7518 106.384 25.3678 106.452 24.9998 106.588C24.6318 106.716 24.3158 106.896 24.0518 107.128L23.6678 106.492C23.9878 106.22 24.3718 106.012 24.8198 105.868C25.2678 105.716 25.7398 105.64 26.2358 105.64ZM25.9358 111.388C26.4158 111.388 26.8278 111.28 27.1718 111.064C27.5158 110.84 27.7718 110.52 27.9398 110.104V109.072H25.9598C24.8798 109.072 24.3398 109.448 24.3398 110.2C24.3398 110.568 24.4798 110.86 24.7598 111.076C25.0398 111.284 25.4318 111.388 25.9358 111.388ZM33.7454 112.06C33.1214 112.06 32.5614 111.924 32.0654 111.652C31.5774 111.38 31.1934 111 30.9134 110.512C30.6334 110.016 30.4934 109.46 30.4934 108.844C30.4934 108.228 30.6334 107.676 30.9134 107.188C31.1934 106.7 31.5774 106.32 32.0654 106.048C32.5614 105.776 33.1214 105.64 33.7454 105.64C34.2894 105.64 34.7734 105.748 35.1974 105.964C35.6294 106.172 35.9694 106.48 36.2174 106.888L35.5814 107.32C35.3734 107.008 35.1094 106.776 34.7894 106.624C34.4694 106.464 34.1214 106.384 33.7454 106.384C33.2894 106.384 32.8774 106.488 32.5094 106.696C32.1494 106.896 31.8654 107.184 31.6574 107.56C31.4574 107.936 31.3574 108.364 31.3574 108.844C31.3574 109.332 31.4574 109.764 31.6574 110.14C31.8654 110.508 32.1494 110.796 32.5094 111.004C32.8774 111.204 33.2894 111.304 33.7454 111.304C34.1214 111.304 34.4694 111.228 34.7894 111.076C35.1094 110.924 35.3734 110.692 35.5814 110.38L36.2174 110.812C35.9694 111.22 35.6294 111.532 35.1974 111.748C34.7654 111.956 34.2814 112.06 33.7454 112.06ZM41.2854 111.616C41.1254 111.76 40.9254 111.872 40.6854 111.952C40.4534 112.024 40.2094 112.06 39.9534 112.06C39.3614 112.06 38.9054 111.9 38.5854 111.58C38.2654 111.26 38.1054 110.808 38.1054 110.224V106.408H36.9774V105.688H38.1054V104.308H38.9574V105.688H40.8774V106.408H38.9574V110.176C38.9574 110.552 39.0494 110.84 39.2334 111.04C39.4254 111.232 39.6974 111.328 40.0494 111.328C40.2254 111.328 40.3934 111.3 40.5534 111.244C40.7214 111.188 40.8654 111.108 40.9854 111.004L41.2854 111.616ZM42.8364 105.688H43.6884V112H42.8364V105.688ZM43.2684 104.308C43.0924 104.308 42.9444 104.248 42.8244 104.128C42.7044 104.008 42.6444 103.864 42.6444 103.696C42.6444 103.536 42.7044 103.396 42.8244 103.276C42.9444 103.156 43.0924 103.096 43.2684 103.096C43.4444 103.096 43.5924 103.156 43.7124 103.276C43.8324 103.388 43.8924 103.524 43.8924 103.684C43.8924 103.86 43.8324 104.008 43.7124 104.128C43.5924 104.248 43.4444 104.308 43.2684 104.308ZM48.6391 112.06C48.0311 112.06 47.4831 111.924 46.9951 111.652C46.5071 111.372 46.1231 110.988 45.8431 110.5C45.5631 110.012 45.4231 109.46 45.4231 108.844C45.4231 108.228 45.5631 107.676 45.8431 107.188C46.1231 106.7 46.5071 106.32 46.9951 106.048C47.4831 105.776 48.0311 105.64 48.6391 105.64C49.2471 105.64 49.7951 105.776 50.2831 106.048C50.7711 106.32 51.1511 106.7 51.4231 107.188C51.7031 107.676 51.8431 108.228 51.8431 108.844C51.8431 109.46 51.7031 110.012 51.4231 110.5C51.1511 110.988 50.7711 111.372 50.2831 111.652C49.7951 111.924 49.2471 112.06 48.6391 112.06ZM48.6391 111.304C49.0871 111.304 49.4871 111.204 49.8391 111.004C50.1991 110.796 50.4791 110.504 50.6791 110.128C50.8791 109.752 50.9791 109.324 50.9791 108.844C50.9791 108.364 50.8791 107.936 50.6791 107.56C50.4791 107.184 50.1991 106.896 49.8391 106.696C49.4871 106.488 49.0871 106.384 48.6391 106.384C48.1911 106.384 47.7871 106.488 47.4271 106.696C47.0751 106.896 46.7951 107.184 46.5871 107.56C46.3871 107.936 46.2871 108.364 46.2871 108.844C46.2871 109.324 46.3871 109.752 46.5871 110.128C46.7951 110.504 47.0751 110.796 47.4271 111.004C47.7871 111.204 48.1911 111.304 48.6391 111.304ZM56.7985 105.64C57.5905 105.64 58.2185 105.872 58.6825 106.336C59.1545 106.792 59.3905 107.46 59.3905 108.34V112H58.5385V108.424C58.5385 107.768 58.3745 107.268 58.0465 106.924C57.7185 106.58 57.2505 106.408 56.6425 106.408C55.9625 106.408 55.4225 106.612 55.0225 107.02C54.6305 107.42 54.4345 107.976 54.4345 108.688V112H53.5825V105.688H54.3985V106.852C54.6305 106.468 54.9505 106.172 55.3585 105.964C55.7745 105.748 56.2545 105.64 56.7985 105.64ZM63.3956 112.06C62.8836 112.06 62.3916 111.988 61.9196 111.844C61.4556 111.692 61.0916 111.504 60.8276 111.28L61.2116 110.608C61.4756 110.816 61.8076 110.988 62.2076 111.124C62.6076 111.252 63.0236 111.316 63.4556 111.316C64.0316 111.316 64.4556 111.228 64.7276 111.052C65.0076 110.868 65.1476 110.612 65.1476 110.284C65.1476 110.052 65.0716 109.872 64.9196 109.744C64.7676 109.608 64.5756 109.508 64.3436 109.444C64.1116 109.372 63.8036 109.304 63.4196 109.24C62.9076 109.144 62.4956 109.048 62.1836 108.952C61.8716 108.848 61.6036 108.676 61.3796 108.436C61.1636 108.196 61.0556 107.864 61.0556 107.44C61.0556 106.912 61.2756 106.48 61.7156 106.144C62.1556 105.808 62.7676 105.64 63.5516 105.64C63.9596 105.64 64.3676 105.696 64.7756 105.808C65.1836 105.912 65.5196 106.052 65.7836 106.228L65.4116 106.912C64.8916 106.552 64.2716 106.372 63.5516 106.372C63.0076 106.372 62.5956 106.468 62.3156 106.66C62.0436 106.852 61.9076 107.104 61.9076 107.416C61.9076 107.656 61.9836 107.848 62.1356 107.992C62.2956 108.136 62.4916 108.244 62.7236 108.316C62.9556 108.38 63.2756 108.448 63.6836 108.52C64.1876 108.616 64.5916 108.712 64.8956 108.808C65.1996 108.904 65.4596 109.068 65.6756 109.3C65.8916 109.532 65.9996 109.852 65.9996 110.26C65.9996 110.812 65.7676 111.252 65.3036 111.58C64.8476 111.9 64.2116 112.06 63.3956 112.06Z" fill="black"/>
</svg>
