<svg width="23" height="21" viewBox="0 0 23 21" fill="none" xmlns="http://www.w3.org/2000/svg">
<g filter="url(#filter0_d)">
<path fill-rule="evenodd" clip-rule="evenodd" d="M15.4371 0.88772C14.4425 0.88772 13.2842 1.53528 11.6601 3.02164C10.036 1.53528 8.87772 0.88772 7.8831 0.88772C6.01657 0.843368 4.2635 1.81291 3.26098 3.444C2.25845 5.0751 2.1524 7.13031 2.98138 8.86275C3.78295 10.5099 9.18408 15.5644 10.8208 17.0725C11.2987 17.5151 12.0215 17.5151 12.4995 17.0725C14.1404 15.5644 19.5499 10.5099 20.3431 8.85406C21.1632 7.12129 21.0522 5.07121 20.0502 3.44422C19.0483 1.81723 17.3001 0.848429 15.4371 0.88772Z" fill="white"/>
<path d="M15.4371 0.88772V1.30781L15.446 1.30763L15.4371 0.88772ZM11.6601 3.02164L11.3766 3.33147L11.6601 3.59097L11.9437 3.33147L11.6601 3.02164ZM7.8831 0.88772L7.87313 1.30772H7.8831V0.88772ZM3.26098 3.444L2.90316 3.22408L3.26098 3.444ZM2.98138 8.86275L2.60251 9.04404L2.60372 9.04653L2.98138 8.86275ZM10.8208 17.0725L11.1062 16.7643L11.1054 16.7636L10.8208 17.0725ZM12.4995 17.0725L12.2152 16.7632L12.214 16.7643L12.4995 17.0725ZM20.3431 8.85406L20.7218 9.0355L20.7227 9.03373L20.3431 8.85406ZM20.0502 3.44422L19.6926 3.66446V3.66446L20.0502 3.44422ZM15.4371 0.46772C14.2679 0.46772 13.0035 1.22285 11.3766 2.7118L11.9437 3.33147C13.565 1.84772 14.6172 1.30772 15.4371 1.30772V0.46772ZM11.9437 2.7118C10.3167 1.22285 9.05238 0.46772 7.8831 0.46772V1.30772C8.70305 1.30772 9.75529 1.84772 11.3766 3.33147L11.9437 2.7118ZM7.89308 0.467838C5.87247 0.419826 3.98151 1.46962 2.90316 3.22408L3.61879 3.66393C4.5455 2.15619 6.16067 1.26691 7.87313 1.3076L7.89308 0.467838ZM2.90316 3.22408C1.82568 4.97713 1.71223 7.18345 2.60252 9.04404L3.36024 8.68147C2.59258 7.07717 2.69122 5.17307 3.61879 3.66393L2.90316 3.22408ZM2.60372 9.04653C2.83266 9.51697 3.35855 10.1815 3.99965 10.9066C4.65231 11.6447 5.46041 12.4848 6.29065 13.3165C7.95177 14.9806 9.71614 16.6257 10.5362 17.3813L11.1054 16.7636C10.2887 16.0111 8.53417 14.375 6.88515 12.723C6.06033 11.8967 5.26556 11.0701 4.62892 10.3501C3.98072 9.61705 3.53089 9.03211 3.35904 8.67897L2.60372 9.04653ZM10.5354 17.3806C11.1743 17.9724 12.1459 17.9724 12.7849 17.3806L12.214 16.7643C11.8972 17.0579 11.4231 17.0579 11.1062 16.7643L10.5354 17.3806ZM12.7837 17.3817C13.6059 16.626 15.3735 14.9807 17.0364 13.3154C17.8674 12.4831 18.6761 11.6421 19.3286 10.9025C19.9693 10.1763 20.4948 9.50939 20.7218 9.0355L19.9643 8.67262C19.7947 9.02666 19.3466 9.61247 18.6987 10.3468C18.0625 11.0678 17.2675 11.8951 16.4419 12.7219C14.7915 14.3748 13.0339 16.0108 12.2153 16.7632L12.7837 17.3817ZM20.7227 9.03373C21.6033 7.17304 21.4846 4.97246 20.4079 3.22398L19.6926 3.66446C20.6198 5.16997 20.723 7.06955 19.9634 8.67439L20.7227 9.03373ZM20.4079 3.22398C19.3302 1.47413 17.4448 0.425285 15.4283 0.467813L15.446 1.30763C17.1555 1.27157 18.7663 2.16033 19.6926 3.66446L20.4079 3.22398Z" fill="#454545"/>
</g>
<defs>
<filter id="filter0_d" x="0.426187" y="0.466263" width="22.4628" height="20.5195" filterUnits="userSpaceOnUse" color-interpolation-filters="sRGB">
<feFlood flood-opacity="0" result="BackgroundImageFix"/>
<feColorMatrix in="SourceAlpha" type="matrix" values="0 0 0 0 0 0 0 0 0 0 0 0 0 0 0 0 0 0 127 0" result="hardAlpha"/>
<feOffset dy="1.58065"/>
<feGaussianBlur stdDeviation="0.790325"/>
<feColorMatrix type="matrix" values="0 0 0 0 0 0 0 0 0 0 0 0 0 0 0 0 0 0 0.25 0"/>
<feBlend mode="normal" in2="BackgroundImageFix" result="effect1_dropShadow"/>
<feBlend mode="normal" in="SourceGraphic" in2="effect1_dropShadow" result="shape"/>
</filter>
</defs>
</svg>
