<svg width="15" height="17" viewBox="0 0 15 17" fill="none" xmlns="http://www.w3.org/2000/svg">
<g clip-path="url(#clip0)">
<path fill-rule="evenodd" clip-rule="evenodd" d="M8.00801 0.151062C4.29186 0.244482 1.30143 3.23491 1.20801 6.95106C1.27106 8.04979 1.57409 9.12137 2.09579 10.0904L2.14867 10.1848C6.2589 16.7733 7.48667 16.7733 8.00801 16.7733C8.82401 16.7733 9.70423 16.1991 11.7858 13.2713C12.8776 11.7602 13.8145 10.2491 13.8522 10.1811L13.9051 10.0904C14.4321 9.12259 14.7403 8.05095 14.808 6.95106C14.7146 3.23491 11.7242 0.244482 8.00801 0.151062ZM12.9191 9.59546C12.9191 9.59546 9.14136 15.6399 8.00802 15.6399C6.87469 15.6399 3.09691 9.59546 3.09691 9.59546C2.65772 8.77861 2.40001 7.87659 2.34136 6.95101C2.34136 3.8214 4.87841 1.28435 8.00802 1.28435C11.1376 1.28435 13.6747 3.8214 13.6747 6.95101C13.6125 7.87745 13.3509 8.77951 12.9078 9.59546H12.9191Z" fill="#454545"/>
<path fill-rule="evenodd" clip-rule="evenodd" d="M8.00806 3.55109C6.33893 3.55109 4.98584 4.90418 4.98584 6.57331C4.98584 8.24244 6.33893 9.59553 8.00806 9.59553C9.67719 9.59553 11.0303 8.24244 11.0303 6.57331C11.0303 4.90418 9.67719 3.55109 8.00806 3.55109ZM8.00802 8.46225C6.96482 8.46225 6.11914 7.61656 6.11914 6.57336C6.11914 5.53015 6.96482 4.68447 8.00802 4.68447C9.05123 4.68447 9.89691 5.53015 9.89691 6.57336C9.89691 7.61656 9.05123 8.46225 8.00802 8.46225Z" fill="#454545"/>
</g>
<defs>
<clipPath id="clip0">
<rect width="13.9502" height="17" fill="white" transform="translate(0.936035)"/>
</clipPath>
</defs>
</svg>
