<svg width="24" height="24" viewBox="0 0 24 24" fill="none" xmlns="http://www.w3.org/2000/svg">
<g clip-path="url(#clip0)">
<path d="M21.7906 19.4817H2.20941C1.00209 19.4817 0 18.5065 0 17.2723V6.72852C0 5.51915 0.97725 4.51917 2.20941 4.51917H21.7906C22.9979 4.51917 24 5.49435 24 6.72852V17.2723C24 18.4817 23.0227 19.4817 21.7906 19.4817ZM2.20941 5.92541C1.76597 5.92541 1.40625 6.28434 1.40625 6.72852V17.2723C1.40625 17.7167 1.76606 18.0754 2.20941 18.0754H21.7906C22.234 18.0754 22.5938 17.7165 22.5938 17.2723V6.72852C22.5938 6.28415 22.2339 5.92541 21.7906 5.92541H2.20941Z" fill="#454545"/>
<path d="M4.46837 8.84872C3.24883 8.84872 2.25977 9.83544 2.25977 11.0573V14.2589C2.25977 14.6472 2.57458 14.962 2.96289 14.962C3.3512 14.962 3.66602 14.6472 3.66602 14.2589V13.4557H5.27228V14.2589C5.27228 14.6472 5.58709 14.962 5.97541 14.962C6.36372 14.962 6.67853 14.6472 6.67853 14.2589V11.0581C6.67853 9.8399 5.68736 8.84872 4.46837 8.84872ZM3.66602 12.0495V11.0573C3.66602 10.6147 4.02381 10.255 4.46913 10.255C4.91195 10.255 5.27228 10.6153 5.27228 11.0581V12.0495H3.66602Z" fill="#454545"/>
<path d="M11.2464 9.03641C10.858 9.03641 10.5432 9.35122 10.5432 9.73953V12.9403C10.5432 13.3831 10.1829 13.7435 9.73937 13.7435C9.29711 13.7435 8.93701 13.3858 8.93701 12.9411V9.73953C8.93701 9.35122 8.6222 9.03641 8.23389 9.03641C7.84557 9.03641 7.53076 9.35122 7.53076 9.73953V12.9411C7.53076 14.1611 8.51767 15.1497 9.74012 15.1497C10.9584 15.1497 11.9495 14.1585 11.9495 12.9403V9.73953C11.9495 9.35122 11.6347 9.03641 11.2464 9.03641Z" fill="#454545"/>
<path d="M19.5307 8.84891H19.5299C18.3104 8.84891 17.3213 9.83567 17.3213 11.0575V12.9419C17.3213 14.1619 18.3082 15.1505 19.5307 15.1505C20.7401 15.1505 21.7401 14.1733 21.7401 12.9411V11.0583C21.7401 9.84327 20.7578 8.84891 19.5307 8.84891ZM20.3338 12.9411C20.3338 13.3807 19.9787 13.7443 19.5299 13.7443C19.0876 13.7443 18.7276 13.3865 18.7276 12.9419V11.0575C18.7276 10.6135 19.0871 10.2552 19.5299 10.2552H19.5307C19.9732 10.2552 20.3339 10.6132 20.3339 11.0583V12.9411H20.3338Z" fill="#454545"/>
<path d="M16.1428 9.03641H13.1304C12.7421 9.03641 12.4272 9.35122 12.4272 9.73953C12.4272 10.1278 12.7421 10.4427 13.1304 10.4427H13.9335V14.2583C13.9335 14.6466 14.2483 14.9614 14.6367 14.9614C15.025 14.9614 15.3398 14.6466 15.3398 14.2583V10.4427H16.1429C16.5312 10.4427 16.846 10.1278 16.846 9.73953C16.846 9.35122 16.5312 9.03641 16.1428 9.03641Z" fill="#454545"/>
</g>
<defs>
<clipPath id="clip0">
<rect width="24" height="24" fill="white"/>
</clipPath>
</defs>
</svg>
