<svg width="23" height="22" viewBox="0 0 23 22" fill="none" xmlns="http://www.w3.org/2000/svg">
<g clip-path="url(#clip0)">
<path fill-rule="evenodd" clip-rule="evenodd" d="M11.3463 13.3621C14.3637 13.3621 16.8225 10.4159 16.8225 6.79067C16.8225 3.16543 14.3637 0.219238 11.3463 0.219238C8.32893 0.219238 5.87012 3.16543 5.87012 6.79067C5.87012 10.4159 8.3344 13.3621 11.3463 13.3621ZM11.3469 1.86228C13.4662 1.86228 15.1803 4.05276 15.1803 6.79086C15.1803 9.52895 13.4662 11.7194 11.3469 11.7194C9.22763 11.7194 7.51358 9.52895 7.51358 6.79086C7.51358 4.05276 9.22763 1.86228 11.3469 1.86228Z" fill="#6D6D6D"/>
<path fill-rule="evenodd" clip-rule="evenodd" d="M16.357 12.8146C15.9034 12.7692 15.4988 13.1002 15.4535 13.5539C15.4081 14.0075 15.7391 14.4121 16.1927 14.4574C18.7403 14.7568 20.714 16.8271 20.8913 19.386H1.80131C1.99543 16.8345 3.96056 14.7732 6.49988 14.4574C6.95354 14.4121 7.28453 14.0075 7.23916 13.5539C7.1938 13.1002 6.78926 12.7692 6.33559 12.8146C6.27536 12.8146 0.120117 13.5155 0.120117 20.202C0.120117 20.6556 0.487883 21.0234 0.941546 21.0234H21.7511C22.2047 21.0234 22.5725 20.6556 22.5725 20.202C22.5725 13.5155 16.4173 12.8146 16.357 12.8146Z" fill="#6D6D6D"/>
</g>
<defs>
<clipPath id="clip0">
<rect width="23" height="21.3571" fill="white"/>
</clipPath>
</defs>
</svg>
