<svg width="17" height="14" viewBox="0 0 17 14" fill="none" xmlns="http://www.w3.org/2000/svg">
<path fill-rule="evenodd" clip-rule="evenodd" d="M7.04404 8.29623C8.91744 8.29623 10.444 6.46703 10.444 4.21623C10.444 1.96543 8.91744 0.13623 7.04404 0.13623C5.17064 0.13623 3.64404 1.96543 3.64404 4.21623C3.64404 6.46703 5.17404 8.29623 7.04404 8.29623ZM7.04492 1.15537C8.36072 1.15537 9.42492 2.51537 9.42492 4.21537C9.42492 5.91537 8.36072 7.27537 7.04492 7.27537C5.72912 7.27537 4.66492 5.91537 4.66492 4.21537C4.66492 2.51537 5.72912 1.15537 7.04492 1.15537Z" fill="#454545"/>
<path fill-rule="evenodd" clip-rule="evenodd" d="M10.1552 7.95543C9.87355 7.92727 9.62239 8.13277 9.59422 8.41443C9.56605 8.6961 9.77155 8.94727 10.0532 8.97543C11.6349 9.16129 12.8603 10.4467 12.9704 12.0354H1.11802C1.23854 10.4513 2.45863 9.17147 4.03522 8.97543C4.31688 8.94727 4.52239 8.6961 4.49422 8.41443C4.46605 8.13277 4.21488 7.92727 3.93322 7.95543C3.89582 7.95543 0.0742188 8.39063 0.0742188 12.542C0.0742188 12.8237 0.302554 13.052 0.584219 13.052H13.5042C13.7859 13.052 14.0142 12.8237 14.0142 12.542C14.0142 8.39063 10.1926 7.95543 10.1552 7.95543Z" fill="#454545"/>
</svg>
