<svg width="34" height="34" viewBox="0 0 34 34" fill="none" xmlns="http://www.w3.org/2000/svg">
<path d="M0.237654 19.8167C0.608315 22.0445 1.42247 24.1751 2.63187 26.0824C7.01653 24.8599 10.8728 22.548 12.2441 17.3957C13.7529 11.725 12.0316 5.78084 7.9133 2.63169C2.30319 6.18316 -0.931118 12.8597 0.237654 19.8167ZM33.7623 14.1857C35.3178 23.4419 29.0759 32.2079 19.8164 33.762C18.258 34.024 16.7138 34.0651 15.2192 33.9079C12.8476 33.6561 10.5553 32.9092 8.49066 31.7154C6.42605 30.5216 4.63517 28.9075 3.23396 26.9777L30.7575 19.0872C31.1527 18.9738 31.0507 18.5928 30.7235 18.6154L19.1845 19.4215C20.8109 17.8519 22.0476 15.9267 21.8975 13.2663C21.5943 8.95549 17.2068 4.74812 9.04665 1.98004C12.0317 0.398936 15.4196 -0.258399 18.7793 0.0916864C26.1858 0.867995 32.4688 6.48348 33.7623 14.1871" fill="#6F87B1"/>
</svg>
