<svg width="11" height="15" viewBox="0 0 11 15" fill="none" xmlns="http://www.w3.org/2000/svg">
<path fill-rule="evenodd" clip-rule="evenodd" d="M9.90641 1.46695H7.60308C7.25315 0.658073 6.45607 0.13443 5.57475 0.13443C4.69342 0.13443 3.89634 0.658073 3.54641 1.46695H1.23975C0.687461 1.46695 0.239746 1.91467 0.239746 2.46695V12.8003C0.239746 13.3526 0.687461 13.8003 1.23975 13.8003H9.90641C10.4587 13.8003 10.9064 13.3526 10.9064 12.8003V2.46695C10.9064 1.91467 10.4587 1.46695 9.90641 1.46695ZM5.57388 1.13248C5.88993 1.12247 6.19616 1.24303 6.42055 1.46581H4.74055C4.96171 1.24642 5.26242 1.12613 5.57388 1.13248ZM9.9071 12.7991H1.24044V2.46577H9.9071V12.7991Z" fill="#454545"/>
<path fill-rule="evenodd" clip-rule="evenodd" d="M3.24023 14.8005C3.51638 14.8005 3.74023 14.5767 3.74023 14.3005C3.74023 14.0244 3.51638 13.8005 3.24023 13.8005C2.96409 13.8005 2.74023 14.0244 2.74023 14.3005C2.74023 14.5767 2.96409 14.8005 3.24023 14.8005Z" fill="#454545"/>
<path fill-rule="evenodd" clip-rule="evenodd" d="M7.90674 14.8005C8.18288 14.8005 8.40674 14.5767 8.40674 14.3005C8.40674 14.0244 8.18288 13.8005 7.90674 13.8005C7.6306 13.8005 7.40674 14.0244 7.40674 14.3005C7.40674 14.5767 7.6306 14.8005 7.90674 14.8005Z" fill="#454545"/>
<rect x="2.23926" y="3.46738" width="0.666667" height="8.33333" fill="#454545"/>
<rect x="4.24023" y="3.46738" width="0.666667" height="8.33333" fill="#454545"/>
<rect x="6.24023" y="3.46738" width="0.666667" height="8.33333" fill="#454545"/>
<rect x="8.24023" y="3.46738" width="0.666667" height="8.33333" fill="#454545"/>
</svg>
